<?xml version="1.0" encoding="UTF-8" standalone="no"?>
<!DOCTYPE svg PUBLIC "-//W3C//DTD SVG 1.1//EN"
 "http://www.w3.org/Graphics/SVG/1.1/DTD/svg11.dtd">
<!-- Generated by graphviz version 2.38.0 (20140413.2041)
 -->
<!-- Title: bfl::ObservationModel Pages: 1 -->
<svg width="268pt" height="84pt"
 viewBox="0.00 0.00 267.50 84.00" xmlns="http://www.w3.org/2000/svg" xmlns:xlink="http://www.w3.org/1999/xlink">
<g id="graph0" class="graph" transform="scale(1 1) rotate(0) translate(4 80)">
<title>bfl::ObservationModel</title>
<polygon fill="white" stroke="none" points="-4,4 -4,-80 263.5,-80 263.5,4 -4,4"/>
<!-- Node0 -->
<g id="node1" class="node"><title>Node0</title>
<polygon fill="#bfbfbf" stroke="black" points="58.5,-56.5 58.5,-75.5 168.5,-75.5 168.5,-56.5 58.5,-56.5"/>
<text text-anchor="middle" x="113.5" y="-63.5" font-family="Helvetica,sans-Serif" font-size="10.00">bfl::ObservationModel</text>
</g>
<!-- Node1 -->
<g id="node2" class="node"><title>Node1</title>
<g id="a_node2"><a xlink:href="classbfl_1_1LinearSensor.html" target="_top" xlink:title="bfl::LinearSensor">
<polygon fill="white" stroke="black" points="0,-0.5 0,-19.5 89,-19.5 89,-0.5 0,-0.5"/>
<text text-anchor="middle" x="44.5" y="-7.5" font-family="Helvetica,sans-Serif" font-size="10.00">bfl::LinearSensor</text>
</a>
</g>
</g>
<!-- Node0&#45;&gt;Node1 -->
<g id="edge1" class="edge"><title>Node0&#45;&gt;Node1</title>
<path fill="none" stroke="midnightblue" d="M94.4621,-50.1008C82.0442,-40.3824 66.2566,-28.0269 55.7878,-19.8339"/>
<polygon fill="midnightblue" stroke="midnightblue" points="92.3818,-52.9171 102.414,-56.324 96.696,-47.4046 92.3818,-52.9171"/>
</g>
<!-- Node2 -->
<g id="node3" class="node"><title>Node2</title>
<g id="a_node3"><a xlink:href="classbfl_1_1ObservationModelDecorator.html" target="_top" xlink:title="bfl::ObservationModelDecorator">
<polygon fill="white" stroke="black" points="107.5,-0.5 107.5,-19.5 259.5,-19.5 259.5,-0.5 107.5,-0.5"/>
<text text-anchor="middle" x="183.5" y="-7.5" font-family="Helvetica,sans-Serif" font-size="10.00">bfl::ObservationModelDecorator</text>
</a>
</g>
</g>
<!-- Node0&#45;&gt;Node2 -->
<g id="edge2" class="edge"><title>Node0&#45;&gt;Node2</title>
<path fill="none" stroke="midnightblue" d="M132.814,-50.1008C145.412,-40.3824 161.428,-28.0269 172.049,-19.8339"/>
<polygon fill="midnightblue" stroke="midnightblue" points="130.527,-47.4446 124.747,-56.324 134.802,-52.9871 130.527,-47.4446"/>
</g>
</g>
</svg>
