<?xml version="1.0" encoding="UTF-8" standalone="no"?>
<!DOCTYPE svg PUBLIC "-//W3C//DTD SVG 1.1//EN"
 "http://www.w3.org/Graphics/SVG/1.1/DTD/svg11.dtd">
<!-- Generated by graphviz version 2.38.0 (20140413.2041)
 -->
<!-- Title: bfl::PFPrediction Pages: 1 -->
<svg width="250pt" height="84pt"
 viewBox="0.00 0.00 249.50 84.00" xmlns="http://www.w3.org/2000/svg" xmlns:xlink="http://www.w3.org/1999/xlink">
<g id="graph0" class="graph" transform="scale(1 1) rotate(0) translate(4 80)">
<title>bfl::PFPrediction</title>
<polygon fill="white" stroke="none" points="-4,4 -4,-80 245.5,-80 245.5,4 -4,4"/>
<!-- Node0 -->
<g id="node1" class="node"><title>Node0</title>
<polygon fill="#bfbfbf" stroke="black" points="66.5,-56.5 66.5,-75.5 155.5,-75.5 155.5,-56.5 66.5,-56.5"/>
<text text-anchor="middle" x="111" y="-63.5" font-family="Helvetica,sans-Serif" font-size="10.00">bfl::PFPrediction</text>
</g>
<!-- Node1 -->
<g id="node2" class="node"><title>Node1</title>
<g id="a_node2"><a xlink:href="classbfl_1_1DrawParticles.html" target="_top" xlink:title="bfl::DrawParticles">
<polygon fill="white" stroke="black" points="0,-0.5 0,-19.5 92,-19.5 92,-0.5 0,-0.5"/>
<text text-anchor="middle" x="46" y="-7.5" font-family="Helvetica,sans-Serif" font-size="10.00">bfl::DrawParticles</text>
</a>
</g>
</g>
<!-- Node0&#45;&gt;Node1 -->
<g id="edge1" class="edge"><title>Node0&#45;&gt;Node1</title>
<path fill="none" stroke="midnightblue" d="M92.7274,-49.8197C81.0822,-40.1452 66.4005,-27.9481 56.6334,-19.8339"/>
<polygon fill="midnightblue" stroke="midnightblue" points="90.6281,-52.6259 100.557,-56.324 95.1013,-47.2416 90.6281,-52.6259"/>
</g>
<!-- Node2 -->
<g id="node3" class="node"><title>Node2</title>
<g id="a_node3"><a xlink:href="classbfl_1_1PFPredictionDecorator.html" target="_top" xlink:title="bfl::PFPredictionDecorator">
<polygon fill="white" stroke="black" points="110.5,-0.5 110.5,-19.5 241.5,-19.5 241.5,-0.5 110.5,-0.5"/>
<text text-anchor="middle" x="176" y="-7.5" font-family="Helvetica,sans-Serif" font-size="10.00">bfl::PFPredictionDecorator</text>
</a>
</g>
</g>
<!-- Node0&#45;&gt;Node2 -->
<g id="edge2" class="edge"><title>Node0&#45;&gt;Node2</title>
<path fill="none" stroke="midnightblue" d="M129.273,-49.8197C140.918,-40.1452 155.599,-27.9481 165.367,-19.8339"/>
<polygon fill="midnightblue" stroke="midnightblue" points="126.899,-47.2416 121.443,-56.324 131.372,-52.6259 126.899,-47.2416"/>
</g>
</g>
</svg>
