<?xml version="1.0" encoding="UTF-8" standalone="no"?>
<!DOCTYPE svg PUBLIC "-//W3C//DTD SVG 1.1//EN"
 "http://www.w3.org/Graphics/SVG/1.1/DTD/svg11.dtd">
<!-- Generated by graphviz version 2.38.0 (20140413.2041)
 -->
<!-- Title: bfl::StateModel Pages: 1 -->
<svg width="288pt" height="84pt"
 viewBox="0.00 0.00 287.50 84.00" xmlns="http://www.w3.org/2000/svg" xmlns:xlink="http://www.w3.org/1999/xlink">
<g id="graph0" class="graph" transform="scale(1 1) rotate(0) translate(4 80)">
<title>bfl::StateModel</title>
<polygon fill="white" stroke="none" points="-4,4 -4,-80 283.5,-80 283.5,4 -4,4"/>
<!-- Node0 -->
<g id="node1" class="node"><title>Node0</title>
<polygon fill="#bfbfbf" stroke="black" points="95,-56.5 95,-75.5 177,-75.5 177,-56.5 95,-56.5"/>
<text text-anchor="middle" x="136" y="-63.5" font-family="Helvetica,sans-Serif" font-size="10.00">bfl::StateModel</text>
</g>
<!-- Node1 -->
<g id="node2" class="node"><title>Node1</title>
<g id="a_node2"><a xlink:href="classbfl_1_1StateModelDecorator.html" target="_top" xlink:title="bfl::StateModelDecorator">
<polygon fill="white" stroke="black" points="0,-0.5 0,-19.5 124,-19.5 124,-0.5 0,-0.5"/>
<text text-anchor="middle" x="62" y="-7.5" font-family="Helvetica,sans-Serif" font-size="10.00">bfl::StateModelDecorator</text>
</a>
</g>
</g>
<!-- Node0&#45;&gt;Node1 -->
<g id="edge1" class="edge"><title>Node0&#45;&gt;Node1</title>
<path fill="none" stroke="midnightblue" d="M115.966,-50.3804C102.591,-40.6204 85.4412,-28.1057 74.1057,-19.8339"/>
<polygon fill="midnightblue" stroke="midnightblue" points="113.97,-53.2565 124.111,-56.324 118.096,-47.602 113.97,-53.2565"/>
</g>
<!-- Node2 -->
<g id="node3" class="node"><title>Node2</title>
<g id="a_node3"><a xlink:href="classbfl_1_1WhiteNoiseAcceleration.html" target="_top" xlink:title="bfl::WhiteNoiseAcceleration">
<polygon fill="white" stroke="black" points="142.5,-0.5 142.5,-19.5 279.5,-19.5 279.5,-0.5 142.5,-0.5"/>
<text text-anchor="middle" x="211" y="-7.5" font-family="Helvetica,sans-Serif" font-size="10.00">bfl::WhiteNoiseAcceleration</text>
</a>
</g>
</g>
<!-- Node0&#45;&gt;Node2 -->
<g id="edge2" class="edge"><title>Node0&#45;&gt;Node2</title>
<path fill="none" stroke="midnightblue" d="M156.305,-50.3804C169.861,-40.6204 187.242,-28.1057 198.731,-19.8339"/>
<polygon fill="midnightblue" stroke="midnightblue" points="154.12,-47.6405 148.05,-56.324 158.21,-53.3213 154.12,-47.6405"/>
</g>
</g>
</svg>
