<?xml version="1.0" encoding="UTF-8" standalone="no"?>
<!DOCTYPE svg PUBLIC "-//W3C//DTD SVG 1.1//EN"
 "http://www.w3.org/Graphics/SVG/1.1/DTD/svg11.dtd">
<!-- Generated by graphviz version 2.38.0 (20140413.2041)
 -->
<!-- Title: bfl::LinearSensor::measure Pages: 1 -->
<svg width="234pt" height="88pt"
 viewBox="0.00 0.00 234.00 88.00" xmlns="http://www.w3.org/2000/svg" xmlns:xlink="http://www.w3.org/1999/xlink">
<g id="graph0" class="graph" transform="scale(1 1) rotate(0) translate(4 84)">
<title>bfl::LinearSensor::measure</title>
<polygon fill="white" stroke="none" points="-4,4 -4,-84 230,-84 230,4 -4,4"/>
<!-- Node8 -->
<g id="node1" class="node"><title>Node8</title>
<polygon fill="#bfbfbf" stroke="black" points="0,-24.5 0,-54.5 95,-54.5 95,-24.5 0,-24.5"/>
<text text-anchor="start" x="8" y="-42.5" font-family="Helvetica,sans-Serif" font-size="10.00">bfl::LinearSensor::</text>
<text text-anchor="middle" x="47.5" y="-31.5" font-family="Helvetica,sans-Serif" font-size="10.00">measure</text>
</g>
<!-- Node9 -->
<g id="node2" class="node"><title>Node9</title>
<g id="a_node2"><a xlink:href="classbfl_1_1LinearSensor.html#a5079f70d2a2995cff4ad3210dd1795f7" target="_top" xlink:title="bfl::LinearSensor::\lgetNoiseSample">
<polygon fill="white" stroke="black" points="131,-49.5 131,-79.5 226,-79.5 226,-49.5 131,-49.5"/>
<text text-anchor="start" x="139" y="-67.5" font-family="Helvetica,sans-Serif" font-size="10.00">bfl::LinearSensor::</text>
<text text-anchor="middle" x="178.5" y="-56.5" font-family="Helvetica,sans-Serif" font-size="10.00">getNoiseSample</text>
</a>
</g>
</g>
<!-- Node8&#45;&gt;Node9 -->
<g id="edge1" class="edge"><title>Node8&#45;&gt;Node9</title>
<path fill="none" stroke="midnightblue" d="M95.072,-48.5256C103.475,-50.1541 112.319,-51.8681 120.969,-53.5444"/>
<polygon fill="midnightblue" stroke="midnightblue" points="120.513,-57.0211 130.996,-55.4877 121.845,-50.1489 120.513,-57.0211"/>
</g>
<!-- Node10 -->
<g id="node3" class="node"><title>Node10</title>
<g id="a_node3"><a xlink:href="classbfl_1_1LinearSensor.html#ae53acb6051164c0bcd32d5a6f88e5962" target="_top" xlink:title="bfl::LinearSensor::\lobserve">
<polygon fill="white" stroke="black" points="131,-0.5 131,-30.5 226,-30.5 226,-0.5 131,-0.5"/>
<text text-anchor="start" x="139" y="-18.5" font-family="Helvetica,sans-Serif" font-size="10.00">bfl::LinearSensor::</text>
<text text-anchor="middle" x="178.5" y="-7.5" font-family="Helvetica,sans-Serif" font-size="10.00">observe</text>
</a>
</g>
</g>
<!-- Node8&#45;&gt;Node10 -->
<g id="edge2" class="edge"><title>Node8&#45;&gt;Node10</title>
<path fill="none" stroke="midnightblue" d="M95.072,-30.8354C103.475,-29.2721 112.319,-27.6266 120.969,-26.0173"/>
<polygon fill="midnightblue" stroke="midnightblue" points="121.805,-29.4219 130.996,-24.1518 120.525,-22.54 121.805,-29.4219"/>
</g>
</g>
</svg>
