<?xml version="1.0" encoding="UTF-8" standalone="no"?>
<!DOCTYPE svg PUBLIC "-//W3C//DTD SVG 1.1//EN"
 "http://www.w3.org/Graphics/SVG/1.1/DTD/svg11.dtd">
<!-- Generated by graphviz version 2.38.0 (20140413.2041)
 -->
<!-- Title: bfl::ParticleFilter::setInitialization Pages: 1 -->
<svg width="239pt" height="39pt"
 viewBox="0.00 0.00 239.00 39.00" xmlns="http://www.w3.org/2000/svg" xmlns:xlink="http://www.w3.org/1999/xlink">
<g id="graph0" class="graph" transform="scale(1 1) rotate(0) translate(4 35)">
<title>bfl::ParticleFilter::setInitialization</title>
<polygon fill="white" stroke="none" points="-4,4 -4,-35 235,-35 235,4 -4,4"/>
<!-- Node20 -->
<g id="node1" class="node"><title>Node20</title>
<polygon fill="#bfbfbf" stroke="black" points="0,-0.5 0,-30.5 87,-30.5 87,-0.5 0,-0.5"/>
<text text-anchor="start" x="8" y="-18.5" font-family="Helvetica,sans-Serif" font-size="10.00">bfl::ParticleFilter</text>
<text text-anchor="middle" x="43.5" y="-7.5" font-family="Helvetica,sans-Serif" font-size="10.00">::setInitialization</text>
</g>
<!-- Node21 -->
<g id="node2" class="node"><title>Node21</title>
<g id="a_node2"><a xlink:href="classbfl_1_1FilteringAlgorithm.html#af2a072aa51407fe5544bdbb7ce466e2a" target="_top" xlink:title="bfl::FilteringAlgorithm\l::initialization">
<polygon fill="white" stroke="black" points="123,-0.5 123,-30.5 231,-30.5 231,-0.5 123,-0.5"/>
<text text-anchor="start" x="131" y="-18.5" font-family="Helvetica,sans-Serif" font-size="10.00">bfl::FilteringAlgorithm</text>
<text text-anchor="middle" x="177" y="-7.5" font-family="Helvetica,sans-Serif" font-size="10.00">::initialization</text>
</a>
</g>
</g>
<!-- Node20&#45;&gt;Node21 -->
<g id="edge1" class="edge"><title>Node20&#45;&gt;Node21</title>
<path fill="none" stroke="midnightblue" d="M87.1943,-15.5C95.3874,-15.5 104.127,-15.5 112.808,-15.5"/>
<polygon fill="midnightblue" stroke="midnightblue" points="112.934,-19.0001 122.934,-15.5 112.934,-12.0001 112.934,-19.0001"/>
</g>
</g>
</svg>
