<?xml version="1.0" encoding="UTF-8" standalone="no"?>
<!DOCTYPE svg PUBLIC "-//W3C//DTD SVG 1.1//EN"
 "http://www.w3.org/Graphics/SVG/1.1/DTD/svg11.dtd">
<!-- Generated by graphviz version 2.38.0 (20140413.2041)
 -->
<!-- Title: bfl::FilteringAlgorithm Pages: 1 -->
<svg width="370pt" height="142pt"
 viewBox="0.00 0.00 370.00 142.00" xmlns="http://www.w3.org/2000/svg" xmlns:xlink="http://www.w3.org/1999/xlink">
<g id="graph0" class="graph" transform="scale(1 1) rotate(0) translate(4 138)">
<title>bfl::FilteringAlgorithm</title>
<polygon fill="white" stroke="none" points="-4,4 -4,-138 366,-138 366,4 -4,4"/>
<!-- Node0 -->
<g id="node1" class="node"><title>Node0</title>
<polygon fill="#bfbfbf" stroke="black" points="0,-57.5 0,-76.5 108,-76.5 108,-57.5 0,-57.5"/>
<text text-anchor="middle" x="54" y="-64.5" font-family="Helvetica,sans-Serif" font-size="10.00">bfl::FilteringAlgorithm</text>
</g>
<!-- Node1 -->
<g id="node2" class="node"><title>Node1</title>
<g id="a_node2"><a xlink:href="classbfl_1_1KalmanFilter.html" target="_top" xlink:title="bfl::KalmanFilter">
<polygon fill="white" stroke="black" points="167.5,-114.5 167.5,-133.5 254.5,-133.5 254.5,-114.5 167.5,-114.5"/>
<text text-anchor="middle" x="211" y="-121.5" font-family="Helvetica,sans-Serif" font-size="10.00">bfl::KalmanFilter</text>
</a>
</g>
</g>
<!-- Node0&#45;&gt;Node1 -->
<g id="edge1" class="edge"><title>Node0&#45;&gt;Node1</title>
<path fill="none" stroke="midnightblue" d="M85.022,-80.9131C102.106,-88.5523 124.02,-97.8894 144,-105 153.548,-108.398 164.032,-111.634 173.778,-114.442"/>
<polygon fill="midnightblue" stroke="midnightblue" points="86.1265,-77.5714 75.5726,-76.6411 83.2429,-83.9499 86.1265,-77.5714"/>
</g>
<!-- Node2 -->
<g id="node3" class="node"><title>Node2</title>
<g id="a_node3"><a xlink:href="classbfl_1_1ParticleFilter.html" target="_top" xlink:title="bfl::ParticleFilter">
<polygon fill="white" stroke="black" points="167.5,-76.5 167.5,-95.5 254.5,-95.5 254.5,-76.5 167.5,-76.5"/>
<text text-anchor="middle" x="211" y="-83.5" font-family="Helvetica,sans-Serif" font-size="10.00">bfl::ParticleFilter</text>
</a>
</g>
</g>
<!-- Node0&#45;&gt;Node2 -->
<g id="edge2" class="edge"><title>Node0&#45;&gt;Node2</title>
<path fill="none" stroke="midnightblue" d="M118.444,-74.7771C134.895,-76.7936 152.22,-78.9173 167.319,-80.7681"/>
<polygon fill="midnightblue" stroke="midnightblue" points="118.694,-71.2815 108.342,-73.5387 117.842,-78.2295 118.694,-71.2815"/>
</g>
<!-- Node4 -->
<g id="node5" class="node"><title>Node4</title>
<g id="a_node5"><a xlink:href="classbfl_1_1UnscentedKalmanFilter.html" target="_top" xlink:title="bfl::UnscentedKalmanFilter">
<polygon fill="white" stroke="black" points="144,-38.5 144,-57.5 278,-57.5 278,-38.5 144,-38.5"/>
<text text-anchor="middle" x="211" y="-45.5" font-family="Helvetica,sans-Serif" font-size="10.00">bfl::UnscentedKalmanFilter</text>
</a>
</g>
</g>
<!-- Node0&#45;&gt;Node4 -->
<g id="edge4" class="edge"><title>Node0&#45;&gt;Node4</title>
<path fill="none" stroke="midnightblue" d="M118.459,-59.2211C126.869,-58.1903 135.507,-57.1314 143.959,-56.0954"/>
<polygon fill="midnightblue" stroke="midnightblue" points="117.842,-55.7705 108.342,-60.4613 118.694,-62.7185 117.842,-55.7705"/>
</g>
<!-- Node5 -->
<g id="node6" class="node"><title>Node5</title>
<g id="a_node6"><a xlink:href="classbfl_1_1VisualParticleFilter.html" target="_top" xlink:title="bfl::VisualParticleFilter">
<polygon fill="white" stroke="black" points="154,-0.5 154,-19.5 268,-19.5 268,-0.5 154,-0.5"/>
<text text-anchor="middle" x="211" y="-7.5" font-family="Helvetica,sans-Serif" font-size="10.00">bfl::VisualParticleFilter</text>
</a>
</g>
</g>
<!-- Node0&#45;&gt;Node5 -->
<g id="edge5" class="edge"><title>Node0&#45;&gt;Node5</title>
<path fill="none" stroke="midnightblue" d="M85.022,-53.0869C102.106,-45.4477 124.02,-36.1106 144,-29 153.548,-25.6018 164.032,-22.3655 173.778,-19.5583"/>
<polygon fill="midnightblue" stroke="midnightblue" points="83.2429,-50.0501 75.5726,-57.3589 86.1265,-56.4286 83.2429,-50.0501"/>
</g>
<!-- Node3 -->
<g id="node4" class="node"><title>Node3</title>
<g id="a_node4"><a xlink:href="classbfl_1_1SIS.html" target="_top" xlink:title="bfl::SIS">
<polygon fill="white" stroke="black" points="314,-76.5 314,-95.5 362,-95.5 362,-76.5 314,-76.5"/>
<text text-anchor="middle" x="338" y="-83.5" font-family="Helvetica,sans-Serif" font-size="10.00">bfl::SIS</text>
</a>
</g>
</g>
<!-- Node2&#45;&gt;Node3 -->
<g id="edge3" class="edge"><title>Node2&#45;&gt;Node3</title>
<path fill="none" stroke="midnightblue" d="M265.095,-86C282.114,-86 300.085,-86 313.804,-86"/>
<polygon fill="midnightblue" stroke="midnightblue" points="264.668,-82.5001 254.668,-86 264.668,-89.5001 264.668,-82.5001"/>
</g>
</g>
</svg>
