<?xml version="1.0" encoding="UTF-8" standalone="no"?>
<!DOCTYPE svg PUBLIC "-//W3C//DTD SVG 1.1//EN"
 "http://www.w3.org/Graphics/SVG/1.1/DTD/svg11.dtd">
<!-- Generated by graphviz version 2.38.0 (20140413.2041)
 -->
<!-- Title: bfl::FilteringAlgorithm::filteringRecursion Pages: 1 -->
<svg width="260pt" height="137pt"
 viewBox="0.00 0.00 260.00 137.00" xmlns="http://www.w3.org/2000/svg" xmlns:xlink="http://www.w3.org/1999/xlink">
<g id="graph0" class="graph" transform="scale(1 1) rotate(0) translate(4 133)">
<title>bfl::FilteringAlgorithm::filteringRecursion</title>
<polygon fill="white" stroke="none" points="-4,4 -4,-133 256,-133 256,4 -4,4"/>
<!-- Node6 -->
<g id="node1" class="node"><title>Node6</title>
<polygon fill="#bfbfbf" stroke="black" points="0,-49.5 0,-79.5 108,-79.5 108,-49.5 0,-49.5"/>
<text text-anchor="start" x="8" y="-67.5" font-family="Helvetica,sans-Serif" font-size="10.00">bfl::FilteringAlgorithm</text>
<text text-anchor="middle" x="54" y="-56.5" font-family="Helvetica,sans-Serif" font-size="10.00">::filteringRecursion</text>
</g>
<!-- Node7 -->
<g id="node2" class="node"><title>Node7</title>
<g id="a_node2"><a xlink:href="classbfl_1_1FilteringAlgorithm.html#ab3bceb43b5810a4bf1da884b8a0b145a" target="_top" xlink:title="bfl::FilteringAlgorithm\l::filteringStep">
<polygon fill="white" stroke="black" points="144,-98.5 144,-128.5 252,-128.5 252,-98.5 144,-98.5"/>
<text text-anchor="start" x="152" y="-116.5" font-family="Helvetica,sans-Serif" font-size="10.00">bfl::FilteringAlgorithm</text>
<text text-anchor="middle" x="198" y="-105.5" font-family="Helvetica,sans-Serif" font-size="10.00">::filteringStep</text>
</a>
</g>
</g>
<!-- Node6&#45;&gt;Node7 -->
<g id="edge1" class="edge"><title>Node6&#45;&gt;Node7</title>
<path fill="none" stroke="midnightblue" d="M98.7634,-79.6014C112.935,-84.4917 128.813,-89.9707 143.603,-95.0744"/>
<polygon fill="midnightblue" stroke="midnightblue" points="142.542,-98.4106 153.137,-98.3641 144.825,-91.7935 142.542,-98.4106"/>
</g>
<!-- Node8 -->
<g id="node3" class="node"><title>Node8</title>
<g id="a_node3"><a xlink:href="classbfl_1_1FilteringAlgorithm.html#af2a072aa51407fe5544bdbb7ce466e2a" target="_top" xlink:title="bfl::FilteringAlgorithm\l::initialization">
<polygon fill="white" stroke="black" points="144,-49.5 144,-79.5 252,-79.5 252,-49.5 144,-49.5"/>
<text text-anchor="start" x="152" y="-67.5" font-family="Helvetica,sans-Serif" font-size="10.00">bfl::FilteringAlgorithm</text>
<text text-anchor="middle" x="198" y="-56.5" font-family="Helvetica,sans-Serif" font-size="10.00">::initialization</text>
</a>
</g>
</g>
<!-- Node6&#45;&gt;Node8 -->
<g id="edge2" class="edge"><title>Node6&#45;&gt;Node8</title>
<path fill="none" stroke="midnightblue" d="M108.28,-64.5C116.56,-64.5 125.184,-64.5 133.661,-64.5"/>
<polygon fill="midnightblue" stroke="midnightblue" points="133.894,-68.0001 143.894,-64.5 133.894,-61.0001 133.894,-68.0001"/>
</g>
<!-- Node9 -->
<g id="node4" class="node"><title>Node9</title>
<g id="a_node4"><a xlink:href="classbfl_1_1FilteringAlgorithm.html#a5fc12882356f6906b102fbfff2bc4b7c" target="_top" xlink:title="bfl::FilteringAlgorithm\l::runCondition">
<polygon fill="white" stroke="black" points="144,-0.5 144,-30.5 252,-30.5 252,-0.5 144,-0.5"/>
<text text-anchor="start" x="152" y="-18.5" font-family="Helvetica,sans-Serif" font-size="10.00">bfl::FilteringAlgorithm</text>
<text text-anchor="middle" x="198" y="-7.5" font-family="Helvetica,sans-Serif" font-size="10.00">::runCondition</text>
</a>
</g>
</g>
<!-- Node6&#45;&gt;Node9 -->
<g id="edge3" class="edge"><title>Node6&#45;&gt;Node9</title>
<path fill="none" stroke="midnightblue" d="M98.7634,-49.3986C112.935,-44.5083 128.813,-39.0293 143.603,-33.9256"/>
<polygon fill="midnightblue" stroke="midnightblue" points="144.825,-37.2065 153.137,-30.6359 142.542,-30.5894 144.825,-37.2065"/>
</g>
</g>
</svg>
