<?xml version="1.0" encoding="UTF-8" standalone="no"?>
<!DOCTYPE svg PUBLIC "-//W3C//DTD SVG 1.1//EN"
 "http://www.w3.org/Graphics/SVG/1.1/DTD/svg11.dtd">
<!-- Generated by graphviz version 2.38.0 (20140413.2041)
 -->
<!-- Title: bfl::VisualParticleFilter::setInitialization Pages: 1 -->
<svg width="266pt" height="39pt"
 viewBox="0.00 0.00 266.00 39.00" xmlns="http://www.w3.org/2000/svg" xmlns:xlink="http://www.w3.org/1999/xlink">
<g id="graph0" class="graph" transform="scale(1 1) rotate(0) translate(4 35)">
<title>bfl::VisualParticleFilter::setInitialization</title>
<polygon fill="white" stroke="none" points="-4,4 -4,-35 262,-35 262,4 -4,4"/>
<!-- Node19 -->
<g id="node1" class="node"><title>Node19</title>
<polygon fill="#bfbfbf" stroke="black" points="0,-0.5 0,-30.5 114,-30.5 114,-0.5 0,-0.5"/>
<text text-anchor="start" x="8" y="-18.5" font-family="Helvetica,sans-Serif" font-size="10.00">bfl::VisualParticleFilter</text>
<text text-anchor="middle" x="57" y="-7.5" font-family="Helvetica,sans-Serif" font-size="10.00">::setInitialization</text>
</g>
<!-- Node20 -->
<g id="node2" class="node"><title>Node20</title>
<g id="a_node2"><a xlink:href="classbfl_1_1FilteringAlgorithm.html#af2a072aa51407fe5544bdbb7ce466e2a" target="_top" xlink:title="bfl::FilteringAlgorithm\l::initialization">
<polygon fill="white" stroke="black" points="150,-0.5 150,-30.5 258,-30.5 258,-0.5 150,-0.5"/>
<text text-anchor="start" x="158" y="-18.5" font-family="Helvetica,sans-Serif" font-size="10.00">bfl::FilteringAlgorithm</text>
<text text-anchor="middle" x="204" y="-7.5" font-family="Helvetica,sans-Serif" font-size="10.00">::initialization</text>
</a>
</g>
</g>
<!-- Node19&#45;&gt;Node20 -->
<g id="edge1" class="edge"><title>Node19&#45;&gt;Node20</title>
<path fill="none" stroke="midnightblue" d="M114.061,-15.5C122.446,-15.5 131.141,-15.5 139.664,-15.5"/>
<polygon fill="midnightblue" stroke="midnightblue" points="139.943,-19.0001 149.943,-15.5 139.943,-12.0001 139.943,-19.0001"/>
</g>
</g>
</svg>
