<?xml version="1.0" encoding="UTF-8" standalone="no"?>
<!DOCTYPE svg PUBLIC "-//W3C//DTD SVG 1.1//EN"
 "http://www.w3.org/Graphics/SVG/1.1/DTD/svg11.dtd">
<!-- Generated by graphviz version 2.38.0 (20140413.2041)
 -->
<!-- Title: bfl::FilteringAlgorithm::boot Pages: 1 -->
<svg width="404pt" height="137pt"
 viewBox="0.00 0.00 404.00 137.00" xmlns="http://www.w3.org/2000/svg" xmlns:xlink="http://www.w3.org/1999/xlink">
<g id="graph0" class="graph" transform="scale(1 1) rotate(0) translate(4 133)">
<title>bfl::FilteringAlgorithm::boot</title>
<polygon fill="white" stroke="none" points="-4,4 -4,-133 400,-133 400,4 -4,4"/>
<!-- Node3 -->
<g id="node1" class="node"><title>Node3</title>
<polygon fill="#bfbfbf" stroke="black" points="0,-49.5 0,-79.5 108,-79.5 108,-49.5 0,-49.5"/>
<text text-anchor="start" x="8" y="-67.5" font-family="Helvetica,sans-Serif" font-size="10.00">bfl::FilteringAlgorithm</text>
<text text-anchor="middle" x="54" y="-56.5" font-family="Helvetica,sans-Serif" font-size="10.00">::boot</text>
</g>
<!-- Node4 -->
<g id="node2" class="node"><title>Node4</title>
<g id="a_node2"><a xlink:href="classbfl_1_1FilteringAlgorithm.html#a139fe290f73939e72c88cb43c8ef7544" target="_top" xlink:title="bfl::FilteringAlgorithm\l::filteringRecursion">
<polygon fill="white" stroke="black" points="144,-49.5 144,-79.5 252,-79.5 252,-49.5 144,-49.5"/>
<text text-anchor="start" x="152" y="-67.5" font-family="Helvetica,sans-Serif" font-size="10.00">bfl::FilteringAlgorithm</text>
<text text-anchor="middle" x="198" y="-56.5" font-family="Helvetica,sans-Serif" font-size="10.00">::filteringRecursion</text>
</a>
</g>
</g>
<!-- Node3&#45;&gt;Node4 -->
<g id="edge1" class="edge"><title>Node3&#45;&gt;Node4</title>
<path fill="none" stroke="midnightblue" d="M108.28,-64.5C116.56,-64.5 125.184,-64.5 133.661,-64.5"/>
<polygon fill="midnightblue" stroke="midnightblue" points="133.894,-68.0001 143.894,-64.5 133.894,-61.0001 133.894,-68.0001"/>
</g>
<!-- Node5 -->
<g id="node3" class="node"><title>Node5</title>
<g id="a_node3"><a xlink:href="classbfl_1_1FilteringAlgorithm.html#ab3bceb43b5810a4bf1da884b8a0b145a" target="_top" xlink:title="bfl::FilteringAlgorithm\l::filteringStep">
<polygon fill="white" stroke="black" points="288,-98.5 288,-128.5 396,-128.5 396,-98.5 288,-98.5"/>
<text text-anchor="start" x="296" y="-116.5" font-family="Helvetica,sans-Serif" font-size="10.00">bfl::FilteringAlgorithm</text>
<text text-anchor="middle" x="342" y="-105.5" font-family="Helvetica,sans-Serif" font-size="10.00">::filteringStep</text>
</a>
</g>
</g>
<!-- Node4&#45;&gt;Node5 -->
<g id="edge2" class="edge"><title>Node4&#45;&gt;Node5</title>
<path fill="none" stroke="midnightblue" d="M242.763,-79.6014C256.935,-84.4917 272.813,-89.9707 287.603,-95.0744"/>
<polygon fill="midnightblue" stroke="midnightblue" points="286.542,-98.4106 297.137,-98.3641 288.825,-91.7935 286.542,-98.4106"/>
</g>
<!-- Node6 -->
<g id="node4" class="node"><title>Node6</title>
<g id="a_node4"><a xlink:href="classbfl_1_1FilteringAlgorithm.html#af2a072aa51407fe5544bdbb7ce466e2a" target="_top" xlink:title="bfl::FilteringAlgorithm\l::initialization">
<polygon fill="white" stroke="black" points="288,-49.5 288,-79.5 396,-79.5 396,-49.5 288,-49.5"/>
<text text-anchor="start" x="296" y="-67.5" font-family="Helvetica,sans-Serif" font-size="10.00">bfl::FilteringAlgorithm</text>
<text text-anchor="middle" x="342" y="-56.5" font-family="Helvetica,sans-Serif" font-size="10.00">::initialization</text>
</a>
</g>
</g>
<!-- Node4&#45;&gt;Node6 -->
<g id="edge3" class="edge"><title>Node4&#45;&gt;Node6</title>
<path fill="none" stroke="midnightblue" d="M252.28,-64.5C260.56,-64.5 269.184,-64.5 277.661,-64.5"/>
<polygon fill="midnightblue" stroke="midnightblue" points="277.894,-68.0001 287.894,-64.5 277.894,-61.0001 277.894,-68.0001"/>
</g>
<!-- Node7 -->
<g id="node5" class="node"><title>Node7</title>
<g id="a_node5"><a xlink:href="classbfl_1_1FilteringAlgorithm.html#a5fc12882356f6906b102fbfff2bc4b7c" target="_top" xlink:title="bfl::FilteringAlgorithm\l::runCondition">
<polygon fill="white" stroke="black" points="288,-0.5 288,-30.5 396,-30.5 396,-0.5 288,-0.5"/>
<text text-anchor="start" x="296" y="-18.5" font-family="Helvetica,sans-Serif" font-size="10.00">bfl::FilteringAlgorithm</text>
<text text-anchor="middle" x="342" y="-7.5" font-family="Helvetica,sans-Serif" font-size="10.00">::runCondition</text>
</a>
</g>
</g>
<!-- Node4&#45;&gt;Node7 -->
<g id="edge4" class="edge"><title>Node4&#45;&gt;Node7</title>
<path fill="none" stroke="midnightblue" d="M242.763,-49.3986C256.935,-44.5083 272.813,-39.0293 287.603,-33.9256"/>
<polygon fill="midnightblue" stroke="midnightblue" points="288.825,-37.2065 297.137,-30.6359 286.542,-30.5894 288.825,-37.2065"/>
</g>
</g>
</svg>
