<?xml version="1.0" encoding="UTF-8" standalone="no"?>
<!DOCTYPE svg PUBLIC "-//W3C//DTD SVG 1.1//EN"
 "http://www.w3.org/Graphics/SVG/1.1/DTD/svg11.dtd">
<!-- Generated by graphviz version 2.38.0 (20140413.2041)
 -->
<!-- Title: bfl::PFCorrection Pages: 1 -->
<svg width="258pt" height="84pt"
 viewBox="0.00 0.00 258.00 84.00" xmlns="http://www.w3.org/2000/svg" xmlns:xlink="http://www.w3.org/1999/xlink">
<g id="graph0" class="graph" transform="scale(1 1) rotate(0) translate(4 80)">
<title>bfl::PFCorrection</title>
<polygon fill="white" stroke="none" points="-4,4 -4,-80 254,-80 254,4 -4,4"/>
<!-- Node0 -->
<g id="node1" class="node"><title>Node0</title>
<polygon fill="#bfbfbf" stroke="black" points="88,-56.5 88,-75.5 177,-75.5 177,-56.5 88,-56.5"/>
<text text-anchor="middle" x="132.5" y="-63.5" font-family="Helvetica,sans-Serif" font-size="10.00">bfl::PFCorrection</text>
</g>
<!-- Node1 -->
<g id="node2" class="node"><title>Node1</title>
<g id="a_node2"><a xlink:href="classbfl_1_1PFCorrectionDecorator.html" target="_top" xlink:title="bfl::PFCorrectionDecorator">
<polygon fill="white" stroke="black" points="0,-0.5 0,-19.5 131,-19.5 131,-0.5 0,-0.5"/>
<text text-anchor="middle" x="65.5" y="-7.5" font-family="Helvetica,sans-Serif" font-size="10.00">bfl::PFCorrectionDecorator</text>
</a>
</g>
</g>
<!-- Node0&#45;&gt;Node1 -->
<g id="edge1" class="edge"><title>Node0&#45;&gt;Node1</title>
<path fill="none" stroke="midnightblue" d="M113.665,-49.8197C101.662,-40.1452 86.5283,-27.9481 76.4606,-19.8339"/>
<polygon fill="midnightblue" stroke="midnightblue" points="111.753,-52.7738 121.735,-56.324 116.146,-47.3236 111.753,-52.7738"/>
</g>
<!-- Node2 -->
<g id="node3" class="node"><title>Node2</title>
<g id="a_node3"><a xlink:href="classbfl_1_1UpdateParticles.html" target="_top" xlink:title="bfl::UpdateParticles">
<polygon fill="white" stroke="black" points="149,-0.5 149,-19.5 250,-19.5 250,-0.5 149,-0.5"/>
<text text-anchor="middle" x="199.5" y="-7.5" font-family="Helvetica,sans-Serif" font-size="10.00">bfl::UpdateParticles</text>
</a>
</g>
</g>
<!-- Node0&#45;&gt;Node2 -->
<g id="edge2" class="edge"><title>Node0&#45;&gt;Node2</title>
<path fill="none" stroke="midnightblue" d="M151.335,-49.8197C163.338,-40.1452 178.472,-27.9481 188.539,-19.8339"/>
<polygon fill="midnightblue" stroke="midnightblue" points="148.854,-47.3236 143.265,-56.324 153.247,-52.7738 148.854,-47.3236"/>
</g>
</g>
</svg>
