<?xml version="1.0" encoding="UTF-8" standalone="no"?>
<!DOCTYPE svg PUBLIC "-//W3C//DTD SVG 1.1//EN"
 "http://www.w3.org/Graphics/SVG/1.1/DTD/svg11.dtd">
<!-- Generated by graphviz version 2.38.0 (20140413.2041)
 -->
<!-- Title: C:/Users/cfantacci/GitHub/bayes&#45;filters&#45;lib/src/BayesFilters Pages: 1 -->
<svg width="200pt" height="183pt"
 viewBox="0.00 0.00 200.00 183.00" xmlns="http://www.w3.org/2000/svg" xmlns:xlink="http://www.w3.org/1999/xlink">
<g id="graph0" class="graph" transform="scale(1 1) rotate(0) translate(4 179)">
<title>C:/Users/cfantacci/GitHub/bayes&#45;filters&#45;lib/src/BayesFilters</title>
<polygon fill="white" stroke="none" points="-4,4 -4,-179 196,-179 196,4 -4,4"/>
<g id="clust1" class="cluster"><title>clusterdir_68267d1309a1af8e8297ef4c3efbcdba</title>
<g id="a_clust1"><a xlink:href="dir_68267d1309a1af8e8297ef4c3efbcdba.html" target="_top" xlink:title="src">
<polygon fill="#ddddee" stroke="black" points="8,-8 8,-167 184,-167 184,-8 8,-8"/>
<text text-anchor="middle" x="96" y="-155" font-family="Helvetica,sans-Serif" font-size="10.00">src</text>
</a>
</g>
</g>
<g id="clust2" class="cluster"><title>clusterdir_2241471e9eadb441faa409a32682273a</title>
<g id="a_clust2"><a xlink:href="dir_2241471e9eadb441faa409a32682273a.html" target="_top">
<polygon fill="#eeeeff" stroke="black" points="16,-16 16,-140 176,-140 176,-16 16,-16"/>
</a>
</g>
</g>
<!-- dir_2241471e9eadb441faa409a32682273a -->
<g id="node1" class="node"><title>dir_2241471e9eadb441faa409a32682273a</title>
<text text-anchor="middle" x="132" y="-111.5" font-family="Helvetica,sans-Serif" font-size="10.00">BayesFilters</text>
</g>
<!-- dir_72bbe13a2fb85c634f60240cfcc5a45f -->
<g id="node2" class="node"><title>dir_72bbe13a2fb85c634f60240cfcc5a45f</title>
<g id="a_node2"><a xlink:href="dir_72bbe13a2fb85c634f60240cfcc5a45f.html" target="_top" xlink:title="include">
<polygon fill="white" stroke="red" points="78,-60 24,-60 24,-24 78,-24 78,-60"/>
<text text-anchor="middle" x="51" y="-39.5" font-family="Helvetica,sans-Serif" font-size="10.00">include</text>
</a>
</g>
</g>
<!-- dir_6829d6f0b9da600532ec29a78b3850ba -->
<g id="node3" class="node"><title>dir_6829d6f0b9da600532ec29a78b3850ba</title>
<g id="a_node3"><a xlink:href="dir_6829d6f0b9da600532ec29a78b3850ba.html" target="_top" xlink:title="src">
<polygon fill="white" stroke="black" points="78,-132 24,-132 24,-96 78,-96 78,-132"/>
<text text-anchor="middle" x="51" y="-111.5" font-family="Helvetica,sans-Serif" font-size="10.00">src</text>
</a>
</g>
</g>
<!-- dir_6829d6f0b9da600532ec29a78b3850ba&#45;&gt;dir_72bbe13a2fb85c634f60240cfcc5a45f -->
<g id="edge1" class="edge"><title>dir_6829d6f0b9da600532ec29a78b3850ba&#45;&gt;dir_72bbe13a2fb85c634f60240cfcc5a45f</title>
<path fill="none" stroke="black" d="M51,-95.6966C51,-87.9827 51,-78.7125 51,-70.1124"/>
<polygon fill="black" stroke="black" points="54.5001,-70.1043 51,-60.1043 47.5001,-70.1044 54.5001,-70.1043"/>
<g id="a_edge1&#45;headlabel"><a xlink:href="dir_000004_000002.html" target="_top" xlink:title="24">
<text text-anchor="middle" x="57.3393" y="-71.199" font-family="Helvetica,sans-Serif" font-size="10.00">24</text>
</a>
</g>
</g>
</g>
</svg>
