<?xml version="1.0" encoding="UTF-8" standalone="no"?>
<!DOCTYPE svg PUBLIC "-//W3C//DTD SVG 1.1//EN"
 "http://www.w3.org/Graphics/SVG/1.1/DTD/svg11.dtd">
<!-- Generated by graphviz version 2.38.0 (20140413.2041)
 -->
<!-- Title: C:/Users/cfantacci/GitHub/bayes&#45;filters&#45;lib/src/BayesFilters/include/BayesFilters/DrawParticles.h Pages: 1 -->
<svg width="414pt" height="229pt"
 viewBox="0.00 0.00 413.50 229.00" xmlns="http://www.w3.org/2000/svg" xmlns:xlink="http://www.w3.org/1999/xlink">
<g id="graph0" class="graph" transform="scale(1 1) rotate(0) translate(4 225)">
<title>C:/Users/cfantacci/GitHub/bayes&#45;filters&#45;lib/src/BayesFilters/include/BayesFilters/DrawParticles.h</title>
<polygon fill="white" stroke="none" points="-4,4 -4,-225 409.5,-225 409.5,4 -4,4"/>
<!-- Node0 -->
<g id="node1" class="node"><title>Node0</title>
<polygon fill="#bfbfbf" stroke="black" points="226.5,-168.5 226.5,-220.5 405.5,-220.5 405.5,-168.5 226.5,-168.5"/>
<text text-anchor="start" x="234.5" y="-208.5" font-family="Helvetica,sans-Serif" font-size="10.00">C:/Users/cfantacci</text>
<text text-anchor="start" x="234.5" y="-197.5" font-family="Helvetica,sans-Serif" font-size="10.00">/GitHub/bayes&#45;filters</text>
<text text-anchor="start" x="234.5" y="-186.5" font-family="Helvetica,sans-Serif" font-size="10.00">&#45;lib/src/BayesFilters</text>
<text text-anchor="middle" x="316" y="-175.5" font-family="Helvetica,sans-Serif" font-size="10.00">/include/BayesFilters/DrawParticles.h</text>
</g>
<!-- Node1 -->
<g id="node2" class="node"><title>Node1</title>
<g id="a_node2"><a xlink:href="PFPrediction_8h.html" target="_top" xlink:title="PFPrediction.h">
<polygon fill="white" stroke="black" points="170.5,-112.5 170.5,-131.5 251.5,-131.5 251.5,-112.5 170.5,-112.5"/>
<text text-anchor="middle" x="211" y="-119.5" font-family="Helvetica,sans-Serif" font-size="10.00">PFPrediction.h</text>
</a>
</g>
</g>
<!-- Node0&#45;&gt;Node1 -->
<g id="edge1" class="edge"><title>Node0&#45;&gt;Node1</title>
<path fill="none" stroke="midnightblue" d="M278.685,-168.446C263.168,-158.027 245.714,-146.308 232.417,-137.38"/>
<polygon fill="midnightblue" stroke="midnightblue" points="234.204,-134.364 223.951,-131.695 230.302,-140.176 234.204,-134.364"/>
</g>
<!-- Node5 -->
<g id="node6" class="node"><title>Node5</title>
<polygon fill="white" stroke="#bfbfbf" points="308,-56.5 308,-75.5 360,-75.5 360,-56.5 308,-56.5"/>
<text text-anchor="middle" x="334" y="-63.5" font-family="Helvetica,sans-Serif" font-size="10.00">memory</text>
</g>
<!-- Node0&#45;&gt;Node5 -->
<g id="edge10" class="edge"><title>Node0&#45;&gt;Node5</title>
<path fill="none" stroke="midnightblue" d="M319.599,-168.205C323.076,-143.768 328.26,-107.337 331.368,-85.4987"/>
<polygon fill="midnightblue" stroke="midnightblue" points="334.84,-85.9431 332.783,-75.5497 327.91,-84.9569 334.84,-85.9431"/>
</g>
<!-- Node7 -->
<g id="node8" class="node"><title>Node7</title>
<polygon fill="white" stroke="#bfbfbf" points="344.5,-112.5 344.5,-131.5 393.5,-131.5 393.5,-112.5 344.5,-112.5"/>
<text text-anchor="middle" x="369" y="-119.5" font-family="Helvetica,sans-Serif" font-size="10.00">random</text>
</g>
<!-- Node0&#45;&gt;Node7 -->
<g id="edge9" class="edge"><title>Node0&#45;&gt;Node7</title>
<path fill="none" stroke="midnightblue" d="M334.835,-168.446C341.99,-158.929 349.96,-148.327 356.402,-139.758"/>
<polygon fill="midnightblue" stroke="midnightblue" points="359.251,-141.792 362.463,-131.695 353.656,-137.586 359.251,-141.792"/>
</g>
<!-- Node2 -->
<g id="node3" class="node"><title>Node2</title>
<g id="a_node3"><a xlink:href="ExogenousModel_8h.html" target="_top" xlink:title="ExogenousModel.h">
<polygon fill="white" stroke="black" points="0,-56.5 0,-75.5 100,-75.5 100,-56.5 0,-56.5"/>
<text text-anchor="middle" x="50" y="-63.5" font-family="Helvetica,sans-Serif" font-size="10.00">ExogenousModel.h</text>
</a>
</g>
</g>
<!-- Node1&#45;&gt;Node2 -->
<g id="edge2" class="edge"><title>Node1&#45;&gt;Node2</title>
<path fill="none" stroke="midnightblue" d="M185.489,-112.444C158.404,-103.359 115.41,-88.9388 85.1312,-78.7831"/>
<polygon fill="midnightblue" stroke="midnightblue" points="85.9855,-75.3781 75.3916,-75.5164 83.7595,-82.0148 85.9855,-75.3781"/>
</g>
<!-- Node3 -->
<g id="node4" class="node"><title>Node3</title>
<polygon fill="white" stroke="#bfbfbf" points="92,-0.5 92,-19.5 164,-19.5 164,-0.5 92,-0.5"/>
<text text-anchor="middle" x="128" y="-7.5" font-family="Helvetica,sans-Serif" font-size="10.00">Eigen/Dense</text>
</g>
<!-- Node1&#45;&gt;Node3 -->
<g id="edge6" class="edge"><title>Node1&#45;&gt;Node3</title>
<path fill="none" stroke="midnightblue" d="M192.686,-112.459C178.262,-104.833 158.7,-92.3472 147,-76 137.271,-62.4059 132.488,-43.8608 130.158,-30.058"/>
<polygon fill="midnightblue" stroke="midnightblue" points="133.574,-29.2112 128.723,-19.7919 126.641,-30.1802 133.574,-29.2112"/>
</g>
<!-- Node4 -->
<g id="node5" class="node"><title>Node4</title>
<g id="a_node5"><a xlink:href="StateModel_8h.html" target="_top" xlink:title="StateModel.h">
<polygon fill="white" stroke="black" points="156,-56.5 156,-75.5 230,-75.5 230,-56.5 156,-56.5"/>
<text text-anchor="middle" x="193" y="-63.5" font-family="Helvetica,sans-Serif" font-size="10.00">StateModel.h</text>
</a>
</g>
</g>
<!-- Node1&#45;&gt;Node4 -->
<g id="edge4" class="edge"><title>Node1&#45;&gt;Node4</title>
<path fill="none" stroke="midnightblue" d="M208.028,-112.083C205.616,-104.849 202.136,-94.4087 199.132,-85.3968"/>
<polygon fill="midnightblue" stroke="midnightblue" points="202.4,-84.1311 195.917,-75.7511 195.759,-86.3447 202.4,-84.1311"/>
</g>
<!-- Node1&#45;&gt;Node5 -->
<g id="edge7" class="edge"><title>Node1&#45;&gt;Node5</title>
<path fill="none" stroke="midnightblue" d="M230.49,-112.444C250.642,-103.596 282.323,-89.6875 305.331,-79.5865"/>
<polygon fill="midnightblue" stroke="midnightblue" points="306.852,-82.7411 314.601,-75.5164 304.038,-76.3316 306.852,-82.7411"/>
</g>
<!-- Node6 -->
<g id="node7" class="node"><title>Node6</title>
<polygon fill="white" stroke="#bfbfbf" points="248.5,-56.5 248.5,-75.5 289.5,-75.5 289.5,-56.5 248.5,-56.5"/>
<text text-anchor="middle" x="269" y="-63.5" font-family="Helvetica,sans-Serif" font-size="10.00">string</text>
</g>
<!-- Node1&#45;&gt;Node6 -->
<g id="edge8" class="edge"><title>Node1&#45;&gt;Node6</title>
<path fill="none" stroke="midnightblue" d="M220.319,-112.324C228.893,-104.341 241.812,-92.3128 252.188,-82.6529"/>
<polygon fill="midnightblue" stroke="midnightblue" points="254.578,-85.2098 259.512,-75.8339 249.808,-80.0865 254.578,-85.2098"/>
</g>
<!-- Node2&#45;&gt;Node3 -->
<g id="edge3" class="edge"><title>Node2&#45;&gt;Node3</title>
<path fill="none" stroke="midnightblue" d="M62.532,-56.324C74.5859,-47.979 93.0268,-35.2122 107.269,-25.3524"/>
<polygon fill="midnightblue" stroke="midnightblue" points="109.269,-28.2243 115.499,-19.6545 105.285,-22.469 109.269,-28.2243"/>
</g>
<!-- Node4&#45;&gt;Node3 -->
<g id="edge5" class="edge"><title>Node4&#45;&gt;Node3</title>
<path fill="none" stroke="midnightblue" d="M182.557,-56.324C172.854,-48.2631 158.185,-36.0765 146.5,-26.3695"/>
<polygon fill="midnightblue" stroke="midnightblue" points="148.562,-23.532 138.633,-19.8339 144.089,-28.9163 148.562,-23.532"/>
</g>
</g>
</svg>
