<?xml version="1.0" encoding="UTF-8" standalone="no"?>
<!DOCTYPE svg PUBLIC "-//W3C//DTD SVG 1.1//EN"
 "http://www.w3.org/Graphics/SVG/1.1/DTD/svg11.dtd">
<!-- Generated by graphviz version 2.38.0 (20140413.2041)
 -->
<!-- Title: C:/Users/cfantacci/GitHub/bayes&#45;filters&#45;lib/src/BayesFilters/include/BayesFilters/EstimatesExtraction.h Pages: 1 -->
<svg width="304pt" height="184pt"
 viewBox="0.00 0.00 303.50 184.00" xmlns="http://www.w3.org/2000/svg" xmlns:xlink="http://www.w3.org/1999/xlink">
<g id="graph0" class="graph" transform="scale(1 1) rotate(0) translate(4 180)">
<title>C:/Users/cfantacci/GitHub/bayes&#45;filters&#45;lib/src/BayesFilters/include/BayesFilters/EstimatesExtraction.h</title>
<polygon fill="white" stroke="none" points="-4,4 -4,-180 299.5,-180 299.5,4 -4,4"/>
<!-- Node0 -->
<g id="node1" class="node"><title>Node0</title>
<polygon fill="#bfbfbf" stroke="black" points="27,-112.5 27,-175.5 182,-175.5 182,-112.5 27,-112.5"/>
<text text-anchor="start" x="35" y="-163.5" font-family="Helvetica,sans-Serif" font-size="10.00">C:/Users/cfantacci</text>
<text text-anchor="start" x="35" y="-152.5" font-family="Helvetica,sans-Serif" font-size="10.00">/GitHub/bayes&#45;filters</text>
<text text-anchor="start" x="35" y="-141.5" font-family="Helvetica,sans-Serif" font-size="10.00">&#45;lib/src/BayesFilters</text>
<text text-anchor="start" x="35" y="-130.5" font-family="Helvetica,sans-Serif" font-size="10.00">/include/BayesFilters/Estimates</text>
<text text-anchor="middle" x="104.5" y="-119.5" font-family="Helvetica,sans-Serif" font-size="10.00">Extraction.h</text>
</g>
<!-- Node1 -->
<g id="node2" class="node"><title>Node1</title>
<polygon fill="white" stroke="#bfbfbf" points="0,-56.5 0,-75.5 41,-75.5 41,-56.5 0,-56.5"/>
<text text-anchor="middle" x="20.5" y="-63.5" font-family="Helvetica,sans-Serif" font-size="10.00">string</text>
</g>
<!-- Node0&#45;&gt;Node1 -->
<g id="edge1" class="edge"><title>Node0&#45;&gt;Node1</title>
<path fill="none" stroke="midnightblue" d="M70.334,-112.088C59.0921,-101.917 47.074,-91.0431 37.6569,-82.5229"/>
<polygon fill="midnightblue" stroke="midnightblue" points="39.8995,-79.8319 30.1359,-75.7182 35.203,-85.0227 39.8995,-79.8319"/>
</g>
<!-- Node2 -->
<g id="node3" class="node"><title>Node2</title>
<polygon fill="white" stroke="#bfbfbf" points="59.5,-56.5 59.5,-75.5 101.5,-75.5 101.5,-56.5 59.5,-56.5"/>
<text text-anchor="middle" x="80.5" y="-63.5" font-family="Helvetica,sans-Serif" font-size="10.00">vector</text>
</g>
<!-- Node0&#45;&gt;Node2 -->
<g id="edge2" class="edge"><title>Node0&#45;&gt;Node2</title>
<path fill="none" stroke="midnightblue" d="M94.7383,-112.088C91.8832,-103.047 88.8529,-93.4508 86.325,-85.446"/>
<polygon fill="midnightblue" stroke="midnightblue" points="89.602,-84.2 83.2531,-75.7182 82.9269,-86.308 89.602,-84.2"/>
</g>
<!-- Node3 -->
<g id="node4" class="node"><title>Node3</title>
<polygon fill="white" stroke="#bfbfbf" points="109,-0.5 109,-19.5 174,-19.5 174,-0.5 109,-0.5"/>
<text text-anchor="middle" x="141.5" y="-7.5" font-family="Helvetica,sans-Serif" font-size="10.00">Eigen/Core</text>
</g>
<!-- Node0&#45;&gt;Node3 -->
<g id="edge3" class="edge"><title>Node0&#45;&gt;Node3</title>
<path fill="none" stroke="midnightblue" d="M113.082,-112.385C120.28,-86.702 130.324,-50.8701 136.343,-29.3991"/>
<polygon fill="midnightblue" stroke="midnightblue" points="139.758,-30.1835 139.087,-19.61 133.017,-28.2942 139.758,-30.1835"/>
</g>
<!-- Node4 -->
<g id="node5" class="node"><title>Node4</title>
<g id="a_node5"><a xlink:href="HistoryBuffer_8h.html" target="_top" xlink:title="BayesFilters/HistoryBuffer.h">
<polygon fill="white" stroke="black" points="157.5,-56.5 157.5,-75.5 295.5,-75.5 295.5,-56.5 157.5,-56.5"/>
<text text-anchor="middle" x="226.5" y="-63.5" font-family="Helvetica,sans-Serif" font-size="10.00">BayesFilters/HistoryBuffer.h</text>
</a>
</g>
</g>
<!-- Node0&#45;&gt;Node4 -->
<g id="edge4" class="edge"><title>Node0&#45;&gt;Node4</title>
<path fill="none" stroke="midnightblue" d="M153.77,-112.307C171.239,-101.425 190.04,-89.7127 204.15,-80.9228"/>
<polygon fill="midnightblue" stroke="midnightblue" points="206.047,-83.865 212.684,-75.6067 202.346,-77.9235 206.047,-83.865"/>
</g>
<!-- Node4&#45;&gt;Node3 -->
<g id="edge6" class="edge"><title>Node4&#45;&gt;Node3</title>
<path fill="none" stroke="midnightblue" d="M212.843,-56.324C199.584,-47.9002 179.232,-34.9709 163.654,-25.0741"/>
<polygon fill="midnightblue" stroke="midnightblue" points="165.44,-22.0626 155.123,-19.6545 161.687,-27.9711 165.44,-22.0626"/>
</g>
<!-- Node5 -->
<g id="node6" class="node"><title>Node5</title>
<polygon fill="white" stroke="#bfbfbf" points="205,-0.5 205,-19.5 248,-19.5 248,-0.5 205,-0.5"/>
<text text-anchor="middle" x="226.5" y="-7.5" font-family="Helvetica,sans-Serif" font-size="10.00">deque</text>
</g>
<!-- Node4&#45;&gt;Node5 -->
<g id="edge5" class="edge"><title>Node4&#45;&gt;Node5</title>
<path fill="none" stroke="midnightblue" d="M226.5,-56.083C226.5,-49.0059 226.5,-38.8611 226.5,-29.9865"/>
<polygon fill="midnightblue" stroke="midnightblue" points="230,-29.751 226.5,-19.7511 223,-29.7511 230,-29.751"/>
</g>
</g>
</svg>
