<?xml version="1.0" encoding="UTF-8" standalone="no"?>
<!DOCTYPE svg PUBLIC "-//W3C//DTD SVG 1.1//EN"
 "http://www.w3.org/Graphics/SVG/1.1/DTD/svg11.dtd">
<!-- Generated by graphviz version 2.38.0 (20140413.2041)
 -->
<!-- Title: C:/Users/cfantacci/GitHub/bayes&#45;filters&#45;lib/src/BayesFilters/src/EstimatesExtraction.cpp Pages: 1 -->
<svg width="304pt" height="229pt"
 viewBox="0.00 0.00 303.50 229.00" xmlns="http://www.w3.org/2000/svg" xmlns:xlink="http://www.w3.org/1999/xlink">
<g id="graph0" class="graph" transform="scale(1 1) rotate(0) translate(4 225)">
<title>C:/Users/cfantacci/GitHub/bayes&#45;filters&#45;lib/src/BayesFilters/src/EstimatesExtraction.cpp</title>
<polygon fill="white" stroke="none" points="-4,4 -4,-225 299.5,-225 299.5,4 -4,4"/>
<!-- Node0 -->
<g id="node1" class="node"><title>Node0</title>
<polygon fill="#bfbfbf" stroke="black" points="33,-168.5 33,-220.5 176,-220.5 176,-168.5 33,-168.5"/>
<text text-anchor="start" x="41" y="-208.5" font-family="Helvetica,sans-Serif" font-size="10.00">C:/Users/cfantacci</text>
<text text-anchor="start" x="41" y="-197.5" font-family="Helvetica,sans-Serif" font-size="10.00">/GitHub/bayes&#45;filters</text>
<text text-anchor="start" x="41" y="-186.5" font-family="Helvetica,sans-Serif" font-size="10.00">&#45;lib/src/BayesFilters</text>
<text text-anchor="middle" x="104.5" y="-175.5" font-family="Helvetica,sans-Serif" font-size="10.00">/src/EstimatesExtraction.cpp</text>
</g>
<!-- Node1 -->
<g id="node2" class="node"><title>Node1</title>
<g id="a_node2"><a xlink:href="EstimatesExtraction_8h.html" target="_top" xlink:title="BayesFilters/EstimatesExtraction.h">
<polygon fill="white" stroke="black" points="19,-112.5 19,-131.5 190,-131.5 190,-112.5 19,-112.5"/>
<text text-anchor="middle" x="104.5" y="-119.5" font-family="Helvetica,sans-Serif" font-size="10.00">BayesFilters/EstimatesExtraction.h</text>
</a>
</g>
</g>
<!-- Node0&#45;&gt;Node1 -->
<g id="edge1" class="edge"><title>Node0&#45;&gt;Node1</title>
<path fill="none" stroke="midnightblue" d="M104.5,-168.446C104.5,-159.73 104.5,-150.104 104.5,-141.964"/>
<polygon fill="midnightblue" stroke="midnightblue" points="108,-141.695 104.5,-131.695 101,-141.696 108,-141.695"/>
</g>
<!-- Node2 -->
<g id="node3" class="node"><title>Node2</title>
<polygon fill="white" stroke="#bfbfbf" points="0,-56.5 0,-75.5 41,-75.5 41,-56.5 0,-56.5"/>
<text text-anchor="middle" x="20.5" y="-63.5" font-family="Helvetica,sans-Serif" font-size="10.00">string</text>
</g>
<!-- Node1&#45;&gt;Node2 -->
<g id="edge2" class="edge"><title>Node1&#45;&gt;Node2</title>
<path fill="none" stroke="midnightblue" d="M91.0039,-112.324C77.9004,-103.9 57.7881,-90.9709 42.3931,-81.0741"/>
<polygon fill="midnightblue" stroke="midnightblue" points="44.267,-78.118 33.9626,-75.6545 40.4817,-84.0063 44.267,-78.118"/>
</g>
<!-- Node3 -->
<g id="node4" class="node"><title>Node3</title>
<polygon fill="white" stroke="#bfbfbf" points="59.5,-56.5 59.5,-75.5 101.5,-75.5 101.5,-56.5 59.5,-56.5"/>
<text text-anchor="middle" x="80.5" y="-63.5" font-family="Helvetica,sans-Serif" font-size="10.00">vector</text>
</g>
<!-- Node1&#45;&gt;Node3 -->
<g id="edge3" class="edge"><title>Node1&#45;&gt;Node3</title>
<path fill="none" stroke="midnightblue" d="M100.537,-112.083C97.2867,-104.77 92.5806,-94.1814 88.546,-85.1034"/>
<polygon fill="midnightblue" stroke="midnightblue" points="91.6492,-83.4677 84.3894,-75.7511 85.2525,-86.3107 91.6492,-83.4677"/>
</g>
<!-- Node4 -->
<g id="node5" class="node"><title>Node4</title>
<polygon fill="white" stroke="#bfbfbf" points="109,-0.5 109,-19.5 174,-19.5 174,-0.5 109,-0.5"/>
<text text-anchor="middle" x="141.5" y="-7.5" font-family="Helvetica,sans-Serif" font-size="10.00">Eigen/Core</text>
</g>
<!-- Node1&#45;&gt;Node4 -->
<g id="edge4" class="edge"><title>Node1&#45;&gt;Node4</title>
<path fill="none" stroke="midnightblue" d="M107.403,-112.368C113.401,-94.5366 127.273,-53.2953 135.354,-29.2717"/>
<polygon fill="midnightblue" stroke="midnightblue" points="138.739,-30.1855 138.61,-19.5914 132.105,-27.9537 138.739,-30.1855"/>
</g>
<!-- Node5 -->
<g id="node6" class="node"><title>Node5</title>
<g id="a_node6"><a xlink:href="HistoryBuffer_8h.html" target="_top" xlink:title="BayesFilters/HistoryBuffer.h">
<polygon fill="white" stroke="black" points="157.5,-56.5 157.5,-75.5 295.5,-75.5 295.5,-56.5 157.5,-56.5"/>
<text text-anchor="middle" x="226.5" y="-63.5" font-family="Helvetica,sans-Serif" font-size="10.00">BayesFilters/HistoryBuffer.h</text>
</a>
</g>
</g>
<!-- Node1&#45;&gt;Node5 -->
<g id="edge5" class="edge"><title>Node1&#45;&gt;Node5</title>
<path fill="none" stroke="midnightblue" d="M123.831,-112.444C143.82,-103.596 175.243,-89.6875 198.064,-79.5865"/>
<polygon fill="midnightblue" stroke="midnightblue" points="199.532,-82.7645 207.259,-75.5164 196.698,-76.3635 199.532,-82.7645"/>
</g>
<!-- Node5&#45;&gt;Node4 -->
<g id="edge7" class="edge"><title>Node5&#45;&gt;Node4</title>
<path fill="none" stroke="midnightblue" d="M212.843,-56.324C199.584,-47.9002 179.232,-34.9709 163.654,-25.0741"/>
<polygon fill="midnightblue" stroke="midnightblue" points="165.44,-22.0626 155.123,-19.6545 161.687,-27.9711 165.44,-22.0626"/>
</g>
<!-- Node6 -->
<g id="node7" class="node"><title>Node6</title>
<polygon fill="white" stroke="#bfbfbf" points="205,-0.5 205,-19.5 248,-19.5 248,-0.5 205,-0.5"/>
<text text-anchor="middle" x="226.5" y="-7.5" font-family="Helvetica,sans-Serif" font-size="10.00">deque</text>
</g>
<!-- Node5&#45;&gt;Node6 -->
<g id="edge6" class="edge"><title>Node5&#45;&gt;Node6</title>
<path fill="none" stroke="midnightblue" d="M226.5,-56.083C226.5,-49.0059 226.5,-38.8611 226.5,-29.9865"/>
<polygon fill="midnightblue" stroke="midnightblue" points="230,-29.751 226.5,-19.7511 223,-29.7511 230,-29.751"/>
</g>
</g>
</svg>
