<?xml version="1.0" encoding="UTF-8" standalone="no"?>
<!DOCTYPE svg PUBLIC "-//W3C//DTD SVG 1.1//EN"
 "http://www.w3.org/Graphics/SVG/1.1/DTD/svg11.dtd">
<!-- Generated by graphviz version 2.38.0 (20140413.2041)
 -->
<!-- Title: C:/Users/cfantacci/GitHub/bayes&#45;filters&#45;lib/src/BayesFilters/include/BayesFilters/FilteringAlgorithm.h Pages: 1 -->
<svg width="387pt" height="128pt"
 viewBox="0.00 0.00 387.00 128.00" xmlns="http://www.w3.org/2000/svg" xmlns:xlink="http://www.w3.org/1999/xlink">
<g id="graph0" class="graph" transform="scale(1 1) rotate(0) translate(4 124)">
<title>C:/Users/cfantacci/GitHub/bayes&#45;filters&#45;lib/src/BayesFilters/include/BayesFilters/FilteringAlgorithm.h</title>
<polygon fill="white" stroke="none" points="-4,4 -4,-124 383,-124 383,4 -4,4"/>
<!-- Node0 -->
<g id="node1" class="node"><title>Node0</title>
<polygon fill="#bfbfbf" stroke="black" points="121.5,-56.5 121.5,-119.5 267.5,-119.5 267.5,-56.5 121.5,-56.5"/>
<text text-anchor="start" x="129.5" y="-107.5" font-family="Helvetica,sans-Serif" font-size="10.00">C:/Users/cfantacci</text>
<text text-anchor="start" x="129.5" y="-96.5" font-family="Helvetica,sans-Serif" font-size="10.00">/GitHub/bayes&#45;filters</text>
<text text-anchor="start" x="129.5" y="-85.5" font-family="Helvetica,sans-Serif" font-size="10.00">&#45;lib/src/BayesFilters</text>
<text text-anchor="start" x="129.5" y="-74.5" font-family="Helvetica,sans-Serif" font-size="10.00">/include/BayesFilters/Filtering</text>
<text text-anchor="middle" x="194.5" y="-63.5" font-family="Helvetica,sans-Serif" font-size="10.00">Algorithm.h</text>
</g>
<!-- Node1 -->
<g id="node2" class="node"><title>Node1</title>
<polygon fill="white" stroke="#bfbfbf" points="0,-0.5 0,-19.5 93,-19.5 93,-0.5 0,-0.5"/>
<text text-anchor="middle" x="46.5" y="-7.5" font-family="Helvetica,sans-Serif" font-size="10.00">condition_variable</text>
</g>
<!-- Node0&#45;&gt;Node1 -->
<g id="edge1" class="edge"><title>Node0&#45;&gt;Node1</title>
<path fill="none" stroke="midnightblue" d="M134.729,-56.307C112.933,-45.1143 89.4253,-33.0427 72.1597,-24.1766"/>
<polygon fill="midnightblue" stroke="midnightblue" points="73.7549,-21.0613 63.2604,-19.6067 70.5573,-27.2883 73.7549,-21.0613"/>
</g>
<!-- Node2 -->
<g id="node3" class="node"><title>Node2</title>
<polygon fill="white" stroke="#bfbfbf" points="111.5,-0.5 111.5,-19.5 155.5,-19.5 155.5,-0.5 111.5,-0.5"/>
<text text-anchor="middle" x="133.5" y="-7.5" font-family="Helvetica,sans-Serif" font-size="10.00">mutex</text>
</g>
<!-- Node0&#45;&gt;Node2 -->
<g id="edge2" class="edge"><title>Node0&#45;&gt;Node2</title>
<path fill="none" stroke="midnightblue" d="M169.689,-56.0879C161.855,-46.3277 153.502,-35.9206 146.797,-27.567"/>
<polygon fill="midnightblue" stroke="midnightblue" points="149.487,-25.326 140.497,-19.7182 144.027,-29.7077 149.487,-25.326"/>
</g>
<!-- Node3 -->
<g id="node4" class="node"><title>Node3</title>
<polygon fill="white" stroke="#bfbfbf" points="174,-0.5 174,-19.5 215,-19.5 215,-0.5 174,-0.5"/>
<text text-anchor="middle" x="194.5" y="-7.5" font-family="Helvetica,sans-Serif" font-size="10.00">string</text>
</g>
<!-- Node0&#45;&gt;Node3 -->
<g id="edge3" class="edge"><title>Node0&#45;&gt;Node3</title>
<path fill="none" stroke="midnightblue" d="M194.5,-56.0879C194.5,-47.1496 194.5,-37.6688 194.5,-29.7195"/>
<polygon fill="midnightblue" stroke="midnightblue" points="198,-29.7181 194.5,-19.7182 191,-29.7182 198,-29.7181"/>
</g>
<!-- Node4 -->
<g id="node5" class="node"><title>Node4</title>
<polygon fill="white" stroke="#bfbfbf" points="233.5,-0.5 233.5,-19.5 277.5,-19.5 277.5,-0.5 233.5,-0.5"/>
<text text-anchor="middle" x="255.5" y="-7.5" font-family="Helvetica,sans-Serif" font-size="10.00">thread</text>
</g>
<!-- Node0&#45;&gt;Node4 -->
<g id="edge4" class="edge"><title>Node0&#45;&gt;Node4</title>
<path fill="none" stroke="midnightblue" d="M219.311,-56.0879C227.145,-46.3277 235.498,-35.9206 242.203,-27.567"/>
<polygon fill="midnightblue" stroke="midnightblue" points="244.973,-29.7077 248.503,-19.7182 239.513,-25.326 244.973,-29.7077"/>
</g>
<!-- Node5 -->
<g id="node6" class="node"><title>Node5</title>
<polygon fill="white" stroke="#bfbfbf" points="296,-0.5 296,-19.5 379,-19.5 379,-0.5 296,-0.5"/>
<text text-anchor="middle" x="337.5" y="-7.5" font-family="Helvetica,sans-Serif" font-size="10.00">unordered_map</text>
</g>
<!-- Node0&#45;&gt;Node5 -->
<g id="edge5" class="edge"><title>Node0&#45;&gt;Node5</title>
<path fill="none" stroke="midnightblue" d="M252.251,-56.307C273.116,-45.2179 295.604,-33.2662 312.242,-24.4237"/>
<polygon fill="midnightblue" stroke="midnightblue" points="314.118,-27.3904 321.306,-19.6067 310.833,-21.2092 314.118,-27.3904"/>
</g>
</g>
</svg>
