<?xml version="1.0" encoding="UTF-8" standalone="no"?>
<!DOCTYPE svg PUBLIC "-//W3C//DTD SVG 1.1//EN"
 "http://www.w3.org/Graphics/SVG/1.1/DTD/svg11.dtd">
<!-- Generated by graphviz version 2.38.0 (20140413.2041)
 -->
<!-- Title: C:/Users/cfantacci/GitHub/bayes&#45;filters&#45;lib/src/BayesFilters/include/BayesFilters/FilteringAlgorithm.h Pages: 1 -->
<svg width="1042pt" height="350pt"
 viewBox="0.00 0.00 1041.50 350.00" xmlns="http://www.w3.org/2000/svg" xmlns:xlink="http://www.w3.org/1999/xlink">
<g id="graph0" class="graph" transform="scale(1 1) rotate(0) translate(4 346)">
<title>C:/Users/cfantacci/GitHub/bayes&#45;filters&#45;lib/src/BayesFilters/include/BayesFilters/FilteringAlgorithm.h</title>
<polygon fill="white" stroke="none" points="-4,4 -4,-346 1037.5,-346 1037.5,4 -4,4"/>
<!-- Node6 -->
<g id="node1" class="node"><title>Node6</title>
<polygon fill="#bfbfbf" stroke="black" points="458,-278.5 458,-341.5 604,-341.5 604,-278.5 458,-278.5"/>
<text text-anchor="start" x="466" y="-329.5" font-family="Helvetica,sans-Serif" font-size="10.00">C:/Users/cfantacci</text>
<text text-anchor="start" x="466" y="-318.5" font-family="Helvetica,sans-Serif" font-size="10.00">/GitHub/bayes&#45;filters</text>
<text text-anchor="start" x="466" y="-307.5" font-family="Helvetica,sans-Serif" font-size="10.00">&#45;lib/src/BayesFilters</text>
<text text-anchor="start" x="466" y="-296.5" font-family="Helvetica,sans-Serif" font-size="10.00">/include/BayesFilters/Filtering</text>
<text text-anchor="middle" x="531" y="-285.5" font-family="Helvetica,sans-Serif" font-size="10.00">Algorithm.h</text>
</g>
<!-- Node7 -->
<g id="node2" class="node"><title>Node7</title>
<g id="a_node2"><a xlink:href="FilteringContext_8h.html" target="_top" xlink:title="C:/Users/cfantacci\l/GitHub/bayes&#45;filters\l&#45;lib/src/BayesFilters\l/include/BayesFilters/Filtering\lContext.h">
<polygon fill="white" stroke="black" points="0,-178.5 0,-241.5 146,-241.5 146,-178.5 0,-178.5"/>
<text text-anchor="start" x="8" y="-229.5" font-family="Helvetica,sans-Serif" font-size="10.00">C:/Users/cfantacci</text>
<text text-anchor="start" x="8" y="-218.5" font-family="Helvetica,sans-Serif" font-size="10.00">/GitHub/bayes&#45;filters</text>
<text text-anchor="start" x="8" y="-207.5" font-family="Helvetica,sans-Serif" font-size="10.00">&#45;lib/src/BayesFilters</text>
<text text-anchor="start" x="8" y="-196.5" font-family="Helvetica,sans-Serif" font-size="10.00">/include/BayesFilters/Filtering</text>
<text text-anchor="middle" x="73" y="-185.5" font-family="Helvetica,sans-Serif" font-size="10.00">Context.h</text>
</a>
</g>
</g>
<!-- Node6&#45;&gt;Node7 -->
<g id="edge1" class="edge"><title>Node6&#45;&gt;Node7</title>
<path fill="none" stroke="midnightblue" d="M447.996,-297.843C372.458,-286.778 258.233,-267.754 161,-242 156.146,-240.714 151.177,-239.285 146.192,-237.767"/>
<polygon fill="midnightblue" stroke="midnightblue" points="447.532,-301.312 457.932,-299.285 448.538,-294.385 447.532,-301.312"/>
</g>
<!-- Node9 -->
<g id="node4" class="node"><title>Node9</title>
<g id="a_node4"><a xlink:href="KalmanFilter_8h.html" target="_top" xlink:title="C:/Users/cfantacci\l/GitHub/bayes&#45;filters\l&#45;lib/src/BayesFilters\l/include/BayesFilters/KalmanFilter.h">
<polygon fill="white" stroke="black" points="170,-184 170,-236 344,-236 344,-184 170,-184"/>
<text text-anchor="start" x="178" y="-224" font-family="Helvetica,sans-Serif" font-size="10.00">C:/Users/cfantacci</text>
<text text-anchor="start" x="178" y="-213" font-family="Helvetica,sans-Serif" font-size="10.00">/GitHub/bayes&#45;filters</text>
<text text-anchor="start" x="178" y="-202" font-family="Helvetica,sans-Serif" font-size="10.00">&#45;lib/src/BayesFilters</text>
<text text-anchor="middle" x="257" y="-191" font-family="Helvetica,sans-Serif" font-size="10.00">/include/BayesFilters/KalmanFilter.h</text>
</a>
</g>
</g>
<!-- Node6&#45;&gt;Node9 -->
<g id="edge3" class="edge"><title>Node6&#45;&gt;Node9</title>
<path fill="none" stroke="midnightblue" d="M448.254,-279.405C409.562,-265.566 363.984,-249.264 327.028,-236.047"/>
<polygon fill="midnightblue" stroke="midnightblue" points="447.338,-282.794 457.933,-282.867 449.696,-276.203 447.338,-282.794"/>
</g>
<!-- Node11 -->
<g id="node6" class="node"><title>Node11</title>
<g id="a_node6"><a xlink:href="ParticleFilter_8h.html" target="_top" xlink:title="C:/Users/cfantacci\l/GitHub/bayes&#45;filters\l&#45;lib/src/BayesFilters\l/include/BayesFilters/Particle\lFilter.h">
<polygon fill="white" stroke="black" points="375,-178.5 375,-241.5 519,-241.5 519,-178.5 375,-178.5"/>
<text text-anchor="start" x="383" y="-229.5" font-family="Helvetica,sans-Serif" font-size="10.00">C:/Users/cfantacci</text>
<text text-anchor="start" x="383" y="-218.5" font-family="Helvetica,sans-Serif" font-size="10.00">/GitHub/bayes&#45;filters</text>
<text text-anchor="start" x="383" y="-207.5" font-family="Helvetica,sans-Serif" font-size="10.00">&#45;lib/src/BayesFilters</text>
<text text-anchor="start" x="383" y="-196.5" font-family="Helvetica,sans-Serif" font-size="10.00">/include/BayesFilters/Particle</text>
<text text-anchor="middle" x="447" y="-185.5" font-family="Helvetica,sans-Serif" font-size="10.00">Filter.h</text>
</a>
</g>
</g>
<!-- Node6&#45;&gt;Node11 -->
<g id="edge5" class="edge"><title>Node6&#45;&gt;Node11</title>
<path fill="none" stroke="midnightblue" d="M497.915,-270.401C489.728,-260.849 481.066,-250.744 473.254,-241.63"/>
<polygon fill="midnightblue" stroke="midnightblue" points="495.487,-272.946 504.652,-278.261 500.802,-268.391 495.487,-272.946"/>
</g>
<!-- Node15 -->
<g id="node10" class="node"><title>Node15</title>
<g id="a_node10"><a xlink:href="UnscentedKalmanFilter_8h.html" target="_top" xlink:title="C:/Users/cfantacci\l/GitHub/bayes&#45;filters\l&#45;lib/src/BayesFilters\l/include/BayesFilters/Unscented\lKalmanFilter.h">
<polygon fill="white" stroke="black" points="537,-178.5 537,-241.5 695,-241.5 695,-178.5 537,-178.5"/>
<text text-anchor="start" x="545" y="-229.5" font-family="Helvetica,sans-Serif" font-size="10.00">C:/Users/cfantacci</text>
<text text-anchor="start" x="545" y="-218.5" font-family="Helvetica,sans-Serif" font-size="10.00">/GitHub/bayes&#45;filters</text>
<text text-anchor="start" x="545" y="-207.5" font-family="Helvetica,sans-Serif" font-size="10.00">&#45;lib/src/BayesFilters</text>
<text text-anchor="start" x="545" y="-196.5" font-family="Helvetica,sans-Serif" font-size="10.00">/include/BayesFilters/Unscented</text>
<text text-anchor="middle" x="616" y="-185.5" font-family="Helvetica,sans-Serif" font-size="10.00">KalmanFilter.h</text>
</a>
</g>
</g>
<!-- Node6&#45;&gt;Node15 -->
<g id="edge9" class="edge"><title>Node6&#45;&gt;Node15</title>
<path fill="none" stroke="midnightblue" d="M564.23,-270.687C572.588,-261.051 581.449,-250.835 589.433,-241.63"/>
<polygon fill="midnightblue" stroke="midnightblue" points="561.57,-268.413 557.661,-278.261 566.858,-273 561.57,-268.413"/>
</g>
<!-- Node17 -->
<g id="node12" class="node"><title>Node17</title>
<g id="a_node12"><a xlink:href="VisualParticleFilter_8h.html" target="_top" xlink:title="C:/Users/cfantacci\l/GitHub/bayes&#45;filters\l&#45;lib/src/BayesFilters\l/include/BayesFilters/VisualParticle\lFilter.h">
<polygon fill="white" stroke="black" points="713.5,-178.5 713.5,-241.5 884.5,-241.5 884.5,-178.5 713.5,-178.5"/>
<text text-anchor="start" x="721.5" y="-229.5" font-family="Helvetica,sans-Serif" font-size="10.00">C:/Users/cfantacci</text>
<text text-anchor="start" x="721.5" y="-218.5" font-family="Helvetica,sans-Serif" font-size="10.00">/GitHub/bayes&#45;filters</text>
<text text-anchor="start" x="721.5" y="-207.5" font-family="Helvetica,sans-Serif" font-size="10.00">&#45;lib/src/BayesFilters</text>
<text text-anchor="start" x="721.5" y="-196.5" font-family="Helvetica,sans-Serif" font-size="10.00">/include/BayesFilters/VisualParticle</text>
<text text-anchor="middle" x="799" y="-185.5" font-family="Helvetica,sans-Serif" font-size="10.00">Filter.h</text>
</a>
</g>
</g>
<!-- Node6&#45;&gt;Node17 -->
<g id="edge11" class="edge"><title>Node6&#45;&gt;Node17</title>
<path fill="none" stroke="midnightblue" d="M613.661,-278.773C645.994,-266.95 683.024,-253.409 715.443,-241.554"/>
<polygon fill="midnightblue" stroke="midnightblue" points="612.422,-275.5 604.232,-282.221 614.826,-282.074 612.422,-275.5"/>
</g>
<!-- Node19 -->
<g id="node14" class="node"><title>Node19</title>
<g id="a_node14"><a xlink:href="FilteringAlgorithm_8cpp.html" target="_top" xlink:title="C:/Users/cfantacci\l/GitHub/bayes&#45;filters\l&#45;lib/src/BayesFilters\l/src/FilteringAlgorithm.cpp">
<polygon fill="white" stroke="black" points="902.5,-184 902.5,-236 1033.5,-236 1033.5,-184 902.5,-184"/>
<text text-anchor="start" x="910.5" y="-224" font-family="Helvetica,sans-Serif" font-size="10.00">C:/Users/cfantacci</text>
<text text-anchor="start" x="910.5" y="-213" font-family="Helvetica,sans-Serif" font-size="10.00">/GitHub/bayes&#45;filters</text>
<text text-anchor="start" x="910.5" y="-202" font-family="Helvetica,sans-Serif" font-size="10.00">&#45;lib/src/BayesFilters</text>
<text text-anchor="middle" x="968" y="-191" font-family="Helvetica,sans-Serif" font-size="10.00">/src/FilteringAlgorithm.cpp</text>
</a>
</g>
</g>
<!-- Node6&#45;&gt;Node19 -->
<g id="edge13" class="edge"><title>Node6&#45;&gt;Node19</title>
<path fill="none" stroke="midnightblue" d="M614.293,-298.799C688.65,-288.477 800.001,-270.011 894,-242 899.74,-240.29 905.64,-238.279 911.483,-236.118"/>
<polygon fill="midnightblue" stroke="midnightblue" points="613.485,-295.377 604.052,-300.201 614.435,-302.312 613.485,-295.377"/>
</g>
<!-- Node8 -->
<g id="node3" class="node"><title>Node8</title>
<g id="a_node3"><a xlink:href="FilteringContext_8cpp.html" target="_top" xlink:title="C:/Users/cfantacci\l/GitHub/bayes&#45;filters\l&#45;lib/src/BayesFilters\l/src/FilteringContext.cpp">
<polygon fill="white" stroke="black" points="8.5,-89.5 8.5,-141.5 131.5,-141.5 131.5,-89.5 8.5,-89.5"/>
<text text-anchor="start" x="16.5" y="-129.5" font-family="Helvetica,sans-Serif" font-size="10.00">C:/Users/cfantacci</text>
<text text-anchor="start" x="16.5" y="-118.5" font-family="Helvetica,sans-Serif" font-size="10.00">/GitHub/bayes&#45;filters</text>
<text text-anchor="start" x="16.5" y="-107.5" font-family="Helvetica,sans-Serif" font-size="10.00">&#45;lib/src/BayesFilters</text>
<text text-anchor="middle" x="70" y="-96.5" font-family="Helvetica,sans-Serif" font-size="10.00">/src/FilteringContext.cpp</text>
</a>
</g>
</g>
<!-- Node7&#45;&gt;Node8 -->
<g id="edge2" class="edge"><title>Node7&#45;&gt;Node8</title>
<path fill="none" stroke="midnightblue" d="M71.684,-168.423C71.39,-159.359 71.0865,-149.999 70.8194,-141.766"/>
<polygon fill="midnightblue" stroke="midnightblue" points="68.187,-168.574 72.0094,-178.456 75.1833,-168.347 68.187,-168.574"/>
</g>
<!-- Node10 -->
<g id="node5" class="node"><title>Node10</title>
<g id="a_node5"><a xlink:href="KalmanFilter_8cpp.html" target="_top" xlink:title="C:/Users/cfantacci\l/GitHub/bayes&#45;filters\l&#45;lib/src/BayesFilters\l/src/KalmanFilter.cpp">
<polygon fill="white" stroke="black" points="150,-89.5 150,-141.5 260,-141.5 260,-89.5 150,-89.5"/>
<text text-anchor="start" x="158" y="-129.5" font-family="Helvetica,sans-Serif" font-size="10.00">C:/Users/cfantacci</text>
<text text-anchor="start" x="158" y="-118.5" font-family="Helvetica,sans-Serif" font-size="10.00">/GitHub/bayes&#45;filters</text>
<text text-anchor="start" x="158" y="-107.5" font-family="Helvetica,sans-Serif" font-size="10.00">&#45;lib/src/BayesFilters</text>
<text text-anchor="middle" x="205" y="-96.5" font-family="Helvetica,sans-Serif" font-size="10.00">/src/KalmanFilter.cpp</text>
</a>
</g>
</g>
<!-- Node9&#45;&gt;Node10 -->
<g id="edge4" class="edge"><title>Node9&#45;&gt;Node10</title>
<path fill="none" stroke="midnightblue" d="M237.781,-174.812C231.624,-163.86 224.922,-151.939 219.192,-141.745"/>
<polygon fill="midnightblue" stroke="midnightblue" points="234.839,-176.722 242.791,-183.724 240.941,-173.292 234.839,-176.722"/>
</g>
<!-- Node12 -->
<g id="node7" class="node"><title>Node12</title>
<g id="a_node7"><a xlink:href="SIS_8h.html" target="_top" xlink:title="C:/Users/cfantacci\l/GitHub/bayes&#45;filters\l&#45;lib/src/BayesFilters\l/include/BayesFilters/SIS.h">
<polygon fill="white" stroke="black" points="278.5,-89.5 278.5,-141.5 413.5,-141.5 413.5,-89.5 278.5,-89.5"/>
<text text-anchor="start" x="286.5" y="-129.5" font-family="Helvetica,sans-Serif" font-size="10.00">C:/Users/cfantacci</text>
<text text-anchor="start" x="286.5" y="-118.5" font-family="Helvetica,sans-Serif" font-size="10.00">/GitHub/bayes&#45;filters</text>
<text text-anchor="start" x="286.5" y="-107.5" font-family="Helvetica,sans-Serif" font-size="10.00">&#45;lib/src/BayesFilters</text>
<text text-anchor="middle" x="346" y="-96.5" font-family="Helvetica,sans-Serif" font-size="10.00">/include/BayesFilters/SIS.h</text>
</a>
</g>
</g>
<!-- Node11&#45;&gt;Node12 -->
<g id="edge6" class="edge"><title>Node11&#45;&gt;Node12</title>
<path fill="none" stroke="midnightblue" d="M406.19,-171.625C395.232,-161.588 383.641,-150.973 373.587,-141.766"/>
<polygon fill="midnightblue" stroke="midnightblue" points="403.91,-174.283 413.649,-178.456 408.638,-169.121 403.91,-174.283"/>
</g>
<!-- Node14 -->
<g id="node9" class="node"><title>Node14</title>
<g id="a_node9"><a xlink:href="ParticleFilter_8cpp.html" target="_top" xlink:title="C:/Users/cfantacci\l/GitHub/bayes&#45;filters\l&#45;lib/src/BayesFilters\l/src/ParticleFilter.cpp">
<polygon fill="white" stroke="black" points="432,-89.5 432,-141.5 542,-141.5 542,-89.5 432,-89.5"/>
<text text-anchor="start" x="440" y="-129.5" font-family="Helvetica,sans-Serif" font-size="10.00">C:/Users/cfantacci</text>
<text text-anchor="start" x="440" y="-118.5" font-family="Helvetica,sans-Serif" font-size="10.00">/GitHub/bayes&#45;filters</text>
<text text-anchor="start" x="440" y="-107.5" font-family="Helvetica,sans-Serif" font-size="10.00">&#45;lib/src/BayesFilters</text>
<text text-anchor="middle" x="487" y="-96.5" font-family="Helvetica,sans-Serif" font-size="10.00">/src/ParticleFilter.cpp</text>
</a>
</g>
</g>
<!-- Node11&#45;&gt;Node14 -->
<g id="edge8" class="edge"><title>Node11&#45;&gt;Node14</title>
<path fill="none" stroke="midnightblue" d="M464.294,-169.007C468.292,-159.762 472.437,-150.176 476.074,-141.766"/>
<polygon fill="midnightblue" stroke="midnightblue" points="460.965,-167.888 460.208,-178.456 467.39,-170.666 460.965,-167.888"/>
</g>
<!-- Node13 -->
<g id="node8" class="node"><title>Node13</title>
<g id="a_node8"><a xlink:href="SIS_8cpp.html" target="_top" xlink:title="C:/Users/cfantacci\l/GitHub/bayes&#45;filters\l&#45;lib/src/BayesFilters\l/src/SIS.cpp">
<polygon fill="white" stroke="black" points="293.5,-0.5 293.5,-52.5 398.5,-52.5 398.5,-0.5 293.5,-0.5"/>
<text text-anchor="start" x="301.5" y="-40.5" font-family="Helvetica,sans-Serif" font-size="10.00">C:/Users/cfantacci</text>
<text text-anchor="start" x="301.5" y="-29.5" font-family="Helvetica,sans-Serif" font-size="10.00">/GitHub/bayes&#45;filters</text>
<text text-anchor="start" x="301.5" y="-18.5" font-family="Helvetica,sans-Serif" font-size="10.00">&#45;lib/src/BayesFilters</text>
<text text-anchor="middle" x="346" y="-7.5" font-family="Helvetica,sans-Serif" font-size="10.00">/src/SIS.cpp</text>
</a>
</g>
</g>
<!-- Node12&#45;&gt;Node13 -->
<g id="edge7" class="edge"><title>Node12&#45;&gt;Node13</title>
<path fill="none" stroke="midnightblue" d="M346,-79.1908C346,-70.2824 346,-60.8986 346,-52.6075"/>
<polygon fill="midnightblue" stroke="midnightblue" points="342.5,-79.336 346,-89.336 349.5,-79.336 342.5,-79.336"/>
</g>
<!-- Node16 -->
<g id="node11" class="node"><title>Node16</title>
<g id="a_node11"><a xlink:href="UnscentedKalmanFilter_8cpp.html" target="_top" xlink:title="C:/Users/cfantacci\l/GitHub/bayes&#45;filters\l&#45;lib/src/BayesFilters\l/src/UnscentedKalmanFilter.cpp">
<polygon fill="white" stroke="black" points="560,-89.5 560,-141.5 716,-141.5 716,-89.5 560,-89.5"/>
<text text-anchor="start" x="568" y="-129.5" font-family="Helvetica,sans-Serif" font-size="10.00">C:/Users/cfantacci</text>
<text text-anchor="start" x="568" y="-118.5" font-family="Helvetica,sans-Serif" font-size="10.00">/GitHub/bayes&#45;filters</text>
<text text-anchor="start" x="568" y="-107.5" font-family="Helvetica,sans-Serif" font-size="10.00">&#45;lib/src/BayesFilters</text>
<text text-anchor="middle" x="638" y="-96.5" font-family="Helvetica,sans-Serif" font-size="10.00">/src/UnscentedKalmanFilter.cpp</text>
</a>
</g>
</g>
<!-- Node15&#45;&gt;Node16 -->
<g id="edge10" class="edge"><title>Node15&#45;&gt;Node16</title>
<path fill="none" stroke="midnightblue" d="M625.581,-168.715C627.759,-159.56 630.012,-150.088 631.991,-141.766"/>
<polygon fill="midnightblue" stroke="midnightblue" points="622.173,-167.917 623.265,-178.456 628.984,-169.537 622.173,-167.917"/>
</g>
<!-- Node18 -->
<g id="node13" class="node"><title>Node18</title>
<g id="a_node13"><a xlink:href="VisualParticleFilter_8cpp.html" target="_top" xlink:title="C:/Users/cfantacci\l/GitHub/bayes&#45;filters\l&#45;lib/src/BayesFilters\l/src/VisualParticleFilter.cpp">
<polygon fill="white" stroke="black" points="734.5,-89.5 734.5,-141.5 871.5,-141.5 871.5,-89.5 734.5,-89.5"/>
<text text-anchor="start" x="742.5" y="-129.5" font-family="Helvetica,sans-Serif" font-size="10.00">C:/Users/cfantacci</text>
<text text-anchor="start" x="742.5" y="-118.5" font-family="Helvetica,sans-Serif" font-size="10.00">/GitHub/bayes&#45;filters</text>
<text text-anchor="start" x="742.5" y="-107.5" font-family="Helvetica,sans-Serif" font-size="10.00">&#45;lib/src/BayesFilters</text>
<text text-anchor="middle" x="803" y="-96.5" font-family="Helvetica,sans-Serif" font-size="10.00">/src/VisualParticleFilter.cpp</text>
</a>
</g>
</g>
<!-- Node17&#45;&gt;Node18 -->
<g id="edge12" class="edge"><title>Node17&#45;&gt;Node18</title>
<path fill="none" stroke="midnightblue" d="M800.755,-168.423C801.147,-159.359 801.551,-149.999 801.907,-141.766"/>
<polygon fill="midnightblue" stroke="midnightblue" points="797.256,-168.314 800.321,-178.456 804.25,-168.616 797.256,-168.314"/>
</g>
</g>
</svg>
