<?xml version="1.0" encoding="UTF-8" standalone="no"?>
<!DOCTYPE svg PUBLIC "-//W3C//DTD SVG 1.1//EN"
 "http://www.w3.org/Graphics/SVG/1.1/DTD/svg11.dtd">
<!-- Generated by graphviz version 2.38.0 (20140413.2041)
 -->
<!-- Title: Graphical Class Hierarchy Pages: 1 -->
<svg width="263pt" height="66pt"
 viewBox="0.00 0.00 263.00 66.00" xmlns="http://www.w3.org/2000/svg" xmlns:xlink="http://www.w3.org/1999/xlink">
<g id="graph0" class="graph" transform="scale(1 1) rotate(0) translate(4 62)">
<title>Graphical Class Hierarchy</title>
<polygon fill="white" stroke="none" points="-4,4 -4,-62 259,-62 259,4 -4,4"/>
<!-- Node0 -->
<g id="node1" class="node"><title>Node0</title>
<g id="a_node1"><a xlink:href="classbfl_1_1StateModel.html" target="_top" xlink:title="bfl::StateModel">
<polygon fill="white" stroke="black" points="0,-19.5 0,-38.5 82,-38.5 82,-19.5 0,-19.5"/>
<text text-anchor="middle" x="41" y="-26.5" font-family="Helvetica,sans-Serif" font-size="10.00">bfl::StateModel</text>
</a>
</g>
</g>
<!-- Node1 -->
<g id="node2" class="node"><title>Node1</title>
<g id="a_node2"><a xlink:href="classbfl_1_1StateModelDecorator.html" target="_top" xlink:title="bfl::StateModelDecorator">
<polygon fill="white" stroke="black" points="124.5,-38.5 124.5,-57.5 248.5,-57.5 248.5,-38.5 124.5,-38.5"/>
<text text-anchor="middle" x="186.5" y="-45.5" font-family="Helvetica,sans-Serif" font-size="10.00">bfl::StateModelDecorator</text>
</a>
</g>
</g>
<!-- Node0&#45;&gt;Node1 -->
<g id="edge1" class="edge"><title>Node0&#45;&gt;Node1</title>
<path fill="none" stroke="midnightblue" d="M92.4022,-35.6735C102.7,-37.037 113.644,-38.486 124.273,-39.8933"/>
<polygon fill="midnightblue" stroke="midnightblue" points="92.7275,-32.1861 82.3546,-34.3431 91.8087,-39.1255 92.7275,-32.1861"/>
</g>
<!-- Node2 -->
<g id="node3" class="node"><title>Node2</title>
<g id="a_node3"><a xlink:href="classbfl_1_1WhiteNoiseAcceleration.html" target="_top" xlink:title="bfl::WhiteNoiseAcceleration">
<polygon fill="white" stroke="black" points="118,-0.5 118,-19.5 255,-19.5 255,-0.5 118,-0.5"/>
<text text-anchor="middle" x="186.5" y="-7.5" font-family="Helvetica,sans-Serif" font-size="10.00">bfl::WhiteNoiseAcceleration</text>
</a>
</g>
</g>
<!-- Node0&#45;&gt;Node2 -->
<g id="edge2" class="edge"><title>Node0&#45;&gt;Node2</title>
<path fill="none" stroke="midnightblue" d="M92.4637,-22.3184C100.645,-21.2352 109.231,-20.0983 117.743,-18.9713"/>
<polygon fill="midnightblue" stroke="midnightblue" points="91.8087,-18.8745 82.3546,-23.6569 92.7275,-25.8139 91.8087,-18.8745"/>
</g>
</g>
</svg>
