<?xml version="1.0" encoding="UTF-8" standalone="no"?>
<!DOCTYPE svg PUBLIC "-//W3C//DTD SVG 1.1//EN"
 "http://www.w3.org/Graphics/SVG/1.1/DTD/svg11.dtd">
<!-- Generated by graphviz version 2.38.0 (20140413.2041)
 -->
<!-- Title: Graphical Class Hierarchy Pages: 1 -->
<svg width="264pt" height="66pt"
 viewBox="0.00 0.00 264.00 66.00" xmlns="http://www.w3.org/2000/svg" xmlns:xlink="http://www.w3.org/1999/xlink">
<g id="graph0" class="graph" transform="scale(1 1) rotate(0) translate(4 62)">
<title>Graphical Class Hierarchy</title>
<polygon fill="white" stroke="none" points="-4,4 -4,-62 260,-62 260,4 -4,4"/>
<!-- Node0 -->
<g id="node1" class="node"><title>Node0</title>
<g id="a_node1"><a xlink:href="classbfl_1_1PFCorrection.html" target="_top" xlink:title="bfl::PFCorrection">
<polygon fill="white" stroke="black" points="0,-19.5 0,-38.5 89,-38.5 89,-19.5 0,-19.5"/>
<text text-anchor="middle" x="44.5" y="-26.5" font-family="Helvetica,sans-Serif" font-size="10.00">bfl::PFCorrection</text>
</a>
</g>
</g>
<!-- Node1 -->
<g id="node2" class="node"><title>Node1</title>
<g id="a_node2"><a xlink:href="classbfl_1_1PFCorrectionDecorator.html" target="_top" xlink:title="bfl::PFCorrectionDecorator">
<polygon fill="white" stroke="black" points="125,-38.5 125,-57.5 256,-57.5 256,-38.5 125,-38.5"/>
<text text-anchor="middle" x="190.5" y="-45.5" font-family="Helvetica,sans-Serif" font-size="10.00">bfl::PFCorrectionDecorator</text>
</a>
</g>
</g>
<!-- Node0&#45;&gt;Node1 -->
<g id="edge1" class="edge"><title>Node0&#45;&gt;Node1</title>
<path fill="none" stroke="midnightblue" d="M99.1015,-36.0724C107.477,-37.1775 116.208,-38.3295 124.799,-39.4631"/>
<polygon fill="midnightblue" stroke="midnightblue" points="99.4675,-32.5905 89.0955,-34.7522 98.5517,-39.5303 99.4675,-32.5905"/>
</g>
<!-- Node2 -->
<g id="node3" class="node"><title>Node2</title>
<g id="a_node3"><a xlink:href="classbfl_1_1UpdateParticles.html" target="_top" xlink:title="bfl::UpdateParticles">
<polygon fill="white" stroke="black" points="140,-0.5 140,-19.5 241,-19.5 241,-0.5 140,-0.5"/>
<text text-anchor="middle" x="190.5" y="-7.5" font-family="Helvetica,sans-Serif" font-size="10.00">bfl::UpdateParticles</text>
</a>
</g>
</g>
<!-- Node0&#45;&gt;Node2 -->
<g id="edge2" class="edge"><title>Node0&#45;&gt;Node2</title>
<path fill="none" stroke="midnightblue" d="M99.0731,-21.9313C112.394,-20.1737 126.617,-18.2971 139.746,-16.5648"/>
<polygon fill="midnightblue" stroke="midnightblue" points="98.5517,-18.4697 89.0955,-23.2478 99.4675,-25.4095 98.5517,-18.4697"/>
</g>
</g>
</svg>
