<?xml version="1.0" encoding="UTF-8" standalone="no"?>
<!DOCTYPE svg PUBLIC "-//W3C//DTD SVG 1.1//EN"
 "http://www.w3.org/Graphics/SVG/1.1/DTD/svg11.dtd">
<!-- Generated by graphviz version 2.38.0 (20140413.2041)
 -->
<!-- Title: Graphical Class Hierarchy Pages: 1 -->
<svg width="306pt" height="66pt"
 viewBox="0.00 0.00 306.00 66.00" xmlns="http://www.w3.org/2000/svg" xmlns:xlink="http://www.w3.org/1999/xlink">
<g id="graph0" class="graph" transform="scale(1 1) rotate(0) translate(4 62)">
<title>Graphical Class Hierarchy</title>
<polygon fill="white" stroke="none" points="-4,4 -4,-62 302,-62 302,4 -4,4"/>
<!-- Node0 -->
<g id="node1" class="node"><title>Node0</title>
<g id="a_node1"><a xlink:href="classbfl_1_1ObservationModel.html" target="_top" xlink:title="bfl::ObservationModel">
<polygon fill="white" stroke="black" points="0,-19.5 0,-38.5 110,-38.5 110,-19.5 0,-19.5"/>
<text text-anchor="middle" x="55" y="-26.5" font-family="Helvetica,sans-Serif" font-size="10.00">bfl::ObservationModel</text>
</a>
</g>
</g>
<!-- Node1 -->
<g id="node2" class="node"><title>Node1</title>
<g id="a_node2"><a xlink:href="classbfl_1_1LinearSensor.html" target="_top" xlink:title="bfl::LinearSensor">
<polygon fill="white" stroke="black" points="177.5,-38.5 177.5,-57.5 266.5,-57.5 266.5,-38.5 177.5,-38.5"/>
<text text-anchor="middle" x="222" y="-45.5" font-family="Helvetica,sans-Serif" font-size="10.00">bfl::LinearSensor</text>
</a>
</g>
</g>
<!-- Node0&#45;&gt;Node1 -->
<g id="edge1" class="edge"><title>Node0&#45;&gt;Node1</title>
<path fill="none" stroke="midnightblue" d="M120.178,-36.3902C139.3,-38.5921 159.805,-40.9533 177.297,-42.9676"/>
<polygon fill="midnightblue" stroke="midnightblue" points="120.362,-32.8883 110.027,-35.2213 119.561,-39.8424 120.362,-32.8883"/>
</g>
<!-- Node2 -->
<g id="node3" class="node"><title>Node2</title>
<g id="a_node3"><a xlink:href="classbfl_1_1ObservationModelDecorator.html" target="_top" xlink:title="bfl::ObservationModelDecorator">
<polygon fill="white" stroke="black" points="146,-0.5 146,-19.5 298,-19.5 298,-0.5 146,-0.5"/>
<text text-anchor="middle" x="222" y="-7.5" font-family="Helvetica,sans-Serif" font-size="10.00">bfl::ObservationModelDecorator</text>
</a>
</g>
</g>
<!-- Node0&#45;&gt;Node2 -->
<g id="edge2" class="edge"><title>Node0&#45;&gt;Node2</title>
<path fill="none" stroke="midnightblue" d="M120.155,-21.6125C128.588,-20.6414 137.291,-19.6392 145.886,-18.6495"/>
<polygon fill="midnightblue" stroke="midnightblue" points="119.561,-18.1576 110.027,-22.7787 120.362,-25.1117 119.561,-18.1576"/>
</g>
</g>
</svg>
