<?xml version="1.0" encoding="UTF-8" standalone="no"?>
<!DOCTYPE svg PUBLIC "-//W3C//DTD SVG 1.1//EN"
 "http://www.w3.org/Graphics/SVG/1.1/DTD/svg11.dtd">
<!-- Generated by graphviz version 2.38.0 (20140413.2041)
 -->
<!-- Title: C:/Users/cfantacci/GitHub/bayes&#45;filters&#45;lib/src/BayesFilters/include/BayesFilters/Initialization.h Pages: 1 -->
<svg width="645pt" height="339pt"
 viewBox="0.00 0.00 645.00 339.00" xmlns="http://www.w3.org/2000/svg" xmlns:xlink="http://www.w3.org/1999/xlink">
<g id="graph0" class="graph" transform="scale(1 1) rotate(0) translate(4 335)">
<title>C:/Users/cfantacci/GitHub/bayes&#45;filters&#45;lib/src/BayesFilters/include/BayesFilters/Initialization.h</title>
<polygon fill="white" stroke="none" points="-4,4 -4,-335 641,-335 641,4 -4,4"/>
<!-- Node2 -->
<g id="node1" class="node"><title>Node2</title>
<polygon fill="#bfbfbf" stroke="black" points="281.5,-278.5 281.5,-330.5 451.5,-330.5 451.5,-278.5 281.5,-278.5"/>
<text text-anchor="start" x="289.5" y="-318.5" font-family="Helvetica,sans-Serif" font-size="10.00">C:/Users/cfantacci</text>
<text text-anchor="start" x="289.5" y="-307.5" font-family="Helvetica,sans-Serif" font-size="10.00">/GitHub/bayes&#45;filters</text>
<text text-anchor="start" x="289.5" y="-296.5" font-family="Helvetica,sans-Serif" font-size="10.00">&#45;lib/src/BayesFilters</text>
<text text-anchor="middle" x="366.5" y="-285.5" font-family="Helvetica,sans-Serif" font-size="10.00">/include/BayesFilters/Initialization.h</text>
</g>
<!-- Node3 -->
<g id="node2" class="node"><title>Node3</title>
<g id="a_node2"><a xlink:href="ParticleFilter_8h.html" target="_top" xlink:title="C:/Users/cfantacci\l/GitHub/bayes&#45;filters\l&#45;lib/src/BayesFilters\l/include/BayesFilters/Particle\lFilter.h">
<polygon fill="white" stroke="black" points="123.5,-178.5 123.5,-241.5 267.5,-241.5 267.5,-178.5 123.5,-178.5"/>
<text text-anchor="start" x="131.5" y="-229.5" font-family="Helvetica,sans-Serif" font-size="10.00">C:/Users/cfantacci</text>
<text text-anchor="start" x="131.5" y="-218.5" font-family="Helvetica,sans-Serif" font-size="10.00">/GitHub/bayes&#45;filters</text>
<text text-anchor="start" x="131.5" y="-207.5" font-family="Helvetica,sans-Serif" font-size="10.00">&#45;lib/src/BayesFilters</text>
<text text-anchor="start" x="131.5" y="-196.5" font-family="Helvetica,sans-Serif" font-size="10.00">/include/BayesFilters/Particle</text>
<text text-anchor="middle" x="195.5" y="-185.5" font-family="Helvetica,sans-Serif" font-size="10.00">Filter.h</text>
</a>
</g>
</g>
<!-- Node2&#45;&gt;Node3 -->
<g id="edge1" class="edge"><title>Node2&#45;&gt;Node3</title>
<path fill="none" stroke="midnightblue" d="M311.417,-273.703C292.477,-263.459 271.249,-251.975 252.184,-241.663"/>
<polygon fill="midnightblue" stroke="midnightblue" points="309.764,-276.789 320.225,-278.468 313.095,-270.632 309.764,-276.789"/>
</g>
<!-- Node7 -->
<g id="node6" class="node"><title>Node7</title>
<g id="a_node6"><a xlink:href="ResamplingWithPrior_8h.html" target="_top" xlink:title="C:/Users/cfantacci\l/GitHub/bayes&#45;filters\l&#45;lib/src/BayesFilters\l/include/BayesFilters/Resampling\lWithPrior.h">
<polygon fill="white" stroke="black" points="285.5,-178.5 285.5,-241.5 447.5,-241.5 447.5,-178.5 285.5,-178.5"/>
<text text-anchor="start" x="293.5" y="-229.5" font-family="Helvetica,sans-Serif" font-size="10.00">C:/Users/cfantacci</text>
<text text-anchor="start" x="293.5" y="-218.5" font-family="Helvetica,sans-Serif" font-size="10.00">/GitHub/bayes&#45;filters</text>
<text text-anchor="start" x="293.5" y="-207.5" font-family="Helvetica,sans-Serif" font-size="10.00">&#45;lib/src/BayesFilters</text>
<text text-anchor="start" x="293.5" y="-196.5" font-family="Helvetica,sans-Serif" font-size="10.00">/include/BayesFilters/Resampling</text>
<text text-anchor="middle" x="366.5" y="-185.5" font-family="Helvetica,sans-Serif" font-size="10.00">WithPrior.h</text>
</a>
</g>
</g>
<!-- Node2&#45;&gt;Node7 -->
<g id="edge5" class="edge"><title>Node2&#45;&gt;Node7</title>
<path fill="none" stroke="midnightblue" d="M366.5,-267.945C366.5,-259.226 366.5,-249.97 366.5,-241.512"/>
<polygon fill="midnightblue" stroke="midnightblue" points="363,-268.224 366.5,-278.224 370,-268.224 363,-268.224"/>
</g>
<!-- Node9 -->
<g id="node8" class="node"><title>Node9</title>
<g id="a_node8"><a xlink:href="VisualParticleFilter_8h.html" target="_top" xlink:title="C:/Users/cfantacci\l/GitHub/bayes&#45;filters\l&#45;lib/src/BayesFilters\l/include/BayesFilters/VisualParticle\lFilter.h">
<polygon fill="white" stroke="black" points="466,-178.5 466,-241.5 637,-241.5 637,-178.5 466,-178.5"/>
<text text-anchor="start" x="474" y="-229.5" font-family="Helvetica,sans-Serif" font-size="10.00">C:/Users/cfantacci</text>
<text text-anchor="start" x="474" y="-218.5" font-family="Helvetica,sans-Serif" font-size="10.00">/GitHub/bayes&#45;filters</text>
<text text-anchor="start" x="474" y="-207.5" font-family="Helvetica,sans-Serif" font-size="10.00">&#45;lib/src/BayesFilters</text>
<text text-anchor="start" x="474" y="-196.5" font-family="Helvetica,sans-Serif" font-size="10.00">/include/BayesFilters/VisualParticle</text>
<text text-anchor="middle" x="551.5" y="-185.5" font-family="Helvetica,sans-Serif" font-size="10.00">Filter.h</text>
</a>
</g>
</g>
<!-- Node2&#45;&gt;Node9 -->
<g id="edge7" class="edge"><title>Node2&#45;&gt;Node9</title>
<path fill="none" stroke="midnightblue" d="M425.537,-273.981C446.167,-263.667 469.363,-252.069 490.175,-241.663"/>
<polygon fill="midnightblue" stroke="midnightblue" points="423.943,-270.865 416.564,-278.468 427.073,-277.126 423.943,-270.865"/>
</g>
<!-- Node4 -->
<g id="node3" class="node"><title>Node4</title>
<g id="a_node3"><a xlink:href="SIS_8h.html" target="_top" xlink:title="C:/Users/cfantacci\l/GitHub/bayes&#45;filters\l&#45;lib/src/BayesFilters\l/include/BayesFilters/SIS.h">
<polygon fill="white" stroke="black" points="0,-89.5 0,-141.5 135,-141.5 135,-89.5 0,-89.5"/>
<text text-anchor="start" x="8" y="-129.5" font-family="Helvetica,sans-Serif" font-size="10.00">C:/Users/cfantacci</text>
<text text-anchor="start" x="8" y="-118.5" font-family="Helvetica,sans-Serif" font-size="10.00">/GitHub/bayes&#45;filters</text>
<text text-anchor="start" x="8" y="-107.5" font-family="Helvetica,sans-Serif" font-size="10.00">&#45;lib/src/BayesFilters</text>
<text text-anchor="middle" x="67.5" y="-96.5" font-family="Helvetica,sans-Serif" font-size="10.00">/include/BayesFilters/SIS.h</text>
</a>
</g>
</g>
<!-- Node3&#45;&gt;Node4 -->
<g id="edge2" class="edge"><title>Node3&#45;&gt;Node4</title>
<path fill="none" stroke="midnightblue" d="M144.98,-172.492C130.742,-162.202 115.571,-151.238 102.462,-141.766"/>
<polygon fill="midnightblue" stroke="midnightblue" points="143.078,-175.435 153.233,-178.456 147.178,-169.762 143.078,-175.435"/>
</g>
<!-- Node6 -->
<g id="node5" class="node"><title>Node6</title>
<g id="a_node5"><a xlink:href="ParticleFilter_8cpp.html" target="_top" xlink:title="C:/Users/cfantacci\l/GitHub/bayes&#45;filters\l&#45;lib/src/BayesFilters\l/src/ParticleFilter.cpp">
<polygon fill="white" stroke="black" points="153.5,-89.5 153.5,-141.5 263.5,-141.5 263.5,-89.5 153.5,-89.5"/>
<text text-anchor="start" x="161.5" y="-129.5" font-family="Helvetica,sans-Serif" font-size="10.00">C:/Users/cfantacci</text>
<text text-anchor="start" x="161.5" y="-118.5" font-family="Helvetica,sans-Serif" font-size="10.00">/GitHub/bayes&#45;filters</text>
<text text-anchor="start" x="161.5" y="-107.5" font-family="Helvetica,sans-Serif" font-size="10.00">&#45;lib/src/BayesFilters</text>
<text text-anchor="middle" x="208.5" y="-96.5" font-family="Helvetica,sans-Serif" font-size="10.00">/src/ParticleFilter.cpp</text>
</a>
</g>
</g>
<!-- Node3&#45;&gt;Node6 -->
<g id="edge4" class="edge"><title>Node3&#45;&gt;Node6</title>
<path fill="none" stroke="midnightblue" d="M201.203,-168.423C202.477,-159.359 203.792,-149.999 204.949,-141.766"/>
<polygon fill="midnightblue" stroke="midnightblue" points="197.719,-168.066 199.793,-178.456 204.65,-169.04 197.719,-168.066"/>
</g>
<!-- Node5 -->
<g id="node4" class="node"><title>Node5</title>
<g id="a_node4"><a xlink:href="SIS_8cpp.html" target="_top" xlink:title="C:/Users/cfantacci\l/GitHub/bayes&#45;filters\l&#45;lib/src/BayesFilters\l/src/SIS.cpp">
<polygon fill="white" stroke="black" points="15,-0.5 15,-52.5 120,-52.5 120,-0.5 15,-0.5"/>
<text text-anchor="start" x="23" y="-40.5" font-family="Helvetica,sans-Serif" font-size="10.00">C:/Users/cfantacci</text>
<text text-anchor="start" x="23" y="-29.5" font-family="Helvetica,sans-Serif" font-size="10.00">/GitHub/bayes&#45;filters</text>
<text text-anchor="start" x="23" y="-18.5" font-family="Helvetica,sans-Serif" font-size="10.00">&#45;lib/src/BayesFilters</text>
<text text-anchor="middle" x="67.5" y="-7.5" font-family="Helvetica,sans-Serif" font-size="10.00">/src/SIS.cpp</text>
</a>
</g>
</g>
<!-- Node4&#45;&gt;Node5 -->
<g id="edge3" class="edge"><title>Node4&#45;&gt;Node5</title>
<path fill="none" stroke="midnightblue" d="M67.5,-79.1908C67.5,-70.2824 67.5,-60.8986 67.5,-52.6075"/>
<polygon fill="midnightblue" stroke="midnightblue" points="64.0001,-79.336 67.5,-89.336 71.0001,-79.336 64.0001,-79.336"/>
</g>
<!-- Node8 -->
<g id="node7" class="node"><title>Node8</title>
<g id="a_node7"><a xlink:href="ResamplingWithPrior_8cpp.html" target="_top" xlink:title="C:/Users/cfantacci\l/GitHub/bayes&#45;filters\l&#45;lib/src/BayesFilters\l/src/ResamplingWithPrior.cpp">
<polygon fill="white" stroke="black" points="293.5,-89.5 293.5,-141.5 439.5,-141.5 439.5,-89.5 293.5,-89.5"/>
<text text-anchor="start" x="301.5" y="-129.5" font-family="Helvetica,sans-Serif" font-size="10.00">C:/Users/cfantacci</text>
<text text-anchor="start" x="301.5" y="-118.5" font-family="Helvetica,sans-Serif" font-size="10.00">/GitHub/bayes&#45;filters</text>
<text text-anchor="start" x="301.5" y="-107.5" font-family="Helvetica,sans-Serif" font-size="10.00">&#45;lib/src/BayesFilters</text>
<text text-anchor="middle" x="366.5" y="-96.5" font-family="Helvetica,sans-Serif" font-size="10.00">/src/ResamplingWithPrior.cpp</text>
</a>
</g>
</g>
<!-- Node7&#45;&gt;Node8 -->
<g id="edge6" class="edge"><title>Node7&#45;&gt;Node8</title>
<path fill="none" stroke="midnightblue" d="M366.5,-168.423C366.5,-159.359 366.5,-149.999 366.5,-141.766"/>
<polygon fill="midnightblue" stroke="midnightblue" points="363,-168.456 366.5,-178.456 370,-168.456 363,-168.456"/>
</g>
<!-- Node10 -->
<g id="node9" class="node"><title>Node10</title>
<g id="a_node9"><a xlink:href="VisualParticleFilter_8cpp.html" target="_top" xlink:title="C:/Users/cfantacci\l/GitHub/bayes&#45;filters\l&#45;lib/src/BayesFilters\l/src/VisualParticleFilter.cpp">
<polygon fill="white" stroke="black" points="483,-89.5 483,-141.5 620,-141.5 620,-89.5 483,-89.5"/>
<text text-anchor="start" x="491" y="-129.5" font-family="Helvetica,sans-Serif" font-size="10.00">C:/Users/cfantacci</text>
<text text-anchor="start" x="491" y="-118.5" font-family="Helvetica,sans-Serif" font-size="10.00">/GitHub/bayes&#45;filters</text>
<text text-anchor="start" x="491" y="-107.5" font-family="Helvetica,sans-Serif" font-size="10.00">&#45;lib/src/BayesFilters</text>
<text text-anchor="middle" x="551.5" y="-96.5" font-family="Helvetica,sans-Serif" font-size="10.00">/src/VisualParticleFilter.cpp</text>
</a>
</g>
</g>
<!-- Node9&#45;&gt;Node10 -->
<g id="edge8" class="edge"><title>Node9&#45;&gt;Node10</title>
<path fill="none" stroke="midnightblue" d="M551.5,-168.423C551.5,-159.359 551.5,-149.999 551.5,-141.766"/>
<polygon fill="midnightblue" stroke="midnightblue" points="548,-168.456 551.5,-178.456 555,-168.456 548,-168.456"/>
</g>
</g>
</svg>
