<?xml version="1.0" encoding="UTF-8" standalone="no"?>
<!DOCTYPE svg PUBLIC "-//W3C//DTD SVG 1.1//EN"
 "http://www.w3.org/Graphics/SVG/1.1/DTD/svg11.dtd">
<!-- Generated by graphviz version 2.38.0 (20140413.2041)
 -->
<!-- Title: C:/Users/cfantacci/GitHub/bayes&#45;filters&#45;lib/src/BayesFilters/include/BayesFilters/LinearSensor.h Pages: 1 -->
<svg width="261pt" height="173pt"
 viewBox="0.00 0.00 260.50 173.00" xmlns="http://www.w3.org/2000/svg" xmlns:xlink="http://www.w3.org/1999/xlink">
<g id="graph0" class="graph" transform="scale(1 1) rotate(0) translate(4 169)">
<title>C:/Users/cfantacci/GitHub/bayes&#45;filters&#45;lib/src/BayesFilters/include/BayesFilters/LinearSensor.h</title>
<polygon fill="white" stroke="none" points="-4,4 -4,-169 256.5,-169 256.5,4 -4,4"/>
<!-- Node0 -->
<g id="node1" class="node"><title>Node0</title>
<polygon fill="#bfbfbf" stroke="black" points="13,-112.5 13,-164.5 189,-164.5 189,-112.5 13,-112.5"/>
<text text-anchor="start" x="21" y="-152.5" font-family="Helvetica,sans-Serif" font-size="10.00">C:/Users/cfantacci</text>
<text text-anchor="start" x="21" y="-141.5" font-family="Helvetica,sans-Serif" font-size="10.00">/GitHub/bayes&#45;filters</text>
<text text-anchor="start" x="21" y="-130.5" font-family="Helvetica,sans-Serif" font-size="10.00">&#45;lib/src/BayesFilters</text>
<text text-anchor="middle" x="101" y="-119.5" font-family="Helvetica,sans-Serif" font-size="10.00">/include/BayesFilters/LinearSensor.h</text>
</g>
<!-- Node1 -->
<g id="node2" class="node"><title>Node1</title>
<polygon fill="white" stroke="#bfbfbf" points="0,-56.5 0,-75.5 58,-75.5 58,-56.5 0,-56.5"/>
<text text-anchor="middle" x="29" y="-63.5" font-family="Helvetica,sans-Serif" font-size="10.00">functional</text>
</g>
<!-- Node0&#45;&gt;Node1 -->
<g id="edge1" class="edge"><title>Node0&#45;&gt;Node1</title>
<path fill="none" stroke="midnightblue" d="M75.4128,-112.446C65.3862,-102.628 54.1805,-91.6559 45.2918,-82.9524"/>
<polygon fill="midnightblue" stroke="midnightblue" points="47.4743,-80.191 37.8805,-75.6955 42.5769,-85.1926 47.4743,-80.191"/>
</g>
<!-- Node2 -->
<g id="node3" class="node"><title>Node2</title>
<polygon fill="white" stroke="#bfbfbf" points="76.5,-56.5 76.5,-75.5 125.5,-75.5 125.5,-56.5 76.5,-56.5"/>
<text text-anchor="middle" x="101" y="-63.5" font-family="Helvetica,sans-Serif" font-size="10.00">random</text>
</g>
<!-- Node0&#45;&gt;Node2 -->
<g id="edge2" class="edge"><title>Node0&#45;&gt;Node2</title>
<path fill="none" stroke="midnightblue" d="M101,-112.446C101,-103.73 101,-94.1045 101,-85.9641"/>
<polygon fill="midnightblue" stroke="midnightblue" points="104.5,-85.6954 101,-75.6955 97.5001,-85.6955 104.5,-85.6954"/>
</g>
<!-- Node3 -->
<g id="node4" class="node"><title>Node3</title>
<g id="a_node4"><a xlink:href="ObservationModel_8h.html" target="_top" xlink:title="ObservationModel.h">
<polygon fill="white" stroke="black" points="144,-56.5 144,-75.5 246,-75.5 246,-56.5 144,-56.5"/>
<text text-anchor="middle" x="195" y="-63.5" font-family="Helvetica,sans-Serif" font-size="10.00">ObservationModel.h</text>
</a>
</g>
</g>
<!-- Node0&#45;&gt;Node3 -->
<g id="edge3" class="edge"><title>Node0&#45;&gt;Node3</title>
<path fill="none" stroke="midnightblue" d="M134.406,-112.446C148.03,-102.227 163.322,-90.7583 175.136,-81.8983"/>
<polygon fill="midnightblue" stroke="midnightblue" points="177.506,-84.4955 183.406,-75.6955 173.306,-78.8955 177.506,-84.4955"/>
</g>
<!-- Node4 -->
<g id="node5" class="node"><title>Node4</title>
<polygon fill="white" stroke="#bfbfbf" points="121,-0.5 121,-19.5 193,-19.5 193,-0.5 121,-0.5"/>
<text text-anchor="middle" x="157" y="-7.5" font-family="Helvetica,sans-Serif" font-size="10.00">Eigen/Dense</text>
</g>
<!-- Node3&#45;&gt;Node4 -->
<g id="edge4" class="edge"><title>Node3&#45;&gt;Node4</title>
<path fill="none" stroke="midnightblue" d="M188.725,-56.083C183.358,-48.4554 175.482,-37.2645 168.921,-27.9408"/>
<polygon fill="midnightblue" stroke="midnightblue" points="171.775,-25.9149 163.158,-19.7511 166.051,-29.9434 171.775,-25.9149"/>
</g>
<!-- Node5 -->
<g id="node6" class="node"><title>Node5</title>
<polygon fill="white" stroke="#bfbfbf" points="211.5,-0.5 211.5,-19.5 252.5,-19.5 252.5,-0.5 211.5,-0.5"/>
<text text-anchor="middle" x="232" y="-7.5" font-family="Helvetica,sans-Serif" font-size="10.00">string</text>
</g>
<!-- Node3&#45;&gt;Node5 -->
<g id="edge5" class="edge"><title>Node3&#45;&gt;Node5</title>
<path fill="none" stroke="midnightblue" d="M201.11,-56.083C206.282,-48.5341 213.846,-37.4948 220.194,-28.2298"/>
<polygon fill="midnightblue" stroke="midnightblue" points="223.239,-29.9787 226.004,-19.7511 217.464,-26.0221 223.239,-29.9787"/>
</g>
</g>
</svg>
