<?xml version="1.0" encoding="UTF-8" standalone="no"?>
<!DOCTYPE svg PUBLIC "-//W3C//DTD SVG 1.1//EN"
 "http://www.w3.org/Graphics/SVG/1.1/DTD/svg11.dtd">
<!-- Generated by graphviz version 2.38.0 (20140413.2041)
 -->
<!-- Title: C:/Users/cfantacci/GitHub/bayes&#45;filters&#45;lib/src/BayesFilters/src/LinearSensor.cpp Pages: 1 -->
<svg width="299pt" height="229pt"
 viewBox="0.00 0.00 299.00 229.00" xmlns="http://www.w3.org/2000/svg" xmlns:xlink="http://www.w3.org/1999/xlink">
<g id="graph0" class="graph" transform="scale(1 1) rotate(0) translate(4 225)">
<title>C:/Users/cfantacci/GitHub/bayes&#45;filters&#45;lib/src/BayesFilters/src/LinearSensor.cpp</title>
<polygon fill="white" stroke="none" points="-4,4 -4,-225 295,-225 295,4 -4,4"/>
<!-- Node0 -->
<g id="node1" class="node"><title>Node0</title>
<polygon fill="#bfbfbf" stroke="black" points="155,-168.5 155,-220.5 267,-220.5 267,-168.5 155,-168.5"/>
<text text-anchor="start" x="163" y="-208.5" font-family="Helvetica,sans-Serif" font-size="10.00">C:/Users/cfantacci</text>
<text text-anchor="start" x="163" y="-197.5" font-family="Helvetica,sans-Serif" font-size="10.00">/GitHub/bayes&#45;filters</text>
<text text-anchor="start" x="163" y="-186.5" font-family="Helvetica,sans-Serif" font-size="10.00">&#45;lib/src/BayesFilters</text>
<text text-anchor="middle" x="211" y="-175.5" font-family="Helvetica,sans-Serif" font-size="10.00">/src/LinearSensor.cpp</text>
</g>
<!-- Node1 -->
<g id="node2" class="node"><title>Node1</title>
<g id="a_node2"><a xlink:href="LinearSensor_8h.html" target="_top" xlink:title="BayesFilters/LinearSensor.h">
<polygon fill="white" stroke="black" points="31,-112.5 31,-131.5 171,-131.5 171,-112.5 31,-112.5"/>
<text text-anchor="middle" x="101" y="-119.5" font-family="Helvetica,sans-Serif" font-size="10.00">BayesFilters/LinearSensor.h</text>
</a>
</g>
</g>
<!-- Node0&#45;&gt;Node1 -->
<g id="edge1" class="edge"><title>Node0&#45;&gt;Node1</title>
<path fill="none" stroke="midnightblue" d="M171.908,-168.446C155.394,-157.862 136.787,-145.936 122.778,-136.958"/>
<polygon fill="midnightblue" stroke="midnightblue" points="124.612,-133.976 114.304,-131.527 120.835,-139.87 124.612,-133.976"/>
</g>
<!-- Node7 -->
<g id="node8" class="node"><title>Node7</title>
<polygon fill="white" stroke="#bfbfbf" points="189,-112.5 189,-131.5 233,-131.5 233,-112.5 189,-112.5"/>
<text text-anchor="middle" x="211" y="-119.5" font-family="Helvetica,sans-Serif" font-size="10.00">cmath</text>
</g>
<!-- Node0&#45;&gt;Node7 -->
<g id="edge7" class="edge"><title>Node0&#45;&gt;Node7</title>
<path fill="none" stroke="midnightblue" d="M211,-168.446C211,-159.73 211,-150.104 211,-141.964"/>
<polygon fill="midnightblue" stroke="midnightblue" points="214.5,-141.695 211,-131.695 207.5,-141.696 214.5,-141.695"/>
</g>
<!-- Node8 -->
<g id="node9" class="node"><title>Node8</title>
<polygon fill="white" stroke="#bfbfbf" points="251,-112.5 251,-131.5 291,-131.5 291,-112.5 251,-112.5"/>
<text text-anchor="middle" x="271" y="-119.5" font-family="Helvetica,sans-Serif" font-size="10.00">utility</text>
</g>
<!-- Node0&#45;&gt;Node8 -->
<g id="edge8" class="edge"><title>Node0&#45;&gt;Node8</title>
<path fill="none" stroke="midnightblue" d="M232.323,-168.446C240.508,-158.828 249.636,-148.103 256.968,-139.488"/>
<polygon fill="midnightblue" stroke="midnightblue" points="259.784,-141.579 263.6,-131.695 254.453,-137.042 259.784,-141.579"/>
</g>
<!-- Node2 -->
<g id="node3" class="node"><title>Node2</title>
<polygon fill="white" stroke="#bfbfbf" points="0,-56.5 0,-75.5 58,-75.5 58,-56.5 0,-56.5"/>
<text text-anchor="middle" x="29" y="-63.5" font-family="Helvetica,sans-Serif" font-size="10.00">functional</text>
</g>
<!-- Node1&#45;&gt;Node2 -->
<g id="edge2" class="edge"><title>Node1&#45;&gt;Node2</title>
<path fill="none" stroke="midnightblue" d="M89.432,-112.324C78.5798,-104.185 62.1193,-91.8395 49.1166,-82.0874"/>
<polygon fill="midnightblue" stroke="midnightblue" points="50.8786,-79.0339 40.7785,-75.8339 46.6785,-84.6339 50.8786,-79.0339"/>
</g>
<!-- Node3 -->
<g id="node4" class="node"><title>Node3</title>
<polygon fill="white" stroke="#bfbfbf" points="76.5,-56.5 76.5,-75.5 125.5,-75.5 125.5,-56.5 76.5,-56.5"/>
<text text-anchor="middle" x="101" y="-63.5" font-family="Helvetica,sans-Serif" font-size="10.00">random</text>
</g>
<!-- Node1&#45;&gt;Node3 -->
<g id="edge3" class="edge"><title>Node1&#45;&gt;Node3</title>
<path fill="none" stroke="midnightblue" d="M101,-112.083C101,-105.006 101,-94.8611 101,-85.9865"/>
<polygon fill="midnightblue" stroke="midnightblue" points="104.5,-85.751 101,-75.7511 97.5001,-85.7511 104.5,-85.751"/>
</g>
<!-- Node4 -->
<g id="node5" class="node"><title>Node4</title>
<g id="a_node5"><a xlink:href="ObservationModel_8h.html" target="_top" xlink:title="ObservationModel.h">
<polygon fill="white" stroke="black" points="144,-56.5 144,-75.5 246,-75.5 246,-56.5 144,-56.5"/>
<text text-anchor="middle" x="195" y="-63.5" font-family="Helvetica,sans-Serif" font-size="10.00">ObservationModel.h</text>
</a>
</g>
</g>
<!-- Node1&#45;&gt;Node4 -->
<g id="edge4" class="edge"><title>Node1&#45;&gt;Node4</title>
<path fill="none" stroke="midnightblue" d="M116.103,-112.324C130.903,-103.822 153.694,-90.7288 170.982,-80.7975"/>
<polygon fill="midnightblue" stroke="midnightblue" points="173.007,-83.6707 179.935,-75.6545 169.52,-77.6009 173.007,-83.6707"/>
</g>
<!-- Node5 -->
<g id="node6" class="node"><title>Node5</title>
<polygon fill="white" stroke="#bfbfbf" points="121,-0.5 121,-19.5 193,-19.5 193,-0.5 121,-0.5"/>
<text text-anchor="middle" x="157" y="-7.5" font-family="Helvetica,sans-Serif" font-size="10.00">Eigen/Dense</text>
</g>
<!-- Node4&#45;&gt;Node5 -->
<g id="edge5" class="edge"><title>Node4&#45;&gt;Node5</title>
<path fill="none" stroke="midnightblue" d="M188.725,-56.083C183.358,-48.4554 175.482,-37.2645 168.921,-27.9408"/>
<polygon fill="midnightblue" stroke="midnightblue" points="171.775,-25.9149 163.158,-19.7511 166.051,-29.9434 171.775,-25.9149"/>
</g>
<!-- Node6 -->
<g id="node7" class="node"><title>Node6</title>
<polygon fill="white" stroke="#bfbfbf" points="211.5,-0.5 211.5,-19.5 252.5,-19.5 252.5,-0.5 211.5,-0.5"/>
<text text-anchor="middle" x="232" y="-7.5" font-family="Helvetica,sans-Serif" font-size="10.00">string</text>
</g>
<!-- Node4&#45;&gt;Node6 -->
<g id="edge6" class="edge"><title>Node4&#45;&gt;Node6</title>
<path fill="none" stroke="midnightblue" d="M201.11,-56.083C206.282,-48.5341 213.846,-37.4948 220.194,-28.2298"/>
<polygon fill="midnightblue" stroke="midnightblue" points="223.239,-29.9787 226.004,-19.7511 217.464,-26.0221 223.239,-29.9787"/>
</g>
</g>
</svg>
