<?xml version="1.0" encoding="UTF-8" standalone="no"?>
<!DOCTYPE svg PUBLIC "-//W3C//DTD SVG 1.1//EN"
 "http://www.w3.org/Graphics/SVG/1.1/DTD/svg11.dtd">
<!-- Generated by graphviz version 2.38.0 (20140413.2041)
 -->
<!-- Title: C:/Users/cfantacci/GitHub/bayes&#45;filters&#45;lib/src/BayesFilters/src/ObservationModelDecorator.cpp Pages: 1 -->
<svg width="215pt" height="240pt"
 viewBox="0.00 0.00 215.00 240.00" xmlns="http://www.w3.org/2000/svg" xmlns:xlink="http://www.w3.org/1999/xlink">
<g id="graph0" class="graph" transform="scale(1 1) rotate(0) translate(4 236)">
<title>C:/Users/cfantacci/GitHub/bayes&#45;filters&#45;lib/src/BayesFilters/src/ObservationModelDecorator.cpp</title>
<polygon fill="white" stroke="none" points="-4,4 -4,-236 211,-236 211,4 -4,4"/>
<!-- Node0 -->
<g id="node1" class="node"><title>Node0</title>
<polygon fill="#bfbfbf" stroke="black" points="33,-179.5 33,-231.5 207,-231.5 207,-179.5 33,-179.5"/>
<text text-anchor="start" x="41" y="-219.5" font-family="Helvetica,sans-Serif" font-size="10.00">C:/Users/cfantacci</text>
<text text-anchor="start" x="41" y="-208.5" font-family="Helvetica,sans-Serif" font-size="10.00">/GitHub/bayes&#45;filters</text>
<text text-anchor="start" x="41" y="-197.5" font-family="Helvetica,sans-Serif" font-size="10.00">&#45;lib/src/BayesFilters</text>
<text text-anchor="middle" x="120" y="-186.5" font-family="Helvetica,sans-Serif" font-size="10.00">/src/ObservationModelDecorator.cpp</text>
</g>
<!-- Node1 -->
<g id="node2" class="node"><title>Node1</title>
<g id="a_node2"><a xlink:href="ObservationModelDecorator_8h.html" target="_top" xlink:title="BayesFilters/Observation\lModelDecorator.h">
<polygon fill="white" stroke="black" points="57.5,-112.5 57.5,-142.5 182.5,-142.5 182.5,-112.5 57.5,-112.5"/>
<text text-anchor="start" x="65.5" y="-130.5" font-family="Helvetica,sans-Serif" font-size="10.00">BayesFilters/Observation</text>
<text text-anchor="middle" x="120" y="-119.5" font-family="Helvetica,sans-Serif" font-size="10.00">ModelDecorator.h</text>
</a>
</g>
</g>
<!-- Node0&#45;&gt;Node1 -->
<g id="edge1" class="edge"><title>Node0&#45;&gt;Node1</title>
<path fill="none" stroke="midnightblue" d="M120,-179.193C120,-170.786 120,-161.443 120,-153.091"/>
<polygon fill="midnightblue" stroke="midnightblue" points="123.5,-152.845 120,-142.845 116.5,-152.845 123.5,-152.845"/>
</g>
<!-- Node2 -->
<g id="node3" class="node"><title>Node2</title>
<g id="a_node3"><a xlink:href="ObservationModel_8h.html" target="_top" xlink:title="ObservationModel.h">
<polygon fill="white" stroke="black" points="22,-56.5 22,-75.5 124,-75.5 124,-56.5 22,-56.5"/>
<text text-anchor="middle" x="73" y="-63.5" font-family="Helvetica,sans-Serif" font-size="10.00">ObservationModel.h</text>
</a>
</g>
</g>
<!-- Node1&#45;&gt;Node2 -->
<g id="edge2" class="edge"><title>Node1&#45;&gt;Node2</title>
<path fill="none" stroke="midnightblue" d="M108.862,-112.399C102.032,-103.753 93.255,-92.642 86.0936,-83.576"/>
<polygon fill="midnightblue" stroke="midnightblue" points="88.784,-81.3354 79.8389,-75.6578 83.291,-85.6745 88.784,-81.3354"/>
</g>
<!-- Node5 -->
<g id="node6" class="node"><title>Node5</title>
<polygon fill="white" stroke="#bfbfbf" points="142,-56.5 142,-75.5 194,-75.5 194,-56.5 142,-56.5"/>
<text text-anchor="middle" x="168" y="-63.5" font-family="Helvetica,sans-Serif" font-size="10.00">memory</text>
</g>
<!-- Node1&#45;&gt;Node5 -->
<g id="edge5" class="edge"><title>Node1&#45;&gt;Node5</title>
<path fill="none" stroke="midnightblue" d="M131.375,-112.399C138.35,-103.753 147.314,-92.642 154.628,-83.576"/>
<polygon fill="midnightblue" stroke="midnightblue" points="157.461,-85.6385 161.016,-75.6578 152.013,-81.2433 157.461,-85.6385"/>
</g>
<!-- Node3 -->
<g id="node4" class="node"><title>Node3</title>
<polygon fill="white" stroke="#bfbfbf" points="0,-0.5 0,-19.5 72,-19.5 72,-0.5 0,-0.5"/>
<text text-anchor="middle" x="36" y="-7.5" font-family="Helvetica,sans-Serif" font-size="10.00">Eigen/Dense</text>
</g>
<!-- Node2&#45;&gt;Node3 -->
<g id="edge3" class="edge"><title>Node2&#45;&gt;Node3</title>
<path fill="none" stroke="midnightblue" d="M66.8902,-56.083C61.7178,-48.5341 54.1539,-37.4948 47.8056,-28.2298"/>
<polygon fill="midnightblue" stroke="midnightblue" points="50.5357,-26.0221 41.9961,-19.7511 44.7612,-29.9787 50.5357,-26.0221"/>
</g>
<!-- Node4 -->
<g id="node5" class="node"><title>Node4</title>
<polygon fill="white" stroke="#bfbfbf" points="90.5,-0.5 90.5,-19.5 131.5,-19.5 131.5,-0.5 90.5,-0.5"/>
<text text-anchor="middle" x="111" y="-7.5" font-family="Helvetica,sans-Serif" font-size="10.00">string</text>
</g>
<!-- Node2&#45;&gt;Node4 -->
<g id="edge4" class="edge"><title>Node2&#45;&gt;Node4</title>
<path fill="none" stroke="midnightblue" d="M79.2749,-56.083C84.6425,-48.4554 92.5176,-37.2645 99.0787,-27.9408"/>
<polygon fill="midnightblue" stroke="midnightblue" points="101.949,-29.9434 104.842,-19.7511 96.2245,-25.9149 101.949,-29.9434"/>
</g>
</g>
</svg>
