<?xml version="1.0" encoding="UTF-8" standalone="no"?>
<!DOCTYPE svg PUBLIC "-//W3C//DTD SVG 1.1//EN"
 "http://www.w3.org/Graphics/SVG/1.1/DTD/svg11.dtd">
<!-- Generated by graphviz version 2.38.0 (20140413.2041)
 -->
<!-- Title: C:/Users/cfantacci/GitHub/bayes&#45;filters&#45;lib/src/BayesFilters/include/BayesFilters/ObservationModelDecorator.h Pages: 1 -->
<svg width="209pt" height="184pt"
 viewBox="0.00 0.00 209.00 184.00" xmlns="http://www.w3.org/2000/svg" xmlns:xlink="http://www.w3.org/1999/xlink">
<g id="graph0" class="graph" transform="scale(1 1) rotate(0) translate(4 180)">
<title>C:/Users/cfantacci/GitHub/bayes&#45;filters&#45;lib/src/BayesFilters/include/BayesFilters/ObservationModelDecorator.h</title>
<polygon fill="white" stroke="none" points="-4,4 -4,-180 205,-180 205,4 -4,4"/>
<!-- Node0 -->
<g id="node1" class="node"><title>Node0</title>
<polygon fill="#bfbfbf" stroke="black" points="39,-112.5 39,-175.5 201,-175.5 201,-112.5 39,-112.5"/>
<text text-anchor="start" x="47" y="-163.5" font-family="Helvetica,sans-Serif" font-size="10.00">C:/Users/cfantacci</text>
<text text-anchor="start" x="47" y="-152.5" font-family="Helvetica,sans-Serif" font-size="10.00">/GitHub/bayes&#45;filters</text>
<text text-anchor="start" x="47" y="-141.5" font-family="Helvetica,sans-Serif" font-size="10.00">&#45;lib/src/BayesFilters</text>
<text text-anchor="start" x="47" y="-130.5" font-family="Helvetica,sans-Serif" font-size="10.00">/include/BayesFilters/Observation</text>
<text text-anchor="middle" x="120" y="-119.5" font-family="Helvetica,sans-Serif" font-size="10.00">ModelDecorator.h</text>
</g>
<!-- Node1 -->
<g id="node2" class="node"><title>Node1</title>
<g id="a_node2"><a xlink:href="ObservationModel_8h.html" target="_top" xlink:title="ObservationModel.h">
<polygon fill="white" stroke="black" points="22,-56.5 22,-75.5 124,-75.5 124,-56.5 22,-56.5"/>
<text text-anchor="middle" x="73" y="-63.5" font-family="Helvetica,sans-Serif" font-size="10.00">ObservationModel.h</text>
</a>
</g>
</g>
<!-- Node0&#45;&gt;Node1 -->
<g id="edge1" class="edge"><title>Node0&#45;&gt;Node1</title>
<path fill="none" stroke="midnightblue" d="M100.883,-112.088C95.038,-102.636 88.8175,-92.5773 83.7386,-84.3645"/>
<polygon fill="midnightblue" stroke="midnightblue" points="86.628,-82.3823 78.3915,-75.7182 80.6745,-86.0641 86.628,-82.3823"/>
</g>
<!-- Node4 -->
<g id="node5" class="node"><title>Node4</title>
<polygon fill="white" stroke="#bfbfbf" points="142,-56.5 142,-75.5 194,-75.5 194,-56.5 142,-56.5"/>
<text text-anchor="middle" x="168" y="-63.5" font-family="Helvetica,sans-Serif" font-size="10.00">memory</text>
</g>
<!-- Node0&#45;&gt;Node4 -->
<g id="edge4" class="edge"><title>Node0&#45;&gt;Node4</title>
<path fill="none" stroke="midnightblue" d="M139.523,-112.088C145.493,-102.636 151.846,-92.5773 157.033,-84.3645"/>
<polygon fill="midnightblue" stroke="midnightblue" points="160.113,-86.0421 162.494,-75.7182 154.195,-82.3041 160.113,-86.0421"/>
</g>
<!-- Node2 -->
<g id="node3" class="node"><title>Node2</title>
<polygon fill="white" stroke="#bfbfbf" points="0,-0.5 0,-19.5 72,-19.5 72,-0.5 0,-0.5"/>
<text text-anchor="middle" x="36" y="-7.5" font-family="Helvetica,sans-Serif" font-size="10.00">Eigen/Dense</text>
</g>
<!-- Node1&#45;&gt;Node2 -->
<g id="edge2" class="edge"><title>Node1&#45;&gt;Node2</title>
<path fill="none" stroke="midnightblue" d="M66.8902,-56.083C61.7178,-48.5341 54.1539,-37.4948 47.8056,-28.2298"/>
<polygon fill="midnightblue" stroke="midnightblue" points="50.5357,-26.0221 41.9961,-19.7511 44.7612,-29.9787 50.5357,-26.0221"/>
</g>
<!-- Node3 -->
<g id="node4" class="node"><title>Node3</title>
<polygon fill="white" stroke="#bfbfbf" points="90.5,-0.5 90.5,-19.5 131.5,-19.5 131.5,-0.5 90.5,-0.5"/>
<text text-anchor="middle" x="111" y="-7.5" font-family="Helvetica,sans-Serif" font-size="10.00">string</text>
</g>
<!-- Node1&#45;&gt;Node3 -->
<g id="edge3" class="edge"><title>Node1&#45;&gt;Node3</title>
<path fill="none" stroke="midnightblue" d="M79.2749,-56.083C84.6425,-48.4554 92.5176,-37.2645 99.0787,-27.9408"/>
<polygon fill="midnightblue" stroke="midnightblue" points="101.949,-29.9434 104.842,-19.7511 96.2245,-25.9149 101.949,-29.9434"/>
</g>
</g>
</svg>
