<?xml version="1.0" encoding="UTF-8" standalone="no"?>
<!DOCTYPE svg PUBLIC "-//W3C//DTD SVG 1.1//EN"
 "http://www.w3.org/Graphics/SVG/1.1/DTD/svg11.dtd">
<!-- Generated by graphviz version 2.38.0 (20140413.2041)
 -->
<!-- Title: C:/Users/cfantacci/GitHub/bayes&#45;filters&#45;lib/src/BayesFilters/src/ParticleFilter.cpp Pages: 1 -->
<svg width="1023pt" height="285pt"
 viewBox="0.00 0.00 1023.00 285.00" xmlns="http://www.w3.org/2000/svg" xmlns:xlink="http://www.w3.org/1999/xlink">
<g id="graph0" class="graph" transform="scale(1 1) rotate(0) translate(4 281)">
<title>C:/Users/cfantacci/GitHub/bayes&#45;filters&#45;lib/src/BayesFilters/src/ParticleFilter.cpp</title>
<polygon fill="white" stroke="none" points="-4,4 -4,-281 1019,-281 1019,4 -4,4"/>
<!-- Node0 -->
<g id="node1" class="node"><title>Node0</title>
<polygon fill="#bfbfbf" stroke="black" points="583.5,-224.5 583.5,-276.5 693.5,-276.5 693.5,-224.5 583.5,-224.5"/>
<text text-anchor="start" x="591.5" y="-264.5" font-family="Helvetica,sans-Serif" font-size="10.00">C:/Users/cfantacci</text>
<text text-anchor="start" x="591.5" y="-253.5" font-family="Helvetica,sans-Serif" font-size="10.00">/GitHub/bayes&#45;filters</text>
<text text-anchor="start" x="591.5" y="-242.5" font-family="Helvetica,sans-Serif" font-size="10.00">&#45;lib/src/BayesFilters</text>
<text text-anchor="middle" x="638.5" y="-231.5" font-family="Helvetica,sans-Serif" font-size="10.00">/src/ParticleFilter.cpp</text>
</g>
<!-- Node1 -->
<g id="node2" class="node"><title>Node1</title>
<g id="a_node2"><a xlink:href="ParticleFilter_8h.html" target="_top" xlink:title="BayesFilters/ParticleFilter.h">
<polygon fill="white" stroke="black" points="570,-168.5 570,-187.5 707,-187.5 707,-168.5 570,-168.5"/>
<text text-anchor="middle" x="638.5" y="-175.5" font-family="Helvetica,sans-Serif" font-size="10.00">BayesFilters/ParticleFilter.h</text>
</a>
</g>
</g>
<!-- Node0&#45;&gt;Node1 -->
<g id="edge1" class="edge"><title>Node0&#45;&gt;Node1</title>
<path fill="none" stroke="midnightblue" d="M638.5,-224.446C638.5,-215.73 638.5,-206.104 638.5,-197.964"/>
<polygon fill="midnightblue" stroke="midnightblue" points="642,-197.695 638.5,-187.695 635,-197.696 642,-197.695"/>
</g>
<!-- Node2 -->
<g id="node3" class="node"><title>Node2</title>
<g id="a_node3"><a xlink:href="FilteringAlgorithm_8h.html" target="_top" xlink:title="FilteringAlgorithm.h">
<polygon fill="white" stroke="black" points="186,-112.5 186,-131.5 287,-131.5 287,-112.5 186,-112.5"/>
<text text-anchor="middle" x="236.5" y="-119.5" font-family="Helvetica,sans-Serif" font-size="10.00">FilteringAlgorithm.h</text>
</a>
</g>
</g>
<!-- Node1&#45;&gt;Node2 -->
<g id="edge2" class="edge"><title>Node1&#45;&gt;Node2</title>
<path fill="none" stroke="midnightblue" d="M574.802,-168.444C498.681,-158.218 372.234,-141.233 297.381,-131.178"/>
<polygon fill="midnightblue" stroke="midnightblue" points="297.549,-127.669 287.172,-129.807 296.617,-134.607 297.549,-127.669"/>
</g>
<!-- Node8 -->
<g id="node9" class="node"><title>Node8</title>
<g id="a_node9"><a xlink:href="Initialization_8h.html" target="_top" xlink:title="Initialization.h">
<polygon fill="white" stroke="black" points="795.5,-112.5 795.5,-131.5 871.5,-131.5 871.5,-112.5 795.5,-112.5"/>
<text text-anchor="middle" x="833.5" y="-119.5" font-family="Helvetica,sans-Serif" font-size="10.00">Initialization.h</text>
</a>
</g>
</g>
<!-- Node1&#45;&gt;Node8 -->
<g id="edge8" class="edge"><title>Node1&#45;&gt;Node8</title>
<path fill="none" stroke="midnightblue" d="M669.398,-168.444C702.774,-159.201 756.094,-144.436 792.849,-134.257"/>
<polygon fill="midnightblue" stroke="midnightblue" points="794.043,-137.558 802.746,-131.516 792.175,-130.812 794.043,-137.558"/>
</g>
<!-- Node10 -->
<g id="node11" class="node"><title>Node10</title>
<g id="a_node11"><a xlink:href="PFCorrection_8h.html" target="_top" xlink:title="PFCorrection.h">
<polygon fill="white" stroke="black" points="470.5,-112.5 470.5,-131.5 552.5,-131.5 552.5,-112.5 470.5,-112.5"/>
<text text-anchor="middle" x="511.5" y="-119.5" font-family="Helvetica,sans-Serif" font-size="10.00">PFCorrection.h</text>
</a>
</g>
</g>
<!-- Node1&#45;&gt;Node10 -->
<g id="edge10" class="edge"><title>Node1&#45;&gt;Node10</title>
<path fill="none" stroke="midnightblue" d="M618.376,-168.444C597.476,-159.557 564.565,-145.563 540.784,-135.451"/>
<polygon fill="midnightblue" stroke="midnightblue" points="542.102,-132.208 531.529,-131.516 539.362,-138.65 542.102,-132.208"/>
</g>
<!-- Node12 -->
<g id="node13" class="node"><title>Node12</title>
<polygon fill="white" stroke="#bfbfbf" points="533.5,-56.5 533.5,-75.5 585.5,-75.5 585.5,-56.5 533.5,-56.5"/>
<text text-anchor="middle" x="559.5" y="-63.5" font-family="Helvetica,sans-Serif" font-size="10.00">memory</text>
</g>
<!-- Node1&#45;&gt;Node12 -->
<g id="edge27" class="edge"><title>Node1&#45;&gt;Node12</title>
<path fill="none" stroke="midnightblue" d="M632.301,-168.368C619.264,-150.215 588.803,-107.802 571.702,-83.9902"/>
<polygon fill="midnightblue" stroke="midnightblue" points="574.346,-81.6721 565.67,-75.5914 568.661,-85.7555 574.346,-81.6721"/>
</g>
<!-- Node13 -->
<g id="node14" class="node"><title>Node13</title>
<g id="a_node14"><a xlink:href="PFPrediction_8h.html" target="_top" xlink:title="PFPrediction.h">
<polygon fill="white" stroke="black" points="645,-112.5 645,-131.5 726,-131.5 726,-112.5 645,-112.5"/>
<text text-anchor="middle" x="685.5" y="-119.5" font-family="Helvetica,sans-Serif" font-size="10.00">PFPrediction.h</text>
</a>
</g>
</g>
<!-- Node1&#45;&gt;Node13 -->
<g id="edge16" class="edge"><title>Node1&#45;&gt;Node13</title>
<path fill="none" stroke="midnightblue" d="M646.261,-168.083C653.037,-160.298 663.043,-148.801 671.255,-139.367"/>
<polygon fill="midnightblue" stroke="midnightblue" points="673.958,-141.592 677.883,-131.751 668.678,-136.996 673.958,-141.592"/>
</g>
<!-- Node16 -->
<g id="node17" class="node"><title>Node16</title>
<g id="a_node17"><a xlink:href="Resampling_8h.html" target="_top" xlink:title="Resampling.h">
<polygon fill="white" stroke="black" points="899.5,-112.5 899.5,-131.5 975.5,-131.5 975.5,-112.5 899.5,-112.5"/>
<text text-anchor="middle" x="937.5" y="-119.5" font-family="Helvetica,sans-Serif" font-size="10.00">Resampling.h</text>
</a>
</g>
</g>
<!-- Node1&#45;&gt;Node16 -->
<g id="edge24" class="edge"><title>Node1&#45;&gt;Node16</title>
<path fill="none" stroke="midnightblue" d="M685.877,-168.444C741.529,-158.393 833.347,-141.81 889.337,-131.698"/>
<polygon fill="midnightblue" stroke="midnightblue" points="890.139,-135.11 899.357,-129.889 888.895,-128.222 890.139,-135.11"/>
</g>
<!-- Node3 -->
<g id="node4" class="node"><title>Node3</title>
<polygon fill="white" stroke="#bfbfbf" points="0,-56.5 0,-75.5 93,-75.5 93,-56.5 0,-56.5"/>
<text text-anchor="middle" x="46.5" y="-63.5" font-family="Helvetica,sans-Serif" font-size="10.00">condition_variable</text>
</g>
<!-- Node2&#45;&gt;Node3 -->
<g id="edge3" class="edge"><title>Node2&#45;&gt;Node3</title>
<path fill="none" stroke="midnightblue" d="M206.394,-112.444C173.874,-103.201 121.921,-88.4356 86.1087,-78.2572"/>
<polygon fill="midnightblue" stroke="midnightblue" points="87.0411,-74.8837 76.4652,-75.5164 85.1274,-81.617 87.0411,-74.8837"/>
</g>
<!-- Node4 -->
<g id="node5" class="node"><title>Node4</title>
<polygon fill="white" stroke="#bfbfbf" points="111.5,-56.5 111.5,-75.5 155.5,-75.5 155.5,-56.5 111.5,-56.5"/>
<text text-anchor="middle" x="133.5" y="-63.5" font-family="Helvetica,sans-Serif" font-size="10.00">mutex</text>
</g>
<!-- Node2&#45;&gt;Node4 -->
<g id="edge4" class="edge"><title>Node2&#45;&gt;Node4</title>
<path fill="none" stroke="midnightblue" d="M219.951,-112.324C203.508,-103.703 178.065,-90.3643 159.032,-80.3855"/>
<polygon fill="midnightblue" stroke="midnightblue" points="160.489,-77.198 150.008,-75.6545 157.239,-83.3977 160.489,-77.198"/>
</g>
<!-- Node5 -->
<g id="node6" class="node"><title>Node5</title>
<polygon fill="white" stroke="#bfbfbf" points="406,-0.5 406,-19.5 447,-19.5 447,-0.5 406,-0.5"/>
<text text-anchor="middle" x="426.5" y="-7.5" font-family="Helvetica,sans-Serif" font-size="10.00">string</text>
</g>
<!-- Node2&#45;&gt;Node5 -->
<g id="edge5" class="edge"><title>Node2&#45;&gt;Node5</title>
<path fill="none" stroke="midnightblue" d="M255.673,-112.35C274.335,-103.737 303.335,-89.8393 327.5,-76 355.505,-59.9612 386.386,-39.1549 406.087,-25.4566"/>
<polygon fill="midnightblue" stroke="midnightblue" points="408.118,-28.3078 414.303,-19.7057 404.103,-22.5733 408.118,-28.3078"/>
</g>
<!-- Node6 -->
<g id="node7" class="node"><title>Node6</title>
<polygon fill="white" stroke="#bfbfbf" points="173.5,-56.5 173.5,-75.5 217.5,-75.5 217.5,-56.5 173.5,-56.5"/>
<text text-anchor="middle" x="195.5" y="-63.5" font-family="Helvetica,sans-Serif" font-size="10.00">thread</text>
</g>
<!-- Node2&#45;&gt;Node6 -->
<g id="edge6" class="edge"><title>Node2&#45;&gt;Node6</title>
<path fill="none" stroke="midnightblue" d="M229.73,-112.083C223.938,-104.455 215.442,-93.2645 208.362,-83.9408"/>
<polygon fill="midnightblue" stroke="midnightblue" points="210.979,-81.5991 202.144,-75.7511 205.404,-85.8321 210.979,-81.5991"/>
</g>
<!-- Node7 -->
<g id="node8" class="node"><title>Node7</title>
<polygon fill="white" stroke="#bfbfbf" points="236,-56.5 236,-75.5 319,-75.5 319,-56.5 236,-56.5"/>
<text text-anchor="middle" x="277.5" y="-63.5" font-family="Helvetica,sans-Serif" font-size="10.00">unordered_map</text>
</g>
<!-- Node2&#45;&gt;Node7 -->
<g id="edge7" class="edge"><title>Node2&#45;&gt;Node7</title>
<path fill="none" stroke="midnightblue" d="M243.27,-112.083C249.062,-104.455 257.558,-93.2645 264.638,-83.9408"/>
<polygon fill="midnightblue" stroke="midnightblue" points="267.596,-85.8321 270.856,-75.7511 262.021,-81.5991 267.596,-85.8321"/>
</g>
<!-- Node9 -->
<g id="node10" class="node"><title>Node9</title>
<polygon fill="white" stroke="#bfbfbf" points="760.5,-0.5 760.5,-19.5 832.5,-19.5 832.5,-0.5 760.5,-0.5"/>
<text text-anchor="middle" x="796.5" y="-7.5" font-family="Helvetica,sans-Serif" font-size="10.00">Eigen/Dense</text>
</g>
<!-- Node8&#45;&gt;Node9 -->
<g id="edge9" class="edge"><title>Node8&#45;&gt;Node9</title>
<path fill="none" stroke="midnightblue" d="M846.168,-112.333C862.518,-100.025 887.518,-76.6763 875.5,-56 866.764,-40.9696 850.922,-30.5428 835.705,-23.5405"/>
<polygon fill="midnightblue" stroke="midnightblue" points="836.955,-20.2692 826.381,-19.6125 834.238,-26.7202 836.955,-20.2692"/>
</g>
<!-- Node10&#45;&gt;Node9 -->
<g id="edge15" class="edge"><title>Node10&#45;&gt;Node9</title>
<path fill="none" stroke="midnightblue" d="M510.433,-112.416C509.223,-98.4509 509.113,-70.8806 524.5,-56 555.958,-25.5767 681.259,-15.656 750.286,-12.4706"/>
<polygon fill="midnightblue" stroke="midnightblue" points="750.612,-15.9599 760.451,-12.0314 750.309,-8.96643 750.612,-15.9599"/>
</g>
<!-- Node11 -->
<g id="node12" class="node"><title>Node11</title>
<g id="a_node12"><a xlink:href="ObservationModel_8h.html" target="_top" xlink:title="ObservationModel.h">
<polygon fill="white" stroke="black" points="375.5,-56.5 375.5,-75.5 477.5,-75.5 477.5,-56.5 375.5,-56.5"/>
<text text-anchor="middle" x="426.5" y="-63.5" font-family="Helvetica,sans-Serif" font-size="10.00">ObservationModel.h</text>
</a>
</g>
</g>
<!-- Node10&#45;&gt;Node11 -->
<g id="edge11" class="edge"><title>Node10&#45;&gt;Node11</title>
<path fill="none" stroke="midnightblue" d="M497.843,-112.324C484.584,-103.9 464.232,-90.9709 448.654,-81.0741"/>
<polygon fill="midnightblue" stroke="midnightblue" points="450.44,-78.0626 440.123,-75.6545 446.687,-83.9711 450.44,-78.0626"/>
</g>
<!-- Node10&#45;&gt;Node12 -->
<g id="edge14" class="edge"><title>Node10&#45;&gt;Node12</title>
<path fill="none" stroke="midnightblue" d="M519.426,-112.083C526.346,-104.298 536.565,-92.8015 544.952,-83.3665"/>
<polygon fill="midnightblue" stroke="midnightblue" points="547.694,-85.5505 551.721,-75.7511 542.462,-80.8999 547.694,-85.5505"/>
</g>
<!-- Node11&#45;&gt;Node5 -->
<g id="edge13" class="edge"><title>Node11&#45;&gt;Node5</title>
<path fill="none" stroke="midnightblue" d="M426.5,-56.083C426.5,-49.0059 426.5,-38.8611 426.5,-29.9865"/>
<polygon fill="midnightblue" stroke="midnightblue" points="430,-29.751 426.5,-19.7511 423,-29.7511 430,-29.751"/>
</g>
<!-- Node11&#45;&gt;Node9 -->
<g id="edge12" class="edge"><title>Node11&#45;&gt;Node9</title>
<path fill="none" stroke="midnightblue" d="M477.558,-57.5482C549.778,-47.008 680.694,-27.9014 750.217,-17.7548"/>
<polygon fill="midnightblue" stroke="midnightblue" points="751.033,-21.1729 760.422,-16.2654 750.022,-14.2463 751.033,-21.1729"/>
</g>
<!-- Node13&#45;&gt;Node5 -->
<g id="edge23" class="edge"><title>Node13&#45;&gt;Node5</title>
<path fill="none" stroke="midnightblue" d="M675.879,-112.312C660.04,-98.4488 626.982,-71.3307 594.5,-56 549.091,-34.5677 491.785,-21.9912 457.2,-15.809"/>
<polygon fill="midnightblue" stroke="midnightblue" points="457.684,-12.3408 447.235,-14.0929 456.496,-19.2393 457.684,-12.3408"/>
</g>
<!-- Node13&#45;&gt;Node9 -->
<g id="edge21" class="edge"><title>Node13&#45;&gt;Node9</title>
<path fill="none" stroke="midnightblue" d="M726.334,-114.936C768.009,-107.814 828.506,-94.568 842.5,-76 855.371,-58.9218 835.892,-38.75 818.459,-25.4588"/>
<polygon fill="midnightblue" stroke="midnightblue" points="820.377,-22.5276 810.215,-19.5304 816.29,-28.2106 820.377,-22.5276"/>
</g>
<!-- Node13&#45;&gt;Node12 -->
<g id="edge22" class="edge"><title>Node13&#45;&gt;Node12</title>
<path fill="none" stroke="midnightblue" d="M665.535,-112.444C644.891,-103.596 612.437,-89.6875 588.868,-79.5865"/>
<polygon fill="midnightblue" stroke="midnightblue" points="589.942,-76.2387 579.372,-75.5164 587.184,-82.6727 589.942,-76.2387"/>
</g>
<!-- Node14 -->
<g id="node15" class="node"><title>Node14</title>
<g id="a_node15"><a xlink:href="ExogenousModel_8h.html" target="_top" xlink:title="ExogenousModel.h">
<polygon fill="white" stroke="black" points="641.5,-56.5 641.5,-75.5 741.5,-75.5 741.5,-56.5 641.5,-56.5"/>
<text text-anchor="middle" x="691.5" y="-63.5" font-family="Helvetica,sans-Serif" font-size="10.00">ExogenousModel.h</text>
</a>
</g>
</g>
<!-- Node13&#45;&gt;Node14 -->
<g id="edge17" class="edge"><title>Node13&#45;&gt;Node14</title>
<path fill="none" stroke="midnightblue" d="M686.491,-112.083C687.286,-104.927 688.429,-94.6353 689.423,-85.6911"/>
<polygon fill="midnightblue" stroke="midnightblue" points="692.902,-86.0765 690.528,-75.7511 685.945,-85.3034 692.902,-86.0765"/>
</g>
<!-- Node15 -->
<g id="node16" class="node"><title>Node15</title>
<g id="a_node16"><a xlink:href="StateModel_8h.html" target="_top" xlink:title="StateModel.h">
<polygon fill="white" stroke="black" points="759.5,-56.5 759.5,-75.5 833.5,-75.5 833.5,-56.5 759.5,-56.5"/>
<text text-anchor="middle" x="796.5" y="-63.5" font-family="Helvetica,sans-Serif" font-size="10.00">StateModel.h</text>
</a>
</g>
</g>
<!-- Node13&#45;&gt;Node15 -->
<g id="edge19" class="edge"><title>Node13&#45;&gt;Node15</title>
<path fill="none" stroke="midnightblue" d="M703.334,-112.324C721.216,-103.625 748.975,-90.1202 769.546,-80.113"/>
<polygon fill="midnightblue" stroke="midnightblue" points="771.249,-83.1765 778.71,-75.6545 768.187,-76.8819 771.249,-83.1765"/>
</g>
<!-- Node14&#45;&gt;Node9 -->
<g id="edge18" class="edge"><title>Node14&#45;&gt;Node9</title>
<path fill="none" stroke="midnightblue" d="M708.37,-56.324C725.209,-47.6641 751.307,-34.2424 770.738,-24.249"/>
<polygon fill="midnightblue" stroke="midnightblue" points="772.38,-27.3405 779.672,-19.6545 769.178,-21.1155 772.38,-27.3405"/>
</g>
<!-- Node15&#45;&gt;Node9 -->
<g id="edge20" class="edge"><title>Node15&#45;&gt;Node9</title>
<path fill="none" stroke="midnightblue" d="M796.5,-56.083C796.5,-49.0059 796.5,-38.8611 796.5,-29.9865"/>
<polygon fill="midnightblue" stroke="midnightblue" points="800,-29.751 796.5,-19.7511 793,-29.7511 800,-29.751"/>
</g>
<!-- Node16&#45;&gt;Node9 -->
<g id="edge26" class="edge"><title>Node16&#45;&gt;Node9</title>
<path fill="none" stroke="midnightblue" d="M933.253,-112.35C926.22,-98.7822 910.978,-72.361 891.5,-56 874.364,-41.6063 851.847,-30.6768 833.036,-23.1954"/>
<polygon fill="midnightblue" stroke="midnightblue" points="834.176,-19.8844 823.585,-19.5974 831.686,-26.4263 834.176,-19.8844"/>
</g>
<!-- Node17 -->
<g id="node18" class="node"><title>Node17</title>
<polygon fill="white" stroke="#bfbfbf" points="966,-56.5 966,-75.5 1015,-75.5 1015,-56.5 966,-56.5"/>
<text text-anchor="middle" x="990.5" y="-63.5" font-family="Helvetica,sans-Serif" font-size="10.00">random</text>
</g>
<!-- Node16&#45;&gt;Node17 -->
<g id="edge25" class="edge"><title>Node16&#45;&gt;Node17</title>
<path fill="none" stroke="midnightblue" d="M946.252,-112.083C953.97,-104.22 965.405,-92.5688 974.717,-83.0813"/>
<polygon fill="midnightblue" stroke="midnightblue" points="977.404,-85.3396 981.911,-75.7511 972.408,-80.4363 977.404,-85.3396"/>
</g>
</g>
</svg>
