<?xml version="1.0" encoding="UTF-8" standalone="no"?>
<!DOCTYPE svg PUBLIC "-//W3C//DTD SVG 1.1//EN"
 "http://www.w3.org/Graphics/SVG/1.1/DTD/svg11.dtd">
<!-- Generated by graphviz version 2.38.0 (20140413.2041)
 -->
<!-- Title: C:/Users/cfantacci/GitHub/bayes&#45;filters&#45;lib/src/BayesFilters/include/BayesFilters/PFCorrection.h Pages: 1 -->
<svg width="782pt" height="339pt"
 viewBox="0.00 0.00 781.50 339.00" xmlns="http://www.w3.org/2000/svg" xmlns:xlink="http://www.w3.org/1999/xlink">
<g id="graph0" class="graph" transform="scale(1 1) rotate(0) translate(4 335)">
<title>C:/Users/cfantacci/GitHub/bayes&#45;filters&#45;lib/src/BayesFilters/include/BayesFilters/PFCorrection.h</title>
<polygon fill="white" stroke="none" points="-4,4 -4,-335 777.5,-335 777.5,4 -4,4"/>
<!-- Node5 -->
<g id="node1" class="node"><title>Node5</title>
<polygon fill="#bfbfbf" stroke="black" points="265.5,-278.5 265.5,-330.5 441.5,-330.5 441.5,-278.5 265.5,-278.5"/>
<text text-anchor="start" x="273.5" y="-318.5" font-family="Helvetica,sans-Serif" font-size="10.00">C:/Users/cfantacci</text>
<text text-anchor="start" x="273.5" y="-307.5" font-family="Helvetica,sans-Serif" font-size="10.00">/GitHub/bayes&#45;filters</text>
<text text-anchor="start" x="273.5" y="-296.5" font-family="Helvetica,sans-Serif" font-size="10.00">&#45;lib/src/BayesFilters</text>
<text text-anchor="middle" x="353.5" y="-285.5" font-family="Helvetica,sans-Serif" font-size="10.00">/include/BayesFilters/PFCorrection.h</text>
</g>
<!-- Node6 -->
<g id="node2" class="node"><title>Node6</title>
<g id="a_node2"><a xlink:href="ParticleFilter_8h.html" target="_top" xlink:title="C:/Users/cfantacci\l/GitHub/bayes&#45;filters\l&#45;lib/src/BayesFilters\l/include/BayesFilters/Particle\lFilter.h">
<polygon fill="white" stroke="black" points="107.5,-178.5 107.5,-241.5 251.5,-241.5 251.5,-178.5 107.5,-178.5"/>
<text text-anchor="start" x="115.5" y="-229.5" font-family="Helvetica,sans-Serif" font-size="10.00">C:/Users/cfantacci</text>
<text text-anchor="start" x="115.5" y="-218.5" font-family="Helvetica,sans-Serif" font-size="10.00">/GitHub/bayes&#45;filters</text>
<text text-anchor="start" x="115.5" y="-207.5" font-family="Helvetica,sans-Serif" font-size="10.00">&#45;lib/src/BayesFilters</text>
<text text-anchor="start" x="115.5" y="-196.5" font-family="Helvetica,sans-Serif" font-size="10.00">/include/BayesFilters/Particle</text>
<text text-anchor="middle" x="179.5" y="-185.5" font-family="Helvetica,sans-Serif" font-size="10.00">Filter.h</text>
</a>
</g>
</g>
<!-- Node5&#45;&gt;Node6 -->
<g id="edge1" class="edge"><title>Node5&#45;&gt;Node6</title>
<path fill="none" stroke="midnightblue" d="M297.45,-273.703C278.179,-263.459 256.578,-251.975 237.179,-241.663"/>
<polygon fill="midnightblue" stroke="midnightblue" points="295.94,-276.865 306.413,-278.468 299.226,-270.684 295.94,-276.865"/>
</g>
<!-- Node7 -->
<g id="node3" class="node"><title>Node7</title>
<g id="a_node3"><a xlink:href="SIS_8h.html" target="_top" xlink:title="C:/Users/cfantacci\l/GitHub/bayes&#45;filters\l&#45;lib/src/BayesFilters\l/include/BayesFilters/SIS.h">
<polygon fill="white" stroke="black" points="0,-89.5 0,-141.5 135,-141.5 135,-89.5 0,-89.5"/>
<text text-anchor="start" x="8" y="-129.5" font-family="Helvetica,sans-Serif" font-size="10.00">C:/Users/cfantacci</text>
<text text-anchor="start" x="8" y="-118.5" font-family="Helvetica,sans-Serif" font-size="10.00">/GitHub/bayes&#45;filters</text>
<text text-anchor="start" x="8" y="-107.5" font-family="Helvetica,sans-Serif" font-size="10.00">&#45;lib/src/BayesFilters</text>
<text text-anchor="middle" x="67.5" y="-96.5" font-family="Helvetica,sans-Serif" font-size="10.00">/include/BayesFilters/SIS.h</text>
</a>
</g>
</g>
<!-- Node5&#45;&gt;Node7 -->
<g id="edge7" class="edge"><title>Node5&#45;&gt;Node7</title>
<path fill="none" stroke="midnightblue" d="M255.198,-290.484C193.207,-280.313 120.791,-264.168 98.5,-242 71.8453,-215.492 66.7995,-169.945 66.4964,-141.622"/>
<polygon fill="midnightblue" stroke="midnightblue" points="255.016,-293.999 265.444,-292.127 256.125,-287.087 255.016,-293.999"/>
</g>
<!-- Node10 -->
<g id="node6" class="node"><title>Node10</title>
<g id="a_node6"><a xlink:href="PFCorrectionDecorator_8h.html" target="_top" xlink:title="C:/Users/cfantacci\l/GitHub/bayes&#45;filters\l&#45;lib/src/BayesFilters\l/include/BayesFilters/PFCorrection\lDecorator.h">
<polygon fill="white" stroke="black" points="269.5,-178.5 269.5,-241.5 437.5,-241.5 437.5,-178.5 269.5,-178.5"/>
<text text-anchor="start" x="277.5" y="-229.5" font-family="Helvetica,sans-Serif" font-size="10.00">C:/Users/cfantacci</text>
<text text-anchor="start" x="277.5" y="-218.5" font-family="Helvetica,sans-Serif" font-size="10.00">/GitHub/bayes&#45;filters</text>
<text text-anchor="start" x="277.5" y="-207.5" font-family="Helvetica,sans-Serif" font-size="10.00">&#45;lib/src/BayesFilters</text>
<text text-anchor="start" x="277.5" y="-196.5" font-family="Helvetica,sans-Serif" font-size="10.00">/include/BayesFilters/PFCorrection</text>
<text text-anchor="middle" x="353.5" y="-185.5" font-family="Helvetica,sans-Serif" font-size="10.00">Decorator.h</text>
</a>
</g>
</g>
<!-- Node5&#45;&gt;Node10 -->
<g id="edge5" class="edge"><title>Node5&#45;&gt;Node10</title>
<path fill="none" stroke="midnightblue" d="M353.5,-267.945C353.5,-259.226 353.5,-249.97 353.5,-241.512"/>
<polygon fill="midnightblue" stroke="midnightblue" points="350,-268.224 353.5,-278.224 357,-268.224 350,-268.224"/>
</g>
<!-- Node12 -->
<g id="node8" class="node"><title>Node12</title>
<g id="a_node8"><a xlink:href="UpdateParticles_8h.html" target="_top" xlink:title="C:/Users/cfantacci\l/GitHub/bayes&#45;filters\l&#45;lib/src/BayesFilters\l/include/BayesFilters/UpdateParticles.h">
<polygon fill="white" stroke="black" points="455.5,-184 455.5,-236 643.5,-236 643.5,-184 455.5,-184"/>
<text text-anchor="start" x="463.5" y="-224" font-family="Helvetica,sans-Serif" font-size="10.00">C:/Users/cfantacci</text>
<text text-anchor="start" x="463.5" y="-213" font-family="Helvetica,sans-Serif" font-size="10.00">/GitHub/bayes&#45;filters</text>
<text text-anchor="start" x="463.5" y="-202" font-family="Helvetica,sans-Serif" font-size="10.00">&#45;lib/src/BayesFilters</text>
<text text-anchor="middle" x="549.5" y="-191" font-family="Helvetica,sans-Serif" font-size="10.00">/include/BayesFilters/UpdateParticles.h</text>
</a>
</g>
</g>
<!-- Node5&#45;&gt;Node12 -->
<g id="edge8" class="edge"><title>Node5&#45;&gt;Node12</title>
<path fill="none" stroke="midnightblue" d="M415.898,-274.052C441.813,-261.822 471.573,-247.777 496.417,-236.052"/>
<polygon fill="midnightblue" stroke="midnightblue" points="414.09,-271.035 406.54,-278.468 417.078,-277.365 414.09,-271.035"/>
</g>
<!-- Node14 -->
<g id="node10" class="node"><title>Node14</title>
<g id="a_node10"><a xlink:href="PFCorrection_8cpp.html" target="_top" xlink:title="C:/Users/cfantacci\l/GitHub/bayes&#45;filters\l&#45;lib/src/BayesFilters\l/src/PFCorrection.cpp">
<polygon fill="white" stroke="black" points="661.5,-184 661.5,-236 773.5,-236 773.5,-184 661.5,-184"/>
<text text-anchor="start" x="669.5" y="-224" font-family="Helvetica,sans-Serif" font-size="10.00">C:/Users/cfantacci</text>
<text text-anchor="start" x="669.5" y="-213" font-family="Helvetica,sans-Serif" font-size="10.00">/GitHub/bayes&#45;filters</text>
<text text-anchor="start" x="669.5" y="-202" font-family="Helvetica,sans-Serif" font-size="10.00">&#45;lib/src/BayesFilters</text>
<text text-anchor="middle" x="717.5" y="-191" font-family="Helvetica,sans-Serif" font-size="10.00">/src/PFCorrection.cpp</text>
</a>
</g>
</g>
<!-- Node5&#45;&gt;Node14 -->
<g id="edge10" class="edge"><title>Node5&#45;&gt;Node14</title>
<path fill="none" stroke="midnightblue" d="M451.736,-289.458C510.85,-279.498 587.079,-263.966 652.5,-242 657.596,-240.289 662.815,-238.278 667.97,-236.116"/>
<polygon fill="midnightblue" stroke="midnightblue" points="450.946,-286.041 441.653,-291.13 452.091,-292.946 450.946,-286.041"/>
</g>
<!-- Node6&#45;&gt;Node7 -->
<g id="edge2" class="edge"><title>Node6&#45;&gt;Node7</title>
<path fill="none" stroke="midnightblue" d="M134.596,-171.914C122.341,-161.793 109.347,-151.061 98.0918,-141.766"/>
<polygon fill="midnightblue" stroke="midnightblue" points="132.577,-174.786 142.517,-178.456 137.035,-169.389 132.577,-174.786"/>
</g>
<!-- Node9 -->
<g id="node5" class="node"><title>Node9</title>
<g id="a_node5"><a xlink:href="ParticleFilter_8cpp.html" target="_top" xlink:title="C:/Users/cfantacci\l/GitHub/bayes&#45;filters\l&#45;lib/src/BayesFilters\l/src/ParticleFilter.cpp">
<polygon fill="white" stroke="black" points="153.5,-89.5 153.5,-141.5 263.5,-141.5 263.5,-89.5 153.5,-89.5"/>
<text text-anchor="start" x="161.5" y="-129.5" font-family="Helvetica,sans-Serif" font-size="10.00">C:/Users/cfantacci</text>
<text text-anchor="start" x="161.5" y="-118.5" font-family="Helvetica,sans-Serif" font-size="10.00">/GitHub/bayes&#45;filters</text>
<text text-anchor="start" x="161.5" y="-107.5" font-family="Helvetica,sans-Serif" font-size="10.00">&#45;lib/src/BayesFilters</text>
<text text-anchor="middle" x="208.5" y="-96.5" font-family="Helvetica,sans-Serif" font-size="10.00">/src/ParticleFilter.cpp</text>
</a>
</g>
</g>
<!-- Node6&#45;&gt;Node9 -->
<g id="edge4" class="edge"><title>Node6&#45;&gt;Node9</title>
<path fill="none" stroke="midnightblue" d="M192.13,-168.715C195,-159.56 197.97,-150.088 200.579,-141.766"/>
<polygon fill="midnightblue" stroke="midnightblue" points="188.728,-167.867 189.076,-178.456 195.407,-169.961 188.728,-167.867"/>
</g>
<!-- Node8 -->
<g id="node4" class="node"><title>Node8</title>
<g id="a_node4"><a xlink:href="SIS_8cpp.html" target="_top" xlink:title="C:/Users/cfantacci\l/GitHub/bayes&#45;filters\l&#45;lib/src/BayesFilters\l/src/SIS.cpp">
<polygon fill="white" stroke="black" points="15,-0.5 15,-52.5 120,-52.5 120,-0.5 15,-0.5"/>
<text text-anchor="start" x="23" y="-40.5" font-family="Helvetica,sans-Serif" font-size="10.00">C:/Users/cfantacci</text>
<text text-anchor="start" x="23" y="-29.5" font-family="Helvetica,sans-Serif" font-size="10.00">/GitHub/bayes&#45;filters</text>
<text text-anchor="start" x="23" y="-18.5" font-family="Helvetica,sans-Serif" font-size="10.00">&#45;lib/src/BayesFilters</text>
<text text-anchor="middle" x="67.5" y="-7.5" font-family="Helvetica,sans-Serif" font-size="10.00">/src/SIS.cpp</text>
</a>
</g>
</g>
<!-- Node7&#45;&gt;Node8 -->
<g id="edge3" class="edge"><title>Node7&#45;&gt;Node8</title>
<path fill="none" stroke="midnightblue" d="M67.5,-79.1908C67.5,-70.2824 67.5,-60.8986 67.5,-52.6075"/>
<polygon fill="midnightblue" stroke="midnightblue" points="64.0001,-79.336 67.5,-89.336 71.0001,-79.336 64.0001,-79.336"/>
</g>
<!-- Node11 -->
<g id="node7" class="node"><title>Node11</title>
<g id="a_node7"><a xlink:href="PFCorrectionDecorator_8cpp.html" target="_top" xlink:title="C:/Users/cfantacci\l/GitHub/bayes&#45;filters\l&#45;lib/src/BayesFilters\l/src/PFCorrectionDecorator.cpp">
<polygon fill="white" stroke="black" points="281.5,-89.5 281.5,-141.5 435.5,-141.5 435.5,-89.5 281.5,-89.5"/>
<text text-anchor="start" x="289.5" y="-129.5" font-family="Helvetica,sans-Serif" font-size="10.00">C:/Users/cfantacci</text>
<text text-anchor="start" x="289.5" y="-118.5" font-family="Helvetica,sans-Serif" font-size="10.00">/GitHub/bayes&#45;filters</text>
<text text-anchor="start" x="289.5" y="-107.5" font-family="Helvetica,sans-Serif" font-size="10.00">&#45;lib/src/BayesFilters</text>
<text text-anchor="middle" x="358.5" y="-96.5" font-family="Helvetica,sans-Serif" font-size="10.00">/src/PFCorrectionDecorator.cpp</text>
</a>
</g>
</g>
<!-- Node10&#45;&gt;Node11 -->
<g id="edge6" class="edge"><title>Node10&#45;&gt;Node11</title>
<path fill="none" stroke="midnightblue" d="M355.693,-168.423C356.183,-159.359 356.689,-149.999 357.134,-141.766"/>
<polygon fill="midnightblue" stroke="midnightblue" points="352.196,-168.281 355.151,-178.456 359.186,-168.659 352.196,-168.281"/>
</g>
<!-- Node13 -->
<g id="node9" class="node"><title>Node13</title>
<g id="a_node9"><a xlink:href="UpdateParticles_8cpp.html" target="_top" xlink:title="C:/Users/cfantacci\l/GitHub/bayes&#45;filters\l&#45;lib/src/BayesFilters\l/src/UpdateParticles.cpp">
<polygon fill="white" stroke="black" points="487.5,-89.5 487.5,-141.5 611.5,-141.5 611.5,-89.5 487.5,-89.5"/>
<text text-anchor="start" x="495.5" y="-129.5" font-family="Helvetica,sans-Serif" font-size="10.00">C:/Users/cfantacci</text>
<text text-anchor="start" x="495.5" y="-118.5" font-family="Helvetica,sans-Serif" font-size="10.00">/GitHub/bayes&#45;filters</text>
<text text-anchor="start" x="495.5" y="-107.5" font-family="Helvetica,sans-Serif" font-size="10.00">&#45;lib/src/BayesFilters</text>
<text text-anchor="middle" x="549.5" y="-96.5" font-family="Helvetica,sans-Serif" font-size="10.00">/src/UpdateParticles.cpp</text>
</a>
</g>
</g>
<!-- Node12&#45;&gt;Node13 -->
<g id="edge9" class="edge"><title>Node12&#45;&gt;Node13</title>
<path fill="none" stroke="midnightblue" d="M549.5,-173.493C549.5,-162.909 549.5,-151.531 549.5,-141.745"/>
<polygon fill="midnightblue" stroke="midnightblue" points="546,-173.724 549.5,-183.724 553,-173.724 546,-173.724"/>
</g>
</g>
</svg>
