<?xml version="1.0" encoding="UTF-8" standalone="no"?>
<!DOCTYPE svg PUBLIC "-//W3C//DTD SVG 1.1//EN"
 "http://www.w3.org/Graphics/SVG/1.1/DTD/svg11.dtd">
<!-- Generated by graphviz version 2.38.0 (20140413.2041)
 -->
<!-- Title: C:/Users/cfantacci/GitHub/bayes&#45;filters&#45;lib/src/BayesFilters/src/PFCorrection.cpp Pages: 1 -->
<svg width="242pt" height="229pt"
 viewBox="0.00 0.00 242.00 229.00" xmlns="http://www.w3.org/2000/svg" xmlns:xlink="http://www.w3.org/1999/xlink">
<g id="graph0" class="graph" transform="scale(1 1) rotate(0) translate(4 225)">
<title>C:/Users/cfantacci/GitHub/bayes&#45;filters&#45;lib/src/BayesFilters/src/PFCorrection.cpp</title>
<polygon fill="white" stroke="none" points="-4,4 -4,-225 238,-225 238,4 -4,4"/>
<!-- Node0 -->
<g id="node1" class="node"><title>Node0</title>
<polygon fill="#bfbfbf" stroke="black" points="57,-168.5 57,-220.5 169,-220.5 169,-168.5 57,-168.5"/>
<text text-anchor="start" x="65" y="-208.5" font-family="Helvetica,sans-Serif" font-size="10.00">C:/Users/cfantacci</text>
<text text-anchor="start" x="65" y="-197.5" font-family="Helvetica,sans-Serif" font-size="10.00">/GitHub/bayes&#45;filters</text>
<text text-anchor="start" x="65" y="-186.5" font-family="Helvetica,sans-Serif" font-size="10.00">&#45;lib/src/BayesFilters</text>
<text text-anchor="middle" x="113" y="-175.5" font-family="Helvetica,sans-Serif" font-size="10.00">/src/PFCorrection.cpp</text>
</g>
<!-- Node1 -->
<g id="node2" class="node"><title>Node1</title>
<g id="a_node2"><a xlink:href="PFCorrection_8h.html" target="_top" xlink:title="BayesFilters/PFCorrection.h">
<polygon fill="white" stroke="black" points="43,-112.5 43,-131.5 183,-131.5 183,-112.5 43,-112.5"/>
<text text-anchor="middle" x="113" y="-119.5" font-family="Helvetica,sans-Serif" font-size="10.00">BayesFilters/PFCorrection.h</text>
</a>
</g>
</g>
<!-- Node0&#45;&gt;Node1 -->
<g id="edge1" class="edge"><title>Node0&#45;&gt;Node1</title>
<path fill="none" stroke="midnightblue" d="M113,-168.446C113,-159.73 113,-150.104 113,-141.964"/>
<polygon fill="midnightblue" stroke="midnightblue" points="116.5,-141.695 113,-131.695 109.5,-141.696 116.5,-141.695"/>
</g>
<!-- Node2 -->
<g id="node3" class="node"><title>Node2</title>
<g id="a_node3"><a xlink:href="ObservationModel_8h.html" target="_top" xlink:title="ObservationModel.h">
<polygon fill="white" stroke="black" points="62,-56.5 62,-75.5 164,-75.5 164,-56.5 62,-56.5"/>
<text text-anchor="middle" x="113" y="-63.5" font-family="Helvetica,sans-Serif" font-size="10.00">ObservationModel.h</text>
</a>
</g>
</g>
<!-- Node1&#45;&gt;Node2 -->
<g id="edge2" class="edge"><title>Node1&#45;&gt;Node2</title>
<path fill="none" stroke="midnightblue" d="M113,-112.083C113,-105.006 113,-94.8611 113,-85.9865"/>
<polygon fill="midnightblue" stroke="midnightblue" points="116.5,-85.751 113,-75.7511 109.5,-85.7511 116.5,-85.751"/>
</g>
<!-- Node3 -->
<g id="node4" class="node"><title>Node3</title>
<polygon fill="white" stroke="#bfbfbf" points="0,-0.5 0,-19.5 72,-19.5 72,-0.5 0,-0.5"/>
<text text-anchor="middle" x="36" y="-7.5" font-family="Helvetica,sans-Serif" font-size="10.00">Eigen/Dense</text>
</g>
<!-- Node1&#45;&gt;Node3 -->
<g id="edge6" class="edge"><title>Node1&#45;&gt;Node3</title>
<path fill="none" stroke="midnightblue" d="M95.9867,-112.428C82.3696,-104.706 63.819,-92.1043 53,-76 43.7513,-62.2331 39.5321,-43.707 37.6085,-29.9555"/>
<polygon fill="midnightblue" stroke="midnightblue" points="41.056,-29.2886 36.4727,-19.7365 34.0989,-30.0619 41.056,-29.2886"/>
</g>
<!-- Node5 -->
<g id="node6" class="node"><title>Node5</title>
<polygon fill="white" stroke="#bfbfbf" points="182,-56.5 182,-75.5 234,-75.5 234,-56.5 182,-56.5"/>
<text text-anchor="middle" x="208" y="-63.5" font-family="Helvetica,sans-Serif" font-size="10.00">memory</text>
</g>
<!-- Node1&#45;&gt;Node5 -->
<g id="edge5" class="edge"><title>Node1&#45;&gt;Node5</title>
<path fill="none" stroke="midnightblue" d="M128.263,-112.324C143.221,-103.822 166.255,-90.7288 183.727,-80.7975"/>
<polygon fill="midnightblue" stroke="midnightblue" points="185.81,-83.639 192.774,-75.6545 182.351,-77.5534 185.81,-83.639"/>
</g>
<!-- Node2&#45;&gt;Node3 -->
<g id="edge3" class="edge"><title>Node2&#45;&gt;Node3</title>
<path fill="none" stroke="midnightblue" d="M100.629,-56.324C88.8415,-48.0577 70.8677,-35.4527 56.8645,-25.6322"/>
<polygon fill="midnightblue" stroke="midnightblue" points="58.5376,-22.5307 48.3407,-19.6545 54.5184,-28.2619 58.5376,-22.5307"/>
</g>
<!-- Node4 -->
<g id="node5" class="node"><title>Node4</title>
<polygon fill="white" stroke="#bfbfbf" points="92.5,-0.5 92.5,-19.5 133.5,-19.5 133.5,-0.5 92.5,-0.5"/>
<text text-anchor="middle" x="113" y="-7.5" font-family="Helvetica,sans-Serif" font-size="10.00">string</text>
</g>
<!-- Node2&#45;&gt;Node4 -->
<g id="edge4" class="edge"><title>Node2&#45;&gt;Node4</title>
<path fill="none" stroke="midnightblue" d="M113,-56.083C113,-49.0059 113,-38.8611 113,-29.9865"/>
<polygon fill="midnightblue" stroke="midnightblue" points="116.5,-29.751 113,-19.7511 109.5,-29.7511 116.5,-29.751"/>
</g>
</g>
</svg>
