<?xml version="1.0" encoding="UTF-8" standalone="no"?>
<!DOCTYPE svg PUBLIC "-//W3C//DTD SVG 1.1//EN"
 "http://www.w3.org/Graphics/SVG/1.1/DTD/svg11.dtd">
<!-- Generated by graphviz version 2.38.0 (20140413.2041)
 -->
<!-- Title: C:/Users/cfantacci/GitHub/bayes&#45;filters&#45;lib/src/BayesFilters/src/PFCorrectionDecorator.cpp Pages: 1 -->
<svg width="297pt" height="296pt"
 viewBox="0.00 0.00 297.00 296.00" xmlns="http://www.w3.org/2000/svg" xmlns:xlink="http://www.w3.org/1999/xlink">
<g id="graph0" class="graph" transform="scale(1 1) rotate(0) translate(4 292)">
<title>C:/Users/cfantacci/GitHub/bayes&#45;filters&#45;lib/src/BayesFilters/src/PFCorrectionDecorator.cpp</title>
<polygon fill="white" stroke="none" points="-4,4 -4,-292 293,-292 293,4 -4,4"/>
<!-- Node0 -->
<g id="node1" class="node"><title>Node0</title>
<polygon fill="#bfbfbf" stroke="black" points="135,-235.5 135,-287.5 289,-287.5 289,-235.5 135,-235.5"/>
<text text-anchor="start" x="143" y="-275.5" font-family="Helvetica,sans-Serif" font-size="10.00">C:/Users/cfantacci</text>
<text text-anchor="start" x="143" y="-264.5" font-family="Helvetica,sans-Serif" font-size="10.00">/GitHub/bayes&#45;filters</text>
<text text-anchor="start" x="143" y="-253.5" font-family="Helvetica,sans-Serif" font-size="10.00">&#45;lib/src/BayesFilters</text>
<text text-anchor="middle" x="212" y="-242.5" font-family="Helvetica,sans-Serif" font-size="10.00">/src/PFCorrectionDecorator.cpp</text>
</g>
<!-- Node1 -->
<g id="node2" class="node"><title>Node1</title>
<g id="a_node2"><a xlink:href="PFCorrectionDecorator_8h.html" target="_top" xlink:title="BayesFilters/PFCorrection\lDecorator.h">
<polygon fill="white" stroke="black" points="94.5,-168.5 94.5,-198.5 225.5,-198.5 225.5,-168.5 94.5,-168.5"/>
<text text-anchor="start" x="102.5" y="-186.5" font-family="Helvetica,sans-Serif" font-size="10.00">BayesFilters/PFCorrection</text>
<text text-anchor="middle" x="160" y="-175.5" font-family="Helvetica,sans-Serif" font-size="10.00">Decorator.h</text>
</a>
</g>
</g>
<!-- Node0&#45;&gt;Node1 -->
<g id="edge1" class="edge"><title>Node0&#45;&gt;Node1</title>
<path fill="none" stroke="midnightblue" d="M194.685,-235.193C188.48,-226.125 181.531,-215.968 175.491,-207.14"/>
<polygon fill="midnightblue" stroke="midnightblue" points="178.351,-205.122 169.815,-198.845 172.573,-209.075 178.351,-205.122"/>
</g>
<!-- Node7 -->
<g id="node8" class="node"><title>Node7</title>
<polygon fill="white" stroke="#bfbfbf" points="244,-174 244,-193 284,-193 284,-174 244,-174"/>
<text text-anchor="middle" x="264" y="-181" font-family="Helvetica,sans-Serif" font-size="10.00">utility</text>
</g>
<!-- Node0&#45;&gt;Node7 -->
<g id="edge9" class="edge"><title>Node0&#45;&gt;Node7</title>
<path fill="none" stroke="midnightblue" d="M229.315,-235.193C236.838,-224.198 245.457,-211.602 252.221,-201.716"/>
<polygon fill="midnightblue" stroke="midnightblue" points="255.283,-203.438 258.041,-193.209 249.506,-199.486 255.283,-203.438"/>
</g>
<!-- Node2 -->
<g id="node3" class="node"><title>Node2</title>
<g id="a_node3"><a xlink:href="PFCorrection_8h.html" target="_top" xlink:title="PFCorrection.h">
<polygon fill="white" stroke="black" points="78,-112.5 78,-131.5 160,-131.5 160,-112.5 78,-112.5"/>
<text text-anchor="middle" x="119" y="-119.5" font-family="Helvetica,sans-Serif" font-size="10.00">PFCorrection.h</text>
</a>
</g>
</g>
<!-- Node1&#45;&gt;Node2 -->
<g id="edge2" class="edge"><title>Node1&#45;&gt;Node2</title>
<path fill="none" stroke="midnightblue" d="M150.284,-168.399C144.449,-159.932 136.984,-149.099 130.81,-140.139"/>
<polygon fill="midnightblue" stroke="midnightblue" points="133.522,-137.906 124.966,-131.658 127.758,-141.878 133.522,-137.906"/>
</g>
<!-- Node6 -->
<g id="node7" class="node"><title>Node6</title>
<polygon fill="white" stroke="#bfbfbf" points="182,-56.5 182,-75.5 234,-75.5 234,-56.5 182,-56.5"/>
<text text-anchor="middle" x="208" y="-63.5" font-family="Helvetica,sans-Serif" font-size="10.00">memory</text>
</g>
<!-- Node1&#45;&gt;Node6 -->
<g id="edge8" class="edge"><title>Node1&#45;&gt;Node6</title>
<path fill="none" stroke="midnightblue" d="M165.886,-168.337C174.613,-147.338 190.98,-107.955 200.537,-84.9579"/>
<polygon fill="midnightblue" stroke="midnightblue" points="203.791,-86.247 204.397,-75.6695 197.327,-83.5606 203.791,-86.247"/>
</g>
<!-- Node3 -->
<g id="node4" class="node"><title>Node3</title>
<g id="a_node4"><a xlink:href="ObservationModel_8h.html" target="_top" xlink:title="ObservationModel.h">
<polygon fill="white" stroke="black" points="62,-56.5 62,-75.5 164,-75.5 164,-56.5 62,-56.5"/>
<text text-anchor="middle" x="113" y="-63.5" font-family="Helvetica,sans-Serif" font-size="10.00">ObservationModel.h</text>
</a>
</g>
</g>
<!-- Node2&#45;&gt;Node3 -->
<g id="edge3" class="edge"><title>Node2&#45;&gt;Node3</title>
<path fill="none" stroke="midnightblue" d="M118.009,-112.083C117.214,-104.927 116.071,-94.6353 115.077,-85.6911"/>
<polygon fill="midnightblue" stroke="midnightblue" points="118.555,-85.3034 113.972,-75.7511 111.598,-86.0765 118.555,-85.3034"/>
</g>
<!-- Node4 -->
<g id="node5" class="node"><title>Node4</title>
<polygon fill="white" stroke="#bfbfbf" points="0,-0.5 0,-19.5 72,-19.5 72,-0.5 0,-0.5"/>
<text text-anchor="middle" x="36" y="-7.5" font-family="Helvetica,sans-Serif" font-size="10.00">Eigen/Dense</text>
</g>
<!-- Node2&#45;&gt;Node4 -->
<g id="edge7" class="edge"><title>Node2&#45;&gt;Node4</title>
<path fill="none" stroke="midnightblue" d="M99.3774,-112.381C84.4933,-104.858 64.6671,-92.5483 53,-76 43.4433,-62.445 39.2582,-43.8955 37.4259,-30.0812"/>
<polygon fill="midnightblue" stroke="midnightblue" points="40.8742,-29.396 36.3739,-19.8045 33.9105,-30.109 40.8742,-29.396"/>
</g>
<!-- Node2&#45;&gt;Node6 -->
<g id="edge6" class="edge"><title>Node2&#45;&gt;Node6</title>
<path fill="none" stroke="midnightblue" d="M133.299,-112.324C147.183,-103.9 168.492,-90.9709 184.804,-81.0741"/>
<polygon fill="midnightblue" stroke="midnightblue" points="187.002,-83.8341 193.736,-75.6545 183.371,-77.8495 187.002,-83.8341"/>
</g>
<!-- Node3&#45;&gt;Node4 -->
<g id="edge4" class="edge"><title>Node3&#45;&gt;Node4</title>
<path fill="none" stroke="midnightblue" d="M100.629,-56.324C88.8415,-48.0577 70.8677,-35.4527 56.8645,-25.6322"/>
<polygon fill="midnightblue" stroke="midnightblue" points="58.5376,-22.5307 48.3407,-19.6545 54.5184,-28.2619 58.5376,-22.5307"/>
</g>
<!-- Node5 -->
<g id="node6" class="node"><title>Node5</title>
<polygon fill="white" stroke="#bfbfbf" points="92.5,-0.5 92.5,-19.5 133.5,-19.5 133.5,-0.5 92.5,-0.5"/>
<text text-anchor="middle" x="113" y="-7.5" font-family="Helvetica,sans-Serif" font-size="10.00">string</text>
</g>
<!-- Node3&#45;&gt;Node5 -->
<g id="edge5" class="edge"><title>Node3&#45;&gt;Node5</title>
<path fill="none" stroke="midnightblue" d="M113,-56.083C113,-49.0059 113,-38.8611 113,-29.9865"/>
<polygon fill="midnightblue" stroke="midnightblue" points="116.5,-29.751 113,-19.7511 109.5,-29.7511 116.5,-29.751"/>
</g>
</g>
</svg>
