<?xml version="1.0" encoding="UTF-8" standalone="no"?>
<!DOCTYPE svg PUBLIC "-//W3C//DTD SVG 1.1//EN"
 "http://www.w3.org/Graphics/SVG/1.1/DTD/svg11.dtd">
<!-- Generated by graphviz version 2.38.0 (20140413.2041)
 -->
<!-- Title: C:/Users/cfantacci/GitHub/bayes&#45;filters&#45;lib/src/BayesFilters/src/PFPrediction.cpp Pages: 1 -->
<svg width="420pt" height="229pt"
 viewBox="0.00 0.00 420.00 229.00" xmlns="http://www.w3.org/2000/svg" xmlns:xlink="http://www.w3.org/1999/xlink">
<g id="graph0" class="graph" transform="scale(1 1) rotate(0) translate(4 225)">
<title>C:/Users/cfantacci/GitHub/bayes&#45;filters&#45;lib/src/BayesFilters/src/PFPrediction.cpp</title>
<polygon fill="white" stroke="none" points="-4,4 -4,-225 416,-225 416,4 -4,4"/>
<!-- Node0 -->
<g id="node1" class="node"><title>Node0</title>
<polygon fill="#bfbfbf" stroke="black" points="254.5,-168.5 254.5,-220.5 365.5,-220.5 365.5,-168.5 254.5,-168.5"/>
<text text-anchor="start" x="262.5" y="-208.5" font-family="Helvetica,sans-Serif" font-size="10.00">C:/Users/cfantacci</text>
<text text-anchor="start" x="262.5" y="-197.5" font-family="Helvetica,sans-Serif" font-size="10.00">/GitHub/bayes&#45;filters</text>
<text text-anchor="start" x="262.5" y="-186.5" font-family="Helvetica,sans-Serif" font-size="10.00">&#45;lib/src/BayesFilters</text>
<text text-anchor="middle" x="310" y="-175.5" font-family="Helvetica,sans-Serif" font-size="10.00">/src/PFPrediction.cpp</text>
</g>
<!-- Node1 -->
<g id="node2" class="node"><title>Node1</title>
<g id="a_node2"><a xlink:href="PFPrediction_8h.html" target="_top" xlink:title="BayesFilters/PFPrediction.h">
<polygon fill="white" stroke="black" points="123.5,-112.5 123.5,-131.5 262.5,-131.5 262.5,-112.5 123.5,-112.5"/>
<text text-anchor="middle" x="193" y="-119.5" font-family="Helvetica,sans-Serif" font-size="10.00">BayesFilters/PFPrediction.h</text>
</a>
</g>
</g>
<!-- Node0&#45;&gt;Node1 -->
<g id="edge1" class="edge"><title>Node0&#45;&gt;Node1</title>
<path fill="none" stroke="midnightblue" d="M268.421,-168.446C250.689,-157.761 230.687,-145.709 215.74,-136.702"/>
<polygon fill="midnightblue" stroke="midnightblue" points="217.523,-133.69 207.151,-131.527 213.91,-139.686 217.523,-133.69"/>
</g>
<!-- Node7 -->
<g id="node8" class="node"><title>Node7</title>
<polygon fill="white" stroke="#bfbfbf" points="280.5,-112.5 280.5,-131.5 339.5,-131.5 339.5,-112.5 280.5,-112.5"/>
<text text-anchor="middle" x="310" y="-119.5" font-family="Helvetica,sans-Serif" font-size="10.00">exception</text>
</g>
<!-- Node0&#45;&gt;Node7 -->
<g id="edge9" class="edge"><title>Node0&#45;&gt;Node7</title>
<path fill="none" stroke="midnightblue" d="M310,-168.446C310,-159.73 310,-150.104 310,-141.964"/>
<polygon fill="midnightblue" stroke="midnightblue" points="313.5,-141.695 310,-131.695 306.5,-141.696 313.5,-141.695"/>
</g>
<!-- Node8 -->
<g id="node9" class="node"><title>Node8</title>
<polygon fill="white" stroke="#bfbfbf" points="358,-112.5 358,-131.5 412,-131.5 412,-112.5 358,-112.5"/>
<text text-anchor="middle" x="385" y="-119.5" font-family="Helvetica,sans-Serif" font-size="10.00">iostream</text>
</g>
<!-- Node0&#45;&gt;Node8 -->
<g id="edge10" class="edge"><title>Node0&#45;&gt;Node8</title>
<path fill="none" stroke="midnightblue" d="M336.653,-168.446C347.204,-158.528 359.009,-147.432 368.312,-138.687"/>
<polygon fill="midnightblue" stroke="midnightblue" points="370.86,-141.095 375.749,-131.695 366.066,-135.994 370.86,-141.095"/>
</g>
<!-- Node2 -->
<g id="node3" class="node"><title>Node2</title>
<g id="a_node3"><a xlink:href="ExogenousModel_8h.html" target="_top" xlink:title="ExogenousModel.h">
<polygon fill="white" stroke="black" points="0,-56.5 0,-75.5 100,-75.5 100,-56.5 0,-56.5"/>
<text text-anchor="middle" x="50" y="-63.5" font-family="Helvetica,sans-Serif" font-size="10.00">ExogenousModel.h</text>
</a>
</g>
</g>
<!-- Node1&#45;&gt;Node2 -->
<g id="edge2" class="edge"><title>Node1&#45;&gt;Node2</title>
<path fill="none" stroke="midnightblue" d="M170.341,-112.444C146.598,-103.478 109.091,-89.314 82.2616,-79.1827"/>
<polygon fill="midnightblue" stroke="midnightblue" points="83.1445,-75.7749 72.5528,-75.5164 80.6715,-82.3235 83.1445,-75.7749"/>
</g>
<!-- Node3 -->
<g id="node4" class="node"><title>Node3</title>
<polygon fill="white" stroke="#bfbfbf" points="92,-0.5 92,-19.5 164,-19.5 164,-0.5 92,-0.5"/>
<text text-anchor="middle" x="128" y="-7.5" font-family="Helvetica,sans-Serif" font-size="10.00">Eigen/Dense</text>
</g>
<!-- Node1&#45;&gt;Node3 -->
<g id="edge6" class="edge"><title>Node1&#45;&gt;Node3</title>
<path fill="none" stroke="midnightblue" d="M181.127,-112.288C170.7,-104.041 155.851,-90.7533 147,-76 138.4,-61.6651 133.492,-43.202 130.827,-29.6187"/>
<polygon fill="midnightblue" stroke="midnightblue" points="134.24,-28.8108 129.085,-19.5542 127.342,-30.0047 134.24,-28.8108"/>
</g>
<!-- Node4 -->
<g id="node5" class="node"><title>Node4</title>
<g id="a_node5"><a xlink:href="StateModel_8h.html" target="_top" xlink:title="StateModel.h">
<polygon fill="white" stroke="black" points="156,-56.5 156,-75.5 230,-75.5 230,-56.5 156,-56.5"/>
<text text-anchor="middle" x="193" y="-63.5" font-family="Helvetica,sans-Serif" font-size="10.00">StateModel.h</text>
</a>
</g>
</g>
<!-- Node1&#45;&gt;Node4 -->
<g id="edge4" class="edge"><title>Node1&#45;&gt;Node4</title>
<path fill="none" stroke="midnightblue" d="M193,-112.083C193,-105.006 193,-94.8611 193,-85.9865"/>
<polygon fill="midnightblue" stroke="midnightblue" points="196.5,-85.751 193,-75.7511 189.5,-85.7511 196.5,-85.751"/>
</g>
<!-- Node5 -->
<g id="node6" class="node"><title>Node5</title>
<polygon fill="white" stroke="#bfbfbf" points="248,-56.5 248,-75.5 300,-75.5 300,-56.5 248,-56.5"/>
<text text-anchor="middle" x="274" y="-63.5" font-family="Helvetica,sans-Serif" font-size="10.00">memory</text>
</g>
<!-- Node1&#45;&gt;Node5 -->
<g id="edge7" class="edge"><title>Node1&#45;&gt;Node5</title>
<path fill="none" stroke="midnightblue" d="M206.014,-112.324C218.532,-103.979 237.682,-91.2122 252.471,-81.3524"/>
<polygon fill="midnightblue" stroke="midnightblue" points="254.639,-84.1137 261.018,-75.6545 250.756,-78.2894 254.639,-84.1137"/>
</g>
<!-- Node6 -->
<g id="node7" class="node"><title>Node6</title>
<polygon fill="white" stroke="#bfbfbf" points="318.5,-56.5 318.5,-75.5 359.5,-75.5 359.5,-56.5 318.5,-56.5"/>
<text text-anchor="middle" x="339" y="-63.5" font-family="Helvetica,sans-Serif" font-size="10.00">string</text>
</g>
<!-- Node1&#45;&gt;Node6 -->
<g id="edge8" class="edge"><title>Node1&#45;&gt;Node6</title>
<path fill="none" stroke="midnightblue" d="M216.134,-112.444C241.198,-103.173 281.286,-88.3464 308.813,-78.1652"/>
<polygon fill="midnightblue" stroke="midnightblue" points="310.17,-81.395 318.335,-74.6433 307.742,-74.8297 310.17,-81.395"/>
</g>
<!-- Node2&#45;&gt;Node3 -->
<g id="edge3" class="edge"><title>Node2&#45;&gt;Node3</title>
<path fill="none" stroke="midnightblue" d="M62.532,-56.324C74.5859,-47.979 93.0268,-35.2122 107.269,-25.3524"/>
<polygon fill="midnightblue" stroke="midnightblue" points="109.269,-28.2243 115.499,-19.6545 105.285,-22.469 109.269,-28.2243"/>
</g>
<!-- Node4&#45;&gt;Node3 -->
<g id="edge5" class="edge"><title>Node4&#45;&gt;Node3</title>
<path fill="none" stroke="midnightblue" d="M182.557,-56.324C172.854,-48.2631 158.185,-36.0765 146.5,-26.3695"/>
<polygon fill="midnightblue" stroke="midnightblue" points="148.562,-23.532 138.633,-19.8339 144.089,-28.9163 148.562,-23.532"/>
</g>
</g>
</svg>
