<?xml version="1.0" encoding="UTF-8" standalone="no"?>
<!DOCTYPE svg PUBLIC "-//W3C//DTD SVG 1.1//EN"
 "http://www.w3.org/Graphics/SVG/1.1/DTD/svg11.dtd">
<!-- Generated by graphviz version 2.38.0 (20140413.2041)
 -->
<!-- Title: C:/Users/cfantacci/GitHub/bayes&#45;filters&#45;lib/src/BayesFilters/include/BayesFilters/PFPrediction.h Pages: 1 -->
<!--zoomable 339 -->
<svg id="main" version="1.1" xmlns="http://www.w3.org/2000/svg" xmlns:xlink="http://www.w3.org/1999/xlink" xml:space="preserve" onload="init(evt)">
<style type="text/css"><![CDATA[
.edge:hover path { stroke: red; }
.edge:hover polygon { stroke: red; fill: red; }
]]></style>
<script type="text/javascript"><![CDATA[
var edges = document.getElementsByTagName('g');
if (edges && edges.length) {
  for (var i=0;i<edges.length;i++) {
    if (edges[i].id.substr(0,4)=='edge') {
      edges[i].setAttribute('class','edge');
    }
  }
}
]]></script>
        <defs>
                <circle id="rim" cx="0" cy="0" r="7"/>
                <circle id="rim2" cx="0" cy="0" r="3.5"/>
                <g id="zoomPlus">
                        <use xlink:href="#rim" fill="#404040">
                                <set attributeName="fill" to="#808080" begin="zoomplus.mouseover" end="zoomplus.mouseout"/>
                        </use>
                        <path d="M-4,0h8M0,-4v8" fill="none" stroke="white" stroke-width="1.5" pointer-events="none"/>
                </g>
                <g id="zoomMin">
                        <use xlink:href="#rim" fill="#404040">
                                <set attributeName="fill" to="#808080" begin="zoomminus.mouseover" end="zoomminus.mouseout"/>
                        </use>
                        <path d="M-4,0h8" fill="none" stroke="white" stroke-width="1.5" pointer-events="none"/>
                </g>
                <g id="dirArrow">
                        <path fill="none" stroke="white" stroke-width="1.5" d="M0,-3.0v7 M-2.5,-0.5L0,-3.0L2.5,-0.5"/>
                </g>
               <g id="resetDef">
                       <use xlink:href="#rim2" fill="#404040">
                               <set attributeName="fill" to="#808080" begin="reset.mouseover" end="reset.mouseout"/>
                       </use>
               </g>
        </defs>

<script type="text/javascript">
var viewWidth = 904;
var viewHeight = 339;
var sectionId = 'dynsection-1';
</script>
<script xlink:href="svgpan.js"/>
<svg id="graph" class="graph">
<g id="viewport">
<title>C:/Users/cfantacci/GitHub/bayes&#45;filters&#45;lib/src/BayesFilters/include/BayesFilters/PFPrediction.h</title>
<polygon fill="white" stroke="none" points="-4,4 -4,-335 900,-335 900,4 -4,4"/>
<!-- Node6 -->
<g id="node1" class="node"><title>Node6</title>
<polygon fill="#bfbfbf" stroke="black" points="319.5,-278.5 319.5,-330.5 495.5,-330.5 495.5,-278.5 319.5,-278.5"/>
<text text-anchor="start" x="327.5" y="-318.5" font-family="Helvetica,sans-Serif" font-size="10.00">C:/Users/cfantacci</text>
<text text-anchor="start" x="327.5" y="-307.5" font-family="Helvetica,sans-Serif" font-size="10.00">/GitHub/bayes&#45;filters</text>
<text text-anchor="start" x="327.5" y="-296.5" font-family="Helvetica,sans-Serif" font-size="10.00">&#45;lib/src/BayesFilters</text>
<text text-anchor="middle" x="407.5" y="-285.5" font-family="Helvetica,sans-Serif" font-size="10.00">/include/BayesFilters/PFPrediction.h</text>
</g>
<!-- Node7 -->
<g id="node2" class="node"><title>Node7</title>
<g id="a_node2"><a xlink:href="DrawParticles_8h.html" target="_top" xlink:title="C:/Users/cfantacci\l/GitHub/bayes&#45;filters\l&#45;lib/src/BayesFilters\l/include/BayesFilters/DrawParticles.h">
<polygon fill="white" stroke="black" points="0,-184 0,-236 179,-236 179,-184 0,-184"/>
<text text-anchor="start" x="8" y="-224" font-family="Helvetica,sans-Serif" font-size="10.00">C:/Users/cfantacci</text>
<text text-anchor="start" x="8" y="-213" font-family="Helvetica,sans-Serif" font-size="10.00">/GitHub/bayes&#45;filters</text>
<text text-anchor="start" x="8" y="-202" font-family="Helvetica,sans-Serif" font-size="10.00">&#45;lib/src/BayesFilters</text>
<text text-anchor="middle" x="89.5" y="-191" font-family="Helvetica,sans-Serif" font-size="10.00">/include/BayesFilters/DrawParticles.h</text>
</a>
</g>
</g>
<!-- Node6&#45;&gt;Node7 -->
<g id="edge1" class="edge"><title>Node6&#45;&gt;Node7</title>
<path fill="none" stroke="midnightblue" d="M311.758,-275.65C268.467,-263.058 217.701,-248.291 175.624,-236.052"/>
<polygon fill="midnightblue" stroke="midnightblue" points="310.865,-279.036 321.445,-278.468 312.82,-272.314 310.865,-279.036"/>
</g>
<!-- Node9 -->
<g id="node4" class="node"><title>Node9</title>
<g id="a_node4"><a xlink:href="ParticleFilter_8h.html" target="_top" xlink:title="C:/Users/cfantacci\l/GitHub/bayes&#45;filters\l&#45;lib/src/BayesFilters\l/include/BayesFilters/Particle\lFilter.h">
<polygon fill="white" stroke="black" points="248.5,-178.5 248.5,-241.5 392.5,-241.5 392.5,-178.5 248.5,-178.5"/>
<text text-anchor="start" x="256.5" y="-229.5" font-family="Helvetica,sans-Serif" font-size="10.00">C:/Users/cfantacci</text>
<text text-anchor="start" x="256.5" y="-218.5" font-family="Helvetica,sans-Serif" font-size="10.00">/GitHub/bayes&#45;filters</text>
<text text-anchor="start" x="256.5" y="-207.5" font-family="Helvetica,sans-Serif" font-size="10.00">&#45;lib/src/BayesFilters</text>
<text text-anchor="start" x="256.5" y="-196.5" font-family="Helvetica,sans-Serif" font-size="10.00">/include/BayesFilters/Particle</text>
<text text-anchor="middle" x="320.5" y="-185.5" font-family="Helvetica,sans-Serif" font-size="10.00">Filter.h</text>
</a>
</g>
</g>
<!-- Node6&#45;&gt;Node9 -->
<g id="edge3" class="edge"><title>Node6&#45;&gt;Node9</title>
<path fill="none" stroke="midnightblue" d="M376.742,-270.798C367.78,-261.269 358.027,-250.9 349.198,-241.512"/>
<polygon fill="midnightblue" stroke="midnightblue" points="374.326,-273.338 383.727,-278.224 379.425,-268.542 374.326,-273.338"/>
</g>
<!-- Node10 -->
<g id="node5" class="node"><title>Node10</title>
<g id="a_node5"><a xlink:href="SIS_8h.html" target="_top" xlink:title="C:/Users/cfantacci\l/GitHub/bayes&#45;filters\l&#45;lib/src/BayesFilters\l/include/BayesFilters/SIS.h">
<polygon fill="white" stroke="black" points="153,-89.5 153,-141.5 288,-141.5 288,-89.5 153,-89.5"/>
<text text-anchor="start" x="161" y="-129.5" font-family="Helvetica,sans-Serif" font-size="10.00">C:/Users/cfantacci</text>
<text text-anchor="start" x="161" y="-118.5" font-family="Helvetica,sans-Serif" font-size="10.00">/GitHub/bayes&#45;filters</text>
<text text-anchor="start" x="161" y="-107.5" font-family="Helvetica,sans-Serif" font-size="10.00">&#45;lib/src/BayesFilters</text>
<text text-anchor="middle" x="220.5" y="-96.5" font-family="Helvetica,sans-Serif" font-size="10.00">/include/BayesFilters/SIS.h</text>
</a>
</g>
</g>
<!-- Node6&#45;&gt;Node10 -->
<g id="edge9" class="edge"><title>Node6&#45;&gt;Node10</title>
<path fill="none" stroke="midnightblue" d="M309.462,-286.75C283.175,-277.66 257.178,-263.635 239.5,-242 216.355,-213.673 215.237,-169.313 217.312,-141.624"/>
<polygon fill="midnightblue" stroke="midnightblue" points="308.553,-290.135 319.145,-289.881 310.707,-283.474 308.553,-290.135"/>
</g>
<!-- Node13 -->
<g id="node8" class="node"><title>Node13</title>
<g id="a_node8"><a xlink:href="PFPredictionDecorator_8h.html" target="_top" xlink:title="C:/Users/cfantacci\l/GitHub/bayes&#45;filters\l&#45;lib/src/BayesFilters\l/include/BayesFilters/PFPrediction\lDecorator.h">
<polygon fill="white" stroke="black" points="411,-178.5 411,-241.5 578,-241.5 578,-178.5 411,-178.5"/>
<text text-anchor="start" x="419" y="-229.5" font-family="Helvetica,sans-Serif" font-size="10.00">C:/Users/cfantacci</text>
<text text-anchor="start" x="419" y="-218.5" font-family="Helvetica,sans-Serif" font-size="10.00">/GitHub/bayes&#45;filters</text>
<text text-anchor="start" x="419" y="-207.5" font-family="Helvetica,sans-Serif" font-size="10.00">&#45;lib/src/BayesFilters</text>
<text text-anchor="start" x="419" y="-196.5" font-family="Helvetica,sans-Serif" font-size="10.00">/include/BayesFilters/PFPrediction</text>
<text text-anchor="middle" x="494.5" y="-185.5" font-family="Helvetica,sans-Serif" font-size="10.00">Decorator.h</text>
</a>
</g>
</g>
<!-- Node6&#45;&gt;Node13 -->
<g id="edge7" class="edge"><title>Node6&#45;&gt;Node13</title>
<path fill="none" stroke="midnightblue" d="M438.258,-270.798C447.22,-261.269 456.973,-250.9 465.802,-241.512"/>
<polygon fill="midnightblue" stroke="midnightblue" points="435.575,-268.542 431.273,-278.224 440.674,-273.338 435.575,-268.542"/>
</g>
<!-- Node15 -->
<g id="node10" class="node"><title>Node15</title>
<g id="a_node10"><a xlink:href="VisualParticleFilter_8h.html" target="_top" xlink:title="C:/Users/cfantacci\l/GitHub/bayes&#45;filters\l&#45;lib/src/BayesFilters\l/include/BayesFilters/VisualParticle\lFilter.h">
<polygon fill="white" stroke="black" points="596,-178.5 596,-241.5 767,-241.5 767,-178.5 596,-178.5"/>
<text text-anchor="start" x="604" y="-229.5" font-family="Helvetica,sans-Serif" font-size="10.00">C:/Users/cfantacci</text>
<text text-anchor="start" x="604" y="-218.5" font-family="Helvetica,sans-Serif" font-size="10.00">/GitHub/bayes&#45;filters</text>
<text text-anchor="start" x="604" y="-207.5" font-family="Helvetica,sans-Serif" font-size="10.00">&#45;lib/src/BayesFilters</text>
<text text-anchor="start" x="604" y="-196.5" font-family="Helvetica,sans-Serif" font-size="10.00">/include/BayesFilters/VisualParticle</text>
<text text-anchor="middle" x="681.5" y="-185.5" font-family="Helvetica,sans-Serif" font-size="10.00">Filter.h</text>
</a>
</g>
</g>
<!-- Node6&#45;&gt;Node15 -->
<g id="edge10" class="edge"><title>Node6&#45;&gt;Node15</title>
<path fill="none" stroke="midnightblue" d="M491.293,-275.212C524.378,-264.043 562.364,-251.219 595.647,-239.983"/>
<polygon fill="midnightblue" stroke="midnightblue" points="490.003,-271.953 481.648,-278.468 492.243,-278.586 490.003,-271.953"/>
</g>
<!-- Node17 -->
<g id="node12" class="node"><title>Node17</title>
<g id="a_node12"><a xlink:href="PFPrediction_8cpp.html" target="_top" xlink:title="C:/Users/cfantacci\l/GitHub/bayes&#45;filters\l&#45;lib/src/BayesFilters\l/src/PFPrediction.cpp">
<polygon fill="white" stroke="black" points="785,-184 785,-236 896,-236 896,-184 785,-184"/>
<text text-anchor="start" x="793" y="-224" font-family="Helvetica,sans-Serif" font-size="10.00">C:/Users/cfantacci</text>
<text text-anchor="start" x="793" y="-213" font-family="Helvetica,sans-Serif" font-size="10.00">/GitHub/bayes&#45;filters</text>
<text text-anchor="start" x="793" y="-202" font-family="Helvetica,sans-Serif" font-size="10.00">&#45;lib/src/BayesFilters</text>
<text text-anchor="middle" x="840.5" y="-191" font-family="Helvetica,sans-Serif" font-size="10.00">/src/PFPrediction.cpp</text>
</a>
</g>
</g>
<!-- Node6&#45;&gt;Node17 -->
<g id="edge12" class="edge"><title>Node6&#45;&gt;Node17</title>
<path fill="none" stroke="midnightblue" d="M505.611,-294.862C581.017,-286.388 687.065,-270.462 776.5,-242 781.794,-240.315 787.204,-238.265 792.527,-236.03"/>
<polygon fill="midnightblue" stroke="midnightblue" points="505.201,-291.385 495.644,-295.958 505.967,-298.343 505.201,-291.385"/>
</g>
<!-- Node8 -->
<g id="node3" class="node"><title>Node8</title>
<g id="a_node3"><a xlink:href="DrawParticles_8cpp.html" target="_top" xlink:title="C:/Users/cfantacci\l/GitHub/bayes&#45;filters\l&#45;lib/src/BayesFilters\l/src/DrawParticles.cpp">
<polygon fill="white" stroke="black" points="20,-89.5 20,-141.5 135,-141.5 135,-89.5 20,-89.5"/>
<text text-anchor="start" x="28" y="-129.5" font-family="Helvetica,sans-Serif" font-size="10.00">C:/Users/cfantacci</text>
<text text-anchor="start" x="28" y="-118.5" font-family="Helvetica,sans-Serif" font-size="10.00">/GitHub/bayes&#45;filters</text>
<text text-anchor="start" x="28" y="-107.5" font-family="Helvetica,sans-Serif" font-size="10.00">&#45;lib/src/BayesFilters</text>
<text text-anchor="middle" x="77.5" y="-96.5" font-family="Helvetica,sans-Serif" font-size="10.00">/src/DrawParticles.cpp</text>
</a>
</g>
</g>
<!-- Node7&#45;&gt;Node8 -->
<g id="edge2" class="edge"><title>Node7&#45;&gt;Node8</title>
<path fill="none" stroke="midnightblue" d="M84.8937,-173.493C83.5207,-162.909 82.0446,-151.531 80.7751,-141.745"/>
<polygon fill="midnightblue" stroke="midnightblue" points="81.4634,-174.257 86.2209,-183.724 88.4053,-173.357 81.4634,-174.257"/>
</g>
<!-- Node9&#45;&gt;Node10 -->
<g id="edge4" class="edge"><title>Node9&#45;&gt;Node10</title>
<path fill="none" stroke="midnightblue" d="M280.094,-171.625C269.244,-161.588 257.768,-150.973 247.814,-141.766"/>
<polygon fill="midnightblue" stroke="midnightblue" points="277.761,-174.235 287.479,-178.456 282.515,-169.096 277.761,-174.235"/>
</g>
<!-- Node12 -->
<g id="node7" class="node"><title>Node12</title>
<g id="a_node7"><a xlink:href="ParticleFilter_8cpp.html" target="_top" xlink:title="C:/Users/cfantacci\l/GitHub/bayes&#45;filters\l&#45;lib/src/BayesFilters\l/src/ParticleFilter.cpp">
<polygon fill="white" stroke="black" points="306.5,-89.5 306.5,-141.5 416.5,-141.5 416.5,-89.5 306.5,-89.5"/>
<text text-anchor="start" x="314.5" y="-129.5" font-family="Helvetica,sans-Serif" font-size="10.00">C:/Users/cfantacci</text>
<text text-anchor="start" x="314.5" y="-118.5" font-family="Helvetica,sans-Serif" font-size="10.00">/GitHub/bayes&#45;filters</text>
<text text-anchor="start" x="314.5" y="-107.5" font-family="Helvetica,sans-Serif" font-size="10.00">&#45;lib/src/BayesFilters</text>
<text text-anchor="middle" x="361.5" y="-96.5" font-family="Helvetica,sans-Serif" font-size="10.00">/src/ParticleFilter.cpp</text>
</a>
</g>
</g>
<!-- Node9&#45;&gt;Node12 -->
<g id="edge6" class="edge"><title>Node9&#45;&gt;Node12</title>
<path fill="none" stroke="midnightblue" d="M338.097,-169.299C342.235,-159.964 346.534,-150.265 350.301,-141.766"/>
<polygon fill="midnightblue" stroke="midnightblue" points="334.891,-167.895 334.039,-178.456 341.291,-170.732 334.891,-167.895"/>
</g>
<!-- Node11 -->
<g id="node6" class="node"><title>Node11</title>
<g id="a_node6"><a xlink:href="SIS_8cpp.html" target="_top" xlink:title="C:/Users/cfantacci\l/GitHub/bayes&#45;filters\l&#45;lib/src/BayesFilters\l/src/SIS.cpp">
<polygon fill="white" stroke="black" points="168,-0.5 168,-52.5 273,-52.5 273,-0.5 168,-0.5"/>
<text text-anchor="start" x="176" y="-40.5" font-family="Helvetica,sans-Serif" font-size="10.00">C:/Users/cfantacci</text>
<text text-anchor="start" x="176" y="-29.5" font-family="Helvetica,sans-Serif" font-size="10.00">/GitHub/bayes&#45;filters</text>
<text text-anchor="start" x="176" y="-18.5" font-family="Helvetica,sans-Serif" font-size="10.00">&#45;lib/src/BayesFilters</text>
<text text-anchor="middle" x="220.5" y="-7.5" font-family="Helvetica,sans-Serif" font-size="10.00">/src/SIS.cpp</text>
</a>
</g>
</g>
<!-- Node10&#45;&gt;Node11 -->
<g id="edge5" class="edge"><title>Node10&#45;&gt;Node11</title>
<path fill="none" stroke="midnightblue" d="M220.5,-79.1908C220.5,-70.2824 220.5,-60.8986 220.5,-52.6075"/>
<polygon fill="midnightblue" stroke="midnightblue" points="217,-79.336 220.5,-89.336 224,-79.336 217,-79.336"/>
</g>
<!-- Node14 -->
<g id="node9" class="node"><title>Node14</title>
<g id="a_node9"><a xlink:href="PFPredictionDecorator_8cpp.html" target="_top" xlink:title="C:/Users/cfantacci\l/GitHub/bayes&#45;filters\l&#45;lib/src/BayesFilters\l/src/PFPredictionDecorator.cpp">
<polygon fill="white" stroke="black" points="435,-89.5 435,-141.5 588,-141.5 588,-89.5 435,-89.5"/>
<text text-anchor="start" x="443" y="-129.5" font-family="Helvetica,sans-Serif" font-size="10.00">C:/Users/cfantacci</text>
<text text-anchor="start" x="443" y="-118.5" font-family="Helvetica,sans-Serif" font-size="10.00">/GitHub/bayes&#45;filters</text>
<text text-anchor="start" x="443" y="-107.5" font-family="Helvetica,sans-Serif" font-size="10.00">&#45;lib/src/BayesFilters</text>
<text text-anchor="middle" x="511.5" y="-96.5" font-family="Helvetica,sans-Serif" font-size="10.00">/src/PFPredictionDecorator.cpp</text>
</a>
</g>
</g>
<!-- Node13&#45;&gt;Node14 -->
<g id="edge8" class="edge"><title>Node13&#45;&gt;Node14</title>
<path fill="none" stroke="midnightblue" d="M501.957,-168.423C503.623,-159.359 505.343,-149.999 506.857,-141.766"/>
<polygon fill="midnightblue" stroke="midnightblue" points="498.479,-167.988 500.114,-178.456 505.364,-169.253 498.479,-167.988"/>
</g>
<!-- Node16 -->
<g id="node11" class="node"><title>Node16</title>
<g id="a_node11"><a xlink:href="VisualParticleFilter_8cpp.html" target="_top" xlink:title="C:/Users/cfantacci\l/GitHub/bayes&#45;filters\l&#45;lib/src/BayesFilters\l/src/VisualParticleFilter.cpp">
<polygon fill="white" stroke="black" points="613,-89.5 613,-141.5 750,-141.5 750,-89.5 613,-89.5"/>
<text text-anchor="start" x="621" y="-129.5" font-family="Helvetica,sans-Serif" font-size="10.00">C:/Users/cfantacci</text>
<text text-anchor="start" x="621" y="-118.5" font-family="Helvetica,sans-Serif" font-size="10.00">/GitHub/bayes&#45;filters</text>
<text text-anchor="start" x="621" y="-107.5" font-family="Helvetica,sans-Serif" font-size="10.00">&#45;lib/src/BayesFilters</text>
<text text-anchor="middle" x="681.5" y="-96.5" font-family="Helvetica,sans-Serif" font-size="10.00">/src/VisualParticleFilter.cpp</text>
</a>
</g>
</g>
<!-- Node15&#45;&gt;Node16 -->
<g id="edge11" class="edge"><title>Node15&#45;&gt;Node16</title>
<path fill="none" stroke="midnightblue" d="M681.5,-168.423C681.5,-159.359 681.5,-149.999 681.5,-141.766"/>
<polygon fill="midnightblue" stroke="midnightblue" points="678,-168.456 681.5,-178.456 685,-168.456 678,-168.456"/>
</g>
</g>
</svg>
        <g id="navigator" transform="translate(0 0)" fill="#404254">
                <rect fill="#f2f5e9" fill-opacity="0.5" stroke="#606060" stroke-width=".5" x="0" y="0" width="60" height="60"/>
                <use id="zoomplus" xlink:href="#zoomPlus" x="17" y="9" onmousedown="handleZoom(evt,'in')"/>
                <use id="zoomminus" xlink:href="#zoomMin" x="42" y="9" onmousedown="handleZoom(evt,'out')"/>
                <use id="reset" xlink:href="#resetDef" x="30" y="36" onmousedown="handleReset()"/>
                <g id="arrowUp" xlink:href="#dirArrow" transform="translate(30 24)" onmousedown="handlePan(0,-1)">
                  <use xlink:href="#rim" fill="#404040">
                        <set attributeName="fill" to="#808080" begin="arrowUp.mouseover" end="arrowUp.mouseout"/>
                  </use>
                  <path fill="none" stroke="white" stroke-width="1.5" d="M0,-3.0v7 M-2.5,-0.5L0,-3.0L2.5,-0.5"/>
                </g>
                <g id="arrowRight" xlink:href="#dirArrow" transform="rotate(90) translate(36 -43)" onmousedown="handlePan(1,0)">
                  <use xlink:href="#rim" fill="#404040">
                        <set attributeName="fill" to="#808080" begin="arrowRight.mouseover" end="arrowRight.mouseout"/>
                  </use>
                  <path fill="none" stroke="white" stroke-width="1.5" d="M0,-3.0v7 M-2.5,-0.5L0,-3.0L2.5,-0.5"/>
                </g>
                <g id="arrowDown" xlink:href="#dirArrow" transform="rotate(180) translate(-30 -48)" onmousedown="handlePan(0,1)">
                  <use xlink:href="#rim" fill="#404040">
                        <set attributeName="fill" to="#808080" begin="arrowDown.mouseover" end="arrowDown.mouseout"/>
                  </use>
                  <path fill="none" stroke="white" stroke-width="1.5" d="M0,-3.0v7 M-2.5,-0.5L0,-3.0L2.5,-0.5"/>
                </g>
                <g id="arrowLeft" xlink:href="#dirArrow" transform="rotate(270) translate(-36 17)" onmousedown="handlePan(-1,0)">
                  <use xlink:href="#rim" fill="#404040">
                        <set attributeName="fill" to="#808080" begin="arrowLeft.mouseover" end="arrowLeft.mouseout"/>
                  </use>
                  <path fill="none" stroke="white" stroke-width="1.5" d="M0,-3.0v7 M-2.5,-0.5L0,-3.0L2.5,-0.5"/>
                </g>
        </g>
        <svg viewBox="0 0 15 15" width="100%" height="30px" preserveAspectRatio="xMaxYMin meet">
         <g id="arrow_out" transform="scale(0.3 0.3)">
          <a xlink:href="PFPrediction_8h__dep__incl_org.svg" target="_base">
           <rect id="button" ry="5" rx="5" y="6" x="6" height="38" width="38"
                fill="#f2f5e9" fill-opacity="0.5" stroke="#606060" stroke-width="1.0"/>
           <path id="arrow"
             d="M 11.500037,31.436501 C 11.940474,20.09759 22.043105,11.32322 32.158766,21.979434 L 37.068811,17.246167 C 37.068811,17.246167 37.088388,32 37.088388,32 L 22.160133,31.978069 C 22.160133,31.978069 26.997745,27.140456 26.997745,27.140456 C 18.528582,18.264221 13.291696,25.230495 11.500037,31.436501 z"
             style="fill:#404040;"/>
          </a>
         </g>
        </svg>
</svg>
