<?xml version="1.0" encoding="UTF-8" standalone="no"?>
<!DOCTYPE svg PUBLIC "-//W3C//DTD SVG 1.1//EN"
 "http://www.w3.org/Graphics/SVG/1.1/DTD/svg11.dtd">
<!-- Generated by graphviz version 2.38.0 (20140413.2041)
 -->
<!-- Title: C:/Users/cfantacci/GitHub/bayes&#45;filters&#45;lib/src/BayesFilters/include/BayesFilters/PFVisualCorrection.h Pages: 1 -->
<svg width="520pt" height="261pt"
 viewBox="0.00 0.00 520.00 261.00" xmlns="http://www.w3.org/2000/svg" xmlns:xlink="http://www.w3.org/1999/xlink">
<g id="graph0" class="graph" transform="scale(1 1) rotate(0) translate(4 257)">
<title>C:/Users/cfantacci/GitHub/bayes&#45;filters&#45;lib/src/BayesFilters/include/BayesFilters/PFVisualCorrection.h</title>
<polygon fill="white" stroke="none" points="-4,4 -4,-257 516,-257 516,4 -4,4"/>
<!-- Node6 -->
<g id="node1" class="node"><title>Node6</title>
<polygon fill="#bfbfbf" stroke="black" points="194,-189.5 194,-252.5 345,-252.5 345,-189.5 194,-189.5"/>
<text text-anchor="start" x="202" y="-240.5" font-family="Helvetica,sans-Serif" font-size="10.00">C:/Users/cfantacci</text>
<text text-anchor="start" x="202" y="-229.5" font-family="Helvetica,sans-Serif" font-size="10.00">/GitHub/bayes&#45;filters</text>
<text text-anchor="start" x="202" y="-218.5" font-family="Helvetica,sans-Serif" font-size="10.00">&#45;lib/src/BayesFilters</text>
<text text-anchor="start" x="202" y="-207.5" font-family="Helvetica,sans-Serif" font-size="10.00">/include/BayesFilters/PFVisual</text>
<text text-anchor="middle" x="269.5" y="-196.5" font-family="Helvetica,sans-Serif" font-size="10.00">Correction.h</text>
</g>
<!-- Node7 -->
<g id="node2" class="node"><title>Node7</title>
<g id="a_node2"><a xlink:href="PFVisualCorrectionDecorator_8h.html" target="_top" xlink:title="C:/Users/cfantacci\l/GitHub/bayes&#45;filters\l&#45;lib/src/BayesFilters\l/include/BayesFilters/PFVisual\lCorrectionDecorator.h">
<polygon fill="white" stroke="black" points="15,-89.5 15,-152.5 166,-152.5 166,-89.5 15,-89.5"/>
<text text-anchor="start" x="23" y="-140.5" font-family="Helvetica,sans-Serif" font-size="10.00">C:/Users/cfantacci</text>
<text text-anchor="start" x="23" y="-129.5" font-family="Helvetica,sans-Serif" font-size="10.00">/GitHub/bayes&#45;filters</text>
<text text-anchor="start" x="23" y="-118.5" font-family="Helvetica,sans-Serif" font-size="10.00">&#45;lib/src/BayesFilters</text>
<text text-anchor="start" x="23" y="-107.5" font-family="Helvetica,sans-Serif" font-size="10.00">/include/BayesFilters/PFVisual</text>
<text text-anchor="middle" x="90.5" y="-96.5" font-family="Helvetica,sans-Serif" font-size="10.00">CorrectionDecorator.h</text>
</a>
</g>
</g>
<!-- Node6&#45;&gt;Node7 -->
<g id="edge1" class="edge"><title>Node6&#45;&gt;Node7</title>
<path fill="none" stroke="midnightblue" d="M204.457,-184.39C185.446,-173.982 164.841,-162.701 146.446,-152.63"/>
<polygon fill="midnightblue" stroke="midnightblue" points="202.902,-187.529 213.354,-189.261 206.264,-181.389 202.902,-187.529"/>
</g>
<!-- Node9 -->
<g id="node4" class="node"><title>Node9</title>
<g id="a_node4"><a xlink:href="VisualParticleFilter_8h.html" target="_top" xlink:title="C:/Users/cfantacci\l/GitHub/bayes&#45;filters\l&#45;lib/src/BayesFilters\l/include/BayesFilters/VisualParticle\lFilter.h">
<polygon fill="white" stroke="black" points="184,-89.5 184,-152.5 355,-152.5 355,-89.5 184,-89.5"/>
<text text-anchor="start" x="192" y="-140.5" font-family="Helvetica,sans-Serif" font-size="10.00">C:/Users/cfantacci</text>
<text text-anchor="start" x="192" y="-129.5" font-family="Helvetica,sans-Serif" font-size="10.00">/GitHub/bayes&#45;filters</text>
<text text-anchor="start" x="192" y="-118.5" font-family="Helvetica,sans-Serif" font-size="10.00">&#45;lib/src/BayesFilters</text>
<text text-anchor="start" x="192" y="-107.5" font-family="Helvetica,sans-Serif" font-size="10.00">/include/BayesFilters/VisualParticle</text>
<text text-anchor="middle" x="269.5" y="-96.5" font-family="Helvetica,sans-Serif" font-size="10.00">Filter.h</text>
</a>
</g>
</g>
<!-- Node6&#45;&gt;Node9 -->
<g id="edge3" class="edge"><title>Node6&#45;&gt;Node9</title>
<path fill="none" stroke="midnightblue" d="M269.5,-179.099C269.5,-170.238 269.5,-161.015 269.5,-152.63"/>
<polygon fill="midnightblue" stroke="midnightblue" points="266,-179.261 269.5,-189.261 273,-179.261 266,-179.261"/>
</g>
<!-- Node11 -->
<g id="node6" class="node"><title>Node11</title>
<g id="a_node6"><a xlink:href="PFVisualCorrection_8cpp.html" target="_top" xlink:title="C:/Users/cfantacci\l/GitHub/bayes&#45;filters\l&#45;lib/src/BayesFilters\l/src/PFVisualCorrection.cpp">
<polygon fill="white" stroke="black" points="373,-95 373,-147 512,-147 512,-95 373,-95"/>
<text text-anchor="start" x="381" y="-135" font-family="Helvetica,sans-Serif" font-size="10.00">C:/Users/cfantacci</text>
<text text-anchor="start" x="381" y="-124" font-family="Helvetica,sans-Serif" font-size="10.00">/GitHub/bayes&#45;filters</text>
<text text-anchor="start" x="381" y="-113" font-family="Helvetica,sans-Serif" font-size="10.00">&#45;lib/src/BayesFilters</text>
<text text-anchor="middle" x="442.5" y="-102" font-family="Helvetica,sans-Serif" font-size="10.00">/src/PFVisualCorrection.cpp</text>
</a>
</g>
</g>
<!-- Node6&#45;&gt;Node11 -->
<g id="edge5" class="edge"><title>Node6&#45;&gt;Node11</title>
<path fill="none" stroke="midnightblue" d="M332.629,-184.239C354.41,-171.9 378.329,-158.351 398.273,-147.054"/>
<polygon fill="midnightblue" stroke="midnightblue" points="330.739,-181.287 323.764,-189.261 334.19,-187.377 330.739,-181.287"/>
</g>
<!-- Node8 -->
<g id="node3" class="node"><title>Node8</title>
<g id="a_node3"><a xlink:href="PFVisualCorrectionDecorator_8cpp.html" target="_top" xlink:title="C:/Users/cfantacci\l/GitHub/bayes&#45;filters\l&#45;lib/src/BayesFilters\l/src/PFVisualCorrectionDecorator.cpp">
<polygon fill="white" stroke="black" points="0,-0.5 0,-52.5 181,-52.5 181,-0.5 0,-0.5"/>
<text text-anchor="start" x="8" y="-40.5" font-family="Helvetica,sans-Serif" font-size="10.00">C:/Users/cfantacci</text>
<text text-anchor="start" x="8" y="-29.5" font-family="Helvetica,sans-Serif" font-size="10.00">/GitHub/bayes&#45;filters</text>
<text text-anchor="start" x="8" y="-18.5" font-family="Helvetica,sans-Serif" font-size="10.00">&#45;lib/src/BayesFilters</text>
<text text-anchor="middle" x="90.5" y="-7.5" font-family="Helvetica,sans-Serif" font-size="10.00">/src/PFVisualCorrectionDecorator.cpp</text>
</a>
</g>
</g>
<!-- Node7&#45;&gt;Node8 -->
<g id="edge2" class="edge"><title>Node7&#45;&gt;Node8</title>
<path fill="none" stroke="midnightblue" d="M90.5,-79.4229C90.5,-70.3585 90.5,-60.999 90.5,-52.7655"/>
<polygon fill="midnightblue" stroke="midnightblue" points="87.0001,-79.4556 90.5,-89.4557 94.0001,-79.4557 87.0001,-79.4556"/>
</g>
<!-- Node10 -->
<g id="node5" class="node"><title>Node10</title>
<g id="a_node5"><a xlink:href="VisualParticleFilter_8cpp.html" target="_top" xlink:title="C:/Users/cfantacci\l/GitHub/bayes&#45;filters\l&#45;lib/src/BayesFilters\l/src/VisualParticleFilter.cpp">
<polygon fill="white" stroke="black" points="201,-0.5 201,-52.5 338,-52.5 338,-0.5 201,-0.5"/>
<text text-anchor="start" x="209" y="-40.5" font-family="Helvetica,sans-Serif" font-size="10.00">C:/Users/cfantacci</text>
<text text-anchor="start" x="209" y="-29.5" font-family="Helvetica,sans-Serif" font-size="10.00">/GitHub/bayes&#45;filters</text>
<text text-anchor="start" x="209" y="-18.5" font-family="Helvetica,sans-Serif" font-size="10.00">&#45;lib/src/BayesFilters</text>
<text text-anchor="middle" x="269.5" y="-7.5" font-family="Helvetica,sans-Serif" font-size="10.00">/src/VisualParticleFilter.cpp</text>
</a>
</g>
</g>
<!-- Node9&#45;&gt;Node10 -->
<g id="edge4" class="edge"><title>Node9&#45;&gt;Node10</title>
<path fill="none" stroke="midnightblue" d="M269.5,-79.4229C269.5,-70.3585 269.5,-60.999 269.5,-52.7655"/>
<polygon fill="midnightblue" stroke="midnightblue" points="266,-79.4556 269.5,-89.4557 273,-79.4557 266,-79.4556"/>
</g>
</g>
</svg>
