<?xml version="1.0" encoding="UTF-8" standalone="no"?>
<!DOCTYPE svg PUBLIC "-//W3C//DTD SVG 1.1//EN"
 "http://www.w3.org/Graphics/SVG/1.1/DTD/svg11.dtd">
<!-- Generated by graphviz version 2.38.0 (20140413.2041)
 -->
<!-- Title: C:/Users/cfantacci/GitHub/bayes&#45;filters&#45;lib/src/BayesFilters/src/PFVisualCorrection.cpp Pages: 1 -->
<svg width="303pt" height="229pt"
 viewBox="0.00 0.00 303.00 229.00" xmlns="http://www.w3.org/2000/svg" xmlns:xlink="http://www.w3.org/1999/xlink">
<g id="graph0" class="graph" transform="scale(1 1) rotate(0) translate(4 225)">
<title>C:/Users/cfantacci/GitHub/bayes&#45;filters&#45;lib/src/BayesFilters/src/PFVisualCorrection.cpp</title>
<polygon fill="white" stroke="none" points="-4,4 -4,-225 299,-225 299,4 -4,4"/>
<!-- Node0 -->
<g id="node1" class="node"><title>Node0</title>
<polygon fill="#bfbfbf" stroke="black" points="98.5,-168.5 98.5,-220.5 237.5,-220.5 237.5,-168.5 98.5,-168.5"/>
<text text-anchor="start" x="106.5" y="-208.5" font-family="Helvetica,sans-Serif" font-size="10.00">C:/Users/cfantacci</text>
<text text-anchor="start" x="106.5" y="-197.5" font-family="Helvetica,sans-Serif" font-size="10.00">/GitHub/bayes&#45;filters</text>
<text text-anchor="start" x="106.5" y="-186.5" font-family="Helvetica,sans-Serif" font-size="10.00">&#45;lib/src/BayesFilters</text>
<text text-anchor="middle" x="168" y="-175.5" font-family="Helvetica,sans-Serif" font-size="10.00">/src/PFVisualCorrection.cpp</text>
</g>
<!-- Node1 -->
<g id="node2" class="node"><title>Node1</title>
<g id="a_node2"><a xlink:href="PFVisualCorrection_8h.html" target="_top" xlink:title="BayesFilters/PFVisualCorrection.h">
<polygon fill="white" stroke="black" points="84.5,-112.5 84.5,-131.5 251.5,-131.5 251.5,-112.5 84.5,-112.5"/>
<text text-anchor="middle" x="168" y="-119.5" font-family="Helvetica,sans-Serif" font-size="10.00">BayesFilters/PFVisualCorrection.h</text>
</a>
</g>
</g>
<!-- Node0&#45;&gt;Node1 -->
<g id="edge1" class="edge"><title>Node0&#45;&gt;Node1</title>
<path fill="none" stroke="midnightblue" d="M168,-168.446C168,-159.73 168,-150.104 168,-141.964"/>
<polygon fill="midnightblue" stroke="midnightblue" points="171.5,-141.695 168,-131.695 164.5,-141.696 171.5,-141.695"/>
</g>
<!-- Node2 -->
<g id="node3" class="node"><title>Node2</title>
<g id="a_node3"><a xlink:href="VisualObservationModel_8h.html" target="_top" xlink:title="VisualObservationModel.h">
<polygon fill="white" stroke="black" points="57.5,-56.5 57.5,-75.5 186.5,-75.5 186.5,-56.5 57.5,-56.5"/>
<text text-anchor="middle" x="122" y="-63.5" font-family="Helvetica,sans-Serif" font-size="10.00">VisualObservationModel.h</text>
</a>
</g>
</g>
<!-- Node1&#45;&gt;Node2 -->
<g id="edge2" class="edge"><title>Node1&#45;&gt;Node2</title>
<path fill="none" stroke="midnightblue" d="M160.404,-112.083C153.773,-104.298 143.979,-92.8015 135.942,-83.3665"/>
<polygon fill="midnightblue" stroke="midnightblue" points="138.604,-81.0939 129.455,-75.7511 133.275,-85.6332 138.604,-81.0939"/>
</g>
<!-- Node3 -->
<g id="node4" class="node"><title>Node3</title>
<polygon fill="white" stroke="#bfbfbf" points="0,-0.5 0,-19.5 72,-19.5 72,-0.5 0,-0.5"/>
<text text-anchor="middle" x="36" y="-7.5" font-family="Helvetica,sans-Serif" font-size="10.00">Eigen/Dense</text>
</g>
<!-- Node1&#45;&gt;Node3 -->
<g id="edge7" class="edge"><title>Node1&#45;&gt;Node3</title>
<path fill="none" stroke="midnightblue" d="M111.998,-112.436C88.9713,-106.104 64.0023,-95.1033 48,-76 37.3013,-63.2281 34.8781,-44.036 34.785,-29.8141"/>
<polygon fill="midnightblue" stroke="midnightblue" points="38.2871,-29.7944 35.0962,-19.6916 31.2904,-29.5793 38.2871,-29.7944"/>
</g>
<!-- Node4 -->
<g id="node5" class="node"><title>Node4</title>
<polygon fill="white" stroke="#bfbfbf" points="158,-0.5 158,-19.5 272,-19.5 272,-0.5 158,-0.5"/>
<text text-anchor="middle" x="215" y="-7.5" font-family="Helvetica,sans-Serif" font-size="10.00">opencv2/core/core.hpp</text>
</g>
<!-- Node1&#45;&gt;Node4 -->
<g id="edge8" class="edge"><title>Node1&#45;&gt;Node4</title>
<path fill="none" stroke="midnightblue" d="M174.038,-112.378C180,-103.563 189.063,-89.3137 195,-76 201.762,-60.836 207.13,-42.718 210.595,-29.4671"/>
<polygon fill="midnightblue" stroke="midnightblue" points="214.019,-30.2029 213.047,-19.6528 207.228,-28.5062 214.019,-30.2029"/>
</g>
<!-- Node6 -->
<g id="node7" class="node"><title>Node6</title>
<polygon fill="white" stroke="#bfbfbf" points="243,-56.5 243,-75.5 295,-75.5 295,-56.5 243,-56.5"/>
<text text-anchor="middle" x="269" y="-63.5" font-family="Helvetica,sans-Serif" font-size="10.00">memory</text>
</g>
<!-- Node1&#45;&gt;Node6 -->
<g id="edge6" class="edge"><title>Node1&#45;&gt;Node6</title>
<path fill="none" stroke="midnightblue" d="M184.227,-112.324C200.351,-103.703 225.3,-90.3643 243.964,-80.3855"/>
<polygon fill="midnightblue" stroke="midnightblue" points="245.644,-83.456 252.813,-75.6545 242.344,-77.283 245.644,-83.456"/>
</g>
<!-- Node2&#45;&gt;Node3 -->
<g id="edge3" class="edge"><title>Node2&#45;&gt;Node3</title>
<path fill="none" stroke="midnightblue" d="M108.183,-56.324C94.767,-47.9002 74.1759,-34.9709 58.4144,-25.0741"/>
<polygon fill="midnightblue" stroke="midnightblue" points="60.1132,-22.0081 49.7831,-19.6545 56.3908,-27.9364 60.1132,-22.0081"/>
</g>
<!-- Node2&#45;&gt;Node4 -->
<g id="edge4" class="edge"><title>Node2&#45;&gt;Node4</title>
<path fill="none" stroke="midnightblue" d="M136.942,-56.324C151.585,-47.8215 174.134,-34.7288 191.238,-24.7975"/>
<polygon fill="midnightblue" stroke="midnightblue" points="193.205,-27.7027 200.095,-19.6545 189.69,-21.6491 193.205,-27.7027"/>
</g>
<!-- Node5 -->
<g id="node6" class="node"><title>Node5</title>
<polygon fill="white" stroke="#bfbfbf" points="98.5,-0.5 98.5,-19.5 139.5,-19.5 139.5,-0.5 98.5,-0.5"/>
<text text-anchor="middle" x="119" y="-7.5" font-family="Helvetica,sans-Serif" font-size="10.00">string</text>
</g>
<!-- Node2&#45;&gt;Node5 -->
<g id="edge5" class="edge"><title>Node2&#45;&gt;Node5</title>
<path fill="none" stroke="midnightblue" d="M121.505,-56.083C121.111,-49.0059 120.548,-38.8611 120.055,-29.9865"/>
<polygon fill="midnightblue" stroke="midnightblue" points="123.536,-29.5415 119.486,-19.7511 116.546,-29.9299 123.536,-29.5415"/>
</g>
</g>
</svg>
