<?xml version="1.0" encoding="UTF-8" standalone="no"?>
<!DOCTYPE svg PUBLIC "-//W3C//DTD SVG 1.1//EN"
 "http://www.w3.org/Graphics/SVG/1.1/DTD/svg11.dtd">
<!-- Generated by graphviz version 2.38.0 (20140413.2041)
 -->
<!-- Title: C:/Users/cfantacci/GitHub/bayes&#45;filters&#45;lib/src/BayesFilters/include/BayesFilters/PFVisualCorrectionDecorator.h Pages: 1 -->
<svg width="310pt" height="240pt"
 viewBox="0.00 0.00 309.50 240.00" xmlns="http://www.w3.org/2000/svg" xmlns:xlink="http://www.w3.org/1999/xlink">
<g id="graph0" class="graph" transform="scale(1 1) rotate(0) translate(4 236)">
<title>C:/Users/cfantacci/GitHub/bayes&#45;filters&#45;lib/src/BayesFilters/include/BayesFilters/PFVisualCorrectionDecorator.h</title>
<polygon fill="white" stroke="none" points="-4,4 -4,-236 305.5,-236 305.5,4 -4,4"/>
<!-- Node0 -->
<g id="node1" class="node"><title>Node0</title>
<polygon fill="#bfbfbf" stroke="black" points="150.5,-168.5 150.5,-231.5 301.5,-231.5 301.5,-168.5 150.5,-168.5"/>
<text text-anchor="start" x="158.5" y="-219.5" font-family="Helvetica,sans-Serif" font-size="10.00">C:/Users/cfantacci</text>
<text text-anchor="start" x="158.5" y="-208.5" font-family="Helvetica,sans-Serif" font-size="10.00">/GitHub/bayes&#45;filters</text>
<text text-anchor="start" x="158.5" y="-197.5" font-family="Helvetica,sans-Serif" font-size="10.00">&#45;lib/src/BayesFilters</text>
<text text-anchor="start" x="158.5" y="-186.5" font-family="Helvetica,sans-Serif" font-size="10.00">/include/BayesFilters/PFVisual</text>
<text text-anchor="middle" x="226" y="-175.5" font-family="Helvetica,sans-Serif" font-size="10.00">CorrectionDecorator.h</text>
</g>
<!-- Node1 -->
<g id="node2" class="node"><title>Node1</title>
<g id="a_node2"><a xlink:href="PFVisualCorrection_8h.html" target="_top" xlink:title="PFVisualCorrection.h">
<polygon fill="white" stroke="black" points="130.5,-112.5 130.5,-131.5 239.5,-131.5 239.5,-112.5 130.5,-112.5"/>
<text text-anchor="middle" x="185" y="-119.5" font-family="Helvetica,sans-Serif" font-size="10.00">PFVisualCorrection.h</text>
</a>
</g>
</g>
<!-- Node0&#45;&gt;Node1 -->
<g id="edge1" class="edge"><title>Node0&#45;&gt;Node1</title>
<path fill="none" stroke="midnightblue" d="M209.324,-168.088C204.28,-158.739 198.916,-148.796 194.513,-140.633"/>
<polygon fill="midnightblue" stroke="midnightblue" points="197.532,-138.857 189.703,-131.718 191.371,-142.181 197.532,-138.857"/>
</g>
<!-- Node6 -->
<g id="node7" class="node"><title>Node6</title>
<polygon fill="white" stroke="#bfbfbf" points="242,-56.5 242,-75.5 294,-75.5 294,-56.5 242,-56.5"/>
<text text-anchor="middle" x="268" y="-63.5" font-family="Helvetica,sans-Serif" font-size="10.00">memory</text>
</g>
<!-- Node0&#45;&gt;Node6 -->
<g id="edge9" class="edge"><title>Node0&#45;&gt;Node6</title>
<path fill="none" stroke="midnightblue" d="M236.197,-168.353C239.954,-156.954 244.216,-143.901 248,-132 252.976,-116.353 258.447,-98.5253 262.408,-85.5029"/>
<polygon fill="midnightblue" stroke="midnightblue" points="265.783,-86.4331 265.335,-75.8478 259.084,-84.402 265.783,-86.4331"/>
</g>
<!-- Node2 -->
<g id="node3" class="node"><title>Node2</title>
<g id="a_node3"><a xlink:href="VisualObservationModel_8h.html" target="_top" xlink:title="VisualObservationModel.h">
<polygon fill="white" stroke="black" points="56.5,-56.5 56.5,-75.5 185.5,-75.5 185.5,-56.5 56.5,-56.5"/>
<text text-anchor="middle" x="121" y="-63.5" font-family="Helvetica,sans-Serif" font-size="10.00">VisualObservationModel.h</text>
</a>
</g>
</g>
<!-- Node1&#45;&gt;Node2 -->
<g id="edge2" class="edge"><title>Node1&#45;&gt;Node2</title>
<path fill="none" stroke="midnightblue" d="M174.717,-112.324C165.164,-104.263 150.72,-92.0765 139.216,-82.3695"/>
<polygon fill="midnightblue" stroke="midnightblue" points="141.37,-79.6076 131.47,-75.8339 136.856,-84.9577 141.37,-79.6076"/>
</g>
<!-- Node3 -->
<g id="node4" class="node"><title>Node3</title>
<polygon fill="white" stroke="#bfbfbf" points="0,-0.5 0,-19.5 72,-19.5 72,-0.5 0,-0.5"/>
<text text-anchor="middle" x="36" y="-7.5" font-family="Helvetica,sans-Serif" font-size="10.00">Eigen/Dense</text>
</g>
<!-- Node1&#45;&gt;Node3 -->
<g id="edge7" class="edge"><title>Node1&#45;&gt;Node3</title>
<path fill="none" stroke="midnightblue" d="M130.425,-116.575C101.49,-111.323 67.7358,-100.046 47,-76 36.1482,-63.4158 34.0672,-44.1986 34.299,-29.9197"/>
<polygon fill="midnightblue" stroke="midnightblue" points="37.8039,-29.9249 34.8573,-19.7481 30.8144,-29.5412 37.8039,-29.9249"/>
</g>
<!-- Node4 -->
<g id="node5" class="node"><title>Node4</title>
<polygon fill="white" stroke="#bfbfbf" points="157,-0.5 157,-19.5 271,-19.5 271,-0.5 157,-0.5"/>
<text text-anchor="middle" x="214" y="-7.5" font-family="Helvetica,sans-Serif" font-size="10.00">opencv2/core/core.hpp</text>
</g>
<!-- Node1&#45;&gt;Node4 -->
<g id="edge8" class="edge"><title>Node1&#45;&gt;Node4</title>
<path fill="none" stroke="midnightblue" d="M187.276,-112.368C191.977,-94.5366 202.849,-53.2953 209.183,-29.2717"/>
<polygon fill="midnightblue" stroke="midnightblue" points="212.57,-30.1533 211.735,-19.5914 205.801,-28.3688 212.57,-30.1533"/>
</g>
<!-- Node1&#45;&gt;Node6 -->
<g id="edge6" class="edge"><title>Node1&#45;&gt;Node6</title>
<path fill="none" stroke="midnightblue" d="M198.335,-112.324C211.162,-103.979 230.785,-91.2122 245.94,-81.3524"/>
<polygon fill="midnightblue" stroke="midnightblue" points="248.224,-84.0417 254.698,-75.6545 244.407,-78.1742 248.224,-84.0417"/>
</g>
<!-- Node2&#45;&gt;Node3 -->
<g id="edge3" class="edge"><title>Node2&#45;&gt;Node3</title>
<path fill="none" stroke="midnightblue" d="M107.343,-56.324C94.0837,-47.9002 73.732,-34.9709 58.1538,-25.0741"/>
<polygon fill="midnightblue" stroke="midnightblue" points="59.9404,-22.0626 49.6228,-19.6545 56.1867,-27.9711 59.9404,-22.0626"/>
</g>
<!-- Node2&#45;&gt;Node4 -->
<g id="edge4" class="edge"><title>Node2&#45;&gt;Node4</title>
<path fill="none" stroke="midnightblue" d="M135.942,-56.324C150.585,-47.8215 173.134,-34.7288 190.238,-24.7975"/>
<polygon fill="midnightblue" stroke="midnightblue" points="192.205,-27.7027 199.095,-19.6545 188.69,-21.6491 192.205,-27.7027"/>
</g>
<!-- Node5 -->
<g id="node6" class="node"><title>Node5</title>
<polygon fill="white" stroke="#bfbfbf" points="97.5,-0.5 97.5,-19.5 138.5,-19.5 138.5,-0.5 97.5,-0.5"/>
<text text-anchor="middle" x="118" y="-7.5" font-family="Helvetica,sans-Serif" font-size="10.00">string</text>
</g>
<!-- Node2&#45;&gt;Node5 -->
<g id="edge5" class="edge"><title>Node2&#45;&gt;Node5</title>
<path fill="none" stroke="midnightblue" d="M120.505,-56.083C120.111,-49.0059 119.548,-38.8611 119.055,-29.9865"/>
<polygon fill="midnightblue" stroke="midnightblue" points="122.536,-29.5415 118.486,-19.7511 115.546,-29.9299 122.536,-29.5415"/>
</g>
</g>
</svg>
