<?xml version="1.0" encoding="UTF-8" standalone="no"?>
<!DOCTYPE svg PUBLIC "-//W3C//DTD SVG 1.1//EN"
 "http://www.w3.org/Graphics/SVG/1.1/DTD/svg11.dtd">
<!-- Generated by graphviz version 2.38.0 (20140413.2041)
 -->
<!-- Title: C:/Users/cfantacci/GitHub/bayes&#45;filters&#45;lib/src/BayesFilters/include/BayesFilters/PFVisualCorrection.h Pages: 1 -->
<svg width="303pt" height="184pt"
 viewBox="0.00 0.00 303.00 184.00" xmlns="http://www.w3.org/2000/svg" xmlns:xlink="http://www.w3.org/1999/xlink">
<g id="graph0" class="graph" transform="scale(1 1) rotate(0) translate(4 180)">
<title>C:/Users/cfantacci/GitHub/bayes&#45;filters&#45;lib/src/BayesFilters/include/BayesFilters/PFVisualCorrection.h</title>
<polygon fill="white" stroke="none" points="-4,4 -4,-180 299,-180 299,4 -4,4"/>
<!-- Node0 -->
<g id="node1" class="node"><title>Node0</title>
<polygon fill="#bfbfbf" stroke="black" points="92.5,-112.5 92.5,-175.5 243.5,-175.5 243.5,-112.5 92.5,-112.5"/>
<text text-anchor="start" x="100.5" y="-163.5" font-family="Helvetica,sans-Serif" font-size="10.00">C:/Users/cfantacci</text>
<text text-anchor="start" x="100.5" y="-152.5" font-family="Helvetica,sans-Serif" font-size="10.00">/GitHub/bayes&#45;filters</text>
<text text-anchor="start" x="100.5" y="-141.5" font-family="Helvetica,sans-Serif" font-size="10.00">&#45;lib/src/BayesFilters</text>
<text text-anchor="start" x="100.5" y="-130.5" font-family="Helvetica,sans-Serif" font-size="10.00">/include/BayesFilters/PFVisual</text>
<text text-anchor="middle" x="168" y="-119.5" font-family="Helvetica,sans-Serif" font-size="10.00">Correction.h</text>
</g>
<!-- Node1 -->
<g id="node2" class="node"><title>Node1</title>
<g id="a_node2"><a xlink:href="VisualObservationModel_8h.html" target="_top" xlink:title="VisualObservationModel.h">
<polygon fill="white" stroke="black" points="57.5,-56.5 57.5,-75.5 186.5,-75.5 186.5,-56.5 57.5,-56.5"/>
<text text-anchor="middle" x="122" y="-63.5" font-family="Helvetica,sans-Serif" font-size="10.00">VisualObservationModel.h</text>
</a>
</g>
</g>
<!-- Node0&#45;&gt;Node1 -->
<g id="edge1" class="edge"><title>Node0&#45;&gt;Node1</title>
<path fill="none" stroke="midnightblue" d="M149.29,-112.088C143.569,-102.636 137.481,-92.5773 132.51,-84.3645"/>
<polygon fill="midnightblue" stroke="midnightblue" points="135.449,-82.4609 127.277,-75.7182 129.461,-86.0855 135.449,-82.4609"/>
</g>
<!-- Node2 -->
<g id="node3" class="node"><title>Node2</title>
<polygon fill="white" stroke="#bfbfbf" points="0,-0.5 0,-19.5 72,-19.5 72,-0.5 0,-0.5"/>
<text text-anchor="middle" x="36" y="-7.5" font-family="Helvetica,sans-Serif" font-size="10.00">Eigen/Dense</text>
</g>
<!-- Node0&#45;&gt;Node2 -->
<g id="edge6" class="edge"><title>Node0&#45;&gt;Node2</title>
<path fill="none" stroke="midnightblue" d="M92.2269,-113.897C75.4112,-104.182 59.2623,-91.7067 48,-76 38.492,-62.7399 35.844,-44.1577 35.3687,-30.2561"/>
<polygon fill="midnightblue" stroke="midnightblue" points="38.8689,-29.9021 35.3777,-19.8991 31.8689,-29.896 38.8689,-29.9021"/>
</g>
<!-- Node3 -->
<g id="node4" class="node"><title>Node3</title>
<polygon fill="white" stroke="#bfbfbf" points="158,-0.5 158,-19.5 272,-19.5 272,-0.5 158,-0.5"/>
<text text-anchor="middle" x="215" y="-7.5" font-family="Helvetica,sans-Serif" font-size="10.00">opencv2/core/core.hpp</text>
</g>
<!-- Node0&#45;&gt;Node3 -->
<g id="edge7" class="edge"><title>Node0&#45;&gt;Node3</title>
<path fill="none" stroke="midnightblue" d="M181.052,-112.187C185.671,-100.885 190.767,-87.9379 195,-76 200.488,-60.5253 205.915,-42.6825 209.728,-29.6107"/>
<polygon fill="midnightblue" stroke="midnightblue" points="213.118,-30.4869 212.518,-19.9091 206.391,-28.5526 213.118,-30.4869"/>
</g>
<!-- Node5 -->
<g id="node6" class="node"><title>Node5</title>
<polygon fill="white" stroke="#bfbfbf" points="243,-56.5 243,-75.5 295,-75.5 295,-56.5 243,-56.5"/>
<text text-anchor="middle" x="269" y="-63.5" font-family="Helvetica,sans-Serif" font-size="10.00">memory</text>
</g>
<!-- Node0&#45;&gt;Node5 -->
<g id="edge5" class="edge"><title>Node0&#45;&gt;Node5</title>
<path fill="none" stroke="midnightblue" d="M208.789,-112.307C222.75,-101.802 237.74,-90.5223 249.271,-81.8456"/>
<polygon fill="midnightblue" stroke="midnightblue" points="251.454,-84.5832 257.34,-75.7738 247.245,-78.9898 251.454,-84.5832"/>
</g>
<!-- Node1&#45;&gt;Node2 -->
<g id="edge2" class="edge"><title>Node1&#45;&gt;Node2</title>
<path fill="none" stroke="midnightblue" d="M108.183,-56.324C94.767,-47.9002 74.1759,-34.9709 58.4144,-25.0741"/>
<polygon fill="midnightblue" stroke="midnightblue" points="60.1132,-22.0081 49.7831,-19.6545 56.3908,-27.9364 60.1132,-22.0081"/>
</g>
<!-- Node1&#45;&gt;Node3 -->
<g id="edge3" class="edge"><title>Node1&#45;&gt;Node3</title>
<path fill="none" stroke="midnightblue" d="M136.942,-56.324C151.585,-47.8215 174.134,-34.7288 191.238,-24.7975"/>
<polygon fill="midnightblue" stroke="midnightblue" points="193.205,-27.7027 200.095,-19.6545 189.69,-21.6491 193.205,-27.7027"/>
</g>
<!-- Node4 -->
<g id="node5" class="node"><title>Node4</title>
<polygon fill="white" stroke="#bfbfbf" points="98.5,-0.5 98.5,-19.5 139.5,-19.5 139.5,-0.5 98.5,-0.5"/>
<text text-anchor="middle" x="119" y="-7.5" font-family="Helvetica,sans-Serif" font-size="10.00">string</text>
</g>
<!-- Node1&#45;&gt;Node4 -->
<g id="edge4" class="edge"><title>Node1&#45;&gt;Node4</title>
<path fill="none" stroke="midnightblue" d="M121.505,-56.083C121.111,-49.0059 120.548,-38.8611 120.055,-29.9865"/>
<polygon fill="midnightblue" stroke="midnightblue" points="123.536,-29.5415 119.486,-19.7511 116.546,-29.9299 123.536,-29.5415"/>
</g>
</g>
</svg>
