<?xml version="1.0" encoding="UTF-8" standalone="no"?>
<!DOCTYPE svg PUBLIC "-//W3C//DTD SVG 1.1//EN"
 "http://www.w3.org/Graphics/SVG/1.1/DTD/svg11.dtd">
<!-- Generated by graphviz version 2.38.0 (20140413.2041)
 -->
<!-- Title: C:/Users/cfantacci/GitHub/bayes&#45;filters&#45;lib/src/BayesFilters/src/Resampling.cpp Pages: 1 -->
<svg width="200pt" height="173pt"
 viewBox="0.00 0.00 200.00 173.00" xmlns="http://www.w3.org/2000/svg" xmlns:xlink="http://www.w3.org/1999/xlink">
<g id="graph0" class="graph" transform="scale(1 1) rotate(0) translate(4 169)">
<title>C:/Users/cfantacci/GitHub/bayes&#45;filters&#45;lib/src/BayesFilters/src/Resampling.cpp</title>
<polygon fill="white" stroke="none" points="-4,4 -4,-169 196,-169 196,4 -4,4"/>
<!-- Node0 -->
<g id="node1" class="node"><title>Node0</title>
<polygon fill="#bfbfbf" stroke="black" points="66,-112.5 66,-164.5 172,-164.5 172,-112.5 66,-112.5"/>
<text text-anchor="start" x="74" y="-152.5" font-family="Helvetica,sans-Serif" font-size="10.00">C:/Users/cfantacci</text>
<text text-anchor="start" x="74" y="-141.5" font-family="Helvetica,sans-Serif" font-size="10.00">/GitHub/bayes&#45;filters</text>
<text text-anchor="start" x="74" y="-130.5" font-family="Helvetica,sans-Serif" font-size="10.00">&#45;lib/src/BayesFilters</text>
<text text-anchor="middle" x="119" y="-119.5" font-family="Helvetica,sans-Serif" font-size="10.00">/src/Resampling.cpp</text>
</g>
<!-- Node1 -->
<g id="node2" class="node"><title>Node1</title>
<g id="a_node2"><a xlink:href="Resampling_8h.html" target="_top" xlink:title="BayesFilters/Resampling.h">
<polygon fill="white" stroke="black" points="0,-56.5 0,-75.5 134,-75.5 134,-56.5 0,-56.5"/>
<text text-anchor="middle" x="67" y="-63.5" font-family="Helvetica,sans-Serif" font-size="10.00">BayesFilters/Resampling.h</text>
</a>
</g>
</g>
<!-- Node0&#45;&gt;Node1 -->
<g id="edge1" class="edge"><title>Node0&#45;&gt;Node1</title>
<path fill="none" stroke="midnightblue" d="M100.52,-112.446C93.5006,-102.929 85.6806,-92.3266 79.3605,-83.758"/>
<polygon fill="midnightblue" stroke="midnightblue" points="82.1663,-81.6656 73.4137,-75.6955 76.5329,-85.8208 82.1663,-81.6656"/>
</g>
<!-- Node4 -->
<g id="node5" class="node"><title>Node4</title>
<polygon fill="white" stroke="#bfbfbf" points="152,-56.5 152,-75.5 192,-75.5 192,-56.5 152,-56.5"/>
<text text-anchor="middle" x="172" y="-63.5" font-family="Helvetica,sans-Serif" font-size="10.00">utility</text>
</g>
<!-- Node0&#45;&gt;Node4 -->
<g id="edge4" class="edge"><title>Node0&#45;&gt;Node4</title>
<path fill="none" stroke="midnightblue" d="M137.835,-112.446C144.99,-102.929 152.96,-92.3266 159.402,-83.758"/>
<polygon fill="midnightblue" stroke="midnightblue" points="162.251,-85.7919 165.463,-75.6955 156.656,-81.5855 162.251,-85.7919"/>
</g>
<!-- Node2 -->
<g id="node3" class="node"><title>Node2</title>
<polygon fill="white" stroke="#bfbfbf" points="3.5,-0.5 3.5,-19.5 52.5,-19.5 52.5,-0.5 3.5,-0.5"/>
<text text-anchor="middle" x="28" y="-7.5" font-family="Helvetica,sans-Serif" font-size="10.00">random</text>
</g>
<!-- Node1&#45;&gt;Node2 -->
<g id="edge2" class="edge"><title>Node1&#45;&gt;Node2</title>
<path fill="none" stroke="midnightblue" d="M60.5599,-56.083C55.0511,-48.4554 46.9688,-37.2645 40.235,-27.9408"/>
<polygon fill="midnightblue" stroke="midnightblue" points="43.0126,-25.8087 34.3202,-19.7511 37.3378,-29.9071 43.0126,-25.8087"/>
</g>
<!-- Node3 -->
<g id="node4" class="node"><title>Node3</title>
<polygon fill="white" stroke="#bfbfbf" points="71,-0.5 71,-19.5 143,-19.5 143,-0.5 71,-0.5"/>
<text text-anchor="middle" x="107" y="-7.5" font-family="Helvetica,sans-Serif" font-size="10.00">Eigen/Dense</text>
</g>
<!-- Node1&#45;&gt;Node3 -->
<g id="edge3" class="edge"><title>Node1&#45;&gt;Node3</title>
<path fill="none" stroke="midnightblue" d="M73.6052,-56.083C79.2552,-48.4554 87.5448,-37.2645 94.4512,-27.9408"/>
<polygon fill="midnightblue" stroke="midnightblue" points="97.3779,-29.87 100.518,-19.7511 91.7529,-25.7034 97.3779,-29.87"/>
</g>
</g>
</svg>
