<?xml version="1.0" encoding="UTF-8" standalone="no"?>
<!DOCTYPE svg PUBLIC "-//W3C//DTD SVG 1.1//EN"
 "http://www.w3.org/Graphics/SVG/1.1/DTD/svg11.dtd">
<!-- Generated by graphviz version 2.38.0 (20140413.2041)
 -->
<!-- Title: C:/Users/cfantacci/GitHub/bayes&#45;filters&#45;lib/src/BayesFilters/include/BayesFilters/Resampling.h Pages: 1 -->
<svg width="754pt" height="339pt"
 viewBox="0.00 0.00 753.50 339.00" xmlns="http://www.w3.org/2000/svg" xmlns:xlink="http://www.w3.org/1999/xlink">
<g id="graph0" class="graph" transform="scale(1 1) rotate(0) translate(4 335)">
<title>C:/Users/cfantacci/GitHub/bayes&#45;filters&#45;lib/src/BayesFilters/include/BayesFilters/Resampling.h</title>
<polygon fill="white" stroke="none" points="-4,4 -4,-335 749.5,-335 749.5,4 -4,4"/>
<!-- Node3 -->
<g id="node1" class="node"><title>Node3</title>
<polygon fill="#bfbfbf" stroke="black" points="265.5,-278.5 265.5,-330.5 435.5,-330.5 435.5,-278.5 265.5,-278.5"/>
<text text-anchor="start" x="273.5" y="-318.5" font-family="Helvetica,sans-Serif" font-size="10.00">C:/Users/cfantacci</text>
<text text-anchor="start" x="273.5" y="-307.5" font-family="Helvetica,sans-Serif" font-size="10.00">/GitHub/bayes&#45;filters</text>
<text text-anchor="start" x="273.5" y="-296.5" font-family="Helvetica,sans-Serif" font-size="10.00">&#45;lib/src/BayesFilters</text>
<text text-anchor="middle" x="350.5" y="-285.5" font-family="Helvetica,sans-Serif" font-size="10.00">/include/BayesFilters/Resampling.h</text>
</g>
<!-- Node4 -->
<g id="node2" class="node"><title>Node4</title>
<g id="a_node2"><a xlink:href="ParticleFilter_8h.html" target="_top" xlink:title="C:/Users/cfantacci\l/GitHub/bayes&#45;filters\l&#45;lib/src/BayesFilters\l/include/BayesFilters/Particle\lFilter.h">
<polygon fill="white" stroke="black" points="107.5,-178.5 107.5,-241.5 251.5,-241.5 251.5,-178.5 107.5,-178.5"/>
<text text-anchor="start" x="115.5" y="-229.5" font-family="Helvetica,sans-Serif" font-size="10.00">C:/Users/cfantacci</text>
<text text-anchor="start" x="115.5" y="-218.5" font-family="Helvetica,sans-Serif" font-size="10.00">/GitHub/bayes&#45;filters</text>
<text text-anchor="start" x="115.5" y="-207.5" font-family="Helvetica,sans-Serif" font-size="10.00">&#45;lib/src/BayesFilters</text>
<text text-anchor="start" x="115.5" y="-196.5" font-family="Helvetica,sans-Serif" font-size="10.00">/include/BayesFilters/Particle</text>
<text text-anchor="middle" x="179.5" y="-185.5" font-family="Helvetica,sans-Serif" font-size="10.00">Filter.h</text>
</a>
</g>
</g>
<!-- Node3&#45;&gt;Node4 -->
<g id="edge1" class="edge"><title>Node3&#45;&gt;Node4</title>
<path fill="none" stroke="midnightblue" d="M295.417,-273.703C276.477,-263.459 255.249,-251.975 236.184,-241.663"/>
<polygon fill="midnightblue" stroke="midnightblue" points="293.764,-276.789 304.225,-278.468 297.095,-270.632 293.764,-276.789"/>
</g>
<!-- Node5 -->
<g id="node3" class="node"><title>Node5</title>
<g id="a_node3"><a xlink:href="SIS_8h.html" target="_top" xlink:title="C:/Users/cfantacci\l/GitHub/bayes&#45;filters\l&#45;lib/src/BayesFilters\l/include/BayesFilters/SIS.h">
<polygon fill="white" stroke="black" points="0,-89.5 0,-141.5 135,-141.5 135,-89.5 0,-89.5"/>
<text text-anchor="start" x="8" y="-129.5" font-family="Helvetica,sans-Serif" font-size="10.00">C:/Users/cfantacci</text>
<text text-anchor="start" x="8" y="-118.5" font-family="Helvetica,sans-Serif" font-size="10.00">/GitHub/bayes&#45;filters</text>
<text text-anchor="start" x="8" y="-107.5" font-family="Helvetica,sans-Serif" font-size="10.00">&#45;lib/src/BayesFilters</text>
<text text-anchor="middle" x="67.5" y="-96.5" font-family="Helvetica,sans-Serif" font-size="10.00">/include/BayesFilters/SIS.h</text>
</a>
</g>
</g>
<!-- Node3&#45;&gt;Node5 -->
<g id="edge7" class="edge"><title>Node3&#45;&gt;Node5</title>
<path fill="none" stroke="midnightblue" d="M255.233,-290.66C193.557,-280.446 120.74,-264.178 98.5,-242 71.8812,-215.456 66.8244,-169.92 66.5093,-141.609"/>
<polygon fill="midnightblue" stroke="midnightblue" points="254.989,-294.166 265.42,-292.309 256.108,-287.256 254.989,-294.166"/>
</g>
<!-- Node8 -->
<g id="node6" class="node"><title>Node8</title>
<g id="a_node6"><a xlink:href="ResamplingWithPrior_8h.html" target="_top" xlink:title="C:/Users/cfantacci\l/GitHub/bayes&#45;filters\l&#45;lib/src/BayesFilters\l/include/BayesFilters/Resampling\lWithPrior.h">
<polygon fill="white" stroke="black" points="269.5,-178.5 269.5,-241.5 431.5,-241.5 431.5,-178.5 269.5,-178.5"/>
<text text-anchor="start" x="277.5" y="-229.5" font-family="Helvetica,sans-Serif" font-size="10.00">C:/Users/cfantacci</text>
<text text-anchor="start" x="277.5" y="-218.5" font-family="Helvetica,sans-Serif" font-size="10.00">/GitHub/bayes&#45;filters</text>
<text text-anchor="start" x="277.5" y="-207.5" font-family="Helvetica,sans-Serif" font-size="10.00">&#45;lib/src/BayesFilters</text>
<text text-anchor="start" x="277.5" y="-196.5" font-family="Helvetica,sans-Serif" font-size="10.00">/include/BayesFilters/Resampling</text>
<text text-anchor="middle" x="350.5" y="-185.5" font-family="Helvetica,sans-Serif" font-size="10.00">WithPrior.h</text>
</a>
</g>
</g>
<!-- Node3&#45;&gt;Node8 -->
<g id="edge5" class="edge"><title>Node3&#45;&gt;Node8</title>
<path fill="none" stroke="midnightblue" d="M350.5,-267.945C350.5,-259.226 350.5,-249.97 350.5,-241.512"/>
<polygon fill="midnightblue" stroke="midnightblue" points="347,-268.224 350.5,-278.224 354,-268.224 347,-268.224"/>
</g>
<!-- Node10 -->
<g id="node8" class="node"><title>Node10</title>
<g id="a_node8"><a xlink:href="VisualParticleFilter_8h.html" target="_top" xlink:title="C:/Users/cfantacci\l/GitHub/bayes&#45;filters\l&#45;lib/src/BayesFilters\l/include/BayesFilters/VisualParticle\lFilter.h">
<polygon fill="white" stroke="black" points="450,-178.5 450,-241.5 621,-241.5 621,-178.5 450,-178.5"/>
<text text-anchor="start" x="458" y="-229.5" font-family="Helvetica,sans-Serif" font-size="10.00">C:/Users/cfantacci</text>
<text text-anchor="start" x="458" y="-218.5" font-family="Helvetica,sans-Serif" font-size="10.00">/GitHub/bayes&#45;filters</text>
<text text-anchor="start" x="458" y="-207.5" font-family="Helvetica,sans-Serif" font-size="10.00">&#45;lib/src/BayesFilters</text>
<text text-anchor="start" x="458" y="-196.5" font-family="Helvetica,sans-Serif" font-size="10.00">/include/BayesFilters/VisualParticle</text>
<text text-anchor="middle" x="535.5" y="-185.5" font-family="Helvetica,sans-Serif" font-size="10.00">Filter.h</text>
</a>
</g>
</g>
<!-- Node3&#45;&gt;Node10 -->
<g id="edge8" class="edge"><title>Node3&#45;&gt;Node10</title>
<path fill="none" stroke="midnightblue" d="M409.537,-273.981C430.167,-263.667 453.363,-252.069 474.175,-241.663"/>
<polygon fill="midnightblue" stroke="midnightblue" points="407.943,-270.865 400.564,-278.468 411.073,-277.126 407.943,-270.865"/>
</g>
<!-- Node12 -->
<g id="node10" class="node"><title>Node12</title>
<g id="a_node10"><a xlink:href="Resampling_8cpp.html" target="_top" xlink:title="C:/Users/cfantacci\l/GitHub/bayes&#45;filters\l&#45;lib/src/BayesFilters\l/src/Resampling.cpp">
<polygon fill="white" stroke="black" points="639.5,-184 639.5,-236 745.5,-236 745.5,-184 639.5,-184"/>
<text text-anchor="start" x="647.5" y="-224" font-family="Helvetica,sans-Serif" font-size="10.00">C:/Users/cfantacci</text>
<text text-anchor="start" x="647.5" y="-213" font-family="Helvetica,sans-Serif" font-size="10.00">/GitHub/bayes&#45;filters</text>
<text text-anchor="start" x="647.5" y="-202" font-family="Helvetica,sans-Serif" font-size="10.00">&#45;lib/src/BayesFilters</text>
<text text-anchor="middle" x="692.5" y="-191" font-family="Helvetica,sans-Serif" font-size="10.00">/src/Resampling.cpp</text>
</a>
</g>
</g>
<!-- Node3&#45;&gt;Node12 -->
<g id="edge10" class="edge"><title>Node3&#45;&gt;Node12</title>
<path fill="none" stroke="midnightblue" d="M445.718,-288.632C500.663,-278.567 570.536,-263.207 630.5,-242 635.379,-240.275 640.368,-238.254 645.292,-236.087"/>
<polygon fill="midnightblue" stroke="midnightblue" points="444.858,-285.231 435.638,-290.45 446.101,-292.12 444.858,-285.231"/>
</g>
<!-- Node4&#45;&gt;Node5 -->
<g id="edge2" class="edge"><title>Node4&#45;&gt;Node5</title>
<path fill="none" stroke="midnightblue" d="M134.596,-171.914C122.341,-161.793 109.347,-151.061 98.0918,-141.766"/>
<polygon fill="midnightblue" stroke="midnightblue" points="132.577,-174.786 142.517,-178.456 137.035,-169.389 132.577,-174.786"/>
</g>
<!-- Node7 -->
<g id="node5" class="node"><title>Node7</title>
<g id="a_node5"><a xlink:href="ParticleFilter_8cpp.html" target="_top" xlink:title="C:/Users/cfantacci\l/GitHub/bayes&#45;filters\l&#45;lib/src/BayesFilters\l/src/ParticleFilter.cpp">
<polygon fill="white" stroke="black" points="153.5,-89.5 153.5,-141.5 263.5,-141.5 263.5,-89.5 153.5,-89.5"/>
<text text-anchor="start" x="161.5" y="-129.5" font-family="Helvetica,sans-Serif" font-size="10.00">C:/Users/cfantacci</text>
<text text-anchor="start" x="161.5" y="-118.5" font-family="Helvetica,sans-Serif" font-size="10.00">/GitHub/bayes&#45;filters</text>
<text text-anchor="start" x="161.5" y="-107.5" font-family="Helvetica,sans-Serif" font-size="10.00">&#45;lib/src/BayesFilters</text>
<text text-anchor="middle" x="208.5" y="-96.5" font-family="Helvetica,sans-Serif" font-size="10.00">/src/ParticleFilter.cpp</text>
</a>
</g>
</g>
<!-- Node4&#45;&gt;Node7 -->
<g id="edge4" class="edge"><title>Node4&#45;&gt;Node7</title>
<path fill="none" stroke="midnightblue" d="M192.13,-168.715C195,-159.56 197.97,-150.088 200.579,-141.766"/>
<polygon fill="midnightblue" stroke="midnightblue" points="188.728,-167.867 189.076,-178.456 195.407,-169.961 188.728,-167.867"/>
</g>
<!-- Node6 -->
<g id="node4" class="node"><title>Node6</title>
<g id="a_node4"><a xlink:href="SIS_8cpp.html" target="_top" xlink:title="C:/Users/cfantacci\l/GitHub/bayes&#45;filters\l&#45;lib/src/BayesFilters\l/src/SIS.cpp">
<polygon fill="white" stroke="black" points="15,-0.5 15,-52.5 120,-52.5 120,-0.5 15,-0.5"/>
<text text-anchor="start" x="23" y="-40.5" font-family="Helvetica,sans-Serif" font-size="10.00">C:/Users/cfantacci</text>
<text text-anchor="start" x="23" y="-29.5" font-family="Helvetica,sans-Serif" font-size="10.00">/GitHub/bayes&#45;filters</text>
<text text-anchor="start" x="23" y="-18.5" font-family="Helvetica,sans-Serif" font-size="10.00">&#45;lib/src/BayesFilters</text>
<text text-anchor="middle" x="67.5" y="-7.5" font-family="Helvetica,sans-Serif" font-size="10.00">/src/SIS.cpp</text>
</a>
</g>
</g>
<!-- Node5&#45;&gt;Node6 -->
<g id="edge3" class="edge"><title>Node5&#45;&gt;Node6</title>
<path fill="none" stroke="midnightblue" d="M67.5,-79.1908C67.5,-70.2824 67.5,-60.8986 67.5,-52.6075"/>
<polygon fill="midnightblue" stroke="midnightblue" points="64.0001,-79.336 67.5,-89.336 71.0001,-79.336 64.0001,-79.336"/>
</g>
<!-- Node9 -->
<g id="node7" class="node"><title>Node9</title>
<g id="a_node7"><a xlink:href="ResamplingWithPrior_8cpp.html" target="_top" xlink:title="C:/Users/cfantacci\l/GitHub/bayes&#45;filters\l&#45;lib/src/BayesFilters\l/src/ResamplingWithPrior.cpp">
<polygon fill="white" stroke="black" points="281.5,-89.5 281.5,-141.5 427.5,-141.5 427.5,-89.5 281.5,-89.5"/>
<text text-anchor="start" x="289.5" y="-129.5" font-family="Helvetica,sans-Serif" font-size="10.00">C:/Users/cfantacci</text>
<text text-anchor="start" x="289.5" y="-118.5" font-family="Helvetica,sans-Serif" font-size="10.00">/GitHub/bayes&#45;filters</text>
<text text-anchor="start" x="289.5" y="-107.5" font-family="Helvetica,sans-Serif" font-size="10.00">&#45;lib/src/BayesFilters</text>
<text text-anchor="middle" x="354.5" y="-96.5" font-family="Helvetica,sans-Serif" font-size="10.00">/src/ResamplingWithPrior.cpp</text>
</a>
</g>
</g>
<!-- Node8&#45;&gt;Node9 -->
<g id="edge6" class="edge"><title>Node8&#45;&gt;Node9</title>
<path fill="none" stroke="midnightblue" d="M352.255,-168.423C352.647,-159.359 353.051,-149.999 353.407,-141.766"/>
<polygon fill="midnightblue" stroke="midnightblue" points="348.756,-168.314 351.821,-178.456 355.75,-168.616 348.756,-168.314"/>
</g>
<!-- Node11 -->
<g id="node9" class="node"><title>Node11</title>
<g id="a_node9"><a xlink:href="VisualParticleFilter_8cpp.html" target="_top" xlink:title="C:/Users/cfantacci\l/GitHub/bayes&#45;filters\l&#45;lib/src/BayesFilters\l/src/VisualParticleFilter.cpp">
<polygon fill="white" stroke="black" points="467,-89.5 467,-141.5 604,-141.5 604,-89.5 467,-89.5"/>
<text text-anchor="start" x="475" y="-129.5" font-family="Helvetica,sans-Serif" font-size="10.00">C:/Users/cfantacci</text>
<text text-anchor="start" x="475" y="-118.5" font-family="Helvetica,sans-Serif" font-size="10.00">/GitHub/bayes&#45;filters</text>
<text text-anchor="start" x="475" y="-107.5" font-family="Helvetica,sans-Serif" font-size="10.00">&#45;lib/src/BayesFilters</text>
<text text-anchor="middle" x="535.5" y="-96.5" font-family="Helvetica,sans-Serif" font-size="10.00">/src/VisualParticleFilter.cpp</text>
</a>
</g>
</g>
<!-- Node10&#45;&gt;Node11 -->
<g id="edge9" class="edge"><title>Node10&#45;&gt;Node11</title>
<path fill="none" stroke="midnightblue" d="M535.5,-168.423C535.5,-159.359 535.5,-149.999 535.5,-141.766"/>
<polygon fill="midnightblue" stroke="midnightblue" points="532,-168.456 535.5,-178.456 539,-168.456 532,-168.456"/>
</g>
</g>
</svg>
