<?xml version="1.0" encoding="UTF-8" standalone="no"?>
<!DOCTYPE svg PUBLIC "-//W3C//DTD SVG 1.1//EN"
 "http://www.w3.org/Graphics/SVG/1.1/DTD/svg11.dtd">
<!-- Generated by graphviz version 2.38.0 (20140413.2041)
 -->
<!-- Title: C:/Users/cfantacci/GitHub/bayes&#45;filters&#45;lib/src/BayesFilters/src/ResamplingWithPrior.cpp Pages: 1 -->
<svg width="462pt" height="240pt"
 viewBox="0.00 0.00 462.00 240.00" xmlns="http://www.w3.org/2000/svg" xmlns:xlink="http://www.w3.org/1999/xlink">
<g id="graph0" class="graph" transform="scale(1 1) rotate(0) translate(4 236)">
<title>C:/Users/cfantacci/GitHub/bayes&#45;filters&#45;lib/src/BayesFilters/src/ResamplingWithPrior.cpp</title>
<polygon fill="white" stroke="none" points="-4,4 -4,-236 458,-236 458,4 -4,4"/>
<!-- Node0 -->
<g id="node1" class="node"><title>Node0</title>
<polygon fill="#bfbfbf" stroke="black" points="164,-179.5 164,-231.5 310,-231.5 310,-179.5 164,-179.5"/>
<text text-anchor="start" x="172" y="-219.5" font-family="Helvetica,sans-Serif" font-size="10.00">C:/Users/cfantacci</text>
<text text-anchor="start" x="172" y="-208.5" font-family="Helvetica,sans-Serif" font-size="10.00">/GitHub/bayes&#45;filters</text>
<text text-anchor="start" x="172" y="-197.5" font-family="Helvetica,sans-Serif" font-size="10.00">&#45;lib/src/BayesFilters</text>
<text text-anchor="middle" x="237" y="-186.5" font-family="Helvetica,sans-Serif" font-size="10.00">/src/ResamplingWithPrior.cpp</text>
</g>
<!-- Node1 -->
<g id="node2" class="node"><title>Node1</title>
<g id="a_node2"><a xlink:href="ResamplingWithPrior_8h.html" target="_top" xlink:title="BayesFilters/ResamplingWith\lPrior.h">
<polygon fill="white" stroke="black" points="105,-112.5 105,-142.5 251,-142.5 251,-112.5 105,-112.5"/>
<text text-anchor="start" x="113" y="-130.5" font-family="Helvetica,sans-Serif" font-size="10.00">BayesFilters/ResamplingWith</text>
<text text-anchor="middle" x="178" y="-119.5" font-family="Helvetica,sans-Serif" font-size="10.00">Prior.h</text>
</a>
</g>
</g>
<!-- Node0&#45;&gt;Node1 -->
<g id="edge1" class="edge"><title>Node0&#45;&gt;Node1</title>
<path fill="none" stroke="midnightblue" d="M217.354,-179.193C210.241,-170.031 202.265,-159.756 195.362,-150.865"/>
<polygon fill="midnightblue" stroke="midnightblue" points="198.033,-148.598 189.136,-142.845 192.504,-152.891 198.033,-148.598"/>
</g>
<!-- Node3 -->
<g id="node4" class="node"><title>Node3</title>
<polygon fill="white" stroke="#bfbfbf" points="0,-56.5 0,-75.5 42,-75.5 42,-56.5 0,-56.5"/>
<text text-anchor="middle" x="21" y="-63.5" font-family="Helvetica,sans-Serif" font-size="10.00">vector</text>
</g>
<!-- Node0&#45;&gt;Node3 -->
<g id="edge12" class="edge"><title>Node0&#45;&gt;Node3</title>
<path fill="none" stroke="midnightblue" d="M165.382,-179.465C142.248,-169.788 117.136,-157.511 96,-143 71.2739,-126.024 47.8439,-100.148 33.9485,-83.4033"/>
<polygon fill="midnightblue" stroke="midnightblue" points="36.6142,-81.1337 27.5949,-75.5747 31.179,-85.5449 36.6142,-81.1337"/>
</g>
<!-- Node8 -->
<g id="node9" class="node"><title>Node8</title>
<polygon fill="white" stroke="#bfbfbf" points="269,-118 269,-137 325,-137 325,-118 269,-118"/>
<text text-anchor="middle" x="297" y="-125" font-family="Helvetica,sans-Serif" font-size="10.00">algorithm</text>
</g>
<!-- Node0&#45;&gt;Node8 -->
<g id="edge10" class="edge"><title>Node0&#45;&gt;Node8</title>
<path fill="none" stroke="midnightblue" d="M256.979,-179.193C265.838,-167.972 276.015,-155.082 283.889,-145.108"/>
<polygon fill="midnightblue" stroke="midnightblue" points="286.675,-147.227 290.125,-137.209 281.181,-142.889 286.675,-147.227"/>
</g>
<!-- Node9 -->
<g id="node10" class="node"><title>Node9</title>
<polygon fill="white" stroke="#bfbfbf" points="343.5,-118 343.5,-137 394.5,-137 394.5,-118 343.5,-118"/>
<text text-anchor="middle" x="369" y="-125" font-family="Helvetica,sans-Serif" font-size="10.00">numeric</text>
</g>
<!-- Node0&#45;&gt;Node9 -->
<g id="edge11" class="edge"><title>Node0&#45;&gt;Node9</title>
<path fill="none" stroke="midnightblue" d="M280.588,-179.404C302.202,-166.959 327.456,-152.419 345.426,-142.073"/>
<polygon fill="midnightblue" stroke="midnightblue" points="347.182,-145.101 354.102,-137.078 343.689,-139.034 347.182,-145.101"/>
</g>
<!-- Node2 -->
<g id="node3" class="node"><title>Node2</title>
<polygon fill="white" stroke="#bfbfbf" points="60,-56.5 60,-75.5 112,-75.5 112,-56.5 60,-56.5"/>
<text text-anchor="middle" x="86" y="-63.5" font-family="Helvetica,sans-Serif" font-size="10.00">memory</text>
</g>
<!-- Node1&#45;&gt;Node2 -->
<g id="edge2" class="edge"><title>Node1&#45;&gt;Node2</title>
<path fill="none" stroke="midnightblue" d="M156.197,-112.399C141.588,-102.951 122.427,-90.5589 107.815,-81.1089"/>
<polygon fill="midnightblue" stroke="midnightblue" points="109.684,-78.1495 99.3868,-75.6578 105.883,-84.0274 109.684,-78.1495"/>
</g>
<!-- Node1&#45;&gt;Node3 -->
<g id="edge3" class="edge"><title>Node1&#45;&gt;Node3</title>
<path fill="none" stroke="midnightblue" d="M140.793,-112.399C113.576,-102.084 77.0997,-88.2607 51.5748,-78.5873"/>
<polygon fill="midnightblue" stroke="midnightblue" points="52.6276,-75.2434 42.0362,-74.9723 50.1469,-81.7891 52.6276,-75.2434"/>
</g>
<!-- Node4 -->
<g id="node5" class="node"><title>Node4</title>
<g id="a_node5"><a xlink:href="Initialization_8h.html" target="_top" xlink:title="BayesFilters/Initialization.h">
<polygon fill="white" stroke="black" points="130,-56.5 130,-75.5 264,-75.5 264,-56.5 130,-56.5"/>
<text text-anchor="middle" x="197" y="-63.5" font-family="Helvetica,sans-Serif" font-size="10.00">BayesFilters/Initialization.h</text>
</a>
</g>
</g>
<!-- Node1&#45;&gt;Node4 -->
<g id="edge4" class="edge"><title>Node1&#45;&gt;Node4</title>
<path fill="none" stroke="midnightblue" d="M182.503,-112.399C185.093,-104.288 188.376,-94.0071 191.162,-85.2807"/>
<polygon fill="midnightblue" stroke="midnightblue" points="194.527,-86.2486 194.235,-75.6578 187.859,-84.1192 194.527,-86.2486"/>
</g>
<!-- Node5 -->
<g id="node6" class="node"><title>Node5</title>
<polygon fill="white" stroke="#bfbfbf" points="256,-0.5 256,-19.5 328,-19.5 328,-0.5 256,-0.5"/>
<text text-anchor="middle" x="292" y="-7.5" font-family="Helvetica,sans-Serif" font-size="10.00">Eigen/Dense</text>
</g>
<!-- Node1&#45;&gt;Node5 -->
<g id="edge9" class="edge"><title>Node1&#45;&gt;Node5</title>
<path fill="none" stroke="midnightblue" d="M220.853,-112.366C239.247,-104.333 259.556,-92.5131 273,-76 283.777,-62.7626 288.441,-43.6331 290.46,-29.5525"/>
<polygon fill="midnightblue" stroke="midnightblue" points="293.945,-29.8786 291.578,-19.5516 286.988,-29.1008 293.945,-29.8786"/>
</g>
<!-- Node6 -->
<g id="node7" class="node"><title>Node6</title>
<g id="a_node7"><a xlink:href="Resampling_8h.html" target="_top" xlink:title="BayesFilters/Resampling.h">
<polygon fill="white" stroke="black" points="320,-56.5 320,-75.5 454,-75.5 454,-56.5 320,-56.5"/>
<text text-anchor="middle" x="387" y="-63.5" font-family="Helvetica,sans-Serif" font-size="10.00">BayesFilters/Resampling.h</text>
</a>
</g>
</g>
<!-- Node1&#45;&gt;Node6 -->
<g id="edge6" class="edge"><title>Node1&#45;&gt;Node6</title>
<path fill="none" stroke="midnightblue" d="M227.265,-112.475C263.952,-102.03 313.384,-87.9576 347.494,-78.2469"/>
<polygon fill="midnightblue" stroke="midnightblue" points="348.461,-81.6108 357.12,-75.5064 346.544,-74.8783 348.461,-81.6108"/>
</g>
<!-- Node4&#45;&gt;Node5 -->
<g id="edge5" class="edge"><title>Node4&#45;&gt;Node5</title>
<path fill="none" stroke="midnightblue" d="M212.263,-56.324C227.221,-47.8215 250.255,-34.7288 267.727,-24.7975"/>
<polygon fill="midnightblue" stroke="midnightblue" points="269.81,-27.639 276.774,-19.6545 266.351,-21.5534 269.81,-27.639"/>
</g>
<!-- Node6&#45;&gt;Node5 -->
<g id="edge8" class="edge"><title>Node6&#45;&gt;Node5</title>
<path fill="none" stroke="midnightblue" d="M371.737,-56.324C356.779,-47.8215 333.745,-34.7288 316.273,-24.7975"/>
<polygon fill="midnightblue" stroke="midnightblue" points="317.649,-21.5534 307.226,-19.6545 314.19,-27.639 317.649,-21.5534"/>
</g>
<!-- Node7 -->
<g id="node8" class="node"><title>Node7</title>
<polygon fill="white" stroke="#bfbfbf" points="362.5,-0.5 362.5,-19.5 411.5,-19.5 411.5,-0.5 362.5,-0.5"/>
<text text-anchor="middle" x="387" y="-7.5" font-family="Helvetica,sans-Serif" font-size="10.00">random</text>
</g>
<!-- Node6&#45;&gt;Node7 -->
<g id="edge7" class="edge"><title>Node6&#45;&gt;Node7</title>
<path fill="none" stroke="midnightblue" d="M387,-56.083C387,-49.0059 387,-38.8611 387,-29.9865"/>
<polygon fill="midnightblue" stroke="midnightblue" points="390.5,-29.751 387,-19.7511 383.5,-29.7511 390.5,-29.751"/>
</g>
</g>
</svg>
