<?xml version="1.0" encoding="UTF-8" standalone="no"?>
<!DOCTYPE svg PUBLIC "-//W3C//DTD SVG 1.1//EN"
 "http://www.w3.org/Graphics/SVG/1.1/DTD/svg11.dtd">
<!-- Generated by graphviz version 2.38.0 (20140413.2041)
 -->
<!-- Title: C:/Users/cfantacci/GitHub/bayes&#45;filters&#45;lib/src/BayesFilters/include/BayesFilters/ResamplingWithPrior.h Pages: 1 -->
<svg width="462pt" height="184pt"
 viewBox="0.00 0.00 462.00 184.00" xmlns="http://www.w3.org/2000/svg" xmlns:xlink="http://www.w3.org/1999/xlink">
<g id="graph0" class="graph" transform="scale(1 1) rotate(0) translate(4 180)">
<title>C:/Users/cfantacci/GitHub/bayes&#45;filters&#45;lib/src/BayesFilters/include/BayesFilters/ResamplingWithPrior.h</title>
<polygon fill="white" stroke="none" points="-4,4 -4,-180 458,-180 458,4 -4,4"/>
<!-- Node0 -->
<g id="node1" class="node"><title>Node0</title>
<polygon fill="#bfbfbf" stroke="black" points="116,-112.5 116,-175.5 278,-175.5 278,-112.5 116,-112.5"/>
<text text-anchor="start" x="124" y="-163.5" font-family="Helvetica,sans-Serif" font-size="10.00">C:/Users/cfantacci</text>
<text text-anchor="start" x="124" y="-152.5" font-family="Helvetica,sans-Serif" font-size="10.00">/GitHub/bayes&#45;filters</text>
<text text-anchor="start" x="124" y="-141.5" font-family="Helvetica,sans-Serif" font-size="10.00">&#45;lib/src/BayesFilters</text>
<text text-anchor="start" x="124" y="-130.5" font-family="Helvetica,sans-Serif" font-size="10.00">/include/BayesFilters/Resampling</text>
<text text-anchor="middle" x="197" y="-119.5" font-family="Helvetica,sans-Serif" font-size="10.00">WithPrior.h</text>
</g>
<!-- Node1 -->
<g id="node2" class="node"><title>Node1</title>
<polygon fill="white" stroke="#bfbfbf" points="0,-56.5 0,-75.5 52,-75.5 52,-56.5 0,-56.5"/>
<text text-anchor="middle" x="26" y="-63.5" font-family="Helvetica,sans-Serif" font-size="10.00">memory</text>
</g>
<!-- Node0&#45;&gt;Node1 -->
<g id="edge1" class="edge"><title>Node0&#45;&gt;Node1</title>
<path fill="none" stroke="midnightblue" d="M127.941,-112.307C102.291,-100.907 74.5894,-88.5953 54.5465,-79.6874"/>
<polygon fill="midnightblue" stroke="midnightblue" points="55.9247,-76.4698 45.3651,-75.6067 53.0817,-82.8665 55.9247,-76.4698"/>
</g>
<!-- Node2 -->
<g id="node3" class="node"><title>Node2</title>
<polygon fill="white" stroke="#bfbfbf" points="70,-56.5 70,-75.5 112,-75.5 112,-56.5 70,-56.5"/>
<text text-anchor="middle" x="91" y="-63.5" font-family="Helvetica,sans-Serif" font-size="10.00">vector</text>
</g>
<!-- Node0&#45;&gt;Node2 -->
<g id="edge2" class="edge"><title>Node0&#45;&gt;Node2</title>
<path fill="none" stroke="midnightblue" d="M154.191,-112.307C139.539,-101.802 123.807,-90.5223 111.706,-81.8456"/>
<polygon fill="midnightblue" stroke="midnightblue" points="113.404,-78.7563 103.237,-75.7738 109.325,-84.4452 113.404,-78.7563"/>
</g>
<!-- Node3 -->
<g id="node4" class="node"><title>Node3</title>
<g id="a_node4"><a xlink:href="Initialization_8h.html" target="_top" xlink:title="BayesFilters/Initialization.h">
<polygon fill="white" stroke="black" points="130,-56.5 130,-75.5 264,-75.5 264,-56.5 130,-56.5"/>
<text text-anchor="middle" x="197" y="-63.5" font-family="Helvetica,sans-Serif" font-size="10.00">BayesFilters/Initialization.h</text>
</a>
</g>
</g>
<!-- Node0&#45;&gt;Node3 -->
<g id="edge3" class="edge"><title>Node0&#45;&gt;Node3</title>
<path fill="none" stroke="midnightblue" d="M197,-112.088C197,-103.15 197,-93.6688 197,-85.7195"/>
<polygon fill="midnightblue" stroke="midnightblue" points="200.5,-85.7181 197,-75.7182 193.5,-85.7182 200.5,-85.7181"/>
</g>
<!-- Node4 -->
<g id="node5" class="node"><title>Node4</title>
<polygon fill="white" stroke="#bfbfbf" points="256,-0.5 256,-19.5 328,-19.5 328,-0.5 256,-0.5"/>
<text text-anchor="middle" x="292" y="-7.5" font-family="Helvetica,sans-Serif" font-size="10.00">Eigen/Dense</text>
</g>
<!-- Node0&#45;&gt;Node4 -->
<g id="edge8" class="edge"><title>Node0&#45;&gt;Node4</title>
<path fill="none" stroke="midnightblue" d="M240.315,-112.213C252.326,-101.878 264.412,-89.5077 273,-76 281.969,-61.8929 286.836,-43.4046 289.391,-29.7538"/>
<polygon fill="midnightblue" stroke="midnightblue" points="292.887,-30.0586 291.033,-19.6273 285.978,-28.9384 292.887,-30.0586"/>
</g>
<!-- Node5 -->
<g id="node6" class="node"><title>Node5</title>
<g id="a_node6"><a xlink:href="Resampling_8h.html" target="_top" xlink:title="BayesFilters/Resampling.h">
<polygon fill="white" stroke="black" points="320,-56.5 320,-75.5 454,-75.5 454,-56.5 320,-56.5"/>
<text text-anchor="middle" x="387" y="-63.5" font-family="Helvetica,sans-Serif" font-size="10.00">BayesFilters/Resampling.h</text>
</a>
</g>
</g>
<!-- Node0&#45;&gt;Node5 -->
<g id="edge5" class="edge"><title>Node0&#45;&gt;Node5</title>
<path fill="none" stroke="midnightblue" d="M273.459,-112.416C302.383,-100.847 333.692,-88.3233 356.092,-79.3631"/>
<polygon fill="midnightblue" stroke="midnightblue" points="357.43,-82.5977 365.415,-75.6341 354.83,-76.0984 357.43,-82.5977"/>
</g>
<!-- Node3&#45;&gt;Node4 -->
<g id="edge4" class="edge"><title>Node3&#45;&gt;Node4</title>
<path fill="none" stroke="midnightblue" d="M212.263,-56.324C227.221,-47.8215 250.255,-34.7288 267.727,-24.7975"/>
<polygon fill="midnightblue" stroke="midnightblue" points="269.81,-27.639 276.774,-19.6545 266.351,-21.5534 269.81,-27.639"/>
</g>
<!-- Node5&#45;&gt;Node4 -->
<g id="edge7" class="edge"><title>Node5&#45;&gt;Node4</title>
<path fill="none" stroke="midnightblue" d="M371.737,-56.324C356.779,-47.8215 333.745,-34.7288 316.273,-24.7975"/>
<polygon fill="midnightblue" stroke="midnightblue" points="317.649,-21.5534 307.226,-19.6545 314.19,-27.639 317.649,-21.5534"/>
</g>
<!-- Node6 -->
<g id="node7" class="node"><title>Node6</title>
<polygon fill="white" stroke="#bfbfbf" points="362.5,-0.5 362.5,-19.5 411.5,-19.5 411.5,-0.5 362.5,-0.5"/>
<text text-anchor="middle" x="387" y="-7.5" font-family="Helvetica,sans-Serif" font-size="10.00">random</text>
</g>
<!-- Node5&#45;&gt;Node6 -->
<g id="edge6" class="edge"><title>Node5&#45;&gt;Node6</title>
<path fill="none" stroke="midnightblue" d="M387,-56.083C387,-49.0059 387,-38.8611 387,-29.9865"/>
<polygon fill="midnightblue" stroke="midnightblue" points="390.5,-29.751 387,-19.7511 383.5,-29.7511 390.5,-29.751"/>
</g>
</g>
</svg>
