<?xml version="1.0" encoding="UTF-8" standalone="no"?>
<!DOCTYPE svg PUBLIC "-//W3C//DTD SVG 1.1//EN"
 "http://www.w3.org/Graphics/SVG/1.1/DTD/svg11.dtd">
<!-- Generated by graphviz version 2.38.0 (20140413.2041)
 -->
<!-- Title: C:/Users/cfantacci/GitHub/bayes&#45;filters&#45;lib/src/BayesFilters/include/BayesFilters/SIS.h Pages: 1 -->
<!--zoomable 285 -->
<svg id="main" version="1.1" xmlns="http://www.w3.org/2000/svg" xmlns:xlink="http://www.w3.org/1999/xlink" xml:space="preserve" onload="init(evt)">
<style type="text/css"><![CDATA[
.edge:hover path { stroke: red; }
.edge:hover polygon { stroke: red; fill: red; }
]]></style>
<script type="text/javascript"><![CDATA[
var edges = document.getElementsByTagName('g');
if (edges && edges.length) {
  for (var i=0;i<edges.length;i++) {
    if (edges[i].id.substr(0,4)=='edge') {
      edges[i].setAttribute('class','edge');
    }
  }
}
]]></script>
        <defs>
                <circle id="rim" cx="0" cy="0" r="7"/>
                <circle id="rim2" cx="0" cy="0" r="3.5"/>
                <g id="zoomPlus">
                        <use xlink:href="#rim" fill="#404040">
                                <set attributeName="fill" to="#808080" begin="zoomplus.mouseover" end="zoomplus.mouseout"/>
                        </use>
                        <path d="M-4,0h8M0,-4v8" fill="none" stroke="white" stroke-width="1.5" pointer-events="none"/>
                </g>
                <g id="zoomMin">
                        <use xlink:href="#rim" fill="#404040">
                                <set attributeName="fill" to="#808080" begin="zoomminus.mouseover" end="zoomminus.mouseout"/>
                        </use>
                        <path d="M-4,0h8" fill="none" stroke="white" stroke-width="1.5" pointer-events="none"/>
                </g>
                <g id="dirArrow">
                        <path fill="none" stroke="white" stroke-width="1.5" d="M0,-3.0v7 M-2.5,-0.5L0,-3.0L2.5,-0.5"/>
                </g>
               <g id="resetDef">
                       <use xlink:href="#rim2" fill="#404040">
                               <set attributeName="fill" to="#808080" begin="reset.mouseover" end="reset.mouseout"/>
                       </use>
               </g>
        </defs>

<script type="text/javascript">
var viewWidth = 1035;
var viewHeight = 285;
var sectionId = 'dynsection-0';
</script>
<script xlink:href="svgpan.js"/>
<svg id="graph" class="graph">
<g id="viewport">
<title>C:/Users/cfantacci/GitHub/bayes&#45;filters&#45;lib/src/BayesFilters/include/BayesFilters/SIS.h</title>
<polygon fill="white" stroke="none" points="-4,4 -4,-281 1031.06,-281 1031.06,4 -4,4"/>
<!-- Node0 -->
<g id="node1" class="node"><title>Node0</title>
<polygon fill="#bfbfbf" stroke="black" points="505.5,-224.5 505.5,-276.5 640.5,-276.5 640.5,-224.5 505.5,-224.5"/>
<text text-anchor="start" x="513.5" y="-264.5" font-family="Helvetica,sans-Serif" font-size="10.00">C:/Users/cfantacci</text>
<text text-anchor="start" x="513.5" y="-253.5" font-family="Helvetica,sans-Serif" font-size="10.00">/GitHub/bayes&#45;filters</text>
<text text-anchor="start" x="513.5" y="-242.5" font-family="Helvetica,sans-Serif" font-size="10.00">&#45;lib/src/BayesFilters</text>
<text text-anchor="middle" x="573" y="-231.5" font-family="Helvetica,sans-Serif" font-size="10.00">/include/BayesFilters/SIS.h</text>
</g>
<!-- Node1 -->
<g id="node2" class="node"><title>Node1</title>
<g id="a_node2"><a xlink:href="ParticleFilter_8h.html" target="_top" xlink:title="ParticleFilter.h">
<polygon fill="white" stroke="black" points="492,-168.5 492,-187.5 572,-187.5 572,-168.5 492,-168.5"/>
<text text-anchor="middle" x="532" y="-175.5" font-family="Helvetica,sans-Serif" font-size="10.00">ParticleFilter.h</text>
</a>
</g>
</g>
<!-- Node0&#45;&gt;Node1 -->
<g id="edge1" class="edge"><title>Node0&#45;&gt;Node1</title>
<path fill="none" stroke="midnightblue" d="M558.429,-224.446C553.069,-215.229 547.118,-204.995 542.221,-196.576"/>
<polygon fill="midnightblue" stroke="midnightblue" points="545.11,-194.58 537.057,-187.695 539.059,-198.1 545.11,-194.58"/>
</g>
<!-- Node9 -->
<g id="node10" class="node"><title>Node9</title>
<polygon fill="white" stroke="#bfbfbf" points="692,-0.5 692,-19.5 764,-19.5 764,-0.5 692,-0.5"/>
<text text-anchor="middle" x="728" y="-7.5" font-family="Helvetica,sans-Serif" font-size="10.00">Eigen/Dense</text>
</g>
<!-- Node0&#45;&gt;Node9 -->
<g id="edge32" class="edge"><title>Node0&#45;&gt;Node9</title>
<path fill="none" stroke="midnightblue" d="M640.6,-247.182C745.101,-239.431 942.239,-207.2 1023,-76 1027.66,-68.4303 1028.79,-62.7427 1023,-56 991.483,-19.3111 849.008,-12.2026 774.2,-11.0422"/>
<polygon fill="midnightblue" stroke="midnightblue" points="774.155,-7.54146 764.112,-10.9155 774.067,-14.5409 774.155,-7.54146"/>
</g>
<!-- Node10 -->
<g id="node11" class="node"><title>Node10</title>
<g id="a_node11"><a xlink:href="PFCorrection_8h.html" target="_top" xlink:title="PFCorrection.h">
<polygon fill="white" stroke="black" points="143,-112.5 143,-131.5 225,-131.5 225,-112.5 143,-112.5"/>
<text text-anchor="middle" x="184" y="-119.5" font-family="Helvetica,sans-Serif" font-size="10.00">PFCorrection.h</text>
</a>
</g>
</g>
<!-- Node0&#45;&gt;Node10 -->
<g id="edge28" class="edge"><title>Node0&#45;&gt;Node10</title>
<path fill="none" stroke="midnightblue" d="M505.305,-246.849C438.723,-241.893 335.753,-227.81 256,-188 232.573,-176.306 211.043,-154.839 197.748,-139.785"/>
<polygon fill="midnightblue" stroke="midnightblue" points="200.074,-137.118 190.92,-131.784 194.749,-141.663 200.074,-137.118"/>
</g>
<!-- Node12 -->
<g id="node13" class="node"><title>Node12</title>
<polygon fill="white" stroke="#bfbfbf" points="158,-56.5 158,-75.5 210,-75.5 210,-56.5 158,-56.5"/>
<text text-anchor="middle" x="184" y="-63.5" font-family="Helvetica,sans-Serif" font-size="10.00">memory</text>
</g>
<!-- Node0&#45;&gt;Node12 -->
<g id="edge31" class="edge"><title>Node0&#45;&gt;Node12</title>
<path fill="none" stroke="midnightblue" d="M507.039,-224.425C450.016,-202.088 365.843,-167.526 295,-132 263.21,-116.058 228.017,-94.7971 205.957,-81.0037"/>
<polygon fill="midnightblue" stroke="midnightblue" points="207.682,-77.9538 197.355,-75.5867 203.952,-83.8772 207.682,-77.9538"/>
</g>
<!-- Node13 -->
<g id="node14" class="node"><title>Node13</title>
<g id="a_node14"><a xlink:href="PFPrediction_8h.html" target="_top" xlink:title="PFPrediction.h">
<polygon fill="white" stroke="black" points="588.5,-112.5 588.5,-131.5 669.5,-131.5 669.5,-112.5 588.5,-112.5"/>
<text text-anchor="middle" x="629" y="-119.5" font-family="Helvetica,sans-Serif" font-size="10.00">PFPrediction.h</text>
</a>
</g>
</g>
<!-- Node0&#45;&gt;Node13 -->
<g id="edge29" class="edge"><title>Node0&#45;&gt;Node13</title>
<path fill="none" stroke="midnightblue" d="M584.198,-224.205C595.115,-199.544 611.44,-162.667 621.075,-140.901"/>
<polygon fill="midnightblue" stroke="midnightblue" points="624.368,-142.111 625.215,-131.55 617.967,-139.277 624.368,-142.111"/>
</g>
<!-- Node16 -->
<g id="node17" class="node"><title>Node16</title>
<g id="a_node17"><a xlink:href="Resampling_8h.html" target="_top" xlink:title="Resampling.h">
<polygon fill="white" stroke="black" points="827,-112.5 827,-131.5 903,-131.5 903,-112.5 827,-112.5"/>
<text text-anchor="middle" x="865" y="-119.5" font-family="Helvetica,sans-Serif" font-size="10.00">Resampling.h</text>
</a>
</g>
</g>
<!-- Node0&#45;&gt;Node16 -->
<g id="edge30" class="edge"><title>Node0&#45;&gt;Node16</title>
<path fill="none" stroke="midnightblue" d="M631.039,-224.356C692.839,-197.584 788.161,-156.288 835.801,-135.65"/>
<polygon fill="midnightblue" stroke="midnightblue" points="837.429,-138.759 845.214,-131.572 834.646,-132.335 837.429,-138.759"/>
</g>
<!-- Node2 -->
<g id="node3" class="node"><title>Node2</title>
<g id="a_node3"><a xlink:href="FilteringAlgorithm_8h.html" target="_top" xlink:title="FilteringAlgorithm.h">
<polygon fill="white" stroke="black" points="365.5,-112.5 365.5,-131.5 466.5,-131.5 466.5,-112.5 365.5,-112.5"/>
<text text-anchor="middle" x="416" y="-119.5" font-family="Helvetica,sans-Serif" font-size="10.00">FilteringAlgorithm.h</text>
</a>
</g>
</g>
<!-- Node1&#45;&gt;Node2 -->
<g id="edge2" class="edge"><title>Node1&#45;&gt;Node2</title>
<path fill="none" stroke="midnightblue" d="M513.619,-168.444C494.784,-159.675 465.269,-145.935 443.621,-135.858"/>
<polygon fill="midnightblue" stroke="midnightblue" points="444.838,-132.564 434.295,-131.516 441.883,-138.91 444.838,-132.564"/>
</g>
<!-- Node8 -->
<g id="node9" class="node"><title>Node8</title>
<g id="a_node9"><a xlink:href="Initialization_8h.html" target="_top" xlink:title="Initialization.h">
<polygon fill="white" stroke="black" points="494,-112.5 494,-131.5 570,-131.5 570,-112.5 494,-112.5"/>
<text text-anchor="middle" x="532" y="-119.5" font-family="Helvetica,sans-Serif" font-size="10.00">Initialization.h</text>
</a>
</g>
</g>
<!-- Node1&#45;&gt;Node8 -->
<g id="edge8" class="edge"><title>Node1&#45;&gt;Node8</title>
<path fill="none" stroke="midnightblue" d="M532,-168.083C532,-161.006 532,-150.861 532,-141.986"/>
<polygon fill="midnightblue" stroke="midnightblue" points="535.5,-141.751 532,-131.751 528.5,-141.751 535.5,-141.751"/>
</g>
<!-- Node1&#45;&gt;Node10 -->
<g id="edge10" class="edge"><title>Node1&#45;&gt;Node10</title>
<path fill="none" stroke="midnightblue" d="M491.74,-170.753C428.348,-160.916 305.321,-141.826 235.552,-131"/>
<polygon fill="midnightblue" stroke="midnightblue" points="235.663,-127.475 225.244,-129.4 234.589,-134.392 235.663,-127.475"/>
</g>
<!-- Node1&#45;&gt;Node12 -->
<g id="edge27" class="edge"><title>Node1&#45;&gt;Node12</title>
<path fill="none" stroke="midnightblue" d="M493.546,-168.466C457.656,-160.196 402.767,-146.765 356,-132 305.298,-115.992 247.763,-93.2995 213.748,-79.3967"/>
<polygon fill="midnightblue" stroke="midnightblue" points="214.972,-76.1156 204.392,-75.5514 212.311,-82.5901 214.972,-76.1156"/>
</g>
<!-- Node1&#45;&gt;Node13 -->
<g id="edge16" class="edge"><title>Node1&#45;&gt;Node13</title>
<path fill="none" stroke="midnightblue" d="M547.585,-168.324C562.999,-159.743 586.812,-146.486 604.71,-136.522"/>
<polygon fill="midnightblue" stroke="midnightblue" points="606.419,-139.577 613.454,-131.655 603.014,-133.461 606.419,-139.577"/>
</g>
<!-- Node1&#45;&gt;Node16 -->
<g id="edge24" class="edge"><title>Node1&#45;&gt;Node16</title>
<path fill="none" stroke="midnightblue" d="M572.168,-170.486C633.578,-160.528 750.612,-141.549 816.61,-130.847"/>
<polygon fill="midnightblue" stroke="midnightblue" points="817.437,-134.259 826.747,-129.203 816.316,-127.349 817.437,-134.259"/>
</g>
<!-- Node3 -->
<g id="node4" class="node"><title>Node3</title>
<polygon fill="white" stroke="#bfbfbf" points="491.5,-56.5 491.5,-75.5 584.5,-75.5 584.5,-56.5 491.5,-56.5"/>
<text text-anchor="middle" x="538" y="-63.5" font-family="Helvetica,sans-Serif" font-size="10.00">condition_variable</text>
</g>
<!-- Node2&#45;&gt;Node3 -->
<g id="edge3" class="edge"><title>Node2&#45;&gt;Node3</title>
<path fill="none" stroke="midnightblue" d="M435.331,-112.444C455.32,-103.596 486.743,-89.6875 509.564,-79.5865"/>
<polygon fill="midnightblue" stroke="midnightblue" points="511.032,-82.7645 518.759,-75.5164 508.198,-76.3635 511.032,-82.7645"/>
</g>
<!-- Node4 -->
<g id="node5" class="node"><title>Node4</title>
<polygon fill="white" stroke="#bfbfbf" points="266,-56.5 266,-75.5 310,-75.5 310,-56.5 266,-56.5"/>
<text text-anchor="middle" x="288" y="-63.5" font-family="Helvetica,sans-Serif" font-size="10.00">mutex</text>
</g>
<!-- Node2&#45;&gt;Node4 -->
<g id="edge4" class="edge"><title>Node2&#45;&gt;Node4</title>
<path fill="none" stroke="midnightblue" d="M395.718,-112.444C374.653,-103.557 341.483,-89.5632 317.514,-79.4514"/>
<polygon fill="midnightblue" stroke="midnightblue" points="318.761,-76.1787 308.187,-75.5164 316.04,-82.6283 318.761,-76.1787"/>
</g>
<!-- Node5 -->
<g id="node6" class="node"><title>Node5</title>
<polygon fill="white" stroke="#bfbfbf" points="217.5,-0.5 217.5,-19.5 258.5,-19.5 258.5,-0.5 217.5,-0.5"/>
<text text-anchor="middle" x="238" y="-7.5" font-family="Helvetica,sans-Serif" font-size="10.00">string</text>
</g>
<!-- Node2&#45;&gt;Node5 -->
<g id="edge5" class="edge"><title>Node2&#45;&gt;Node5</title>
<path fill="none" stroke="midnightblue" d="M366.664,-112.433C325.984,-104.422 272.534,-91.4014 257,-76 244.878,-63.9818 240.395,-44.6886 238.784,-30.2378"/>
<polygon fill="midnightblue" stroke="midnightblue" points="242.249,-29.6315 238.018,-19.9183 235.268,-30.1501 242.249,-29.6315"/>
</g>
<!-- Node6 -->
<g id="node7" class="node"><title>Node6</title>
<polygon fill="white" stroke="#bfbfbf" points="328,-56.5 328,-75.5 372,-75.5 372,-56.5 328,-56.5"/>
<text text-anchor="middle" x="350" y="-63.5" font-family="Helvetica,sans-Serif" font-size="10.00">thread</text>
</g>
<!-- Node2&#45;&gt;Node6 -->
<g id="edge6" class="edge"><title>Node2&#45;&gt;Node6</title>
<path fill="none" stroke="midnightblue" d="M405.396,-112.324C395.544,-104.263 380.649,-92.0765 368.785,-82.3695"/>
<polygon fill="midnightblue" stroke="midnightblue" points="370.753,-79.4575 360.797,-75.8339 366.32,-84.8752 370.753,-79.4575"/>
</g>
<!-- Node7 -->
<g id="node8" class="node"><title>Node7</title>
<polygon fill="white" stroke="#bfbfbf" points="390.5,-56.5 390.5,-75.5 473.5,-75.5 473.5,-56.5 390.5,-56.5"/>
<text text-anchor="middle" x="432" y="-63.5" font-family="Helvetica,sans-Serif" font-size="10.00">unordered_map</text>
</g>
<!-- Node2&#45;&gt;Node7 -->
<g id="edge7" class="edge"><title>Node2&#45;&gt;Node7</title>
<path fill="none" stroke="midnightblue" d="M418.642,-112.083C420.786,-104.849 423.879,-94.4087 426.549,-85.3968"/>
<polygon fill="midnightblue" stroke="midnightblue" points="429.922,-86.3334 429.407,-75.7511 423.21,-84.3447 429.922,-86.3334"/>
</g>
<!-- Node8&#45;&gt;Node9 -->
<g id="edge9" class="edge"><title>Node8&#45;&gt;Node9</title>
<path fill="none" stroke="midnightblue" d="M547.38,-112.368C581.371,-93.2916 663.102,-47.4223 703.936,-24.5054"/>
<polygon fill="midnightblue" stroke="midnightblue" points="705.684,-27.5378 712.692,-19.5914 702.258,-21.4334 705.684,-27.5378"/>
</g>
<!-- Node10&#45;&gt;Node9 -->
<g id="edge15" class="edge"><title>Node10&#45;&gt;Node9</title>
<path fill="none" stroke="midnightblue" d="M173.199,-112.358C157.8,-99.0333 133.071,-73.2154 149,-56 184.918,-17.1816 550.9,-11.7659 681.777,-11.0751"/>
<polygon fill="midnightblue" stroke="midnightblue" points="681.897,-14.5747 691.881,-11.0289 681.865,-7.5748 681.897,-14.5747"/>
</g>
<!-- Node11 -->
<g id="node12" class="node"><title>Node11</title>
<g id="a_node12"><a xlink:href="ObservationModel_8h.html" target="_top" xlink:title="ObservationModel.h">
<polygon fill="white" stroke="black" points="0,-56.5 0,-75.5 102,-75.5 102,-56.5 0,-56.5"/>
<text text-anchor="middle" x="51" y="-63.5" font-family="Helvetica,sans-Serif" font-size="10.00">ObservationModel.h</text>
</a>
</g>
</g>
<!-- Node10&#45;&gt;Node11 -->
<g id="edge11" class="edge"><title>Node10&#45;&gt;Node11</title>
<path fill="none" stroke="midnightblue" d="M162.926,-112.444C140.94,-103.517 106.266,-89.4387 81.3359,-79.3168"/>
<polygon fill="midnightblue" stroke="midnightblue" points="82.5578,-76.0355 71.9756,-75.5164 79.9244,-82.5213 82.5578,-76.0355"/>
</g>
<!-- Node10&#45;&gt;Node12 -->
<g id="edge14" class="edge"><title>Node10&#45;&gt;Node12</title>
<path fill="none" stroke="midnightblue" d="M184,-112.083C184,-105.006 184,-94.8611 184,-85.9865"/>
<polygon fill="midnightblue" stroke="midnightblue" points="187.5,-85.751 184,-75.7511 180.5,-85.7511 187.5,-85.751"/>
</g>
<!-- Node11&#45;&gt;Node5 -->
<g id="edge13" class="edge"><title>Node11&#45;&gt;Node5</title>
<path fill="none" stroke="midnightblue" d="M80.6307,-56.4435C115.406,-46.4015 172.76,-29.8394 207.785,-19.7251"/>
<polygon fill="midnightblue" stroke="midnightblue" points="208.826,-23.0678 217.462,-16.9308 206.883,-16.3426 208.826,-23.0678"/>
</g>
<!-- Node11&#45;&gt;Node9 -->
<g id="edge12" class="edge"><title>Node11&#45;&gt;Node9</title>
<path fill="none" stroke="midnightblue" d="M102.057,-57.6153C106.766,-57.0294 111.468,-56.4798 116,-56 326.743,-33.6854 579.487,-18.8793 681.72,-13.3859"/>
<polygon fill="midnightblue" stroke="midnightblue" points="681.914,-16.8806 691.713,-12.8529 681.541,-9.89057 681.914,-16.8806"/>
</g>
<!-- Node13&#45;&gt;Node5 -->
<g id="edge23" class="edge"><title>Node13&#45;&gt;Node5</title>
<path fill="none" stroke="midnightblue" d="M626.852,-112.097C622.867,-97.6738 612.863,-69.4596 593,-56 540.427,-20.3756 345.411,-12.9512 268.997,-11.4056"/>
<polygon fill="midnightblue" stroke="midnightblue" points="268.676,-7.89936 258.614,-11.2176 268.549,-14.8982 268.676,-7.89936"/>
</g>
<!-- Node13&#45;&gt;Node9 -->
<g id="edge21" class="edge"><title>Node13&#45;&gt;Node9</title>
<path fill="none" stroke="midnightblue" d="M636.768,-112.368C653.323,-93.9744 692.296,-50.6712 713.553,-27.0519"/>
<polygon fill="midnightblue" stroke="midnightblue" points="716.18,-29.3658 720.268,-19.5914 710.977,-24.683 716.18,-29.3658"/>
</g>
<!-- Node13&#45;&gt;Node12 -->
<g id="edge22" class="edge"><title>Node13&#45;&gt;Node12</title>
<path fill="none" stroke="midnightblue" d="M588.378,-113.454C585.209,-112.937 582.055,-112.445 579,-112 436.503,-91.2332 400.018,-92.8104 257,-76 244.935,-74.5819 231.756,-72.9749 219.957,-71.5152"/>
<polygon fill="midnightblue" stroke="midnightblue" points="220.362,-68.0386 210.006,-70.2789 219.498,-74.9852 220.362,-68.0386"/>
</g>
<!-- Node14 -->
<g id="node15" class="node"><title>Node14</title>
<g id="a_node15"><a xlink:href="ExogenousModel_8h.html" target="_top" xlink:title="ExogenousModel.h">
<polygon fill="white" stroke="black" points="717,-56.5 717,-75.5 817,-75.5 817,-56.5 717,-56.5"/>
<text text-anchor="middle" x="767" y="-63.5" font-family="Helvetica,sans-Serif" font-size="10.00">ExogenousModel.h</text>
</a>
</g>
</g>
<!-- Node13&#45;&gt;Node14 -->
<g id="edge17" class="edge"><title>Node13&#45;&gt;Node14</title>
<path fill="none" stroke="midnightblue" d="M650.867,-112.444C673.779,-103.478 709.975,-89.314 735.866,-79.1827"/>
<polygon fill="midnightblue" stroke="midnightblue" points="737.199,-82.4198 745.236,-75.5164 734.648,-75.9011 737.199,-82.4198"/>
</g>
<!-- Node15 -->
<g id="node16" class="node"><title>Node15</title>
<g id="a_node16"><a xlink:href="StateModel_8h.html" target="_top" xlink:title="StateModel.h">
<polygon fill="white" stroke="black" points="835,-56.5 835,-75.5 909,-75.5 909,-56.5 835,-56.5"/>
<text text-anchor="middle" x="872" y="-63.5" font-family="Helvetica,sans-Serif" font-size="10.00">StateModel.h</text>
</a>
</g>
</g>
<!-- Node13&#45;&gt;Node15 -->
<g id="edge19" class="edge"><title>Node13&#45;&gt;Node15</title>
<path fill="none" stroke="midnightblue" d="M667.504,-112.444C710.179,-102.96 779.021,-87.662 824.882,-77.4707"/>
<polygon fill="midnightblue" stroke="midnightblue" points="825.869,-80.8368 834.871,-75.2508 824.35,-74.0035 825.869,-80.8368"/>
</g>
<!-- Node14&#45;&gt;Node9 -->
<g id="edge18" class="edge"><title>Node14&#45;&gt;Node9</title>
<path fill="none" stroke="midnightblue" d="M760.56,-56.083C755.051,-48.4554 746.969,-37.2645 740.235,-27.9408"/>
<polygon fill="midnightblue" stroke="midnightblue" points="743.013,-25.8087 734.32,-19.7511 737.338,-29.9071 743.013,-25.8087"/>
</g>
<!-- Node15&#45;&gt;Node9 -->
<g id="edge20" class="edge"><title>Node15&#45;&gt;Node9</title>
<path fill="none" stroke="midnightblue" d="M849.183,-56.4435C825.168,-47.4381 787.171,-33.1891 760.131,-23.049"/>
<polygon fill="midnightblue" stroke="midnightblue" points="761.303,-19.7506 750.71,-19.5164 758.845,-26.3049 761.303,-19.7506"/>
</g>
<!-- Node16&#45;&gt;Node9 -->
<g id="edge26" class="edge"><title>Node16&#45;&gt;Node9</title>
<path fill="none" stroke="midnightblue" d="M880.888,-112.444C901.813,-100.077 934.167,-76.4433 918,-56 900.394,-33.7366 824.518,-21.3443 774.141,-15.4356"/>
<polygon fill="midnightblue" stroke="midnightblue" points="774.449,-11.9482 764.119,-14.3056 773.664,-18.9041 774.449,-11.9482"/>
</g>
<!-- Node17 -->
<g id="node18" class="node"><title>Node17</title>
<polygon fill="white" stroke="#bfbfbf" points="965.5,-56.5 965.5,-75.5 1014.5,-75.5 1014.5,-56.5 965.5,-56.5"/>
<text text-anchor="middle" x="990" y="-63.5" font-family="Helvetica,sans-Serif" font-size="10.00">random</text>
</g>
<!-- Node16&#45;&gt;Node17 -->
<g id="edge25" class="edge"><title>Node16&#45;&gt;Node17</title>
<path fill="none" stroke="midnightblue" d="M884.807,-112.444C905.287,-103.596 937.483,-89.6875 960.865,-79.5865"/>
<polygon fill="midnightblue" stroke="midnightblue" points="962.494,-82.6953 970.286,-75.5164 959.718,-76.2692 962.494,-82.6953"/>
</g>
</g>
</svg>
        <g id="navigator" transform="translate(0 0)" fill="#404254">
                <rect fill="#f2f5e9" fill-opacity="0.5" stroke="#606060" stroke-width=".5" x="0" y="0" width="60" height="60"/>
                <use id="zoomplus" xlink:href="#zoomPlus" x="17" y="9" onmousedown="handleZoom(evt,'in')"/>
                <use id="zoomminus" xlink:href="#zoomMin" x="42" y="9" onmousedown="handleZoom(evt,'out')"/>
                <use id="reset" xlink:href="#resetDef" x="30" y="36" onmousedown="handleReset()"/>
                <g id="arrowUp" xlink:href="#dirArrow" transform="translate(30 24)" onmousedown="handlePan(0,-1)">
                  <use xlink:href="#rim" fill="#404040">
                        <set attributeName="fill" to="#808080" begin="arrowUp.mouseover" end="arrowUp.mouseout"/>
                  </use>
                  <path fill="none" stroke="white" stroke-width="1.5" d="M0,-3.0v7 M-2.5,-0.5L0,-3.0L2.5,-0.5"/>
                </g>
                <g id="arrowRight" xlink:href="#dirArrow" transform="rotate(90) translate(36 -43)" onmousedown="handlePan(1,0)">
                  <use xlink:href="#rim" fill="#404040">
                        <set attributeName="fill" to="#808080" begin="arrowRight.mouseover" end="arrowRight.mouseout"/>
                  </use>
                  <path fill="none" stroke="white" stroke-width="1.5" d="M0,-3.0v7 M-2.5,-0.5L0,-3.0L2.5,-0.5"/>
                </g>
                <g id="arrowDown" xlink:href="#dirArrow" transform="rotate(180) translate(-30 -48)" onmousedown="handlePan(0,1)">
                  <use xlink:href="#rim" fill="#404040">
                        <set attributeName="fill" to="#808080" begin="arrowDown.mouseover" end="arrowDown.mouseout"/>
                  </use>
                  <path fill="none" stroke="white" stroke-width="1.5" d="M0,-3.0v7 M-2.5,-0.5L0,-3.0L2.5,-0.5"/>
                </g>
                <g id="arrowLeft" xlink:href="#dirArrow" transform="rotate(270) translate(-36 17)" onmousedown="handlePan(-1,0)">
                  <use xlink:href="#rim" fill="#404040">
                        <set attributeName="fill" to="#808080" begin="arrowLeft.mouseover" end="arrowLeft.mouseout"/>
                  </use>
                  <path fill="none" stroke="white" stroke-width="1.5" d="M0,-3.0v7 M-2.5,-0.5L0,-3.0L2.5,-0.5"/>
                </g>
        </g>
        <svg viewBox="0 0 15 15" width="100%" height="30px" preserveAspectRatio="xMaxYMin meet">
         <g id="arrow_out" transform="scale(0.3 0.3)">
          <a xlink:href="SIS_8h__incl_org.svg" target="_base">
           <rect id="button" ry="5" rx="5" y="6" x="6" height="38" width="38"
                fill="#f2f5e9" fill-opacity="0.5" stroke="#606060" stroke-width="1.0"/>
           <path id="arrow"
             d="M 11.500037,31.436501 C 11.940474,20.09759 22.043105,11.32322 32.158766,21.979434 L 37.068811,17.246167 C 37.068811,17.246167 37.088388,32 37.088388,32 L 22.160133,31.978069 C 22.160133,31.978069 26.997745,27.140456 26.997745,27.140456 C 18.528582,18.264221 13.291696,25.230495 11.500037,31.436501 z"
             style="fill:#404040;"/>
          </a>
         </g>
        </svg>
</svg>
