<?xml version="1.0" encoding="UTF-8" standalone="no"?>
<!DOCTYPE svg PUBLIC "-//W3C//DTD SVG 1.1//EN"
 "http://www.w3.org/Graphics/SVG/1.1/DTD/svg11.dtd">
<!-- Generated by graphviz version 2.38.0 (20140413.2041)
 -->
<!-- Title: C:/Users/cfantacci/GitHub/bayes&#45;filters&#45;lib/src/BayesFilters/src/SIS.cpp Pages: 1 -->
<!--zoomable 341 -->
<svg id="main" version="1.1" xmlns="http://www.w3.org/2000/svg" xmlns:xlink="http://www.w3.org/1999/xlink" xml:space="preserve" onload="init(evt)">
<style type="text/css"><![CDATA[
.edge:hover path { stroke: red; }
.edge:hover polygon { stroke: red; fill: red; }
]]></style>
<script type="text/javascript"><![CDATA[
var edges = document.getElementsByTagName('g');
if (edges && edges.length) {
  for (var i=0;i<edges.length;i++) {
    if (edges[i].id.substr(0,4)=='edge') {
      edges[i].setAttribute('class','edge');
    }
  }
}
]]></script>
        <defs>
                <circle id="rim" cx="0" cy="0" r="7"/>
                <circle id="rim2" cx="0" cy="0" r="3.5"/>
                <g id="zoomPlus">
                        <use xlink:href="#rim" fill="#404040">
                                <set attributeName="fill" to="#808080" begin="zoomplus.mouseover" end="zoomplus.mouseout"/>
                        </use>
                        <path d="M-4,0h8M0,-4v8" fill="none" stroke="white" stroke-width="1.5" pointer-events="none"/>
                </g>
                <g id="zoomMin">
                        <use xlink:href="#rim" fill="#404040">
                                <set attributeName="fill" to="#808080" begin="zoomminus.mouseover" end="zoomminus.mouseout"/>
                        </use>
                        <path d="M-4,0h8" fill="none" stroke="white" stroke-width="1.5" pointer-events="none"/>
                </g>
                <g id="dirArrow">
                        <path fill="none" stroke="white" stroke-width="1.5" d="M0,-3.0v7 M-2.5,-0.5L0,-3.0L2.5,-0.5"/>
                </g>
               <g id="resetDef">
                       <use xlink:href="#rim2" fill="#404040">
                               <set attributeName="fill" to="#808080" begin="reset.mouseover" end="reset.mouseout"/>
                       </use>
               </g>
        </defs>

<script type="text/javascript">
var viewWidth = 1278;
var viewHeight = 341;
var sectionId = 'dynsection-0';
</script>
<script xlink:href="svgpan.js"/>
<svg id="graph" class="graph">
<g id="viewport">
<title>C:/Users/cfantacci/GitHub/bayes&#45;filters&#45;lib/src/BayesFilters/src/SIS.cpp</title>
<polygon fill="white" stroke="none" points="-4,4 -4,-337 1274.07,-337 1274.07,4 -4,4"/>
<!-- Node0 -->
<g id="node1" class="node"><title>Node0</title>
<polygon fill="#bfbfbf" stroke="black" points="1062.57,-280.5 1062.57,-332.5 1167.57,-332.5 1167.57,-280.5 1062.57,-280.5"/>
<text text-anchor="start" x="1070.57" y="-320.5" font-family="Helvetica,sans-Serif" font-size="10.00">C:/Users/cfantacci</text>
<text text-anchor="start" x="1070.57" y="-309.5" font-family="Helvetica,sans-Serif" font-size="10.00">/GitHub/bayes&#45;filters</text>
<text text-anchor="start" x="1070.57" y="-298.5" font-family="Helvetica,sans-Serif" font-size="10.00">&#45;lib/src/BayesFilters</text>
<text text-anchor="middle" x="1115.07" y="-287.5" font-family="Helvetica,sans-Serif" font-size="10.00">/src/SIS.cpp</text>
</g>
<!-- Node1 -->
<g id="node2" class="node"><title>Node1</title>
<g id="a_node2"><a xlink:href="SIS_8h.html" target="_top" xlink:title="BayesFilters/SIS.h">
<polygon fill="white" stroke="black" points="700.069,-224.5 700.069,-243.5 798.069,-243.5 798.069,-224.5 700.069,-224.5"/>
<text text-anchor="middle" x="749.069" y="-231.5" font-family="Helvetica,sans-Serif" font-size="10.00">BayesFilters/SIS.h</text>
</a>
</g>
</g>
<!-- Node0&#45;&gt;Node1 -->
<g id="edge1" class="edge"><title>Node0&#45;&gt;Node1</title>
<path fill="none" stroke="midnightblue" d="M1062.24,-295.324C993.182,-282.022 872.848,-258.843 803.168,-245.421"/>
<polygon fill="midnightblue" stroke="midnightblue" points="803.748,-241.968 793.267,-243.514 802.424,-248.842 803.748,-241.968"/>
</g>
<!-- Node10 -->
<g id="node11" class="node"><title>Node10</title>
<polygon fill="white" stroke="#bfbfbf" points="726.069,-0.5 726.069,-19.5 798.069,-19.5 798.069,-0.5 726.069,-0.5"/>
<text text-anchor="middle" x="762.069" y="-7.5" font-family="Helvetica,sans-Serif" font-size="10.00">Eigen/Dense</text>
</g>
<!-- Node0&#45;&gt;Node10 -->
<g id="edge37" class="edge"><title>Node0&#45;&gt;Node10</title>
<path fill="none" stroke="midnightblue" d="M1097.42,-280.15C1082,-255.493 1062.07,-216.384 1062.07,-179 1062.07,-179 1062.07,-179 1062.07,-121 1062.07,-87.5366 1051.57,-75.0584 1024.07,-56 989.86,-32.2974 873.816,-19.6574 808.221,-14.2568"/>
<polygon fill="midnightblue" stroke="midnightblue" points="808.394,-10.7596 798.147,-13.4516 807.836,-17.7373 808.394,-10.7596"/>
</g>
<!-- Node19 -->
<g id="node20" class="node"><title>Node19</title>
<polygon fill="white" stroke="#bfbfbf" points="1090.57,-224.5 1090.57,-243.5 1139.57,-243.5 1139.57,-224.5 1090.57,-224.5"/>
<text text-anchor="middle" x="1115.07" y="-231.5" font-family="Helvetica,sans-Serif" font-size="10.00">fstream</text>
</g>
<!-- Node0&#45;&gt;Node19 -->
<g id="edge34" class="edge"><title>Node0&#45;&gt;Node19</title>
<path fill="none" stroke="midnightblue" d="M1115.07,-280.446C1115.07,-271.73 1115.07,-262.104 1115.07,-253.964"/>
<polygon fill="midnightblue" stroke="midnightblue" points="1118.57,-253.695 1115.07,-243.695 1111.57,-253.696 1118.57,-253.695"/>
</g>
<!-- Node20 -->
<g id="node21" class="node"><title>Node20</title>
<polygon fill="white" stroke="#bfbfbf" points="1158.07,-224.5 1158.07,-243.5 1212.07,-243.5 1212.07,-224.5 1158.07,-224.5"/>
<text text-anchor="middle" x="1185.07" y="-231.5" font-family="Helvetica,sans-Serif" font-size="10.00">iostream</text>
</g>
<!-- Node0&#45;&gt;Node20 -->
<g id="edge35" class="edge"><title>Node0&#45;&gt;Node20</title>
<path fill="none" stroke="midnightblue" d="M1139.95,-280.446C1149.69,-270.628 1160.59,-259.656 1169.23,-250.952"/>
<polygon fill="midnightblue" stroke="midnightblue" points="1171.87,-253.258 1176.44,-243.695 1166.91,-248.326 1171.87,-253.258"/>
</g>
<!-- Node21 -->
<g id="node22" class="node"><title>Node21</title>
<polygon fill="white" stroke="#bfbfbf" points="1230.07,-224.5 1230.07,-243.5 1270.07,-243.5 1270.07,-224.5 1230.07,-224.5"/>
<text text-anchor="middle" x="1250.07" y="-231.5" font-family="Helvetica,sans-Serif" font-size="10.00">utility</text>
</g>
<!-- Node0&#45;&gt;Node21 -->
<g id="edge36" class="edge"><title>Node0&#45;&gt;Node21</title>
<path fill="none" stroke="midnightblue" d="M1163.04,-280.446C1183.89,-269.56 1207.46,-257.254 1224.8,-248.196"/>
<polygon fill="midnightblue" stroke="midnightblue" points="1226.5,-251.258 1233.74,-243.527 1223.26,-245.054 1226.5,-251.258"/>
</g>
<!-- Node2 -->
<g id="node3" class="node"><title>Node2</title>
<g id="a_node3"><a xlink:href="ParticleFilter_8h.html" target="_top" xlink:title="ParticleFilter.h">
<polygon fill="white" stroke="black" points="612.069,-168.5 612.069,-187.5 692.069,-187.5 692.069,-168.5 612.069,-168.5"/>
<text text-anchor="middle" x="652.069" y="-175.5" font-family="Helvetica,sans-Serif" font-size="10.00">ParticleFilter.h</text>
</a>
</g>
</g>
<!-- Node1&#45;&gt;Node2 -->
<g id="edge2" class="edge"><title>Node1&#45;&gt;Node2</title>
<path fill="none" stroke="midnightblue" d="M733.484,-224.324C718.07,-215.743 694.257,-202.486 676.359,-192.522"/>
<polygon fill="midnightblue" stroke="midnightblue" points="678.055,-189.461 667.615,-187.655 674.65,-195.577 678.055,-189.461"/>
</g>
<!-- Node1&#45;&gt;Node10 -->
<g id="edge33" class="edge"><title>Node1&#45;&gt;Node10</title>
<path fill="none" stroke="midnightblue" d="M785.372,-224.443C871.188,-202.591 1074.26,-140.441 1004.07,-56 979.681,-26.6592 871.58,-16.3561 808.411,-12.8075"/>
<polygon fill="midnightblue" stroke="midnightblue" points="808.471,-9.30592 798.3,-12.2755 808.103,-16.2962 808.471,-9.30592"/>
</g>
<!-- Node11 -->
<g id="node12" class="node"><title>Node11</title>
<g id="a_node12"><a xlink:href="PFCorrection_8h.html" target="_top" xlink:title="PFCorrection.h">
<polygon fill="white" stroke="black" points="438.069,-112.5 438.069,-131.5 520.069,-131.5 520.069,-112.5 438.069,-112.5"/>
<text text-anchor="middle" x="479.069" y="-119.5" font-family="Helvetica,sans-Serif" font-size="10.00">PFCorrection.h</text>
</a>
</g>
</g>
<!-- Node1&#45;&gt;Node11 -->
<g id="edge29" class="edge"><title>Node1&#45;&gt;Node11</title>
<path fill="none" stroke="midnightblue" d="M699.673,-231.706C653.832,-228.503 585.173,-218.455 534.069,-188 514.694,-176.453 498.877,-155.581 489.259,-140.601"/>
<polygon fill="midnightblue" stroke="midnightblue" points="492.06,-138.472 483.859,-131.765 486.087,-142.123 492.06,-138.472"/>
</g>
<!-- Node13 -->
<g id="node14" class="node"><title>Node13</title>
<polygon fill="white" stroke="#bfbfbf" points="514.069,-56.5 514.069,-75.5 566.069,-75.5 566.069,-56.5 514.069,-56.5"/>
<text text-anchor="middle" x="540.069" y="-63.5" font-family="Helvetica,sans-Serif" font-size="10.00">memory</text>
</g>
<!-- Node1&#45;&gt;Node13 -->
<g id="edge32" class="edge"><title>Node1&#45;&gt;Node13</title>
<path fill="none" stroke="midnightblue" d="M699.799,-227.586C669.092,-222.02 630.37,-210.757 603.069,-188 570.436,-160.799 552.604,-112.311 544.852,-85.721"/>
<polygon fill="midnightblue" stroke="midnightblue" points="548.15,-84.5127 542.133,-75.792 541.399,-86.3614 548.15,-84.5127"/>
</g>
<!-- Node14 -->
<g id="node15" class="node"><title>Node14</title>
<g id="a_node15"><a xlink:href="PFPrediction_8h.html" target="_top" xlink:title="PFPrediction.h">
<polygon fill="white" stroke="black" points="708.569,-112.5 708.569,-131.5 789.569,-131.5 789.569,-112.5 708.569,-112.5"/>
<text text-anchor="middle" x="749.069" y="-119.5" font-family="Helvetica,sans-Serif" font-size="10.00">PFPrediction.h</text>
</a>
</g>
</g>
<!-- Node1&#45;&gt;Node14 -->
<g id="edge30" class="edge"><title>Node1&#45;&gt;Node14</title>
<path fill="none" stroke="midnightblue" d="M749.069,-224.368C749.069,-206.617 749.069,-165.666 749.069,-141.597"/>
<polygon fill="midnightblue" stroke="midnightblue" points="752.569,-141.591 749.069,-131.591 745.569,-141.591 752.569,-141.591"/>
</g>
<!-- Node17 -->
<g id="node18" class="node"><title>Node17</title>
<g id="a_node18"><a xlink:href="Resampling_8h.html" target="_top" xlink:title="Resampling.h">
<polygon fill="white" stroke="black" points="848.069,-112.5 848.069,-131.5 924.069,-131.5 924.069,-112.5 848.069,-112.5"/>
<text text-anchor="middle" x="886.069" y="-119.5" font-family="Helvetica,sans-Serif" font-size="10.00">Resampling.h</text>
</a>
</g>
</g>
<!-- Node1&#45;&gt;Node17 -->
<g id="edge31" class="edge"><title>Node1&#45;&gt;Node17</title>
<path fill="none" stroke="midnightblue" d="M759.819,-224.368C783.028,-205.733 838.079,-161.532 867.22,-138.134"/>
<polygon fill="midnightblue" stroke="midnightblue" points="869.762,-140.581 875.369,-131.591 865.38,-135.123 869.762,-140.581"/>
</g>
<!-- Node3 -->
<g id="node4" class="node"><title>Node3</title>
<g id="a_node4"><a xlink:href="FilteringAlgorithm_8h.html" target="_top" xlink:title="FilteringAlgorithm.h">
<polygon fill="white" stroke="black" points="132.569,-112.5 132.569,-131.5 233.569,-131.5 233.569,-112.5 132.569,-112.5"/>
<text text-anchor="middle" x="183.069" y="-119.5" font-family="Helvetica,sans-Serif" font-size="10.00">FilteringAlgorithm.h</text>
</a>
</g>
</g>
<!-- Node2&#45;&gt;Node3 -->
<g id="edge3" class="edge"><title>Node2&#45;&gt;Node3</title>
<path fill="none" stroke="midnightblue" d="M611.676,-172.349C529.164,-162.849 340.867,-141.169 243.646,-129.975"/>
<polygon fill="midnightblue" stroke="midnightblue" points="244.01,-126.494 233.675,-128.827 243.209,-133.448 244.01,-126.494"/>
</g>
<!-- Node9 -->
<g id="node10" class="node"><title>Node9</title>
<g id="a_node10"><a xlink:href="Initialization_8h.html" target="_top" xlink:title="Initialization.h">
<polygon fill="white" stroke="black" points="614.069,-112.5 614.069,-131.5 690.069,-131.5 690.069,-112.5 614.069,-112.5"/>
<text text-anchor="middle" x="652.069" y="-119.5" font-family="Helvetica,sans-Serif" font-size="10.00">Initialization.h</text>
</a>
</g>
</g>
<!-- Node2&#45;&gt;Node9 -->
<g id="edge9" class="edge"><title>Node2&#45;&gt;Node9</title>
<path fill="none" stroke="midnightblue" d="M652.069,-168.083C652.069,-161.006 652.069,-150.861 652.069,-141.986"/>
<polygon fill="midnightblue" stroke="midnightblue" points="655.569,-141.751 652.069,-131.751 648.569,-141.751 655.569,-141.751"/>
</g>
<!-- Node2&#45;&gt;Node11 -->
<g id="edge11" class="edge"><title>Node2&#45;&gt;Node11</title>
<path fill="none" stroke="midnightblue" d="M624.657,-168.444C595.3,-159.28 548.549,-144.688 515.973,-134.519"/>
<polygon fill="midnightblue" stroke="midnightblue" points="516.942,-131.155 506.353,-131.516 514.856,-137.837 516.942,-131.155"/>
</g>
<!-- Node2&#45;&gt;Node13 -->
<g id="edge28" class="edge"><title>Node2&#45;&gt;Node13</title>
<path fill="none" stroke="midnightblue" d="M643.003,-168.431C633.496,-159.42 618.149,-144.799 605.069,-132 588.255,-115.547 569.253,-96.4909 556.158,-83.2841"/>
<polygon fill="midnightblue" stroke="midnightblue" points="558.363,-80.5364 548.84,-75.8925 553.388,-85.4613 558.363,-80.5364"/>
</g>
<!-- Node2&#45;&gt;Node14 -->
<g id="edge17" class="edge"><title>Node2&#45;&gt;Node14</title>
<path fill="none" stroke="midnightblue" d="M667.654,-168.324C683.068,-159.743 706.881,-146.486 724.779,-136.522"/>
<polygon fill="midnightblue" stroke="midnightblue" points="726.488,-139.577 733.523,-131.655 723.083,-133.461 726.488,-139.577"/>
</g>
<!-- Node2&#45;&gt;Node17 -->
<g id="edge25" class="edge"><title>Node2&#45;&gt;Node17</title>
<path fill="none" stroke="midnightblue" d="M689.147,-168.444C729.796,-159.063 795.101,-143.993 839.253,-133.804"/>
<polygon fill="midnightblue" stroke="midnightblue" points="840.208,-137.175 849.164,-131.516 838.633,-130.355 840.208,-137.175"/>
</g>
<!-- Node4 -->
<g id="node5" class="node"><title>Node4</title>
<polygon fill="white" stroke="#bfbfbf" points="18.5689,-56.5 18.5689,-75.5 111.569,-75.5 111.569,-56.5 18.5689,-56.5"/>
<text text-anchor="middle" x="65.0689" y="-63.5" font-family="Helvetica,sans-Serif" font-size="10.00">condition_variable</text>
</g>
<!-- Node3&#45;&gt;Node4 -->
<g id="edge4" class="edge"><title>Node3&#45;&gt;Node4</title>
<path fill="none" stroke="midnightblue" d="M164.371,-112.444C145.124,-103.636 114.916,-89.8116 92.8688,-79.722"/>
<polygon fill="midnightblue" stroke="midnightblue" points="94.2284,-76.4951 83.6789,-75.5164 91.3155,-82.8603 94.2284,-76.4951"/>
</g>
<!-- Node5 -->
<g id="node6" class="node"><title>Node5</title>
<polygon fill="white" stroke="#bfbfbf" points="130.069,-56.5 130.069,-75.5 174.069,-75.5 174.069,-56.5 130.069,-56.5"/>
<text text-anchor="middle" x="152.069" y="-63.5" font-family="Helvetica,sans-Serif" font-size="10.00">mutex</text>
</g>
<!-- Node3&#45;&gt;Node5 -->
<g id="edge5" class="edge"><title>Node3&#45;&gt;Node5</title>
<path fill="none" stroke="midnightblue" d="M177.95,-112.083C173.661,-104.613 167.411,-93.7244 162.127,-84.5199"/>
<polygon fill="midnightblue" stroke="midnightblue" points="165.107,-82.6811 157.093,-75.7511 159.036,-86.1662 165.107,-82.6811"/>
</g>
<!-- Node6 -->
<g id="node7" class="node"><title>Node6</title>
<polygon fill="white" stroke="#bfbfbf" points="386.569,-0.5 386.569,-19.5 427.569,-19.5 427.569,-0.5 386.569,-0.5"/>
<text text-anchor="middle" x="407.069" y="-7.5" font-family="Helvetica,sans-Serif" font-size="10.00">string</text>
</g>
<!-- Node3&#45;&gt;Node6 -->
<g id="edge6" class="edge"><title>Node3&#45;&gt;Node6</title>
<path fill="none" stroke="midnightblue" d="M132.451,-118.39C68.5038,-113.303 -28.9027,-98.5068 9.06891,-56 33.4695,-28.6851 287.278,-15.8509 376.366,-12.1632"/>
<polygon fill="midnightblue" stroke="midnightblue" points="376.537,-15.6593 386.388,-11.7585 376.255,-8.66495 376.537,-15.6593"/>
</g>
<!-- Node7 -->
<g id="node8" class="node"><title>Node7</title>
<polygon fill="white" stroke="#bfbfbf" points="192.069,-56.5 192.069,-75.5 236.069,-75.5 236.069,-56.5 192.069,-56.5"/>
<text text-anchor="middle" x="214.069" y="-63.5" font-family="Helvetica,sans-Serif" font-size="10.00">thread</text>
</g>
<!-- Node3&#45;&gt;Node7 -->
<g id="edge7" class="edge"><title>Node3&#45;&gt;Node7</title>
<path fill="none" stroke="midnightblue" d="M188.188,-112.083C192.476,-104.613 198.727,-93.7244 204.011,-84.5199"/>
<polygon fill="midnightblue" stroke="midnightblue" points="207.102,-86.1662 209.045,-75.7511 201.031,-82.6811 207.102,-86.1662"/>
</g>
<!-- Node8 -->
<g id="node9" class="node"><title>Node8</title>
<polygon fill="white" stroke="#bfbfbf" points="254.569,-56.5 254.569,-75.5 337.569,-75.5 337.569,-56.5 254.569,-56.5"/>
<text text-anchor="middle" x="296.069" y="-63.5" font-family="Helvetica,sans-Serif" font-size="10.00">unordered_map</text>
</g>
<!-- Node3&#45;&gt;Node8 -->
<g id="edge8" class="edge"><title>Node3&#45;&gt;Node8</title>
<path fill="none" stroke="midnightblue" d="M200.974,-112.444C219.323,-103.675 248.074,-89.9355 269.162,-79.8579"/>
<polygon fill="midnightblue" stroke="midnightblue" points="270.734,-82.9862 278.247,-75.5164 267.716,-76.6703 270.734,-82.9862"/>
</g>
<!-- Node9&#45;&gt;Node10 -->
<g id="edge10" class="edge"><title>Node9&#45;&gt;Node10</title>
<path fill="none" stroke="midnightblue" d="M648.99,-112.117C644.94,-98.7019 639.593,-73.0358 651.069,-56 665.606,-34.4208 692.45,-23.1858 716.097,-17.3384"/>
<polygon fill="midnightblue" stroke="midnightblue" points="716.984,-20.7268 725.991,-15.1477 715.471,-13.8924 716.984,-20.7268"/>
</g>
<!-- Node11&#45;&gt;Node10 -->
<g id="edge16" class="edge"><title>Node11&#45;&gt;Node10</title>
<path fill="none" stroke="midnightblue" d="M479.901,-112.274C481.745,-98.1042 487.517,-70.2467 505.069,-56 536.7,-30.326 650.764,-18.5144 715.802,-13.7601"/>
<polygon fill="midnightblue" stroke="midnightblue" points="716.069,-17.25 725.799,-13.0566 715.578,-10.2673 716.069,-17.25"/>
</g>
<!-- Node12 -->
<g id="node13" class="node"><title>Node12</title>
<g id="a_node13"><a xlink:href="ObservationModel_8h.html" target="_top" xlink:title="ObservationModel.h">
<polygon fill="white" stroke="black" points="356.069,-56.5 356.069,-75.5 458.069,-75.5 458.069,-56.5 356.069,-56.5"/>
<text text-anchor="middle" x="407.069" y="-63.5" font-family="Helvetica,sans-Serif" font-size="10.00">ObservationModel.h</text>
</a>
</g>
</g>
<!-- Node11&#45;&gt;Node12 -->
<g id="edge12" class="edge"><title>Node11&#45;&gt;Node12</title>
<path fill="none" stroke="midnightblue" d="M467.501,-112.324C456.649,-104.185 440.188,-91.8395 427.185,-82.0874"/>
<polygon fill="midnightblue" stroke="midnightblue" points="428.947,-79.0339 418.847,-75.8339 424.747,-84.6339 428.947,-79.0339"/>
</g>
<!-- Node11&#45;&gt;Node13 -->
<g id="edge15" class="edge"><title>Node11&#45;&gt;Node13</title>
<path fill="none" stroke="midnightblue" d="M488.87,-112.324C497.887,-104.341 511.475,-92.3128 522.387,-82.6529"/>
<polygon fill="midnightblue" stroke="midnightblue" points="524.922,-85.083 530.09,-75.8339 520.282,-79.8416 524.922,-85.083"/>
</g>
<!-- Node12&#45;&gt;Node6 -->
<g id="edge14" class="edge"><title>Node12&#45;&gt;Node6</title>
<path fill="none" stroke="midnightblue" d="M407.069,-56.083C407.069,-49.0059 407.069,-38.8611 407.069,-29.9865"/>
<polygon fill="midnightblue" stroke="midnightblue" points="410.569,-29.751 407.069,-19.7511 403.569,-29.7511 410.569,-29.751"/>
</g>
<!-- Node12&#45;&gt;Node10 -->
<g id="edge13" class="edge"><title>Node12&#45;&gt;Node10</title>
<path fill="none" stroke="midnightblue" d="M458.31,-57.2056C527.387,-46.6981 649.359,-28.1445 715.79,-18.0396"/>
<polygon fill="midnightblue" stroke="midnightblue" points="716.598,-21.457 725.958,-16.4929 715.546,-14.5366 716.598,-21.457"/>
</g>
<!-- Node14&#45;&gt;Node6 -->
<g id="edge24" class="edge"><title>Node14&#45;&gt;Node6</title>
<path fill="none" stroke="midnightblue" d="M728.137,-112.437C695.685,-99.3304 631.122,-73.9314 575.069,-56 527.504,-40.784 471.277,-26.4463 437.433,-18.203"/>
<polygon fill="midnightblue" stroke="midnightblue" points="438.225,-14.7937 427.683,-15.8462 436.581,-21.5978 438.225,-14.7937"/>
</g>
<!-- Node14&#45;&gt;Node10 -->
<g id="edge22" class="edge"><title>Node14&#45;&gt;Node10</title>
<path fill="none" stroke="midnightblue" d="M750.089,-112.368C752.187,-94.617 757.027,-53.6664 759.871,-29.5974"/>
<polygon fill="midnightblue" stroke="midnightblue" points="763.356,-29.9331 761.054,-19.5914 756.404,-29.1115 763.356,-29.9331"/>
</g>
<!-- Node14&#45;&gt;Node13 -->
<g id="edge23" class="edge"><title>Node14&#45;&gt;Node13</title>
<path fill="none" stroke="midnightblue" d="M715.952,-112.444C677.728,-102.567 615.095,-86.3846 575.798,-76.2314"/>
<polygon fill="midnightblue" stroke="midnightblue" points="576.655,-72.838 566.097,-73.7251 574.904,-79.6154 576.655,-72.838"/>
</g>
<!-- Node15 -->
<g id="node16" class="node"><title>Node15</title>
<g id="a_node16"><a xlink:href="ExogenousModel_8h.html" target="_top" xlink:title="ExogenousModel.h">
<polygon fill="white" stroke="black" points="790.069,-56.5 790.069,-75.5 890.069,-75.5 890.069,-56.5 790.069,-56.5"/>
<text text-anchor="middle" x="840.069" y="-63.5" font-family="Helvetica,sans-Serif" font-size="10.00">ExogenousModel.h</text>
</a>
</g>
</g>
<!-- Node14&#45;&gt;Node15 -->
<g id="edge18" class="edge"><title>Node14&#45;&gt;Node15</title>
<path fill="none" stroke="midnightblue" d="M763.69,-112.324C778.018,-103.822 800.081,-90.7288 816.818,-80.7975"/>
<polygon fill="midnightblue" stroke="midnightblue" points="818.671,-83.7677 825.484,-75.6545 815.098,-77.7478 818.671,-83.7677"/>
</g>
<!-- Node16 -->
<g id="node17" class="node"><title>Node16</title>
<g id="a_node17"><a xlink:href="StateModel_8h.html" target="_top" xlink:title="StateModel.h">
<polygon fill="white" stroke="black" points="660.069,-56.5 660.069,-75.5 734.069,-75.5 734.069,-56.5 660.069,-56.5"/>
<text text-anchor="middle" x="697.069" y="-63.5" font-family="Helvetica,sans-Serif" font-size="10.00">StateModel.h</text>
</a>
</g>
</g>
<!-- Node14&#45;&gt;Node16 -->
<g id="edge20" class="edge"><title>Node14&#45;&gt;Node16</title>
<path fill="none" stroke="midnightblue" d="M740.482,-112.083C732.91,-104.22 721.691,-92.5688 712.555,-83.0813"/>
<polygon fill="midnightblue" stroke="midnightblue" points="714.953,-80.5266 705.496,-75.7511 709.911,-85.3821 714.953,-80.5266"/>
</g>
<!-- Node15&#45;&gt;Node10 -->
<g id="edge19" class="edge"><title>Node15&#45;&gt;Node10</title>
<path fill="none" stroke="midnightblue" d="M827.537,-56.324C815.483,-47.979 797.042,-35.2122 782.8,-25.3524"/>
<polygon fill="midnightblue" stroke="midnightblue" points="784.784,-22.469 774.57,-19.6545 780.8,-28.2243 784.784,-22.469"/>
</g>
<!-- Node16&#45;&gt;Node10 -->
<g id="edge21" class="edge"><title>Node16&#45;&gt;Node10</title>
<path fill="none" stroke="midnightblue" d="M707.512,-56.324C717.215,-48.2631 731.884,-36.0765 743.569,-26.3695"/>
<polygon fill="midnightblue" stroke="midnightblue" points="745.98,-28.9163 751.436,-19.8339 741.507,-23.532 745.98,-28.9163"/>
</g>
<!-- Node17&#45;&gt;Node10 -->
<g id="edge27" class="edge"><title>Node17&#45;&gt;Node10</title>
<path fill="none" stroke="midnightblue" d="M891.779,-112.099C899.6,-98.6607 911.353,-72.9645 899.069,-56 878.556,-27.6713 839.631,-16.8603 808.498,-12.884"/>
<polygon fill="midnightblue" stroke="midnightblue" points="808.595,-9.37416 798.277,-11.7821 807.844,-16.3338 808.595,-9.37416"/>
</g>
<!-- Node18 -->
<g id="node19" class="node"><title>Node18</title>
<polygon fill="white" stroke="#bfbfbf" points="946.569,-56.5 946.569,-75.5 995.569,-75.5 995.569,-56.5 946.569,-56.5"/>
<text text-anchor="middle" x="971.069" y="-63.5" font-family="Helvetica,sans-Serif" font-size="10.00">random</text>
</g>
<!-- Node17&#45;&gt;Node18 -->
<g id="edge26" class="edge"><title>Node17&#45;&gt;Node18</title>
<path fill="none" stroke="midnightblue" d="M899.726,-112.324C912.985,-103.9 933.337,-90.9709 948.915,-81.0741"/>
<polygon fill="midnightblue" stroke="midnightblue" points="950.882,-83.9711 957.446,-75.6545 947.129,-78.0626 950.882,-83.9711"/>
</g>
</g>
</svg>
        <g id="navigator" transform="translate(0 0)" fill="#404254">
                <rect fill="#f2f5e9" fill-opacity="0.5" stroke="#606060" stroke-width=".5" x="0" y="0" width="60" height="60"/>
                <use id="zoomplus" xlink:href="#zoomPlus" x="17" y="9" onmousedown="handleZoom(evt,'in')"/>
                <use id="zoomminus" xlink:href="#zoomMin" x="42" y="9" onmousedown="handleZoom(evt,'out')"/>
                <use id="reset" xlink:href="#resetDef" x="30" y="36" onmousedown="handleReset()"/>
                <g id="arrowUp" xlink:href="#dirArrow" transform="translate(30 24)" onmousedown="handlePan(0,-1)">
                  <use xlink:href="#rim" fill="#404040">
                        <set attributeName="fill" to="#808080" begin="arrowUp.mouseover" end="arrowUp.mouseout"/>
                  </use>
                  <path fill="none" stroke="white" stroke-width="1.5" d="M0,-3.0v7 M-2.5,-0.5L0,-3.0L2.5,-0.5"/>
                </g>
                <g id="arrowRight" xlink:href="#dirArrow" transform="rotate(90) translate(36 -43)" onmousedown="handlePan(1,0)">
                  <use xlink:href="#rim" fill="#404040">
                        <set attributeName="fill" to="#808080" begin="arrowRight.mouseover" end="arrowRight.mouseout"/>
                  </use>
                  <path fill="none" stroke="white" stroke-width="1.5" d="M0,-3.0v7 M-2.5,-0.5L0,-3.0L2.5,-0.5"/>
                </g>
                <g id="arrowDown" xlink:href="#dirArrow" transform="rotate(180) translate(-30 -48)" onmousedown="handlePan(0,1)">
                  <use xlink:href="#rim" fill="#404040">
                        <set attributeName="fill" to="#808080" begin="arrowDown.mouseover" end="arrowDown.mouseout"/>
                  </use>
                  <path fill="none" stroke="white" stroke-width="1.5" d="M0,-3.0v7 M-2.5,-0.5L0,-3.0L2.5,-0.5"/>
                </g>
                <g id="arrowLeft" xlink:href="#dirArrow" transform="rotate(270) translate(-36 17)" onmousedown="handlePan(-1,0)">
                  <use xlink:href="#rim" fill="#404040">
                        <set attributeName="fill" to="#808080" begin="arrowLeft.mouseover" end="arrowLeft.mouseout"/>
                  </use>
                  <path fill="none" stroke="white" stroke-width="1.5" d="M0,-3.0v7 M-2.5,-0.5L0,-3.0L2.5,-0.5"/>
                </g>
        </g>
        <svg viewBox="0 0 15 15" width="100%" height="30px" preserveAspectRatio="xMaxYMin meet">
         <g id="arrow_out" transform="scale(0.3 0.3)">
          <a xlink:href="SIS_8cpp__incl_org.svg" target="_base">
           <rect id="button" ry="5" rx="5" y="6" x="6" height="38" width="38"
                fill="#f2f5e9" fill-opacity="0.5" stroke="#606060" stroke-width="1.0"/>
           <path id="arrow"
             d="M 11.500037,31.436501 C 11.940474,20.09759 22.043105,11.32322 32.158766,21.979434 L 37.068811,17.246167 C 37.068811,17.246167 37.088388,32 37.088388,32 L 22.160133,31.978069 C 22.160133,31.978069 26.997745,27.140456 26.997745,27.140456 C 18.528582,18.264221 13.291696,25.230495 11.500037,31.436501 z"
             style="fill:#404040;"/>
          </a>
         </g>
        </svg>
</svg>
