<?xml version="1.0" encoding="UTF-8" standalone="no"?>
<!DOCTYPE svg PUBLIC "-//W3C//DTD SVG 1.1//EN"
 "http://www.w3.org/Graphics/SVG/1.1/DTD/svg11.dtd">
<!-- Generated by graphviz version 2.38.0 (20140413.2041)
 -->
<!-- Title: C:/Users/cfantacci/GitHub/bayes&#45;filters&#45;lib/src/BayesFilters/src/StateModelDecorator.cpp Pages: 1 -->
<svg width="182pt" height="229pt"
 viewBox="0.00 0.00 182.00 229.00" xmlns="http://www.w3.org/2000/svg" xmlns:xlink="http://www.w3.org/1999/xlink">
<g id="graph0" class="graph" transform="scale(1 1) rotate(0) translate(4 225)">
<title>C:/Users/cfantacci/GitHub/bayes&#45;filters&#45;lib/src/BayesFilters/src/StateModelDecorator.cpp</title>
<polygon fill="white" stroke="none" points="-4,4 -4,-225 178,-225 178,4 -4,4"/>
<!-- Node0 -->
<g id="node1" class="node"><title>Node0</title>
<polygon fill="#bfbfbf" stroke="black" points="14,-168.5 14,-220.5 160,-220.5 160,-168.5 14,-168.5"/>
<text text-anchor="start" x="22" y="-208.5" font-family="Helvetica,sans-Serif" font-size="10.00">C:/Users/cfantacci</text>
<text text-anchor="start" x="22" y="-197.5" font-family="Helvetica,sans-Serif" font-size="10.00">/GitHub/bayes&#45;filters</text>
<text text-anchor="start" x="22" y="-186.5" font-family="Helvetica,sans-Serif" font-size="10.00">&#45;lib/src/BayesFilters</text>
<text text-anchor="middle" x="87" y="-175.5" font-family="Helvetica,sans-Serif" font-size="10.00">/src/StateModelDecorator.cpp</text>
</g>
<!-- Node1 -->
<g id="node2" class="node"><title>Node1</title>
<g id="a_node2"><a xlink:href="StateModelDecorator_8h.html" target="_top" xlink:title="BayesFilters/StateModelDecorator.h">
<polygon fill="white" stroke="black" points="0,-112.5 0,-131.5 174,-131.5 174,-112.5 0,-112.5"/>
<text text-anchor="middle" x="87" y="-119.5" font-family="Helvetica,sans-Serif" font-size="10.00">BayesFilters/StateModelDecorator.h</text>
</a>
</g>
</g>
<!-- Node0&#45;&gt;Node1 -->
<g id="edge1" class="edge"><title>Node0&#45;&gt;Node1</title>
<path fill="none" stroke="midnightblue" d="M87,-168.446C87,-159.73 87,-150.104 87,-141.964"/>
<polygon fill="midnightblue" stroke="midnightblue" points="90.5001,-141.695 87,-131.695 83.5001,-141.696 90.5001,-141.695"/>
</g>
<!-- Node2 -->
<g id="node3" class="node"><title>Node2</title>
<g id="a_node3"><a xlink:href="StateModel_8h.html" target="_top" xlink:title="StateModel.h">
<polygon fill="white" stroke="black" points="10,-56.5 10,-75.5 84,-75.5 84,-56.5 10,-56.5"/>
<text text-anchor="middle" x="47" y="-63.5" font-family="Helvetica,sans-Serif" font-size="10.00">StateModel.h</text>
</a>
</g>
</g>
<!-- Node1&#45;&gt;Node2 -->
<g id="edge2" class="edge"><title>Node1&#45;&gt;Node2</title>
<path fill="none" stroke="midnightblue" d="M80.3948,-112.083C74.7448,-104.455 66.4552,-93.2645 59.5488,-83.9408"/>
<polygon fill="midnightblue" stroke="midnightblue" points="62.2471,-81.7034 53.4823,-75.7511 56.6221,-85.87 62.2471,-81.7034"/>
</g>
<!-- Node4 -->
<g id="node5" class="node"><title>Node4</title>
<polygon fill="white" stroke="#bfbfbf" points="102,-56.5 102,-75.5 154,-75.5 154,-56.5 102,-56.5"/>
<text text-anchor="middle" x="128" y="-63.5" font-family="Helvetica,sans-Serif" font-size="10.00">memory</text>
</g>
<!-- Node1&#45;&gt;Node4 -->
<g id="edge4" class="edge"><title>Node1&#45;&gt;Node4</title>
<path fill="none" stroke="midnightblue" d="M93.7703,-112.083C99.5616,-104.455 108.058,-93.2645 115.138,-83.9408"/>
<polygon fill="midnightblue" stroke="midnightblue" points="118.096,-85.8321 121.356,-75.7511 112.521,-81.5991 118.096,-85.8321"/>
</g>
<!-- Node3 -->
<g id="node4" class="node"><title>Node3</title>
<polygon fill="white" stroke="#bfbfbf" points="11,-0.5 11,-19.5 83,-19.5 83,-0.5 11,-0.5"/>
<text text-anchor="middle" x="47" y="-7.5" font-family="Helvetica,sans-Serif" font-size="10.00">Eigen/Dense</text>
</g>
<!-- Node2&#45;&gt;Node3 -->
<g id="edge3" class="edge"><title>Node2&#45;&gt;Node3</title>
<path fill="none" stroke="midnightblue" d="M47,-56.083C47,-49.0059 47,-38.8611 47,-29.9865"/>
<polygon fill="midnightblue" stroke="midnightblue" points="50.5001,-29.751 47,-19.7511 43.5001,-29.7511 50.5001,-29.751"/>
</g>
</g>
</svg>
