<?xml version="1.0" encoding="UTF-8" standalone="no"?>
<!DOCTYPE svg PUBLIC "-//W3C//DTD SVG 1.1//EN"
 "http://www.w3.org/Graphics/SVG/1.1/DTD/svg11.dtd">
<!-- Generated by graphviz version 2.38.0 (20140413.2041)
 -->
<!-- Title: C:/Users/cfantacci/GitHub/bayes&#45;filters&#45;lib/src/BayesFilters/src/UnscentedKalmanFilter.cpp Pages: 1 -->
<svg width="387pt" height="240pt"
 viewBox="0.00 0.00 387.00 240.00" xmlns="http://www.w3.org/2000/svg" xmlns:xlink="http://www.w3.org/1999/xlink">
<g id="graph0" class="graph" transform="scale(1 1) rotate(0) translate(4 236)">
<title>C:/Users/cfantacci/GitHub/bayes&#45;filters&#45;lib/src/BayesFilters/src/UnscentedKalmanFilter.cpp</title>
<polygon fill="white" stroke="none" points="-4,4 -4,-236 383,-236 383,4 -4,4"/>
<!-- Node0 -->
<g id="node1" class="node"><title>Node0</title>
<polygon fill="#bfbfbf" stroke="black" points="116.5,-179.5 116.5,-231.5 272.5,-231.5 272.5,-179.5 116.5,-179.5"/>
<text text-anchor="start" x="124.5" y="-219.5" font-family="Helvetica,sans-Serif" font-size="10.00">C:/Users/cfantacci</text>
<text text-anchor="start" x="124.5" y="-208.5" font-family="Helvetica,sans-Serif" font-size="10.00">/GitHub/bayes&#45;filters</text>
<text text-anchor="start" x="124.5" y="-197.5" font-family="Helvetica,sans-Serif" font-size="10.00">&#45;lib/src/BayesFilters</text>
<text text-anchor="middle" x="194.5" y="-186.5" font-family="Helvetica,sans-Serif" font-size="10.00">/src/UnscentedKalmanFilter.cpp</text>
</g>
<!-- Node1 -->
<g id="node2" class="node"><title>Node1</title>
<g id="a_node2"><a xlink:href="UnscentedKalmanFilter_8h.html" target="_top" xlink:title="BayesFilters/UnscentedKalman\lFilter.h">
<polygon fill="white" stroke="black" points="117.5,-112.5 117.5,-142.5 271.5,-142.5 271.5,-112.5 117.5,-112.5"/>
<text text-anchor="start" x="125.5" y="-130.5" font-family="Helvetica,sans-Serif" font-size="10.00">BayesFilters/UnscentedKalman</text>
<text text-anchor="middle" x="194.5" y="-119.5" font-family="Helvetica,sans-Serif" font-size="10.00">Filter.h</text>
</a>
</g>
</g>
<!-- Node0&#45;&gt;Node1 -->
<g id="edge1" class="edge"><title>Node0&#45;&gt;Node1</title>
<path fill="none" stroke="midnightblue" d="M194.5,-179.193C194.5,-170.786 194.5,-161.443 194.5,-153.091"/>
<polygon fill="midnightblue" stroke="midnightblue" points="198,-152.845 194.5,-142.845 191,-152.845 198,-152.845"/>
</g>
<!-- Node2 -->
<g id="node3" class="node"><title>Node2</title>
<g id="a_node3"><a xlink:href="FilteringAlgorithm_8h.html" target="_top" xlink:title="FilteringAlgorithm.h">
<polygon fill="white" stroke="black" points="144,-56.5 144,-75.5 245,-75.5 245,-56.5 144,-56.5"/>
<text text-anchor="middle" x="194.5" y="-63.5" font-family="Helvetica,sans-Serif" font-size="10.00">FilteringAlgorithm.h</text>
</a>
</g>
</g>
<!-- Node1&#45;&gt;Node2 -->
<g id="edge2" class="edge"><title>Node1&#45;&gt;Node2</title>
<path fill="none" stroke="midnightblue" d="M194.5,-112.399C194.5,-104.466 194.5,-94.458 194.5,-85.8583"/>
<polygon fill="midnightblue" stroke="midnightblue" points="198,-85.6577 194.5,-75.6578 191,-85.6578 198,-85.6577"/>
</g>
<!-- Node3 -->
<g id="node4" class="node"><title>Node3</title>
<polygon fill="white" stroke="#bfbfbf" points="0,-0.5 0,-19.5 93,-19.5 93,-0.5 0,-0.5"/>
<text text-anchor="middle" x="46.5" y="-7.5" font-family="Helvetica,sans-Serif" font-size="10.00">condition_variable</text>
</g>
<!-- Node2&#45;&gt;Node3 -->
<g id="edge3" class="edge"><title>Node2&#45;&gt;Node3</title>
<path fill="none" stroke="midnightblue" d="M171.049,-56.4435C146.367,-47.4381 107.315,-33.1891 79.5233,-23.049"/>
<polygon fill="midnightblue" stroke="midnightblue" points="80.4352,-19.6561 69.8413,-19.5164 78.0359,-26.2321 80.4352,-19.6561"/>
</g>
<!-- Node4 -->
<g id="node5" class="node"><title>Node4</title>
<polygon fill="white" stroke="#bfbfbf" points="111.5,-0.5 111.5,-19.5 155.5,-19.5 155.5,-0.5 111.5,-0.5"/>
<text text-anchor="middle" x="133.5" y="-7.5" font-family="Helvetica,sans-Serif" font-size="10.00">mutex</text>
</g>
<!-- Node2&#45;&gt;Node4 -->
<g id="edge4" class="edge"><title>Node2&#45;&gt;Node4</title>
<path fill="none" stroke="midnightblue" d="M184.699,-56.324C175.682,-48.3414 162.094,-36.3128 151.182,-26.6529"/>
<polygon fill="midnightblue" stroke="midnightblue" points="153.287,-23.8416 143.479,-19.8339 148.647,-29.083 153.287,-23.8416"/>
</g>
<!-- Node5 -->
<g id="node6" class="node"><title>Node5</title>
<polygon fill="white" stroke="#bfbfbf" points="174,-0.5 174,-19.5 215,-19.5 215,-0.5 174,-0.5"/>
<text text-anchor="middle" x="194.5" y="-7.5" font-family="Helvetica,sans-Serif" font-size="10.00">string</text>
</g>
<!-- Node2&#45;&gt;Node5 -->
<g id="edge5" class="edge"><title>Node2&#45;&gt;Node5</title>
<path fill="none" stroke="midnightblue" d="M194.5,-56.083C194.5,-49.0059 194.5,-38.8611 194.5,-29.9865"/>
<polygon fill="midnightblue" stroke="midnightblue" points="198,-29.751 194.5,-19.7511 191,-29.7511 198,-29.751"/>
</g>
<!-- Node6 -->
<g id="node7" class="node"><title>Node6</title>
<polygon fill="white" stroke="#bfbfbf" points="233.5,-0.5 233.5,-19.5 277.5,-19.5 277.5,-0.5 233.5,-0.5"/>
<text text-anchor="middle" x="255.5" y="-7.5" font-family="Helvetica,sans-Serif" font-size="10.00">thread</text>
</g>
<!-- Node2&#45;&gt;Node6 -->
<g id="edge6" class="edge"><title>Node2&#45;&gt;Node6</title>
<path fill="none" stroke="midnightblue" d="M204.301,-56.324C213.318,-48.3414 226.906,-36.3128 237.818,-26.6529"/>
<polygon fill="midnightblue" stroke="midnightblue" points="240.353,-29.083 245.521,-19.8339 235.713,-23.8416 240.353,-29.083"/>
</g>
<!-- Node7 -->
<g id="node8" class="node"><title>Node7</title>
<polygon fill="white" stroke="#bfbfbf" points="296,-0.5 296,-19.5 379,-19.5 379,-0.5 296,-0.5"/>
<text text-anchor="middle" x="337.5" y="-7.5" font-family="Helvetica,sans-Serif" font-size="10.00">unordered_map</text>
</g>
<!-- Node2&#45;&gt;Node7 -->
<g id="edge7" class="edge"><title>Node2&#45;&gt;Node7</title>
<path fill="none" stroke="midnightblue" d="M217.159,-56.4435C240.902,-47.4776 278.409,-33.314 305.238,-23.1827"/>
<polygon fill="midnightblue" stroke="midnightblue" points="306.829,-26.3235 314.947,-19.5164 304.356,-19.7749 306.829,-26.3235"/>
</g>
</g>
</svg>
