<?xml version="1.0" encoding="UTF-8" standalone="no"?>
<!DOCTYPE svg PUBLIC "-//W3C//DTD SVG 1.1//EN"
 "http://www.w3.org/Graphics/SVG/1.1/DTD/svg11.dtd">
<!-- Generated by graphviz version 2.38.0 (20140413.2041)
 -->
<!-- Title: C:/Users/cfantacci/GitHub/bayes&#45;filters&#45;lib/src/BayesFilters/src/VisualParticleFilter.cpp Pages: 1 -->
<svg width="1088pt" height="296pt"
 viewBox="0.00 0.00 1088.00 296.00" xmlns="http://www.w3.org/2000/svg" xmlns:xlink="http://www.w3.org/1999/xlink">
<g id="graph0" class="graph" transform="scale(1 1) rotate(0) translate(4 292)">
<title>C:/Users/cfantacci/GitHub/bayes&#45;filters&#45;lib/src/BayesFilters/src/VisualParticleFilter.cpp</title>
<polygon fill="white" stroke="none" points="-4,4 -4,-292 1084,-292 1084,4 -4,4"/>
<!-- Node0 -->
<g id="node1" class="node"><title>Node0</title>
<polygon fill="#bfbfbf" stroke="black" points="636,-235.5 636,-287.5 773,-287.5 773,-235.5 636,-235.5"/>
<text text-anchor="start" x="644" y="-275.5" font-family="Helvetica,sans-Serif" font-size="10.00">C:/Users/cfantacci</text>
<text text-anchor="start" x="644" y="-264.5" font-family="Helvetica,sans-Serif" font-size="10.00">/GitHub/bayes&#45;filters</text>
<text text-anchor="start" x="644" y="-253.5" font-family="Helvetica,sans-Serif" font-size="10.00">&#45;lib/src/BayesFilters</text>
<text text-anchor="middle" x="704.5" y="-242.5" font-family="Helvetica,sans-Serif" font-size="10.00">/src/VisualParticleFilter.cpp</text>
</g>
<!-- Node1 -->
<g id="node2" class="node"><title>Node1</title>
<g id="a_node2"><a xlink:href="VisualParticleFilter_8h.html" target="_top" xlink:title="BayesFilters/VisualParticle\lFilter.h">
<polygon fill="white" stroke="black" points="637.5,-168.5 637.5,-198.5 771.5,-198.5 771.5,-168.5 637.5,-168.5"/>
<text text-anchor="start" x="645.5" y="-186.5" font-family="Helvetica,sans-Serif" font-size="10.00">BayesFilters/VisualParticle</text>
<text text-anchor="middle" x="704.5" y="-175.5" font-family="Helvetica,sans-Serif" font-size="10.00">Filter.h</text>
</a>
</g>
</g>
<!-- Node0&#45;&gt;Node1 -->
<g id="edge1" class="edge"><title>Node0&#45;&gt;Node1</title>
<path fill="none" stroke="midnightblue" d="M704.5,-235.193C704.5,-226.786 704.5,-217.443 704.5,-209.091"/>
<polygon fill="midnightblue" stroke="midnightblue" points="708,-208.845 704.5,-198.845 701,-208.845 708,-208.845"/>
</g>
<!-- Node2 -->
<g id="node3" class="node"><title>Node2</title>
<g id="a_node3"><a xlink:href="FilteringAlgorithm_8h.html" target="_top" xlink:title="FilteringAlgorithm.h">
<polygon fill="white" stroke="black" points="215,-112.5 215,-131.5 316,-131.5 316,-112.5 215,-112.5"/>
<text text-anchor="middle" x="265.5" y="-119.5" font-family="Helvetica,sans-Serif" font-size="10.00">FilteringAlgorithm.h</text>
</a>
</g>
</g>
<!-- Node1&#45;&gt;Node2 -->
<g id="edge2" class="edge"><title>Node1&#45;&gt;Node2</title>
<path fill="none" stroke="midnightblue" d="M637.347,-173.398C552.583,-161.91 408.008,-142.315 326.344,-131.247"/>
<polygon fill="midnightblue" stroke="midnightblue" points="326.6,-127.749 316.221,-129.874 325.66,-134.686 326.6,-127.749"/>
</g>
<!-- Node8 -->
<g id="node9" class="node"><title>Node8</title>
<g id="a_node9"><a xlink:href="Initialization_8h.html" target="_top" xlink:title="Initialization.h">
<polygon fill="white" stroke="black" points="850.5,-112.5 850.5,-131.5 926.5,-131.5 926.5,-112.5 850.5,-112.5"/>
<text text-anchor="middle" x="888.5" y="-119.5" font-family="Helvetica,sans-Serif" font-size="10.00">Initialization.h</text>
</a>
</g>
</g>
<!-- Node1&#45;&gt;Node8 -->
<g id="edge8" class="edge"><title>Node1&#45;&gt;Node8</title>
<path fill="none" stroke="midnightblue" d="M748.105,-168.399C779.9,-158.118 822.474,-144.351 852.375,-134.682"/>
<polygon fill="midnightblue" stroke="midnightblue" points="853.557,-137.978 861.995,-131.571 851.403,-131.318 853.557,-137.978"/>
</g>
<!-- Node10 -->
<g id="node11" class="node"><title>Node10</title>
<g id="a_node11"><a xlink:href="PFVisualCorrection_8h.html" target="_top" xlink:title="PFVisualCorrection.h">
<polygon fill="white" stroke="black" points="516,-112.5 516,-131.5 625,-131.5 625,-112.5 516,-112.5"/>
<text text-anchor="middle" x="570.5" y="-119.5" font-family="Helvetica,sans-Serif" font-size="10.00">PFVisualCorrection.h</text>
</a>
</g>
</g>
<!-- Node1&#45;&gt;Node10 -->
<g id="edge10" class="edge"><title>Node1&#45;&gt;Node10</title>
<path fill="none" stroke="midnightblue" d="M672.744,-168.399C650.462,-158.505 620.909,-145.383 599.309,-135.792"/>
<polygon fill="midnightblue" stroke="midnightblue" points="600.558,-132.517 589.998,-131.658 597.717,-138.915 600.558,-132.517"/>
</g>
<!-- Node13 -->
<g id="node14" class="node"><title>Node13</title>
<polygon fill="white" stroke="#bfbfbf" points="598.5,-56.5 598.5,-75.5 650.5,-75.5 650.5,-56.5 598.5,-56.5"/>
<text text-anchor="middle" x="624.5" y="-63.5" font-family="Helvetica,sans-Serif" font-size="10.00">memory</text>
</g>
<!-- Node1&#45;&gt;Node13 -->
<g id="edge29" class="edge"><title>Node1&#45;&gt;Node13</title>
<path fill="none" stroke="midnightblue" d="M694.69,-168.337C679.949,-147.054 652.128,-106.887 636.299,-84.0346"/>
<polygon fill="midnightblue" stroke="midnightblue" points="639.076,-81.8972 630.505,-75.6695 633.322,-85.883 639.076,-81.8972"/>
</g>
<!-- Node14 -->
<g id="node15" class="node"><title>Node14</title>
<g id="a_node15"><a xlink:href="PFPrediction_8h.html" target="_top" xlink:title="PFPrediction.h">
<polygon fill="white" stroke="black" points="707,-112.5 707,-131.5 788,-131.5 788,-112.5 707,-112.5"/>
<text text-anchor="middle" x="747.5" y="-119.5" font-family="Helvetica,sans-Serif" font-size="10.00">PFPrediction.h</text>
</a>
</g>
</g>
<!-- Node1&#45;&gt;Node14 -->
<g id="edge18" class="edge"><title>Node1&#45;&gt;Node14</title>
<path fill="none" stroke="midnightblue" d="M714.69,-168.399C720.874,-159.842 728.803,-148.871 735.318,-139.857"/>
<polygon fill="midnightblue" stroke="midnightblue" points="738.222,-141.813 741.243,-131.658 732.549,-137.713 738.222,-141.813"/>
</g>
<!-- Node17 -->
<g id="node18" class="node"><title>Node17</title>
<g id="a_node18"><a xlink:href="Resampling_8h.html" target="_top" xlink:title="Resampling.h">
<polygon fill="white" stroke="black" points="964.5,-112.5 964.5,-131.5 1040.5,-131.5 1040.5,-112.5 964.5,-112.5"/>
<text text-anchor="middle" x="1002.5" y="-119.5" font-family="Helvetica,sans-Serif" font-size="10.00">Resampling.h</text>
</a>
</g>
</g>
<!-- Node1&#45;&gt;Node17 -->
<g id="edge26" class="edge"><title>Node1&#45;&gt;Node17</title>
<path fill="none" stroke="midnightblue" d="M771.749,-169.073C827.316,-157.978 904.855,-142.496 954.372,-132.609"/>
<polygon fill="midnightblue" stroke="midnightblue" points="955.07,-136.039 964.191,-130.649 953.699,-129.175 955.07,-136.039"/>
</g>
<!-- Node3 -->
<g id="node4" class="node"><title>Node3</title>
<polygon fill="white" stroke="#bfbfbf" points="101,-56.5 101,-75.5 194,-75.5 194,-56.5 101,-56.5"/>
<text text-anchor="middle" x="147.5" y="-63.5" font-family="Helvetica,sans-Serif" font-size="10.00">condition_variable</text>
</g>
<!-- Node2&#45;&gt;Node3 -->
<g id="edge3" class="edge"><title>Node2&#45;&gt;Node3</title>
<path fill="none" stroke="midnightblue" d="M246.803,-112.444C227.556,-103.636 197.348,-89.8116 175.3,-79.722"/>
<polygon fill="midnightblue" stroke="midnightblue" points="176.66,-76.4951 166.11,-75.5164 173.747,-82.8603 176.66,-76.4951"/>
</g>
<!-- Node4 -->
<g id="node5" class="node"><title>Node4</title>
<polygon fill="white" stroke="#bfbfbf" points="212.5,-56.5 212.5,-75.5 256.5,-75.5 256.5,-56.5 212.5,-56.5"/>
<text text-anchor="middle" x="234.5" y="-63.5" font-family="Helvetica,sans-Serif" font-size="10.00">mutex</text>
</g>
<!-- Node2&#45;&gt;Node4 -->
<g id="edge4" class="edge"><title>Node2&#45;&gt;Node4</title>
<path fill="none" stroke="midnightblue" d="M260.381,-112.083C256.092,-104.613 249.842,-93.7244 244.558,-84.5199"/>
<polygon fill="midnightblue" stroke="midnightblue" points="247.538,-82.6811 239.524,-75.7511 241.467,-86.1662 247.538,-82.6811"/>
</g>
<!-- Node5 -->
<g id="node6" class="node"><title>Node5</title>
<polygon fill="white" stroke="#bfbfbf" points="460,-0.5 460,-19.5 501,-19.5 501,-0.5 460,-0.5"/>
<text text-anchor="middle" x="480.5" y="-7.5" font-family="Helvetica,sans-Serif" font-size="10.00">string</text>
</g>
<!-- Node2&#45;&gt;Node5 -->
<g id="edge5" class="edge"><title>Node2&#45;&gt;Node5</title>
<path fill="none" stroke="midnightblue" d="M282.371,-112.368C319.814,-93.2113 410.067,-47.0355 454.666,-24.2172"/>
<polygon fill="midnightblue" stroke="midnightblue" points="456.399,-27.2621 463.708,-19.5914 453.211,-21.0304 456.399,-27.2621"/>
</g>
<!-- Node6 -->
<g id="node7" class="node"><title>Node6</title>
<polygon fill="white" stroke="#bfbfbf" points="274.5,-56.5 274.5,-75.5 318.5,-75.5 318.5,-56.5 274.5,-56.5"/>
<text text-anchor="middle" x="296.5" y="-63.5" font-family="Helvetica,sans-Serif" font-size="10.00">thread</text>
</g>
<!-- Node2&#45;&gt;Node6 -->
<g id="edge6" class="edge"><title>Node2&#45;&gt;Node6</title>
<path fill="none" stroke="midnightblue" d="M270.619,-112.083C274.908,-104.613 281.158,-93.7244 286.442,-84.5199"/>
<polygon fill="midnightblue" stroke="midnightblue" points="289.533,-86.1662 291.476,-75.7511 283.462,-82.6811 289.533,-86.1662"/>
</g>
<!-- Node7 -->
<g id="node8" class="node"><title>Node7</title>
<polygon fill="white" stroke="#bfbfbf" points="0,-56.5 0,-75.5 83,-75.5 83,-56.5 0,-56.5"/>
<text text-anchor="middle" x="41.5" y="-63.5" font-family="Helvetica,sans-Serif" font-size="10.00">unordered_map</text>
</g>
<!-- Node2&#45;&gt;Node7 -->
<g id="edge7" class="edge"><title>Node2&#45;&gt;Node7</title>
<path fill="none" stroke="midnightblue" d="M230.007,-112.444C191.176,-103.083 128.844,-88.0561 86.5821,-77.868"/>
<polygon fill="midnightblue" stroke="midnightblue" points="87.3692,-74.4576 76.8274,-75.5164 85.7286,-81.2626 87.3692,-74.4576"/>
</g>
<!-- Node9 -->
<g id="node10" class="node"><title>Node9</title>
<polygon fill="white" stroke="#bfbfbf" points="825.5,-0.5 825.5,-19.5 897.5,-19.5 897.5,-0.5 825.5,-0.5"/>
<text text-anchor="middle" x="861.5" y="-7.5" font-family="Helvetica,sans-Serif" font-size="10.00">Eigen/Dense</text>
</g>
<!-- Node8&#45;&gt;Node9 -->
<g id="edge9" class="edge"><title>Node8&#45;&gt;Node9</title>
<path fill="none" stroke="midnightblue" d="M904.305,-112.367C923.91,-100.466 953.281,-77.99 940.5,-56 931.764,-40.9696 915.922,-30.5428 900.705,-23.5405"/>
<polygon fill="midnightblue" stroke="midnightblue" points="901.955,-20.2692 891.381,-19.6125 899.238,-26.7202 901.955,-20.2692"/>
</g>
<!-- Node10&#45;&gt;Node9 -->
<g id="edge16" class="edge"><title>Node10&#45;&gt;Node9</title>
<path fill="none" stroke="midnightblue" d="M570.314,-112.331C570.52,-98.2451 573.135,-70.5044 589.5,-56 622.209,-27.011 746.673,-16.4814 815.335,-12.8268"/>
<polygon fill="midnightblue" stroke="midnightblue" points="815.637,-16.3161 825.448,-12.3168 815.284,-9.32502 815.637,-16.3161"/>
</g>
<!-- Node11 -->
<g id="node12" class="node"><title>Node11</title>
<g id="a_node12"><a xlink:href="VisualObservationModel_8h.html" target="_top" xlink:title="VisualObservationModel.h">
<polygon fill="white" stroke="black" points="413,-56.5 413,-75.5 542,-75.5 542,-56.5 413,-56.5"/>
<text text-anchor="middle" x="477.5" y="-63.5" font-family="Helvetica,sans-Serif" font-size="10.00">VisualObservationModel.h</text>
</a>
</g>
</g>
<!-- Node10&#45;&gt;Node11 -->
<g id="edge11" class="edge"><title>Node10&#45;&gt;Node11</title>
<path fill="none" stroke="midnightblue" d="M555.558,-112.324C540.915,-103.822 518.366,-90.7288 501.262,-80.7975"/>
<polygon fill="midnightblue" stroke="midnightblue" points="502.81,-77.6491 492.405,-75.6545 499.295,-83.7027 502.81,-77.6491"/>
</g>
<!-- Node12 -->
<g id="node13" class="node"><title>Node12</title>
<polygon fill="white" stroke="#bfbfbf" points="327.5,-0.5 327.5,-19.5 441.5,-19.5 441.5,-0.5 327.5,-0.5"/>
<text text-anchor="middle" x="384.5" y="-7.5" font-family="Helvetica,sans-Serif" font-size="10.00">opencv2/core/core.hpp</text>
</g>
<!-- Node10&#45;&gt;Node12 -->
<g id="edge17" class="edge"><title>Node10&#45;&gt;Node12</title>
<path fill="none" stroke="midnightblue" d="M515.638,-119.609C479.324,-115.801 433.109,-104.989 403.5,-76 391.303,-64.0584 386.829,-44.7549 385.242,-30.2809"/>
<polygon fill="midnightblue" stroke="midnightblue" points="388.707,-29.6632 384.495,-19.9413 381.725,-30.1675 388.707,-29.6632"/>
</g>
<!-- Node10&#45;&gt;Node13 -->
<g id="edge15" class="edge"><title>Node10&#45;&gt;Node13</title>
<path fill="none" stroke="midnightblue" d="M579.417,-112.083C587.28,-104.22 598.931,-92.5688 608.419,-83.0813"/>
<polygon fill="midnightblue" stroke="midnightblue" points="611.153,-85.2971 615.749,-75.7511 606.203,-80.3473 611.153,-85.2971"/>
</g>
<!-- Node11&#45;&gt;Node5 -->
<g id="edge14" class="edge"><title>Node11&#45;&gt;Node5</title>
<path fill="none" stroke="midnightblue" d="M477.995,-56.083C478.389,-49.0059 478.952,-38.8611 479.445,-29.9865"/>
<polygon fill="midnightblue" stroke="midnightblue" points="482.954,-29.9299 480.014,-19.7511 475.964,-29.5415 482.954,-29.9299"/>
</g>
<!-- Node11&#45;&gt;Node9 -->
<g id="edge12" class="edge"><title>Node11&#45;&gt;Node9</title>
<path fill="none" stroke="midnightblue" d="M538.346,-56.4435C615.287,-45.6237 746.055,-27.2345 815.3,-17.4968"/>
<polygon fill="midnightblue" stroke="midnightblue" points="816.047,-20.9263 825.463,-16.0678 815.073,-13.9945 816.047,-20.9263"/>
</g>
<!-- Node11&#45;&gt;Node12 -->
<g id="edge13" class="edge"><title>Node11&#45;&gt;Node12</title>
<path fill="none" stroke="midnightblue" d="M462.558,-56.324C447.915,-47.8215 425.366,-34.7288 408.262,-24.7975"/>
<polygon fill="midnightblue" stroke="midnightblue" points="409.81,-21.6491 399.405,-19.6545 406.295,-27.7027 409.81,-21.6491"/>
</g>
<!-- Node14&#45;&gt;Node5 -->
<g id="edge25" class="edge"><title>Node14&#45;&gt;Node5</title>
<path fill="none" stroke="midnightblue" d="M738.525,-112.462C723.424,-98.5639 691.444,-71.0872 659.5,-56 610.45,-32.8337 547.995,-20.628 511.315,-15.0174"/>
<polygon fill="midnightblue" stroke="midnightblue" points="511.644,-11.5285 501.243,-13.5444 510.631,-18.4548 511.644,-11.5285"/>
</g>
<!-- Node14&#45;&gt;Node9 -->
<g id="edge23" class="edge"><title>Node14&#45;&gt;Node9</title>
<path fill="none" stroke="midnightblue" d="M788.329,-115.177C830.813,-108.184 893.125,-94.9757 907.5,-76 920.413,-58.9539 900.926,-38.7754 883.479,-25.4738"/>
<polygon fill="midnightblue" stroke="midnightblue" points="885.39,-22.5377 875.228,-19.5402 881.303,-28.2206 885.39,-22.5377"/>
</g>
<!-- Node14&#45;&gt;Node13 -->
<g id="edge24" class="edge"><title>Node14&#45;&gt;Node13</title>
<path fill="none" stroke="midnightblue" d="M728.01,-112.444C707.858,-103.596 676.177,-89.6875 653.169,-79.5865"/>
<polygon fill="midnightblue" stroke="midnightblue" points="654.462,-76.3316 643.899,-75.5164 651.648,-82.7411 654.462,-76.3316"/>
</g>
<!-- Node15 -->
<g id="node16" class="node"><title>Node15</title>
<g id="a_node16"><a xlink:href="ExogenousModel_8h.html" target="_top" xlink:title="ExogenousModel.h">
<polygon fill="white" stroke="black" points="706.5,-56.5 706.5,-75.5 806.5,-75.5 806.5,-56.5 706.5,-56.5"/>
<text text-anchor="middle" x="756.5" y="-63.5" font-family="Helvetica,sans-Serif" font-size="10.00">ExogenousModel.h</text>
</a>
</g>
</g>
<!-- Node14&#45;&gt;Node15 -->
<g id="edge19" class="edge"><title>Node14&#45;&gt;Node15</title>
<path fill="none" stroke="midnightblue" d="M748.986,-112.083C750.179,-104.927 751.894,-94.6353 753.385,-85.6911"/>
<polygon fill="midnightblue" stroke="midnightblue" points="756.85,-86.1904 755.041,-75.7511 749.945,-85.0396 756.85,-86.1904"/>
</g>
<!-- Node16 -->
<g id="node17" class="node"><title>Node16</title>
<g id="a_node17"><a xlink:href="StateModel_8h.html" target="_top" xlink:title="StateModel.h">
<polygon fill="white" stroke="black" points="824.5,-56.5 824.5,-75.5 898.5,-75.5 898.5,-56.5 824.5,-56.5"/>
<text text-anchor="middle" x="861.5" y="-63.5" font-family="Helvetica,sans-Serif" font-size="10.00">StateModel.h</text>
</a>
</g>
</g>
<!-- Node14&#45;&gt;Node16 -->
<g id="edge21" class="edge"><title>Node14&#45;&gt;Node16</title>
<path fill="none" stroke="midnightblue" d="M765.564,-112.444C784.075,-103.675 813.081,-89.9355 834.355,-79.8579"/>
<polygon fill="midnightblue" stroke="midnightblue" points="835.982,-82.9604 843.521,-75.5164 832.985,-76.6343 835.982,-82.9604"/>
</g>
<!-- Node15&#45;&gt;Node9 -->
<g id="edge20" class="edge"><title>Node15&#45;&gt;Node9</title>
<path fill="none" stroke="midnightblue" d="M773.37,-56.324C790.209,-47.6641 816.307,-34.2424 835.738,-24.249"/>
<polygon fill="midnightblue" stroke="midnightblue" points="837.38,-27.3405 844.672,-19.6545 834.178,-21.1155 837.38,-27.3405"/>
</g>
<!-- Node16&#45;&gt;Node9 -->
<g id="edge22" class="edge"><title>Node16&#45;&gt;Node9</title>
<path fill="none" stroke="midnightblue" d="M861.5,-56.083C861.5,-49.0059 861.5,-38.8611 861.5,-29.9865"/>
<polygon fill="midnightblue" stroke="midnightblue" points="865,-29.751 861.5,-19.7511 858,-29.7511 865,-29.751"/>
</g>
<!-- Node17&#45;&gt;Node9 -->
<g id="edge28" class="edge"><title>Node17&#45;&gt;Node9</title>
<path fill="none" stroke="midnightblue" d="M998.253,-112.35C991.22,-98.7822 975.978,-72.361 956.5,-56 939.364,-41.6063 916.847,-30.6768 898.036,-23.1954"/>
<polygon fill="midnightblue" stroke="midnightblue" points="899.176,-19.8844 888.585,-19.5974 896.686,-26.4263 899.176,-19.8844"/>
</g>
<!-- Node18 -->
<g id="node19" class="node"><title>Node18</title>
<polygon fill="white" stroke="#bfbfbf" points="1031,-56.5 1031,-75.5 1080,-75.5 1080,-56.5 1031,-56.5"/>
<text text-anchor="middle" x="1055.5" y="-63.5" font-family="Helvetica,sans-Serif" font-size="10.00">random</text>
</g>
<!-- Node17&#45;&gt;Node18 -->
<g id="edge27" class="edge"><title>Node17&#45;&gt;Node18</title>
<path fill="none" stroke="midnightblue" d="M1011.25,-112.083C1018.97,-104.22 1030.4,-92.5688 1039.72,-83.0813"/>
<polygon fill="midnightblue" stroke="midnightblue" points="1042.4,-85.3396 1046.91,-75.7511 1037.41,-80.4363 1042.4,-85.3396"/>
</g>
</g>
</svg>
