<?xml version="1.0" encoding="UTF-8" standalone="no"?>
<!DOCTYPE svg PUBLIC "-//W3C//DTD SVG 1.1//EN"
 "http://www.w3.org/Graphics/SVG/1.1/DTD/svg11.dtd">
<!-- Generated by graphviz version 2.38.0 (20140413.2041)
 -->
<!-- Title: C:/Users/cfantacci/GitHub/bayes&#45;filters&#45;lib/src/BayesFilters/include/BayesFilters/VisualParticleFilter.h Pages: 1 -->
<svg width="179pt" height="161pt"
 viewBox="0.00 0.00 179.00 161.00" xmlns="http://www.w3.org/2000/svg" xmlns:xlink="http://www.w3.org/1999/xlink">
<g id="graph0" class="graph" transform="scale(1 1) rotate(0) translate(4 157)">
<title>C:/Users/cfantacci/GitHub/bayes&#45;filters&#45;lib/src/BayesFilters/include/BayesFilters/VisualParticleFilter.h</title>
<polygon fill="white" stroke="none" points="-4,4 -4,-157 175,-157 175,4 -4,4"/>
<!-- Node18 -->
<g id="node1" class="node"><title>Node18</title>
<polygon fill="#bfbfbf" stroke="black" points="0,-89.5 0,-152.5 171,-152.5 171,-89.5 0,-89.5"/>
<text text-anchor="start" x="8" y="-140.5" font-family="Helvetica,sans-Serif" font-size="10.00">C:/Users/cfantacci</text>
<text text-anchor="start" x="8" y="-129.5" font-family="Helvetica,sans-Serif" font-size="10.00">/GitHub/bayes&#45;filters</text>
<text text-anchor="start" x="8" y="-118.5" font-family="Helvetica,sans-Serif" font-size="10.00">&#45;lib/src/BayesFilters</text>
<text text-anchor="start" x="8" y="-107.5" font-family="Helvetica,sans-Serif" font-size="10.00">/include/BayesFilters/VisualParticle</text>
<text text-anchor="middle" x="85.5" y="-96.5" font-family="Helvetica,sans-Serif" font-size="10.00">Filter.h</text>
</g>
<!-- Node19 -->
<g id="node2" class="node"><title>Node19</title>
<g id="a_node2"><a xlink:href="VisualParticleFilter_8cpp.html" target="_top" xlink:title="C:/Users/cfantacci\l/GitHub/bayes&#45;filters\l&#45;lib/src/BayesFilters\l/src/VisualParticleFilter.cpp">
<polygon fill="white" stroke="black" points="17,-0.5 17,-52.5 154,-52.5 154,-0.5 17,-0.5"/>
<text text-anchor="start" x="25" y="-40.5" font-family="Helvetica,sans-Serif" font-size="10.00">C:/Users/cfantacci</text>
<text text-anchor="start" x="25" y="-29.5" font-family="Helvetica,sans-Serif" font-size="10.00">/GitHub/bayes&#45;filters</text>
<text text-anchor="start" x="25" y="-18.5" font-family="Helvetica,sans-Serif" font-size="10.00">&#45;lib/src/BayesFilters</text>
<text text-anchor="middle" x="85.5" y="-7.5" font-family="Helvetica,sans-Serif" font-size="10.00">/src/VisualParticleFilter.cpp</text>
</a>
</g>
</g>
<!-- Node18&#45;&gt;Node19 -->
<g id="edge1" class="edge"><title>Node18&#45;&gt;Node19</title>
<path fill="none" stroke="midnightblue" d="M85.5,-79.4229C85.5,-70.3585 85.5,-60.999 85.5,-52.7655"/>
<polygon fill="midnightblue" stroke="midnightblue" points="82.0001,-79.4556 85.5,-89.4557 89.0001,-79.4557 82.0001,-79.4556"/>
</g>
</g>
</svg>
