<?xml version="1.0" encoding="UTF-8" standalone="no"?>
<!DOCTYPE svg PUBLIC "-//W3C//DTD SVG 1.1//EN"
 "http://www.w3.org/Graphics/SVG/1.1/DTD/svg11.dtd">
<!-- Generated by graphviz version 2.38.0 (20140413.2041)
 -->
<!-- Title: C:/Users/cfantacci/GitHub/bayes&#45;filters&#45;lib/src/BayesFilters/include/BayesFilters/VisualObservationModel.h Pages: 1 -->
<svg width="272pt" height="128pt"
 viewBox="0.00 0.00 271.50 128.00" xmlns="http://www.w3.org/2000/svg" xmlns:xlink="http://www.w3.org/1999/xlink">
<g id="graph0" class="graph" transform="scale(1 1) rotate(0) translate(4 124)">
<title>C:/Users/cfantacci/GitHub/bayes&#45;filters&#45;lib/src/BayesFilters/include/BayesFilters/VisualObservationModel.h</title>
<polygon fill="white" stroke="none" points="-4,4 -4,-124 267.5,-124 267.5,4 -4,4"/>
<!-- Node0 -->
<g id="node1" class="node"><title>Node0</title>
<polygon fill="#bfbfbf" stroke="black" points="52.5,-56.5 52.5,-119.5 241.5,-119.5 241.5,-56.5 52.5,-56.5"/>
<text text-anchor="start" x="60.5" y="-107.5" font-family="Helvetica,sans-Serif" font-size="10.00">C:/Users/cfantacci</text>
<text text-anchor="start" x="60.5" y="-96.5" font-family="Helvetica,sans-Serif" font-size="10.00">/GitHub/bayes&#45;filters</text>
<text text-anchor="start" x="60.5" y="-85.5" font-family="Helvetica,sans-Serif" font-size="10.00">&#45;lib/src/BayesFilters</text>
<text text-anchor="start" x="60.5" y="-74.5" font-family="Helvetica,sans-Serif" font-size="10.00">/include/BayesFilters/VisualObservation</text>
<text text-anchor="middle" x="147" y="-63.5" font-family="Helvetica,sans-Serif" font-size="10.00">Model.h</text>
</g>
<!-- Node1 -->
<g id="node2" class="node"><title>Node1</title>
<polygon fill="white" stroke="#bfbfbf" points="0,-0.5 0,-19.5 72,-19.5 72,-0.5 0,-0.5"/>
<text text-anchor="middle" x="36" y="-7.5" font-family="Helvetica,sans-Serif" font-size="10.00">Eigen/Dense</text>
</g>
<!-- Node0&#45;&gt;Node1 -->
<g id="edge1" class="edge"><title>Node0&#45;&gt;Node1</title>
<path fill="none" stroke="midnightblue" d="M102.172,-56.307C86.6785,-45.6988 70.0318,-34.3011 57.3108,-25.5912"/>
<polygon fill="midnightblue" stroke="midnightblue" points="59.043,-22.5354 48.8144,-19.7738 55.0883,-28.3113 59.043,-22.5354"/>
</g>
<!-- Node2 -->
<g id="node3" class="node"><title>Node2</title>
<polygon fill="white" stroke="#bfbfbf" points="90,-0.5 90,-19.5 204,-19.5 204,-0.5 90,-0.5"/>
<text text-anchor="middle" x="147" y="-7.5" font-family="Helvetica,sans-Serif" font-size="10.00">opencv2/core/core.hpp</text>
</g>
<!-- Node0&#45;&gt;Node2 -->
<g id="edge2" class="edge"><title>Node0&#45;&gt;Node2</title>
<path fill="none" stroke="midnightblue" d="M147,-56.0879C147,-47.1496 147,-37.6688 147,-29.7195"/>
<polygon fill="midnightblue" stroke="midnightblue" points="150.5,-29.7181 147,-19.7182 143.5,-29.7182 150.5,-29.7181"/>
</g>
<!-- Node3 -->
<g id="node4" class="node"><title>Node3</title>
<polygon fill="white" stroke="#bfbfbf" points="222.5,-0.5 222.5,-19.5 263.5,-19.5 263.5,-0.5 222.5,-0.5"/>
<text text-anchor="middle" x="243" y="-7.5" font-family="Helvetica,sans-Serif" font-size="10.00">string</text>
</g>
<!-- Node0&#45;&gt;Node3 -->
<g id="edge3" class="edge"><title>Node0&#45;&gt;Node3</title>
<path fill="none" stroke="midnightblue" d="M185.77,-56.307C198.91,-45.9047 213.008,-34.7434 223.924,-26.1016"/>
<polygon fill="midnightblue" stroke="midnightblue" points="226.249,-28.7251 231.917,-19.7738 221.904,-23.2367 226.249,-28.7251"/>
</g>
</g>
</svg>
