<?xml version="1.0" encoding="UTF-8" standalone="no"?>
<!DOCTYPE svg PUBLIC "-//W3C//DTD SVG 1.1//EN"
 "http://www.w3.org/Graphics/SVG/1.1/DTD/svg11.dtd">
<!-- Generated by graphviz version 2.38.0 (20140413.2041)
 -->
<!-- Title: C:/Users/cfantacci/GitHub/bayes&#45;filters&#45;lib/src/BayesFilters/include/BayesFilters/WhiteNoiseAcceleration.h Pages: 1 -->
<svg width="226pt" height="184pt"
 viewBox="0.00 0.00 226.00 184.00" xmlns="http://www.w3.org/2000/svg" xmlns:xlink="http://www.w3.org/1999/xlink">
<g id="graph0" class="graph" transform="scale(1 1) rotate(0) translate(4 180)">
<title>C:/Users/cfantacci/GitHub/bayes&#45;filters&#45;lib/src/BayesFilters/include/BayesFilters/WhiteNoiseAcceleration.h</title>
<polygon fill="white" stroke="none" points="-4,4 -4,-180 222,-180 222,4 -4,4"/>
<!-- Node0 -->
<g id="node1" class="node"><title>Node0</title>
<polygon fill="#bfbfbf" stroke="black" points="20.5,-112.5 20.5,-175.5 181.5,-175.5 181.5,-112.5 20.5,-112.5"/>
<text text-anchor="start" x="28.5" y="-163.5" font-family="Helvetica,sans-Serif" font-size="10.00">C:/Users/cfantacci</text>
<text text-anchor="start" x="28.5" y="-152.5" font-family="Helvetica,sans-Serif" font-size="10.00">/GitHub/bayes&#45;filters</text>
<text text-anchor="start" x="28.5" y="-141.5" font-family="Helvetica,sans-Serif" font-size="10.00">&#45;lib/src/BayesFilters</text>
<text text-anchor="start" x="28.5" y="-130.5" font-family="Helvetica,sans-Serif" font-size="10.00">/include/BayesFilters/WhiteNoise</text>
<text text-anchor="middle" x="101" y="-119.5" font-family="Helvetica,sans-Serif" font-size="10.00">Acceleration.h</text>
</g>
<!-- Node1 -->
<g id="node2" class="node"><title>Node1</title>
<polygon fill="white" stroke="#bfbfbf" points="0,-56.5 0,-75.5 58,-75.5 58,-56.5 0,-56.5"/>
<text text-anchor="middle" x="29" y="-63.5" font-family="Helvetica,sans-Serif" font-size="10.00">functional</text>
</g>
<!-- Node0&#45;&gt;Node1 -->
<g id="edge1" class="edge"><title>Node0&#45;&gt;Node1</title>
<path fill="none" stroke="midnightblue" d="M71.7148,-112.088C62.2736,-102.122 52.1936,-91.4822 44.1979,-83.0422"/>
<polygon fill="midnightblue" stroke="midnightblue" points="46.6776,-80.5706 37.2593,-75.7182 41.5959,-85.3848 46.6776,-80.5706"/>
</g>
<!-- Node2 -->
<g id="node3" class="node"><title>Node2</title>
<polygon fill="white" stroke="#bfbfbf" points="76.5,-56.5 76.5,-75.5 125.5,-75.5 125.5,-56.5 76.5,-56.5"/>
<text text-anchor="middle" x="101" y="-63.5" font-family="Helvetica,sans-Serif" font-size="10.00">random</text>
</g>
<!-- Node0&#45;&gt;Node2 -->
<g id="edge2" class="edge"><title>Node0&#45;&gt;Node2</title>
<path fill="none" stroke="midnightblue" d="M101,-112.088C101,-103.15 101,-93.6688 101,-85.7195"/>
<polygon fill="midnightblue" stroke="midnightblue" points="104.5,-85.7181 101,-75.7182 97.5001,-85.7182 104.5,-85.7181"/>
</g>
<!-- Node3 -->
<g id="node4" class="node"><title>Node3</title>
<g id="a_node4"><a xlink:href="StateModel_8h.html" target="_top" xlink:title="StateModel.h">
<polygon fill="white" stroke="black" points="144,-56.5 144,-75.5 218,-75.5 218,-56.5 144,-56.5"/>
<text text-anchor="middle" x="181" y="-63.5" font-family="Helvetica,sans-Serif" font-size="10.00">StateModel.h</text>
</a>
</g>
</g>
<!-- Node0&#45;&gt;Node3 -->
<g id="edge3" class="edge"><title>Node0&#45;&gt;Node3</title>
<path fill="none" stroke="midnightblue" d="M133.539,-112.088C144.137,-102.019 155.46,-91.2627 164.388,-82.7819"/>
<polygon fill="midnightblue" stroke="midnightblue" points="166.984,-85.1432 171.823,-75.7182 162.162,-80.0682 166.984,-85.1432"/>
</g>
<!-- Node4 -->
<g id="node5" class="node"><title>Node4</title>
<polygon fill="white" stroke="#bfbfbf" points="145,-0.5 145,-19.5 217,-19.5 217,-0.5 145,-0.5"/>
<text text-anchor="middle" x="181" y="-7.5" font-family="Helvetica,sans-Serif" font-size="10.00">Eigen/Dense</text>
</g>
<!-- Node3&#45;&gt;Node4 -->
<g id="edge4" class="edge"><title>Node3&#45;&gt;Node4</title>
<path fill="none" stroke="midnightblue" d="M181,-56.083C181,-49.0059 181,-38.8611 181,-29.9865"/>
<polygon fill="midnightblue" stroke="midnightblue" points="184.5,-29.751 181,-19.7511 177.5,-29.7511 184.5,-29.751"/>
</g>
</g>
</svg>
