<?xml version="1.0" encoding="UTF-8" standalone="no"?>
<!DOCTYPE svg PUBLIC "-//W3C//DTD SVG 1.1//EN"
 "http://www.w3.org/Graphics/SVG/1.1/DTD/svg11.dtd">
<!-- Generated by graphviz version 2.38.0 (20140413.2041)
 -->
<!-- Title: C:/Users/cfantacci/GitHub/bayes&#45;filters&#45;lib/src/BayesFilters/src/WhiteNoiseAcceleration.cpp Pages: 1 -->
<svg width="427pt" height="229pt"
 viewBox="0.00 0.00 426.50 229.00" xmlns="http://www.w3.org/2000/svg" xmlns:xlink="http://www.w3.org/1999/xlink">
<g id="graph0" class="graph" transform="scale(1 1) rotate(0) translate(4 225)">
<title>C:/Users/cfantacci/GitHub/bayes&#45;filters&#45;lib/src/BayesFilters/src/WhiteNoiseAcceleration.cpp</title>
<polygon fill="white" stroke="none" points="-4,4 -4,-225 422.5,-225 422.5,4 -4,4"/>
<!-- Node0 -->
<g id="node1" class="node"><title>Node0</title>
<polygon fill="#bfbfbf" stroke="black" points="185.5,-168.5 185.5,-220.5 344.5,-220.5 344.5,-168.5 185.5,-168.5"/>
<text text-anchor="start" x="193.5" y="-208.5" font-family="Helvetica,sans-Serif" font-size="10.00">C:/Users/cfantacci</text>
<text text-anchor="start" x="193.5" y="-197.5" font-family="Helvetica,sans-Serif" font-size="10.00">/GitHub/bayes&#45;filters</text>
<text text-anchor="start" x="193.5" y="-186.5" font-family="Helvetica,sans-Serif" font-size="10.00">&#45;lib/src/BayesFilters</text>
<text text-anchor="middle" x="265" y="-175.5" font-family="Helvetica,sans-Serif" font-size="10.00">/src/WhiteNoiseAcceleration.cpp</text>
</g>
<!-- Node1 -->
<g id="node2" class="node"><title>Node1</title>
<g id="a_node2"><a xlink:href="WhiteNoiseAcceleration_8h.html" target="_top" xlink:title="BayesFilters/WhiteNoiseAcceleration.h">
<polygon fill="white" stroke="black" points="7.5,-112.5 7.5,-131.5 194.5,-131.5 194.5,-112.5 7.5,-112.5"/>
<text text-anchor="middle" x="101" y="-119.5" font-family="Helvetica,sans-Serif" font-size="10.00">BayesFilters/WhiteNoiseAcceleration.h</text>
</a>
</g>
</g>
<!-- Node0&#45;&gt;Node1 -->
<g id="edge1" class="edge"><title>Node0&#45;&gt;Node1</title>
<path fill="none" stroke="midnightblue" d="M206.718,-168.446C180.808,-157.308 151.44,-144.683 130.245,-135.572"/>
<polygon fill="midnightblue" stroke="midnightblue" points="131.405,-132.261 120.836,-131.527 128.641,-138.692 131.405,-132.261"/>
</g>
<!-- Node6 -->
<g id="node7" class="node"><title>Node6</title>
<polygon fill="white" stroke="#bfbfbf" points="213,-112.5 213,-131.5 257,-131.5 257,-112.5 213,-112.5"/>
<text text-anchor="middle" x="235" y="-119.5" font-family="Helvetica,sans-Serif" font-size="10.00">cmath</text>
</g>
<!-- Node0&#45;&gt;Node6 -->
<g id="edge6" class="edge"><title>Node0&#45;&gt;Node6</title>
<path fill="none" stroke="midnightblue" d="M254.339,-168.446C250.502,-159.43 246.251,-149.44 242.714,-141.127"/>
<polygon fill="midnightblue" stroke="midnightblue" points="245.836,-139.527 238.7,-131.695 239.395,-142.268 245.836,-139.527"/>
</g>
<!-- Node7 -->
<g id="node8" class="node"><title>Node7</title>
<polygon fill="white" stroke="#bfbfbf" points="275,-112.5 275,-131.5 315,-131.5 315,-112.5 275,-112.5"/>
<text text-anchor="middle" x="295" y="-119.5" font-family="Helvetica,sans-Serif" font-size="10.00">utility</text>
</g>
<!-- Node0&#45;&gt;Node7 -->
<g id="edge7" class="edge"><title>Node0&#45;&gt;Node7</title>
<path fill="none" stroke="midnightblue" d="M275.661,-168.446C279.498,-159.43 283.749,-149.44 287.286,-141.127"/>
<polygon fill="midnightblue" stroke="midnightblue" points="290.605,-142.268 291.3,-131.695 284.164,-139.527 290.605,-142.268"/>
</g>
<!-- Node8 -->
<g id="node9" class="node"><title>Node8</title>
<polygon fill="white" stroke="#bfbfbf" points="333.5,-112.5 333.5,-131.5 418.5,-131.5 418.5,-112.5 333.5,-112.5"/>
<text text-anchor="middle" x="376" y="-119.5" font-family="Helvetica,sans-Serif" font-size="10.00">Eigen/Cholesky</text>
</g>
<!-- Node0&#45;&gt;Node8 -->
<g id="edge8" class="edge"><title>Node0&#45;&gt;Node8</title>
<path fill="none" stroke="midnightblue" d="M304.447,-168.446C321.111,-157.862 339.888,-145.936 354.024,-136.958"/>
<polygon fill="midnightblue" stroke="midnightblue" points="356.01,-139.843 362.575,-131.527 352.257,-133.934 356.01,-139.843"/>
</g>
<!-- Node2 -->
<g id="node3" class="node"><title>Node2</title>
<polygon fill="white" stroke="#bfbfbf" points="0,-56.5 0,-75.5 58,-75.5 58,-56.5 0,-56.5"/>
<text text-anchor="middle" x="29" y="-63.5" font-family="Helvetica,sans-Serif" font-size="10.00">functional</text>
</g>
<!-- Node1&#45;&gt;Node2 -->
<g id="edge2" class="edge"><title>Node1&#45;&gt;Node2</title>
<path fill="none" stroke="midnightblue" d="M89.432,-112.324C78.5798,-104.185 62.1193,-91.8395 49.1166,-82.0874"/>
<polygon fill="midnightblue" stroke="midnightblue" points="50.8786,-79.0339 40.7785,-75.8339 46.6785,-84.6339 50.8786,-79.0339"/>
</g>
<!-- Node3 -->
<g id="node4" class="node"><title>Node3</title>
<polygon fill="white" stroke="#bfbfbf" points="76.5,-56.5 76.5,-75.5 125.5,-75.5 125.5,-56.5 76.5,-56.5"/>
<text text-anchor="middle" x="101" y="-63.5" font-family="Helvetica,sans-Serif" font-size="10.00">random</text>
</g>
<!-- Node1&#45;&gt;Node3 -->
<g id="edge3" class="edge"><title>Node1&#45;&gt;Node3</title>
<path fill="none" stroke="midnightblue" d="M101,-112.083C101,-105.006 101,-94.8611 101,-85.9865"/>
<polygon fill="midnightblue" stroke="midnightblue" points="104.5,-85.751 101,-75.7511 97.5001,-85.7511 104.5,-85.751"/>
</g>
<!-- Node4 -->
<g id="node5" class="node"><title>Node4</title>
<g id="a_node5"><a xlink:href="StateModel_8h.html" target="_top" xlink:title="StateModel.h">
<polygon fill="white" stroke="black" points="144,-56.5 144,-75.5 218,-75.5 218,-56.5 144,-56.5"/>
<text text-anchor="middle" x="181" y="-63.5" font-family="Helvetica,sans-Serif" font-size="10.00">StateModel.h</text>
</a>
</g>
</g>
<!-- Node1&#45;&gt;Node4 -->
<g id="edge4" class="edge"><title>Node1&#45;&gt;Node4</title>
<path fill="none" stroke="midnightblue" d="M113.853,-112.324C126.216,-103.979 145.13,-91.2122 159.737,-81.3524"/>
<polygon fill="midnightblue" stroke="midnightblue" points="161.848,-84.1503 168.179,-75.6545 157.932,-78.3483 161.848,-84.1503"/>
</g>
<!-- Node5 -->
<g id="node6" class="node"><title>Node5</title>
<polygon fill="white" stroke="#bfbfbf" points="145,-0.5 145,-19.5 217,-19.5 217,-0.5 145,-0.5"/>
<text text-anchor="middle" x="181" y="-7.5" font-family="Helvetica,sans-Serif" font-size="10.00">Eigen/Dense</text>
</g>
<!-- Node4&#45;&gt;Node5 -->
<g id="edge5" class="edge"><title>Node4&#45;&gt;Node5</title>
<path fill="none" stroke="midnightblue" d="M181,-56.083C181,-49.0059 181,-38.8611 181,-29.9865"/>
<polygon fill="midnightblue" stroke="midnightblue" points="184.5,-29.751 181,-19.7511 177.5,-29.7511 184.5,-29.751"/>
</g>
</g>
</svg>
